<?xml version="1.0" standalone="no"?>
<!DOCTYPE svg PUBLIC "-//W3C//DTD SVG 1.1//EN" "http://www.w3.org/Graphics/SVG/1.1/DTD/svg11.dtd" >
<svg>
<metadata>
Created by FontForge 20110222 at Tue Mar 19 13:18:50 2013
 By Orthosie Webmaster
(C) 1993 B &#38; P Graphics, Ltd.
</metadata>
<defs>
<font id="CongressHeavyRegular" horiz-adv-x="622" >
  <font-face 
    font-family="CongressHeavyRegular"
    font-weight="100"
    font-stretch="normal"
    units-per-em="1000"
    panose-1="0 0 0 0 0 0 0 0 0 0"
    ascent="800"
    descent="-200"
    x-height="539"
    cap-height="721"
    bbox="-90 -261 1071 1006"
    underline-thickness="50"
    underline-position="-75"
    unicode-range="U+0020-F002"
  />
<missing-glyph horiz-adv-x="1006" 
d="M62 0v1006h882v-1006h-882zM882 62v882h-758v-882h758z" />
    <glyph glyph-name=".notdef" horiz-adv-x="1006" 
d="M62 0v1006h882v-1006h-882zM882 62v882h-758v-882h758z" />
    <glyph glyph-name="glyph1" horiz-adv-x="0" 
 />
    <glyph glyph-name="nonmarkingreturn" horiz-adv-x="290" 
 />
    <glyph glyph-name="space" unicode=" " horiz-adv-x="290" 
 />
    <glyph glyph-name="exclam" unicode="!" horiz-adv-x="279" 
d="M250 736l-16 -144q-3 -34 -5 -66.5t-2 -63.5l-3 -133l1 -97l-134 -17q0 60 -6 117l-14 131q0 39 -15 130q-5 31 -20 118zM155 169q44 0 73 -23.5t29 -60.5q0 -43 -32 -69.5t-83 -26.5q-39 0 -64 24t-25 65t28 66t74 25z" />
    <glyph glyph-name="quotedbl" unicode="&#x22;" horiz-adv-x="496" 
d="M31 440l32 36l25 34l28 46l-20 -2q-30 0 -50.5 21.5t-20.5 53.5q0 42 30 72t76 30q44 0 73.5 -30.5t29.5 -77.5q0 -29 -7 -54t-25 -56q-31 -52 -49 -77l-46 -53zM269 440q37 40 57 70l29 46l-20 -2q-30 0 -50.5 21.5t-20.5 53.5q0 42 30 72t75 30q44 0 73.5 -30.5
t29.5 -77.5q0 -54 -31 -109t-49 -78l-46 -53z" />
    <glyph glyph-name="numbersign" unicode="#" horiz-adv-x="634" 
d="M44 274h116l36 172h-115l15 72h116l42 202h72l-42 -202h86l43 202h72l-43 -202h115l-15 -72h-115l-37 -172h115l-15 -72h-115l-43 -202h-72l43 202h-87l-43 -202h-72l43 202h-115zM318 274l37 172h-87l-36 -172h86z" />
    <glyph glyph-name="dollar" unicode="$" horiz-adv-x="583" 
d="M229 791h161v-77l24 -1l20 -2h31q12 -3 18 -4l47 -6l-1 -44l3 -91l3 -71l-124 2l-7 32q-1 9 -2 13.5t-6.5 21t-16.5 27.5q-8 11 -29 16t-29.5 5.5t-13.5 0.5q-43 0 -67.5 -17t-24.5 -47q0 -13 8.5 -29.5t27.5 -30.5q18 -10 84 -32t113 -50.5t76.5 -69.5t29.5 -119
q0 -84 -48 -146t-128 -80v-63h-160v59l-19 3l-14 3l-91 10l-37 5l-2 59l-3 58l-4 113l118 -1v-7q0 -48 30 -79t81 -31q39 0 65 17t26 45q0 14 -9.5 31t-27 27t-80.5 29.5t-102 38.5q-19 10 -39.5 26.5t-41.5 38.5q-41 46 -41 127q0 97 40 138.5t58 53.5l36 20l28 9
q12 3 40 3v66z" />
    <glyph glyph-name="percent" unicode="%" horiz-adv-x="976" 
d="M221 718q92 0 145 -51.5t53 -144.5t-51.5 -146t-146.5 -53q-91 0 -145 52.5t-54 143.5q0 92 52.5 145.5t146.5 53.5zM587 733h133l-324 -743h-127zM756 387q93 0 146 -51.5t53 -144.5t-53 -146t-146 -53q-91 0 -145 53t-54 143q0 92 52.5 145.5t146.5 53.5zM174 544l1 -7
v-14l-1 -19q0 -66 45 -66q48 0 48 60v9v16v15q0 66 -50 66q-43 0 -43 -60zM802 192v21q0 27 -12.5 44t-35.5 17q-44 0 -44 -61v-21v-26q0 -60 46 -60t46 60v26z" />
    <glyph glyph-name="ampersand" unicode="&#x26;" horiz-adv-x="746" 
d="M123 549q0 85 60.5 134.5t165.5 49.5h29t29.5 -3t31.5 -6t34 -11q34 -12 63.5 -56.5t29.5 -98.5q0 -122 -144 -194l15 -22l13 -19l16 -18l23 -23l34 33l22 27l27 43l114 -73l-26 -44l-24 -37l-50 -65l52 -62l35 -40l66 -64l-216 -1q-11 20 -24 34l-29 32
q-122 -78 -226 -78q-94 0 -155.5 57.5t-61.5 146.5q0 36 15.5 78t35 63t41.5 39l32 22l32 16q-60 83 -60 140zM283 293q-72 -38 -72 -94q0 -31 21 -52q22 -19 57 -19l26 3q18 4 27 8l35 23l-36 40l-20 26l-16 25zM338 477q66 33 66 93q0 45 -49 45q-25 0 -39.5 -17
t-14.5 -43q0 -48 37 -78z" />
    <glyph glyph-name="quotesingle" unicode="'" horiz-adv-x="258" 
d="M31 440l32 36l25 34l28 46l-20 -2q-30 0 -50.5 21.5t-20.5 53.5q0 42 30 72t76 30q44 0 73.5 -30.5t29.5 -77.5q0 -29 -7 -54t-25 -56q-31 -52 -49 -77l-46 -53z" />
    <glyph glyph-name="parenleft" unicode="(" horiz-adv-x="342" 
d="M333 778l-41 -122q-3 -11 -15 -59.5t-23 -92.5q-22 -104 -22 -198q0 -116 26 -224l37 -144l39 -110h-93q-51 58 -78.5 98.5t-77 142.5t-49.5 230q0 34 4 69t13 69q17 73 48.5 134.5t58.5 104.5q24 36 78 102h95z" />
    <glyph glyph-name="parenright" unicode=")" horiz-adv-x="342" 
d="M101 778q57 -66 81 -103q12 -17 31.5 -53t43.5 -87q49 -104 49 -228q0 -133 -48 -233.5t-75.5 -142.5t-78.5 -103h-95l41 125q14 46 36.5 149t22.5 199q0 59 -6 111.5t-19.5 107t-22.5 90t-15 55t-15 48t-23 65.5h93z" />
    <glyph glyph-name="asterisk" unicode="*" horiz-adv-x="478" 
d="M44 568l11 38l10 49l37 -28l30 -20l33 -19l39 -18l-17 65l-29 95l44 -5l35 -1q39 0 57 3l34 4q-24 -45 -36 -78q-4 -12 -8.5 -33t-8.5 -47q39 20 58 34l33 27l32 31l12 -48l14 -44q5 -12 12.5 -29t19.5 -42l-38 5l-77 4l-43 -1l48 -39l34 -25l42 -27l-42 -24l-33 -22
q-16 -11 -35 -28l-28 -25l-7 32l-10 39l-22 73l-22 -45l-13 -38q-5 -21 -10 -64l-30 24l-37 25q-24 16 -68 37l56 49l73 56l-80 -2l-92 -5l12 33z" />
    <glyph glyph-name="plus" unicode="+" 
d="M41 430h195v192h149v-193h196v-152h-197v-197h-148v196h-195v154z" />
    <glyph glyph-name="comma" unicode="," horiz-adv-x="258" 
d="M31 -128q17 19 21 24q9 11 15 20l21 27l28 45l-20 -1q-28 0 -49.5 21.5t-21.5 54.5q0 41 30 71t76 30q44 0 73.5 -30.5t29.5 -77.5q0 -29 -7 -54t-25 -56q-31 -54 -48 -76t-47 -54z" />
    <glyph glyph-name="hyphen" unicode="-" horiz-adv-x="411" 
d="M51 332l6 34l2 38l99 -3l66 -2l81 2l84 3l-17 -46l-8 -27l-16 -80l-79 1l-86 3l-81 -2l-80 -2l18 41z" />
    <glyph glyph-name="period" unicode="." horiz-adv-x="255" 
d="M126 169q44 0 73.5 -23.5t29.5 -60.5q0 -43 -32 -69.5t-83 -26.5q-39 0 -64 24t-25 65t28 66t73 25z" />
    <glyph glyph-name="slash" unicode="/" horiz-adv-x="552" 
d="M427 765h118l-415 -824h-122z" />
    <glyph glyph-name="zero" unicode="0" 
d="M54 565q56 159 257 159q199 0 234 -96q16 -47 26 -78t14 -51.5t4 -58.5l3 -93q0 -88 -10.5 -158t-69 -138t-203.5 -68q-141 0 -192 59t-68 105q-15 45 -15 119l-5 95q0 136 25 204zM215 358q0 -60 3 -86.5t4.5 -36t9.5 -40.5q12 -43 30 -64q19 -19 50 -19q45 0 69 54
q8 21 16 59.5t8 66.5l1 34l2 30v12q0 14 -0.5 30t-3 34.5t-6.5 40.5t-14 57q-15 65 -74 65q-22 0 -39.5 -13.5t-29.5 -41.5l-18 -60q-3 -18 -5 -33t-2 -32z" />
    <glyph glyph-name="one" unicode="1" 
d="M187 656l47 26l58 43h126l-8 -29l-4 -27l3 -38v-631h-181v555l-28 -19l-62 -40l-32 -21l-55 126q39 14 71 26.5t65 28.5z" />
    <glyph glyph-name="two" unicode="2" 
d="M51 595q13 26 28 45t61 58t154 39q120 0 193 -64t73 -169q0 -77 -45 -121l-252 -237h83h52q16 3 31 18t27 66l117 -1l-11 -56q-1 -8 -4 -29.5t-7 -42.5l-7 -57l-1 -44h-503v126l270 292l24 30l20 21q20 20 20 42q0 29 -24.5 51.5t-55.5 22.5q-48 0 -66 -24l-23 -33
l-16 -25l-14 -24l-143 70l10 26z" />
    <glyph glyph-name="three" unicode="3" 
d="M116 195l65 -39q59 -34 108 -34q47 0 83 27t36 66q0 30 -24 50q-23 17 -39 22q-15 3 -65 3h-46q-37 0 -55 -3l-31 -4l-2 156l75 -4q62 0 87.5 7.5t41.5 27.5q9 11 12.5 19.5t3.5 21.5q0 31 -20 51.5t-52 20.5t-49 -8q-18 -6 -61 -41l-40 -31l-86 110l32 26l48 35
q35 25 77 39.5t95 14.5q74 0 107 -18t59.5 -40.5t39.5 -40.5q28 -44 28 -97q0 -42 -18.5 -73.5t-66.5 -66.5q33 -15 55 -33q59 -57 59 -143q0 -101 -78 -165t-206 -64q-78 0 -137.5 23t-113.5 74z" />
    <glyph glyph-name="four" unicode="4" 
d="M28 332l22 25l38 46l109 128l93 109l9 12l23 30l18 24l16 24h151v-420h77v-138h-77v-172h-179v173h-273l-52 128zM192 310h146v179q-27 -42 -46 -64z" />
    <glyph glyph-name="five" unicode="5" 
d="M106 209q101 -78 168 -78q41 0 75 34t34 75q0 43 -26 69.5t-67 26.5q-33 0 -57 -21q-19 -18 -38 -66l-125 93l10 25l8 29l6 35q3 21 3 61l9 229h425l5 -81l3 -57l9 -62h-139q-7 28 -13.5 40t-18.5 18q-12 4 -33 4h-79l1 -34l-2 -39q0 -14 -5 -30l-6 -34q50 15 88 15
q55 0 88.5 -12.5t70 -47.5t51 -71.5t14.5 -90.5q0 -61 -18.5 -102.5t-84.5 -97t-184 -55.5q-74 0 -132.5 24t-122.5 82z" />
    <glyph glyph-name="six" unicode="6" 
d="M507 676l-56 -48l-45 -44l-53 -58l-57 -71l30 10l28 3q38 0 70.5 -6.5t67.5 -28t60.5 -71t25.5 -109.5q0 -55 -16 -104q-8 -25 -23.5 -50.5t-41.5 -55.5q-48 -57 -194 -57q-18 0 -35 1t-39 4.5t-104.5 38.5t-82.5 214q0 77 19.5 133t52.5 107t81 104q24 27 41 45t31 31
l82 69zM222 288q-9 -27 -9 -52q0 -48 25 -89q21 -29 67 -29q106 0 106 130q0 39 -26 63.5t-68 24.5q-68 0 -95 -48z" />
    <glyph glyph-name="seven" unicode="7" 
d="M50 723h448l77 -104q-52 -132 -79.5 -192t-69.5 -140q-23 -46 -40 -76q-21 -38 -40 -69l-104 -167l-143 73l77 137q60 100 111.5 221.5t81.5 148.5l26 21h-34l-105 -2q-96 0 -96 -64h-118z" />
    <glyph glyph-name="eight" unicode="8" 
d="M58 531q0 95 69.5 151.5t192.5 56.5q116 0 182 -53t66 -148q0 -51 -18.5 -87t-67.5 -76q106 -73 106 -167q0 -57 -28.5 -108t-79.5 -82.5t-176 -31.5q-62 0 -107 12q-75 16 -121.5 71t-46.5 125q0 55 25 93q23 38 43 56q17 14 50 29q-45 35 -67 72t-22 87zM297 302
q-46 -17 -68 -39q-18 -18 -18 -51q0 -39 27.5 -65.5t70.5 -26.5q36 0 61 21t25 55q0 23 -21 46.5t-77 59.5zM336 442q59 33 59 92q0 75 -71 75q-33 0 -53 -17t-20 -44q0 -57 85 -106z" />
    <glyph glyph-name="nine" unicode="9" 
d="M106 43q12 10 25 20q18 15 30 27l48 47q29 29 56 62l52 64l-30 -10l-28 -2q-32 0 -64 6l-39 9q-11 4 -39.5 22t-55 68t-26.5 110q0 54 15.5 101t66 106.5t193.5 59.5q71 0 166 -39t95 -219q0 -76 -27 -155t-100.5 -161t-98.5 -105l-81 -68zM391 431q9 27 9 52
q0 48 -25 89q-21 29 -67 29q-106 0 -106 -130q0 -39 26 -63.5t68 -24.5q68 0 95 48z" />
    <glyph glyph-name="colon" unicode=":" horiz-adv-x="262" 
d="M138 169q44 0 73 -23.5t29 -60.5q0 -42 -33 -69t-83 -27q-38 0 -63 24t-25 65t28 66t74 25zM137 550q45 0 74 -23t29 -60q0 -42 -33 -69t-83 -27q-40 0 -64 23t-24 64q0 39 28 65.5t73 26.5z" />
    <glyph glyph-name="semicolon" unicode=";" horiz-adv-x="265" 
d="M42 -128l26 32l28 37l17 26l13 21l-19 -1q-28 0 -49.5 21.5t-21.5 54.5q0 41 30 71t75 30q44 0 73.5 -30.5t29.5 -77.5q0 -59 -32 -111q-30 -54 -47 -74q-17 -23 -47 -55zM138 550q45 0 73.5 -23t28.5 -60q0 -42 -33 -69t-83 -27q-40 0 -64 23t-24 64q0 42 28 67t74 25z
" />
    <glyph glyph-name="less" unicode="&#x3c;" horiz-adv-x="342" 
d="M71 369q12 26 25 57.5t28 68.5h155l-28 -79l-19 -64l-20 -84l20 -46l20 -39l38 -67l30 -49h-174l-49 88q-16 30 -28 45l-47 68l29 60z" />
    <glyph glyph-name="equal" unicode="=" 
d="M41 333h540v-152h-540v152zM41 532h540v-153h-540v153z" />
    <glyph glyph-name="greater" unicode="&#x3e;" horiz-adv-x="342" 
d="M197 495l47 -87q26 -43 76 -113l-50 -101l-24 -56l-29 -71h-153l25 75l20 68l22 85l-43 89l-33 58l-33 53h175z" />
    <glyph glyph-name="question" unicode="?" horiz-adv-x="489" 
d="M28 582l22 31l65 65q55 52 163 52q74 0 127.5 -55t53.5 -134q0 -18 -1.5 -33.5t-9.5 -31.5q-9 -22 -48 -61l-45 -46l-31 -31q-16 -16 -26 -34t-12 -36q0 -19 19 -42l-183 -42q-18 35 -18 69q0 43 64 119l38 45l28 25q44 39 44 78q0 22 -9.5 36.5t-26.5 14.5
q-24 0 -57.5 -33t-62.5 -86l-114 93zM214 169q44 0 73.5 -23.5t29.5 -61.5q0 -42 -33 -69t-83 -27q-39 0 -64 24t-25 65q0 40 29 66t73 26z" />
    <glyph glyph-name="at" unicode="@" horiz-adv-x="865" 
d="M458 214l-14 -21l-21 -24q-16 -19 -64 -19q-26 0 -51 12t-52 48t-27 130q0 23 2 34l12 50q10 35 34.5 72t50 55t50.5 25t40 7q29 0 56 -15q24 -15 34 -41l7 45h54l-36 -204l-12 -79l-3 -43q0 -20 11 -32t27 -12l16 3q10 3 19 11l24 22l20 23l14 24q20 36 28 69l6 37l1 18
q0 113 -68.5 186.5t-178.5 73.5q-25 0 -91 -9.5t-138.5 -96t-72.5 -210.5l2 -35q6 -56 36 -119.5t98.5 -109t150.5 -45.5q93 0 169 51t116 110l11 -67l-24 -30q-115 -124 -277 -124q-142 0 -243 90t-110 175l-8 108q0 222 114 287.5t169 77.5t116 12q126 0 210.5 -88
t84.5 -214v-37q-3 -15 -5 -29t-20 -63q-14 -43 -51 -86q-33 -39 -60 -51l-41 -14l-26 -3q-33 0 -57 18q-21 18 -25 47l-1 12zM310 234q17 -34 58 -34q25 0 39.5 14.5t23.5 29.5l17 41l15 46l9 39l3 17l6 33l4 56q0 25 -18.5 42.5t-42.5 17.5q-14 0 -34 -8t-37.5 -31.5
t-28.5 -52.5l-14 -42l-8 -32l-4 -35l-1 -42l3 -33q3 -15 10 -26z" />
    <glyph glyph-name="A" unicode="A" horiz-adv-x="681" 
d="M-11 86q23 3 33 12t22 39l179 481l22 60l11 43h176l9 -40l18 -47l182 -513q10 -26 54 -35l-3 -86h-280l4 86q41 0 41 32l-2 9q0 7 -5 20l-14 44h-212l-16 -47l-7 -28q0 -30 47 -30l-4 -86h-258zM262 319h141l-55 151l-6 19l-10 42l-11 -45l-9 -23z" />
    <glyph glyph-name="B" unicode="B" horiz-adv-x="639" 
d="M11 86q31 0 42.5 17.5t11.5 61.5v384v23q0 14 -1.5 24t-14.5 24.5t-41 14.5l3 86h27.5t31.5 -2q9 0 30.5 -1t34.5 -1l97 2l115 5h16q96 0 151.5 -51.5t55.5 -140.5q0 -37 -9 -57l-12 -25l-10 -12q-17 -24 -59 -46l36 -15q5 -3 20.5 -13.5t36.5 -27.5q44 -35 44 -127
q0 -78 -54 -140q-36 -37 -74 -52q-34 -11 -65 -16q-29 -3 -122 -3h-45l-87 1l-162 1zM244 301v-106q0 -31 3 -41t21.5 -22.5t52.5 -12.5q108 0 108 97q0 90 -126 90q-13 0 -27.5 -1t-31.5 -4zM244 452v-4q0 -8 22 -8h27q112 0 112 88q0 75 -89 75q-49 0 -59 -11l-12 -16
l-2 -22v-5z" />
    <glyph glyph-name="C" unicode="C" horiz-adv-x="615" 
d="M564 671l4 -49l4 -59l4 -58l-123 2q-9 49 -30 70q-18 20 -59 20q-142 0 -142 -227q0 -111 33.5 -170t96.5 -59q78 0 177 87l86 -123l-33 -27l-52 -36q-34 -21 -84 -41q-45 -15 -107 -15q-152 0 -231 100t-79 292q0 177 83 267.5t243 90.5l44 -1h28q12 -3 18 -4l69 -8
l47 -2z" />
    <glyph glyph-name="D" unicode="D" horiz-adv-x="676" 
d="M11 86q54 0 54 60v422q0 42 -22 57l-19 8l-16 2l3 86h36.5t35.5 -2l68 -3l123 3l84 4q140 0 214 -92.5t74 -272.5q0 -145 -47.5 -223.5t-110.5 -107t-174 -28.5h-11l-144 6l-25 1l-64 -3l-62 -3zM245 502v-299q0 -64 59 -64q86 0 118 42.5t32 163.5q0 167 -40 201.5
t-91 34.5q-78 0 -78 -79z" />
    <glyph glyph-name="E" unicode="E" horiz-adv-x="591" 
d="M11 86q27 0 39.5 15.5t12.5 53.5l2 392q0 88 -57 88l3 86h520l6 -80q0 -15 1 -24.5t6 -30.5l12 -62h-113l-6 25l-6 14q-11 21 -28 27l-40 1h-57q-62 0 -62 -68v-84h251l-5 -137h-246v-108q0 -36 3 -45.5t16.5 -16t28.5 -9.5l28 -3h37q25 0 35 1.5t22 7.5t24 32l18 61h114
l-19 -110l-12 -112h-531z" />
    <glyph glyph-name="F" unicode="F" horiz-adv-x="549" 
d="M11 86q18 0 33 9l7 4q11 11 12 18v33l3 399v14v17q0 10 -1.5 18t-14.5 22.5t-42 14.5l3 86h522l4 -77l12 -123l-120 3q-18 71 -80 71h-50q-12 0 -27 -11.5t-19 -17.5l-6 -17l-2 -40v-82h250l-7 -136h-243v-141q0 -36 10.5 -49t41.5 -13l20 -2l-3 -86h-306z" />
    <glyph glyph-name="G" unicode="G" horiz-adv-x="680" 
d="M612 640l5 -56l4 -44q5 -21 6 -31l-126 1q-12 50 -35 70t-71 20q-66 0 -118 -37t-52 -190q0 -91 27.5 -174t132.5 -83q76 0 76 94q0 68 -61 68l3 86h277l-4 -86q-60 0 -60 -96v-74v-52l2 -56l-27 2h-22l-95 -10l-25 -1l-104 -5q-60 0 -112.5 15t-128 99.5t-75.5 272.5
q0 100 27.5 166.5t84 114.5t116 65.5t152.5 17.5q32 0 53 -3l81 -10l36 -2l27 1z" />
    <glyph glyph-name="H" unicode="H" horiz-adv-x="708" 
d="M11 86q32 5 42.5 17t10.5 44l1 418l1 17v4q0 49 -58 49l3 86h291l-5 -86q-16 0 -27 -7q-13 -6 -18 -17q-6 -9 -6 -17l-1 -32v-114h218v127v22q0 38 -52 38v86h290l-4 -86q-53 -12 -53 -64v-416v-25q0 -9 6.5 -19t18.5 -16t30 -9l-2 -86h-289l2 86q53 0 53 62v163h-218
v-161q0 -24 2 -32.5t11 -18.5t43 -13l-4 -86h-289z" />
    <glyph glyph-name="I" unicode="I" horiz-adv-x="311" 
d="M11 86q10 2 19 5t15 6t13 16.5t7 40.5v411v13l-1 24q-2 3 -3 5q-4 5 -12 13q-12 15 -41 15l3 86h293l-3 -86q-56 0 -56 -69v-402q0 -42 10 -58t47 -20l-4 -86h-290z" />
    <glyph glyph-name="J" unicode="J" horiz-adv-x="308" 
d="M11 721h290l-4 -86q-57 0 -57 -81l5 -465v-19v-15v-12q0 -40 -3 -67t-18 -71.5t-43 -78.5t-40 -44q-11 -12 -43 -34l-53 34q14 33 16 47l3 35l1 19v39v649q0 40 -10 52t-42 12h-5z" />
    <glyph glyph-name="K" unicode="K" horiz-adv-x="635" 
d="M11 86q56 6 56 65l-3 414q0 38 -11.5 54t-44.5 16l3 86h278l-5 -86h-4q-36 0 -36 -57v-137l121 142l17 18l4 11q0 22 -36 22h-4l3 87h260l-4 -86l-210 -210l190 -303q21 -36 64 -36l-4 -86h-196l-169 292l-36 -41v-86q0 -15 0.5 -21t4.5 -18q3 -21 10 -27.5t36 -12.5
l-3 -86h-284z" />
    <glyph glyph-name="L" unicode="L" horiz-adv-x="557" 
d="M11 86l34 9q10 5 15.5 17t5.5 37v424q0 62 -55 62v86h299l-4 -86l-20 -3q-24 -3 -31 -13l-8 -23l-2 -25l1 -368q0 -39 2 -44q3 -35 53 -35h5l28 1q48 0 66.5 18.5t34.5 85.5l122 -2l-19 -99l-18 -128h-512z" />
    <glyph glyph-name="M" unicode="M" horiz-adv-x="926" 
d="M-3 86q29 3 39 11l6 7l3 8l6 33l63 401l2 39q0 16 -4 21q-12 29 -54 29l4 86h268q0 -39 3 -54l19 -65l30 -84l33 -102l6 -21l8 -29l2 -8l9 -43l14 -66q0 42 5 66l10 46l17 65l24 67l28 69l11 24l3 15q0 24 -44 34v86h295l-2 -22v-21l12 -78l54 -435q0 -17 4 -34t13 -31
q8 -9 42 -14l-4 -86h-281l4 83q28 0 39 11t11 40l-1 27v7l-16 230l-2 40l-6 70l-5 -41q-5 -35 -19 -79t-37 -97l-89 -208l-16 -41l-12 -42h-108q-3 26 -8 38q-2 9 -5.5 19t-11.5 27l-35 92l-21 60l-34 122l-13 69l-5 36l-3 39l1 -56l-1 -29l-8 -78l-14 -193l-1 -17
q0 -43 49 -43l-4 -86h-278z" />
    <glyph glyph-name="N" unicode="N" horiz-adv-x="710" 
d="M11 86q30 3 41.5 19t11.5 60v408q0 36 -9.5 47t-46.5 15l3 86h254l13 -38l26 -44l145 -297l32 -66l11 -28l14 -36l-13 74q-5 40 -5 70l-4 39l-1 37v122q0 69 -61 81l3 86h278l-4 -86q-32 -6 -44 -18q-10 -13 -10 -49l1 -473v-49v-21l7 -25h-189l-224 412l-14 33l-14 31
l4 -25l3 -25l5 -39l1 -19v-181q0 -54 15 -77.5t53 -23.5l-1 -86h-284z" />
    <glyph glyph-name="O" unicode="O" horiz-adv-x="723" 
d="M84 599q89 138 276 138q190 0 249 -92t72 -149.5t13 -133.5q0 -86 -12.5 -138.5t-71.5 -145t-250 -92.5q-95 0 -161.5 33t-104.5 92t-51.5 116t-13.5 133v9q0 80 12 131.5t43 98.5zM225 365q0 -69 3 -88.5t9 -37t21 -46.5q24 -51 104 -51q76 0 100.5 49.5t30 81.5t5.5 88
v15v12q0 44 -4 63q-3 26 -21 59q-15 33 -47 52t-65 19q-37 0 -65.5 -18.5t-46.5 -54.5q-13 -23 -18.5 -56t-5.5 -87z" />
    <glyph glyph-name="P" unicode="P" horiz-adv-x="610" 
d="M11 86h6q48 0 48 58v414q0 32 -14.5 54.5t-37.5 22.5h-5l3 86l68 -1l156 2l116 3h23q69 0 102 -9t68 -38t51 -69.5t16 -97.5q0 -136 -69 -174.5t-118 -45t-179 -6.5v-119l1 -24l2 -13q0 -43 51 -43l-4 -86h-287zM245 430h32q44 0 65.5 3.5t46 19t24.5 66.5q0 36 -17.5 51
t-27.5 18t-36 3h-29l-21 -3q-16 -5 -26.5 -16.5t-10.5 -56.5v-85z" />
    <glyph glyph-name="Q" unicode="Q" horiz-adv-x="723" 
d="M672 -45l-198 -45q-35 47 -72 76l-64 -3q-73 0 -142 38t-105 92t-49 112.5t-13 136.5q0 149 72 262t258 113q191 0 250 -91t72 -151t13 -137q0 -142 -36 -202t-54 -78.5t-47 -38.5q22 -34 43.5 -49.5t71.5 -34.5zM225 365q0 -69 3 -88.5t9 -37t21 -46.5q24 -51 104 -51
q76 0 100.5 49.5t30 81.5t5.5 88v15v12q0 44 -4 63q-3 26 -21 59q-15 33 -47 52t-65 19q-37 0 -65.5 -18.5t-46.5 -54.5q-13 -23 -18.5 -56t-5.5 -87z" />
    <glyph glyph-name="R" unicode="R" horiz-adv-x="637" 
d="M11 86q28 0 39.5 16t11.5 60l3 399q0 41 -12 57.5t-45 16.5l3 85l79 -3l47 -2l105 3l107 5l49 1q41 0 70 -6q58 -15 97.5 -70t39.5 -123q0 -63 -19 -94l-23 -37q-3 -7 -17 -19l-26 -22l-46 -20l110 -202q6 -13 18 -25l19 -13l23 -7l-3 -86h-189l-9 25l-8 20l-27 49
l-103 189l-14 -1h-13l-16 -1l-17 -1v-120q0 -42 9.5 -55t44.5 -19l-4 -86h-287zM245 429l54 -3q119 0 119 86q0 78 -98 78q-75 0 -75 -36v-24v-101z" />
    <glyph glyph-name="S" unicode="S" horiz-adv-x="583" 
d="M529 657l3 -91l3 -71l-124 2l-7 32l-12 43q-4 9 -17.5 25t-66.5 16q-42 0 -67.5 -17t-25.5 -47q0 -13 8.5 -29.5t27.5 -30.5q18 -10 84 -32t113 -50.5t76.5 -69.5t29.5 -119q0 -10 -1 -22.5t-4 -24.5q-3 -23 -36.5 -104t-209.5 -81h-17l-56 3l-45 5l-91 10l-37 5l-2 59
l-3 58l-4 113l118 -1v-8q0 -50 29 -80q31 -29 82 -29q39 0 65 17t26 45q0 14 -9.5 31t-27 27t-80.5 29.5t-102 38.5q-19 10 -39.5 26.5t-41.5 38.5q-41 46 -41 127q0 105 66 168t176 63q33 0 69 -6l96 -15l96 -10z" />
    <glyph glyph-name="T" unicode="T" horiz-adv-x="628" 
d="M10 638l5 82l147 -3l181 -1l144 2l141 2l-3 -45l-2 -45l-4 -105l-116 -1q0 73 -51 73h-50v-437l1 -31q0 -7 11 -25q9 -18 49 -18l-4 -86h-294l5 86l24 6l14 9l10 13q4 10 4 29v453h-35q-51 0 -68 -72h-119q0 6 1 19.5t4 31.5z" />
    <glyph glyph-name="U" unicode="U" horiz-adv-x="706" 
d="M11 721h292l-4 -86q-32 -8 -43 -17t-11 -53v-304q0 -46 19.5 -93.5t91.5 -47.5q51 0 78 36t27 105v304q0 39 -10.5 51.5t-47.5 18.5l5 86h291l-4 -86q-35 -4 -44 -15q-5 -8 -7 -25l-2 -19l-1 -18v-265q0 -80 -15.5 -129t-56 -92t-89.5 -61.5t-128 -18.5
q-81 0 -126.5 17.5t-85 58.5t-58.5 94q-8 27 -12 58t-4 73v265l-1 14l-3 30q-2 13 -11 22q-8 11 -43 11z" />
    <glyph glyph-name="V" unicode="V" horiz-adv-x="676" 
d="M-11 721h287l4 -86h-6q-45 0 -45 -32l3 -16l9 -27l84 -259q12 -43 18 -82v6q0 27 3 36l12 33l81 249l15 39l4 20q0 33 -45 33l3 86h275l-5 -86q-21 -3 -32.5 -15t-26.5 -49l-188 -479q-10 -27 -15 -48l-3 -44h-153l-9 31q-9 41 -28 78l-99 225q-40 94 -61 154l-25 81
q-6 20 -8 25t-10 20t-42 21z" />
    <glyph glyph-name="W" unicode="W" horiz-adv-x="948" 
d="M-3 721h287l-3 -86q-35 -5 -44.5 -13t-9.5 -32l1 -14l8 -38l30 -170l6 -49l8 -68l7 66q2 22 3.5 29.5t4.5 21.5l54 251l7 37l3 27l2 38h207l2 -26l4 -20l9 -35l68 -254l6 -44l5 -40l3 -40q0 29 2.5 45t8.5 32l9 42l33 166l6 51q0 37 -38 37l3 86h266l-4 -86
q-25 -3 -36 -17q-12 -12 -21 -48l-54 -219l-24 -85l-43 -148l-11 -35l-9 -36l-2 -47h-165q0 35 -3 50l-13 49l-74 260l-16 54l-10 40l-2 40q0 -26 -4 -45l-6 -34l-10 -59l-52 -253l-11 -50l-4 -55l-189 3q-3 29 -9 52q-2 13 -5 25.5t-12 36.5l-27 96l-38 145l-35 133l-16 68
l-12 49q-1 9 -14 17.5t-32 12.5z" />
    <glyph glyph-name="X" unicode="X" horiz-adv-x="658" 
d="M11 86l224 282l-180 237q-9 14 -17 20l-23 10l3 86h288l-3 -86h-8q-9 0 -13.5 -4.5t-6.5 -14.5l3 -13l16 -28l56 -104l60 105l12 20q3 5 5 16q0 23 -32 23l2 86h246l-4 -86l-196 -253l172 -263l14 -22q6 -5 29 -11l-4 -86h-283l4 86q30 5 30 28q0 8 -2 14t-14 26l-59 104
l-74 -100q-17 -26 -19 -40q0 -22 37 -32l-4 -86h-270z" />
    <glyph glyph-name="Y" unicode="Y" horiz-adv-x="599" 
d="M-13 721h295l-5 -97q-36 -8 -36 -29l2 -14l8 -20l37 -94l11 -23l15 -42q4 15 5 19q5 15 9 22l15 31l43 94l4 23q0 36 -30 36h-9l3 94h260l-4 -86q-16 0 -23.5 -7t-18.5 -29l-167 -341v-96l3 -37q3 -15 9 -24q6 -6 38 -15l-5 -86h-276l3 86q31 5 39.5 14t8.5 34l1 125
l-187 329l-21 30q-10 10 -28 10z" />
    <glyph glyph-name="Z" unicode="Z" horiz-adv-x="594" 
d="M19 102l297 461l12 15l14 12h-46h-41q-98 0 -98 -62h-118l6 66l9 96l2 31h503l11 -98l-13 -19l-13 -19l-19 -25l-231 -360l-17 -23l-11 -12l-27 -22h110q92 0 110 78l113 -2l-20 -110l-16 -109h-522z" />
    <glyph glyph-name="bracketleft" unicode="[" horiz-adv-x="360" 
d="M65 775h289v-77h-117v-790h113v-74h-285v941z" />
    <glyph glyph-name="backslash" unicode="\" horiz-adv-x="355" 
d="M173 720l126 -720h-144l-126 720h144z" />
    <glyph glyph-name="bracketright" unicode="]" horiz-adv-x="360" 
d="M8 -88h115v792h-113v73h285v-940h-287v75z" />
    <glyph glyph-name="asciicircum" unicode="^" horiz-adv-x="372" 
d="M31 649l32 56l22 42l24 42h167l33 -74q23 -48 63 -123h-127l-15 26q-6 12 -17 23l-21 23l-24 -24q-12 -14 -31 -48h-137z" />
    <glyph glyph-name="underscore" unicode="_" horiz-adv-x="452" 
d="M29 0h360v-43h-360v43z" />
    <glyph glyph-name="grave" unicode="`" horiz-adv-x="298" 
d="M168 781l18 -37l23 -41q14 -28 27.5 -51.5t34.5 -56.5h-121l-47 42l-48 43l-57 50l-56 51h226z" />
    <glyph glyph-name="a" unicode="a" horiz-adv-x="588" 
d="M346 40l-24 -19q-23 -18 -40.5 -25t-53.5 -7q-93 0 -146 48.5t-53 136.5q0 50 24 94t66.5 65t148.5 21h25l59 -3v17q0 12 -8.5 23.5t-21.5 19.5q-20 6 -54 6h-28t-21 -2q-14 0 -48 -10l-99 -24l7 140q38 13 96 23q26 4 55 6t68 2q55 0 87 -7q35 -6 85 -36t50 -134v-213
l-1 -38q0 -29 54 -38l-2 -86h-188l-9 26l-2 26l3 29q-15 -27 -29 -41zM361 223v16h-56q-46 0 -70.5 -17t-24.5 -48q0 -46 60 -46q51 0 76 26q15 14 15 48v21z" />
    <glyph glyph-name="b" unicode="b" horiz-adv-x="624" 
d="M11 757l107 18l116 1l-6 -57l-2 -53v-220q62 56 100.5 76.5t84.5 20.5q81 0 133 -69t52 -183q0 -135 -71 -218t-186 -83q-92 0 -157 60q-20 -29 -46 -50h-82l6 50l4 45l1 96v437q0 24 -3 33q-1 9 -10.5 14.5t-43.5 13.5zM229 289v-31q0 -57 27 -96t68 -39q47 0 70 33
q21 33 26.5 60.5t5.5 72.5q0 95 -61 95q-37 0 -72.5 -24.5t-63.5 -70.5z" />
    <glyph glyph-name="c" unicode="c" horiz-adv-x="520" 
d="M483 502v-37l6 -123l-118 3l1 25q0 57 -61 57q-17 0 -30.5 -4.5t-33 -18t-31.5 -52.5q-5 -17 -8 -39t-3 -47q0 -67 26 -102.5t74 -35.5q67 0 123 43l70 -103l-31 -26l-55 -32q-41 -21 -117 -21q-128 0 -179.5 56t-70.5 109q-16 54 -16 125q0 181 93 227t198 46l72 -3
q17 -1 39.5 -4t51.5 -7v-36z" />
    <glyph glyph-name="d" unicode="d" horiz-adv-x="630" 
d="M406 600q0 46 -14 63q-11 17 -60 26l3 68l108 18h129l-4 -51l-2 -52v-530q0 -44 58 -56l-5 -86h-196l-13 37l-4 33l4 32l-30 -37l-35 -35q-22 -19 -52 -32q-12 -5 -28.5 -8t-35.5 -3q-91 0 -145.5 72.5t-54.5 197.5q0 134 68 214t183 80q38 0 65 -9.5t61 -37.5v96z
M401 257v45q0 20 -15 49q-15 26 -37 41.5t-47 15.5q-43 0 -71 -38.5t-28 -101.5q0 -118 68 -118q33 0 66 27t64 80z" />
    <glyph glyph-name="e" unicode="e" horiz-adv-x="549" 
d="M195 235q6 -46 33.5 -76.5t68.5 -30.5q25 0 54.5 14t71.5 45l88 -90q-29 -30 -55.5 -49.5t-55.5 -33.5q-53 -24 -123 -24q-119 0 -183.5 72t-64.5 201q0 141 68 215t197 74q114 0 175.5 -67.5t61.5 -193.5l-1 -21q0 -10 -7 -35h-328zM192 337h181q0 90 -90 90
q-41 0 -66 -23.5t-25 -66.5z" />
    <glyph glyph-name="f" unicode="f" horiz-adv-x="319" 
d="M3 539h67v86q0 70 51.5 115.5t136.5 45.5l37 -3l39 -12l-4 -136q-6 2 -25 7.5t-33 5.5q-51 0 -51 -58v-51h107l-4 -108h-93v-269q0 -43 9 -57q19 -19 55 -19l-3 -86h-281l3 86q56 6 56 83v262h-70z" />
    <glyph glyph-name="g" unicode="g" horiz-adv-x="577" 
d="M176 -69l-2 -19q0 -25 27 -45q29 -19 66 -19q59 0 90 14q34 12 34 35q0 8 -6 21t-13 17.5t-26.5 8.5t-56.5 4h-4h-33h-25q-12 3 -25 5t-31 11q-16 6 -31 31.5t-15 52.5q0 38 43 96q-138 47 -138 184q0 101 63 162t172 61q16 0 36 -0.5t48 -7.5l45 -9l34 -12l128 26
l-2 -110l-40 -20q27 -45 27 -94q0 -92 -68.5 -147.5t-192.5 -55.5l-5 -17q0 -15 36 -15h11l28 1q61 0 89 -11q29 -9 64 -45q35 -33 35 -100q0 -66 -25.5 -101t-67.5 -57q-33 -19 -76.5 -28t-103.5 -9h-15h-12q-10 2 -14 2q-18 0 -37 3t-31 5q-47 6 -91 46t-44 93
q0 48 48 108zM199 334v-4q0 -37 24.5 -61.5t66.5 -24.5q41 0 66 25t25 66q0 40 -25 65t-65 25q-41 0 -66.5 -24.5t-25.5 -66.5z" />
    <glyph glyph-name="h" unicode="h" horiz-adv-x="629" 
d="M11 86q31 8 42 23.5t11 53.5v469v13q0 12 -7 27q-6 17 -49 17l3 68l112 19h103l-1 -68v-24v-10v-234q57 64 99.5 88t98.5 24q142 0 142 -164v-231q0 -34 11.5 -49.5t45.5 -21.5l-4 -86h-269l5 86q51 6 51 68v178q0 51 -35 51q-33 0 -69.5 -33t-75.5 -84l1 -105l1 -43
q2 -9 10.5 -17.5t40.5 -14.5l-4 -86h-266z" />
    <glyph glyph-name="i" unicode="i" horiz-adv-x="299" 
d="M18 86q34 8 45 29.5t11 78.5v194q0 41 -11 53q-9 12 -49 12l4 67l107 19h113l-3 -81v-276q0 -18 1 -33t4.5 -33t52.5 -30l-4 -86h-275zM35 637q0 111 129 111q90 0 90 -59q0 -115 -131 -115q-88 0 -88 63z" />
    <glyph glyph-name="j" unicode="j" horiz-adv-x="272" 
d="M115 539h117l-4 -21l-2 -17v-38v-455q0 -63 -8 -96t-25 -59l-27 -39l-27 -30q-18 -20 -46 -42l-52 44q14 27 20 56l3 22v20l1 26v455q0 59 -11 73.5t-37 14.5h-6l-3 67zM111 574q-85 0 -85 63q0 111 129 111q23 0 39 -3t28 -11q22 -14 22 -45q0 -115 -129 -115h-4z" />
    <glyph glyph-name="k" unicode="k" horiz-adv-x="602" 
d="M11 86q21 3 31 10l10 9q11 12 12 27l1 40l3 445v19q-3 12 -5 24t-13 20q-9 9 -41 9l2 68l103 19h116l-3 -15l-1 -15v-41v-399l88 89q27 27 28 37q0 9 -11 15t-28 6l11 86h273v-86q-13 0 -21 -5l-15 -9l-18 -20l-133 -129l151 -173q22 -23 51 -31l-4 -86h-174l-8 21l-9 16
l-22 26l-160 179l2 -84v-26q0 -19 11.5 -28.5t39.5 -13.5l-3 -90h-267z" />
    <glyph glyph-name="l" unicode="l" horiz-adv-x="290" 
d="M11 86q33 7 43.5 19.5t10.5 40.5v484q0 51 -57 59l3 68l109 19h110l-3 -18l-2 -19l1 -59v-516l1 -36q0 -9 9.5 -21.5t45.5 -20.5l-3 -86h-271z" />
    <glyph glyph-name="m" unicode="m" horiz-adv-x="926" 
d="M18 86q33 5 39 13t12 25l3 22l-2 238v21q0 17 -8 32.5t-48 15.5l4 67l118 19l80 -1l8 -46l1 -22l20 15l65 43q23 12 55 21t58 9q38 0 69.5 -15.5t43.5 -40.5l11 -24q69 78 170 78q66 0 99 -30q33 -28 40 -53t7 -90v-225q0 -72 54 -72l-3 -86h-266l3 86q35 3 45 18
q5 4 8 14l2 34v191l-1 27q0 13 -10 22.5t-24 10.5q-24 0 -63.5 -27.5t-58.5 -49.5v-178q0 -33 12 -47.5t45 -14.5l-4 -86h-273l4 86q30 0 42.5 15.5t12.5 52.5v156v32q0 22 -12.5 35.5t-32.5 13.5q-17 0 -27 -4.5t-35 -25.5l-12 -9l-38 -31v-156v-29q0 -11 2 -16l12 -16
q9 -9 44 -18l-5 -86h-270z" />
    <glyph glyph-name="n" unicode="n" horiz-adv-x="636" 
d="M18 86q32 8 43 17q6 8 9 18l2 42v234l-1 29q0 6 -11 16q-9 11 -46 11l4 67l111 19h84l7 -24l1 -24v-12v-49q40 40 93 83q48 39 125 39q57 0 85 -31q25 -28 38 -60q10 -32 10 -73v-231v-24q0 -18 10 -28q12 -15 46 -19l-4 -86h-273l3 86q33 6 41 14q8 6 12 21l4 33v178
q0 50 -33 50q-57 0 -144 -118v-113q0 -39 11 -50q12 -9 50 -15l-3 -86h-278z" />
    <glyph glyph-name="o" unicode="o" horiz-adv-x="612" 
d="M305 556q135 0 207 -72.5t72 -212.5q0 -138 -71 -211.5t-206 -73.5q-136 0 -207 72.5t-71 212.5v5q0 133 72.5 206.5t203.5 73.5zM210 281v-4q0 -73 10.5 -99.5t34 -42t51.5 -15.5q50 0 73 35t23 114q0 65 -17.5 108.5t-78.5 43.5q-73 0 -85 -52q-5 -23 -8 -46t-3 -42z
" />
    <glyph glyph-name="p" unicode="p" horiz-adv-x="631" 
d="M11 520l109 19l95 -1l2 -42l-2 -39l26 26q25 24 59 45.5t92 21.5q140 0 169 -79.5t36 -118.5q4 -30 4.5 -41t0.5 -23q0 -68 -16 -120.5t-52 -96.5q-66 -83 -175 -83q-22 0 -49.5 6.5t-45.5 17t-39 34.5v-145q0 -33 14 -45.5t50 -12.5l-5 -83l-82 1l-76 -2l-69 -2l4 34
l3 43l1 54v496v16v11q-2 7 -2 9q0 13 -15.5 21.5t-39.5 11.5zM227 306v-41q0 -38 3 -59t20.5 -52.5t73.5 -31.5q53 0 74 28.5t26.5 47t5.5 47.5l1 40q0 52 -20 81t-57 29q-65 0 -127 -89z" />
    <glyph glyph-name="q" unicode="q" horiz-adv-x="619" 
d="M499 539h72l-8 -57v-33v-538q0 -40 9.5 -54t40.5 -14h6l-3 -86l-59 1h-18h-15q-10 2 -15 2l-59 -2l-54 -2l5 75l2 134v113l-24 -28l-45 -33q-38 -25 -110 -25q-94 0 -144.5 63.5t-50.5 181.5q0 131 72 217.5t185 86.5q40 0 75 -13q37 -12 85 -43l27 29zM401 221v65
q0 123 -92 123q-50 0 -84 -46t-34 -115q0 -52 21.5 -81t63.5 -29q18 0 35.5 5t26 8.5t23.5 12.5q25 15 40 57z" />
    <glyph glyph-name="r" unicode="r" horiz-adv-x="395" 
d="M18 86q33 9 40 15t11 23l3 42v224q0 63 -47 63h-11l4 67l105 19h89l1 -21l2 -29l2 -34l-3 -73l14 37q2 5 4.5 11t9.5 20l18 37l17 26q12 17 27.5 25t47.5 8l58 -3l-6 -149l-31 3q-19 0 -27 -5l-26 -24l-39 -48q-18 -23 -46 -68l2 -98l-1 -26q0 -36 56 -42l-3 -86h-275z
" />
    <glyph glyph-name="s" unicode="s" horiz-adv-x="488" 
d="M435 463l8 -105h-114l-13 41q-12 30 -60 30q-21 0 -33.5 -11t-12.5 -28q0 -13 16.5 -24t49.5 -22l50 -16q132 -45 132 -158q0 -83 -52.5 -132.5t-140.5 -49.5q-37 0 -89 7l-78 9l-58 2l-1 46l-2 44l-2 53l-3 53l117 -5q0 -28 3 -40t12 -28q19 -25 64 -25q66 0 66 42
q0 16 -8 24t-35 18l-74 25l-29 11q-55 18 -87.5 58t-32.5 91q0 78 54 130t139 52h11l40 -4l27 -2l67 -6l65 -8z" />
    <glyph glyph-name="t" unicode="t" horiz-adv-x="357" 
d="M16 539h48l16 117l144 40v-157h123l-9 -108h-114v-245q0 -76 40 -76l22 3l35 10l43 -98q-84 -41 -146 -41q-70 0 -105 32q-33 33 -42 58q-8 27 -8 81v276h-55z" />
    <glyph glyph-name="u" unicode="u" horiz-adv-x="627" 
d="M11 520l107 19h119l-6 -47l-4 -57l-2 -90v-108v-18q0 -27 11.5 -37t40.5 -10q32 0 53 12q18 12 30 24q9 8 17 16t31 34v136q0 34 -10.5 46.5t-40.5 12.5h-11l-3 67l103 18l127 1l-5 -71l1 -60v-243l1 -36q0 -35 54 -43l-5 -86h-196q-9 41 -9 78l3 46l-38 -42l-31 -31
q-40 -37 -65 -48t-68 -11q-39 0 -74 15t-57 46q-20 31 -20 133v187l-1 40q0 41 -42 41l-13 -1z" />
    <glyph glyph-name="v" unicode="v" horiz-adv-x="559" 
d="M-3 539h262l-3 -86q-38 -11 -38 -35l2 -10l4 -12l19 -74l1 -3l20 -62l6 -22l5 -19l5 -30l1 -17q0 28 12 66l29 93l22 67l6 20l1 6q0 23 -37 32l3 86h248l-3 -86q-21 -6 -34 -19q-13 -11 -21 -35l-46 -124l-17 -46q-26 -76 -37 -100l-21 -50l-21 -49l-7 -30h-150l-13 35
l-19 41l-59 126l-24 53l-33 84l-26 69l-16 29l-8 8q-4 5 -18 8z" />
    <glyph glyph-name="w" unicode="w" horiz-adv-x="883" 
d="M-3 539h262l-3 -86q-24 -9 -31.5 -17.5t-7.5 -26.5l1 -11l8 -36l22 -105l7 -36l4 -49q0 31 4 46l15 46l6 22l37 128l9 30l13 51l9 44h179l10 -47l11 -37l33 -111l15 -46l15 -44l4 -12q7 -22 13 -67l5 46l8 42l17 81l10 55l3 22q0 28 -34 32l4 86h245l-4 -86h-6
q-11 0 -16 -5l-11 -17l-10 -19l-41 -141l-18 -79l-27 -123l-9 -33l-2 -14l2 -22h-203l-2 22q-2 13 -7 25l-10 30l-70 215l-10 48l-3 44l-7 -51q-3 -22 -10 -37l-71 -212l-13 -28q-4 -9 -8 -27l-2 -29h-155q-6 29 -11 38l-9 21l-24 62l-38 117l-42 137l-5 16l-20 44
q-1 6 -9 9l-27 9z" />
    <glyph glyph-name="x" unicode="x" horiz-adv-x="613" 
d="M3 86q23 3 32.5 9t27.5 27l119 148l-110 149q-14 22 -28 31t-41 13l5 76h297l-3 -86h-9q-13 0 -22 -7.5t-10 -19.5l2 -11l11 -18l35 -65l52 71l11 14l3 11q0 11 -7.5 17t-21.5 8v86h256l-4 -86q-19 -6 -32.5 -15t-24.5 -23l-111 -132l130 -159q20 -26 53 -38l-4 -86h-274
l3 86h9q7 0 17.5 6.5t10.5 14.5q0 6 -6 15l-14 20l-51 70l-60 -79l-7 -11q-3 -5 -5 -15q0 -21 38 -21l-3 -86h-267z" />
    <glyph glyph-name="y" unicode="y" horiz-adv-x="562" 
d="M-3 539h259l-4 -86q-19 0 -26.5 -5.5t-9.5 -21.5l1 -8l2 -20l22 -74l26 -76l7 -18l10 -29l6 -25l4 -26q0 36 5 51l13 35l19 54l24 79l10 37l1 20q0 23 -34 27l3 86h235l-5 -94q-37 -6 -48 -42l-6 -19l-33 -104l-25 -69l-55 -134l-67 -156q-30 -70 -76 -162l-179 -1
l81 140l53 92l-32 60l-34 68l-33 84l-46 134l-23 64l-11 29q-4 17 -39 24z" />
    <glyph glyph-name="z" unicode="z" horiz-adv-x="520" 
d="M30 121l11 14l12 13l186 210l20 24l11 10l18 12l-69 2h-7q-30 0 -42 -12t-18 -57h-123l10 64q4 30 5 36v22l5 40l3 43q20 0 68.5 -2t55.5 -2l87 -3l92 2l89 2l58 -95l-31 -35l-18 -26l-183 -221l-14 -17q-5 -5 -24 -13l82 -1q24 0 35 6.5t17 14.5t9 20l4 17l7 24h115
l-16 -71l-9 -49l-8 -51l-6 -48q-21 6 -32 6h-17h-354l-41 107z" />
    <glyph glyph-name="braceleft" unicode="{" horiz-adv-x="397" 
d="M96 432v310q0 48 26 74t73 26h143v-86h-13q-31 0 -43.5 -11t-12.5 -37v-254q0 -63 -62 -88l-27 -6l27 -6q28 -11 45 -35.5t17 -52.5v-254q0 -48 56 -48h13v-86h-143q-47 0 -73 26t-26 74v310q0 31 -18.5 51.5t-48.5 20.5q29 0 48 20.5t19 51.5z" />
    <glyph glyph-name="bar" unicode="|" horiz-adv-x="218" 
d="M29 720h144v-720h-144v720z" />
    <glyph glyph-name="braceright" unicode="}" horiz-adv-x="397" 
d="M29 -36h13q31 0 43.5 11t12.5 37v254q0 29 17 52.5t46 35.5l26 6l-26 6q-29 12 -46 36t-17 52v254q0 25 -12.5 36.5t-43.5 11.5h-13v86h143q47 0 73 -26t26 -74v-310q0 -30 19 -52q20 -20 48 -20q-27 0 -48 -21q-19 -21 -19 -51v-310q0 -48 -26 -74t-73 -26h-143v86z" />
    <glyph glyph-name="asciitilde" unicode="~" horiz-adv-x="411" 
d="M115 950q17 0 26 -1t29 -7l62 -17l18 -2q10 0 17.5 5.5t13.5 21.5l130 -39q-16 -63 -47.5 -98t-71.5 -35q-15 0 -23 1t-25 7l-69 20q-5 3 -16 3q-22 0 -28 -34l-131 42q17 62 47 97.5t68 35.5z" />
    <glyph glyph-name="c128" horiz-adv-x="716" 
d="M624 491h-547l-30 -98h555zM716 105l-86 123q-99 -87 -177 -87q-63 0 -96.5 58.5t-33.5 170.5q0 227 142 227q41 0 59 -20q11 -11 11 -20t-5 -24h95l8 32l10 57l12 49l7 50l-47 2l-69 8q-3 1 -7.5 1.5t-10.5 2.5h-28l-44 1q-161 0 -243.5 -90t-82.5 -268
q0 -193 78.5 -292t231.5 -99q60 0 107 14q47 19 84 41l52 36zM598 367h-499l-30 -98h507z" />
    <glyph glyph-name="c128" unicode="&#x20ac;" horiz-adv-x="716" 
d="M624 491h-547l-30 -98h555zM716 105l-86 123q-99 -87 -177 -87q-63 0 -96.5 58.5t-33.5 170.5q0 227 142 227q41 0 59 -20q11 -11 11 -20t-5 -24h95l8 32l10 57l12 49l7 50l-47 2l-69 8q-3 1 -7.5 1.5t-10.5 2.5h-28l-44 1q-161 0 -243.5 -90t-82.5 -268
q0 -193 78.5 -292t231.5 -99q60 0 107 14q47 19 84 41l52 36zM598 367h-499l-30 -98h507z" />
    <glyph glyph-name="quotesinglbase" horiz-adv-x="258" 
d="M31 -128q17 19 21 24q9 11 15 20l21 27l28 45l-20 -1q-28 0 -49.5 21.5t-21.5 54.5q0 41 30 71t76 30q44 0 73.5 -30.5t29.5 -77.5q0 -29 -7 -54t-25 -56q-31 -54 -48 -76t-47 -54z" />
    <glyph glyph-name="quotesinglbase" unicode="&#x201a;" horiz-adv-x="258" 
d="M31 -128q17 19 21 24q9 11 15 20l21 27l28 45l-20 -1q-28 0 -49.5 21.5t-21.5 54.5q0 41 30 71t76 30q44 0 73.5 -30.5t29.5 -77.5q0 -29 -7 -54t-25 -56q-31 -54 -48 -76t-47 -54z" />
    <glyph glyph-name="florin" horiz-adv-x="404" 
d="M-28 -97q38 -12 63 -12q39 0 45 54l39 480h-71l15 103h63l7 77q0 74 57.5 124t139.5 50q23 0 38 -3l37 -15l-14 -138q-38 16 -60 16q-19 0 -29 -11q-6 -9 -11 -42l-7 -57h99l-15 -107h-92l-39 -493q0 -29 -20 -66q-19 -40 -41 -60q-24 -24 -64 -39q-21 -8 -38 -12t-36 -4
q-35 0 -76 15z" />
    <glyph glyph-name="florin" unicode="&#x192;" horiz-adv-x="404" 
d="M-28 -97q38 -12 63 -12q39 0 45 54l39 480h-71l15 103h63l7 77q0 74 57.5 124t139.5 50q23 0 38 -3l37 -15l-14 -138q-38 16 -60 16q-19 0 -29 -11q-6 -9 -11 -42l-7 -57h99l-15 -107h-92l-39 -493q0 -29 -20 -66q-19 -40 -41 -60q-24 -24 -64 -39q-21 -8 -38 -12t-36 -4
q-35 0 -76 15z" />
    <glyph glyph-name="quotedblbase" horiz-adv-x="496" 
d="M31 -128q17 19 21 24q9 11 15 20l21 27l28 45l-20 -1q-28 0 -49.5 21.5t-21.5 54.5q0 41 30 71t76 30q44 0 73.5 -30.5t29.5 -77.5q0 -29 -7 -54t-25 -56q-31 -54 -48 -76t-47 -54zM269 -128l30 36q1 1 11.5 14.5t15.5 20.5l29 45l-20 -1q-28 0 -49.5 21.5t-21.5 54.5
q0 41 30 71t75 30q44 0 73.5 -30.5t29.5 -77.5q0 -55 -31.5 -110.5t-47.5 -74.5q-17 -23 -47 -55z" />
    <glyph glyph-name="quotedblbase" unicode="&#x201e;" horiz-adv-x="496" 
d="M31 -128q17 19 21 24q9 11 15 20l21 27l28 45l-20 -1q-28 0 -49.5 21.5t-21.5 54.5q0 41 30 71t76 30q44 0 73.5 -30.5t29.5 -77.5q0 -29 -7 -54t-25 -56q-31 -54 -48 -76t-47 -54zM269 -128l30 36q1 1 11.5 14.5t15.5 20.5l29 45l-20 -1q-28 0 -49.5 21.5t-21.5 54.5
q0 41 30 71t75 30q44 0 73.5 -30.5t29.5 -77.5q0 -55 -31.5 -110.5t-47.5 -74.5q-17 -23 -47 -55z" />
    <glyph glyph-name="ellipsis" unicode="&#x85;" horiz-adv-x="996" 
d="M167 202q44 0 76 -32t32 -76q0 -45 -31.5 -76.5t-76.5 -31.5t-77 31q-31 33 -31 77q0 45 31.5 76.5t76.5 31.5zM500 202q44 0 76 -32t32 -76q0 -45 -31.5 -76.5t-76.5 -31.5t-77 31q-31 33 -31 77q0 45 31.5 76.5t76.5 31.5zM833 202q44 0 76 -32t32 -76
q0 -45 -31.5 -76.5t-76.5 -31.5t-77 31q-31 33 -31 77q0 45 31.5 76.5t76.5 31.5z" />
    <glyph glyph-name="ellipsis" unicode="&#x2026;" horiz-adv-x="996" 
d="M167 202q44 0 76 -32t32 -76q0 -45 -31.5 -76.5t-76.5 -31.5t-77 31q-31 33 -31 77q0 45 31.5 76.5t76.5 31.5zM500 202q44 0 76 -32t32 -76q0 -45 -31.5 -76.5t-76.5 -31.5t-77 31q-31 33 -31 77q0 45 31.5 76.5t76.5 31.5zM833 202q44 0 76 -32t32 -76
q0 -45 -31.5 -76.5t-76.5 -31.5t-77 31q-31 33 -31 77q0 45 31.5 76.5t76.5 31.5z" />
    <glyph glyph-name="dagger" horiz-adv-x="549" 
d="M22 564l63 -16l41 -9l89 -13q0 41 -3 67l-12 72q-5 34 -24 113h197q-15 -68 -21 -107l-11 -69l-4 -73q16 2 35.5 4.5t44.5 9.5l48 11l63 19v-178l-98 15l-44 4l-45 3l10 -29l28 -56l-19 -114l-15 -100l-15 -117q-3 -31 -5 -68.5t-2 -81.5h-85q0 85 -11 151l-22 135
q-9 63 -36 186l27 51l15 36l-87 -10q-26 -3 -30 -4q-15 -5 -22 -6l-50 -11v185z" />
    <glyph glyph-name="dagger" unicode="&#x2020;" horiz-adv-x="549" 
d="M22 564l63 -16l41 -9l89 -13q0 41 -3 67l-12 72q-5 34 -24 113h197q-15 -68 -21 -107l-11 -69l-4 -73q16 2 35.5 4.5t44.5 9.5l48 11l63 19v-178l-98 15l-44 4l-45 3l10 -29l28 -56l-19 -114l-15 -100l-15 -117q-3 -31 -5 -68.5t-2 -81.5h-85q0 85 -11 151l-22 135
q-9 63 -36 186l27 51l15 36l-87 -10q-26 -3 -30 -4q-15 -5 -22 -6l-50 -11v185z" />
    <glyph glyph-name="daggerdbl" horiz-adv-x="556" 
d="M24 265l54 -13l51 -10l61 -10l-11 40l-10 54l27 47l18 40l-36 -1l-56 -6q-19 -2 -45 -7t-55 -13l2 182l53 -17l46 -10q31 -6 93 -13q0 17 -1 33t-4 31l-11 66q-4 36 -12 66l-12 53h206l-13 -57l-12 -60l-9 -50q-5 -32 -5 -82l40 7l16 2t29 8l44 12l61 20v-181l-44 9
l-47 8l-44 4l-51 2l12 -31q2 -6 5.5 -15t7.5 -15l13 -25l-11 -50l-3 -45l43 6l37 8q28 6 83 25v-181q-49 14 -81 18.5t-44.5 5t-19.5 0.5h-30l-13 -81l-7 -53l-10 -132l-88 -1q0 38 -3 62q0 19 -4 39.5t-6.5 38.5t-4.5 39t-6 37l-8 48l-84 -13l-47 -11q-15 -2 -29 -6
q-5 -1 -27 -8z" />
    <glyph glyph-name="daggerdbl" unicode="&#x2021;" horiz-adv-x="556" 
d="M24 265l54 -13l51 -10l61 -10l-11 40l-10 54l27 47l18 40l-36 -1l-56 -6q-19 -2 -45 -7t-55 -13l2 182l53 -17l46 -10q31 -6 93 -13q0 17 -1 33t-4 31l-11 66q-4 36 -12 66l-12 53h206l-13 -57l-12 -60l-9 -50q-5 -32 -5 -82l40 7l16 2t29 8l44 12l61 20v-181l-44 9
l-47 8l-44 4l-51 2l12 -31q2 -6 5.5 -15t7.5 -15l13 -25l-11 -50l-3 -45l43 6l37 8q28 6 83 25v-181q-49 14 -81 18.5t-44.5 5t-19.5 0.5h-30l-13 -81l-7 -53l-10 -132l-88 -1q0 38 -3 62q0 19 -4 39.5t-6.5 38.5t-4.5 39t-6 37l-8 48l-84 -13l-47 -11q-15 -2 -29 -6
q-5 -1 -27 -8z" />
    <glyph glyph-name="perthousand" horiz-adv-x="1093" 
d="M452 733h100l-246 -743h-96zM173 718q71 0 111 -52t40 -144q0 -93 -39.5 -146t-111.5 -53q-69 0 -110 53t-41 143q0 93 39.5 146t111.5 53zM581 387q71 0 111 -52t40 -144q0 -93 -39.5 -146t-111.5 -53q-70 0 -111 53t-41 143q0 93 39.5 146t112.5 53zM920 387
q71 0 111 -52t40 -144q0 -93 -39.5 -146t-110.5 -53q-70 0 -111 53t-41 143q0 93 39.5 146t111.5 53zM615 192v21q0 27 -9.5 44t-26.5 17q-34 0 -34 -61v-21v-26q0 -60 36 -60q34 0 34 60v26zM138 544v-9v-12v-26q0 -59 35 -59t35 60v11v14v21q0 60 -37 60q-33 0 -33 -60z
M956 192v21q0 27 -9.5 44t-27.5 17q-34 0 -34 -61v-21v-26q0 -60 36 -60q35 0 35 60v26z" />
    <glyph glyph-name="perthousand" unicode="&#x2030;" horiz-adv-x="1093" 
d="M452 733h100l-246 -743h-96zM173 718q71 0 111 -52t40 -144q0 -93 -39.5 -146t-111.5 -53q-69 0 -110 53t-41 143q0 93 39.5 146t111.5 53zM581 387q71 0 111 -52t40 -144q0 -93 -39.5 -146t-111.5 -53q-70 0 -111 53t-41 143q0 93 39.5 146t112.5 53zM920 387
q71 0 111 -52t40 -144q0 -93 -39.5 -146t-110.5 -53q-70 0 -111 53t-41 143q0 93 39.5 146t111.5 53zM615 192v21q0 27 -9.5 44t-26.5 17q-34 0 -34 -61v-21v-26q0 -60 36 -60q34 0 34 60v26zM138 544v-9v-12v-26q0 -59 35 -59t35 60v11v14v21q0 60 -37 60q-33 0 -33 -60z
M956 192v21q0 27 -9.5 44t-27.5 17q-34 0 -34 -61v-21v-26q0 -60 36 -60q35 0 35 60v26z" />
    <glyph glyph-name="guilsinglleft" horiz-adv-x="342" 
d="M71 369q12 26 25 57.5t28 68.5h155l-28 -79l-19 -64l-20 -84l20 -46l20 -39l38 -67l30 -49h-174l-49 88q-16 30 -28 45l-47 68l29 60z" />
    <glyph glyph-name="guilsinglleft" unicode="&#x2039;" horiz-adv-x="342" 
d="M71 369q12 26 25 57.5t28 68.5h155l-28 -79l-19 -64l-20 -84l20 -46l20 -39l38 -67l30 -49h-174l-49 88q-16 30 -28 45l-47 68l29 60z" />
    <glyph glyph-name="OE" horiz-adv-x="922" 
d="M462 4h-37l-100 -7h-17q-28 0 -50.5 4t-52.5 15q-50 18 -87.5 54t-64 112t-26.5 157q0 31 3 58.5t11 60.5q13 59 45 126t100 103.5t177 36.5h11l95 -5l79 2h305l2 -47l4 -48l10 -118h-113q0 36 -12 59.5t-30 23.5h-44q-33 0 -43.5 -7.5t-10.5 -33.5v-27v-81h201l-5 -136
h-196v-118q0 -38 11 -52t41 -14h8l39 2q11 0 23 6t21.5 19.5t18.5 64.5h115l-13 -108l-13 -106h-217zM436 228v283l-1 28l-10 18l-10 11l-14 11q-9 6 -37 6q-69 0 -107.5 -60.5t-38.5 -172.5q0 -78 15 -119t51 -67q38 -25 77 -25q21 0 39.5 6.5t27.5 22.5q4 8 6 21t2 37z
" />
    <glyph glyph-name="OE" unicode="&#x152;" horiz-adv-x="922" 
d="M462 4h-37l-100 -7h-17q-28 0 -50.5 4t-52.5 15q-50 18 -87.5 54t-64 112t-26.5 157q0 31 3 58.5t11 60.5q13 59 45 126t100 103.5t177 36.5h11l95 -5l79 2h305l2 -47l4 -48l10 -118h-113q0 36 -12 59.5t-30 23.5h-44q-33 0 -43.5 -7.5t-10.5 -33.5v-27v-81h201l-5 -136
h-196v-118q0 -38 11 -52t41 -14h8l39 2q11 0 23 6t21.5 19.5t18.5 64.5h115l-13 -108l-13 -106h-217zM436 228v283l-1 28l-10 18l-10 11l-14 11q-9 6 -37 6q-69 0 -107.5 -60.5t-38.5 -172.5q0 -78 15 -119t51 -67q38 -25 77 -25q21 0 39.5 6.5t27.5 22.5q4 8 6 21t2 37z
" />
    <glyph glyph-name="quoteleft" horiz-adv-x="258" 
d="M227 675l-27 -32l-29 -39l-28 -45l18 1q28 0 49.5 -21.5t21.5 -54.5q0 -42 -31 -71.5t-73 -29.5q-44 0 -73.5 30.5t-29.5 77.5q0 58 31.5 111.5t46 73t47.5 55.5z" />
    <glyph glyph-name="quoteleft" unicode="&#x2018;" horiz-adv-x="258" 
d="M227 675l-27 -32l-29 -39l-28 -45l18 1q28 0 49.5 -21.5t21.5 -54.5q0 -42 -31 -71.5t-73 -29.5q-44 0 -73.5 30.5t-29.5 77.5q0 58 31.5 111.5t46 73t47.5 55.5z" />
    <glyph glyph-name="quoteright" horiz-adv-x="258" 
d="M31 440l32 36l25 34l28 46l-20 -2q-30 0 -50.5 21.5t-20.5 53.5q0 42 30 72t76 30q44 0 73.5 -30.5t29.5 -77.5q0 -29 -7 -54t-25 -56q-31 -52 -49 -77l-46 -53z" />
    <glyph glyph-name="quoteright" unicode="&#x2019;" horiz-adv-x="258" 
d="M31 440l32 36l25 34l28 46l-20 -2q-30 0 -50.5 21.5t-20.5 53.5q0 42 30 72t76 30q44 0 73.5 -30.5t29.5 -77.5q0 -29 -7 -54t-25 -56q-31 -52 -49 -77l-46 -53z" />
    <glyph glyph-name="quotedblleft" horiz-adv-x="496" 
d="M466 675l-32 -39l-25 -32l-27 -45l18 1q28 0 49.5 -21.5t21.5 -54.5q0 -42 -31 -71.5t-74 -29.5q-44 0 -73.5 30.5t-29.5 77.5q0 54 30.5 108.5t48 77t47.5 54.5zM227 675l-27 -32l-29 -39l-28 -45l18 1q28 0 49.5 -21.5t21.5 -54.5q0 -42 -31 -71.5t-73 -29.5
q-44 0 -73.5 30.5t-29.5 77.5q0 58 31.5 111.5t46 73t47.5 55.5z" />
    <glyph glyph-name="quotedblleft" unicode="&#x201c;" horiz-adv-x="496" 
d="M466 675l-32 -39l-25 -32l-27 -45l18 1q28 0 49.5 -21.5t21.5 -54.5q0 -42 -31 -71.5t-74 -29.5q-44 0 -73.5 30.5t-29.5 77.5q0 54 30.5 108.5t48 77t47.5 54.5zM227 675l-27 -32l-29 -39l-28 -45l18 1q28 0 49.5 -21.5t21.5 -54.5q0 -42 -31 -71.5t-73 -29.5
q-44 0 -73.5 30.5t-29.5 77.5q0 58 31.5 111.5t46 73t47.5 55.5z" />
    <glyph glyph-name="quotedblright" horiz-adv-x="496" 
d="M31 440l32 36l25 34l28 46l-20 -2q-30 0 -50.5 21.5t-20.5 53.5q0 42 30 72t76 30q44 0 73.5 -30.5t29.5 -77.5q0 -29 -7 -54t-25 -56q-31 -52 -49 -77l-46 -53zM269 440q37 40 57 70l29 46l-20 -2q-30 0 -50.5 21.5t-20.5 53.5q0 42 30 72t75 30q44 0 73.5 -30.5
t29.5 -77.5q0 -54 -31 -109t-49 -78l-46 -53z" />
    <glyph glyph-name="quotedblright" unicode="&#x201d;" horiz-adv-x="496" 
d="M31 440l32 36l25 34l28 46l-20 -2q-30 0 -50.5 21.5t-20.5 53.5q0 42 30 72t76 30q44 0 73.5 -30.5t29.5 -77.5q0 -29 -7 -54t-25 -56q-31 -52 -49 -77l-46 -53zM269 440q37 40 57 70l29 46l-20 -2q-30 0 -50.5 21.5t-20.5 53.5q0 42 30 72t75 30q44 0 73.5 -30.5
t29.5 -77.5q0 -54 -31 -109t-49 -78l-46 -53z" />
    <glyph glyph-name="bullet" horiz-adv-x="255" 
d="M128 357q46 0 73.5 -23t27.5 -60q0 -41 -32.5 -69t-82.5 -28q-38 0 -65 24q-24 24 -24 65t28 66t75 25z" />
    <glyph glyph-name="bullet" unicode="&#x2022;" horiz-adv-x="255" 
d="M128 357q46 0 73.5 -23t27.5 -60q0 -41 -32.5 -69t-82.5 -28q-38 0 -65 24q-24 24 -24 65t28 66t75 25z" />
    <glyph glyph-name="endash" 
d="M41 434h540v-153h-540v153z" />
    <glyph glyph-name="endash" unicode="&#x2013;" 
d="M41 434h540v-153h-540v153z" />
    <glyph glyph-name="emdash" horiz-adv-x="996" 
d="M30 446h936v-172h-936v172z" />
    <glyph glyph-name="emdash" unicode="&#x2014;" horiz-adv-x="996" 
d="M30 446h936v-172h-936v172z" />
    <glyph glyph-name="trademark" horiz-adv-x="759" 
d="M29 720h222v-68l-74 1v-293h-75v293l-73 -1v68zM298 720h74l64 -174l16 -51l4 -39q0 21 4 40t16 50l64 174h75l58 -360h-72l-30 191l-3 26v24l1 24l-13 -48l-5 -19l-3 -7l-69 -191h-46l-69 191l-2 7l-6 19l-13 48l1 -18v-18v-12l-3 -26l-30 -191h-72z" />
    <glyph glyph-name="trademark" unicode="&#x2122;" horiz-adv-x="759" 
d="M29 720h222v-68l-74 1v-293h-75v293l-73 -1v68zM298 720h74l64 -174l16 -51l4 -39q0 21 4 40t16 50l64 174h75l58 -360h-72l-30 191l-3 26v24l1 24l-13 -48l-5 -19l-3 -7l-69 -191h-46l-69 191l-2 7l-6 19l-13 48l1 -18v-18v-12l-3 -26l-30 -191h-72z" />
    <glyph glyph-name="guilsinglright" horiz-adv-x="342" 
d="M197 495l47 -87q26 -43 76 -113l-50 -101l-24 -56l-29 -71h-153l25 75l20 68l22 85l-43 89l-33 58l-33 53h175z" />
    <glyph glyph-name="guilsinglright" unicode="&#x203a;" horiz-adv-x="342" 
d="M197 495l47 -87q26 -43 76 -113l-50 -101l-24 -56l-29 -71h-153l25 75l20 68l22 85l-43 89l-33 58l-33 53h175z" />
    <glyph glyph-name="oe" horiz-adv-x="955" 
d="M681 555q117 0 167 -49t66 -106q8 -29 12 -63.5t4 -84.5v-11v-14l-340 -1q0 -44 32 -74q27 -27 73 -27q58 0 122 64l100 -83l-24 -25q-33 -33 -70 -56t-76 -32q-18 -4 -39 -6t-52 -2q-50 0 -87.5 12t-75.5 44q-30 -24 -54 -32.5t-69 -15.5q-22 -3 -41.5 -5t-36.5 -2
q-116 0 -190 80t-74 205q0 117 66.5 202.5t230.5 85.5q92 0 132 -21t66 -47q39 32 76.5 48t81.5 16zM212 281q0 -79 29 -120.5t82 -41.5q51 0 82 42t31 119q0 81 -30.5 119.5t-82.5 38.5q-37 0 -56.5 -12.5t-37 -50.5t-17.5 -94zM597 325h175v13q0 40 -24.5 66t-64.5 26
q-41 0 -63.5 -25.5t-22.5 -79.5z" />
    <glyph glyph-name="oe" unicode="&#x153;" horiz-adv-x="955" 
d="M681 555q117 0 167 -49t66 -106q8 -29 12 -63.5t4 -84.5v-11v-14l-340 -1q0 -44 32 -74q27 -27 73 -27q58 0 122 64l100 -83l-24 -25q-33 -33 -70 -56t-76 -32q-18 -4 -39 -6t-52 -2q-50 0 -87.5 12t-75.5 44q-30 -24 -54 -32.5t-69 -15.5q-22 -3 -41.5 -5t-36.5 -2
q-116 0 -190 80t-74 205q0 117 66.5 202.5t230.5 85.5q92 0 132 -21t66 -47q39 32 76.5 48t81.5 16zM212 281q0 -79 29 -120.5t82 -41.5q51 0 82 42t31 119q0 81 -30.5 119.5t-82.5 38.5q-37 0 -56.5 -12.5t-37 -50.5t-17.5 -94zM597 325h175v13q0 40 -24.5 66t-64.5 26
q-41 0 -63.5 -25.5t-22.5 -79.5z" />
    <glyph glyph-name="Ydieresis" horiz-adv-x="599" 
d="M-13 721h295l-5 -97q-36 -8 -36 -29l2 -14l8 -20l37 -94l11 -23l15 -42q4 15 5 19q5 15 9 22l15 31l43 94l4 23q0 36 -30 36h-9l3 94h260l-4 -86q-16 0 -23.5 -7t-18.5 -29l-167 -341v-96l3 -37q3 -15 9 -24q6 -6 38 -15l-5 -86h-276l3 86q31 5 39.5 14t8.5 34l1 125
l-187 329l-21 30q-10 10 -28 10zM197 960q79 0 79 -61q0 -88 -110 -88q-38 0 -54.5 13.5t-16.5 45.5q0 90 102 90zM425 960q41 0 60.5 -14.5t19.5 -47.5q0 -87 -109 -87q-39 0 -56 14t-17 47q0 88 102 88z" />
    <glyph glyph-name="Ydieresis" unicode="&#x178;" horiz-adv-x="599" 
d="M-13 721h295l-5 -97q-36 -8 -36 -29l2 -14l8 -20l37 -94l11 -23l15 -42q4 15 5 19q5 15 9 22l15 31l43 94l4 23q0 36 -30 36h-9l3 94h260l-4 -86q-16 0 -23.5 -7t-18.5 -29l-167 -341v-96l3 -37q3 -15 9 -24q6 -6 38 -15l-5 -86h-276l3 86q31 5 39.5 14t8.5 34l1 125
l-187 329l-21 30q-10 10 -28 10zM197 960q79 0 79 -61q0 -88 -110 -88q-38 0 -54.5 13.5t-16.5 45.5q0 90 102 90zM425 960q41 0 60.5 -14.5t19.5 -47.5q0 -87 -109 -87q-39 0 -56 14t-17 47q0 88 102 88z" />
    <glyph glyph-name="nonbreakingspace" unicode="&#xa0;" horiz-adv-x="500" 
 />
    <glyph glyph-name="exclamdown" unicode="&#xa1;" horiz-adv-x="279" 
d="M67 264l2 133v95l133 17q0 -57 6 -116l13 -130q0 -40 14.5 -122.5t21.5 -126.5l-214 -26q4 41 7.5 77.5t9.5 76.5q3 32 5 62.5t2 59.5zM36 636q0 43 32 69.5t83 26.5q39 0 64 -24t25 -65t-28 -66t-74 -25q-45 0 -73.5 22.5t-28.5 57.5v4z" />
    <glyph glyph-name="cent" unicode="&#xa2;" horiz-adv-x="520" 
d="M223 598h148v-51h23q38 0 89 -9v-36v-37l6 -123l-118 -1l1 28q0 58 -61 58q-106 0 -106 -161q0 -67 26 -102.5t74 -35.5q67 0 123 43l70 -103l-30 -25l-35 -21q-24 -14 -69 -28v-51l-148 -1v54q-42 10 -67.5 25t-57.5 48q-30 33 -46 84.5t-16 121.5q0 67 13 110
q12 45 44 82q31 39 74 58q21 11 63 19v54z" />
    <glyph glyph-name="sterling" unicode="&#xa3;" horiz-adv-x="591" 
d="M104 408q-30 93 -30 125q0 94 65 147.5t179 53.5q73 0 122.5 -24.5t73.5 -54.5t35 -53l21 -54l-116 -69q-19 46 -59.5 81.5t-77.5 35.5q-23 0 -44 -21q-19 -22 -19 -49l1 -19q0 -7 7 -21l12 -31l15 -47h167l-3 -132h-157l1 -27q0 -29 -11 -50.5t-23 -36.5l-22 -26l63 10
l51 3h9l22 -3l44 -8l39 -6l27 -3q22 0 64 9l-16 -134q-89 -14 -132 -14l-35 1h-20q-10 3 -14 4l-74 8l-40 3q-24 0 -44.5 -1t-34 -3t-26 -4t-27.5 -8l-53 112q86 51 86 141v18l-4 15h-110l-2 132h90z" />
    <glyph glyph-name="currency" unicode="&#xa4;" horiz-adv-x="497" 
d="M82 260q-29 46 -29 104l1 25q0 10 7 31q6 23 21 45l-51 51q6 9 9 13t11 12q9 12 23 22l55 -56q47 33 103 33q55 0 100 -32l54 56l14 -11q20 -18 31 -38l-52 -49q16 -22 25 -50q4 -14 6 -26.5t2 -29.5q0 -56 -34 -102l53 -52l-10 -12l-10 -10l-25 -25l-54 54
q-45 -33 -102 -33q-53 0 -100 33l-57 -53l-11 11l-10 11l-12 13l-11 13zM232 243q48 0 82.5 34t34.5 83q0 48 -34 82.5t-83 34.5q-48 0 -82.5 -34.5t-34.5 -82.5t34 -82.5t83 -34.5z" />
    <glyph glyph-name="yen" unicode="&#xa5;" horiz-adv-x="628" 
d="M1 721h295l-5 -97q-36 -8 -36 -29q0 -8 10 -34l37 -94l12 -23q3 -5 6.5 -16t7.5 -26q10 32 15 41l14 31l43 94l4 23q0 36 -29 36h-10l4 94h259l-3 -86q-17 0 -23.5 -6.5t-19.5 -29.5l-119 -254h151v-63h-186l-12 -24l1 -18h197v-65h-197v-20l1 -29q0 -15 10 -25
q11 -8 37 -15l-3 -86h-278l3 86q31 5 39.5 13.5t8.5 34.5l1 38h-218l-1 68h221l-2 19l-10 24h-209v65h171l-139 240q-8 16 -13 21q-3 7 -8 9q-8 10 -28 10z" />
    <glyph glyph-name="section" unicode="&#xa7;" horiz-adv-x="604" 
d="M126 -4v-7q0 -58 26.5 -80.5t47 -27.5t33 -5.5t26.5 -0.5l39 1q15 0 37 5.5t43.5 31t21.5 55.5t-20 50.5t-37 27.5l-51 19l-90 28q-63 21 -80 35q-34 23 -58 69q-11 21 -17 44.5t-6 46.5q0 18 3 33.5t11 33.5q13 32 48 79l-20 27q-11 17 -18 44t-7 60q0 101 63.5 157.5
t177.5 56.5l49 -3q10 -1 30 -4t39 -7l86 -16l72 -8l-5 -43q-6 -35 -6 -80l4 -60l-103 1q-8 70 -38 93q-30 25 -102 25q-50 0 -82 -21q-29 -21 -29 -58q0 -57 64 -82l39 -15l83 -38l66 -27q15 -6 38.5 -26.5t34.5 -37.5t18 -49q3 -16 5 -32t2 -36q0 -79 -50 -138l27 -40
q7 -15 14 -38q5 -22 5 -45q0 -58 -31 -116.5t-91 -86.5q-31 -14 -67.5 -21t-87.5 -7q-58 0 -104 10l-77 14l-31 2l-33 -1l-3 52l-5 105l-1 52zM215 369q-4 -13 -8.5 -29.5t-4.5 -24.5q0 -60 117 -92l43 -11l35 -11l2 12l1 18q0 33 -8 46q-7 17 -57 44l-64 30l-26 8z" />
    <glyph glyph-name="dieresis" unicode="&#xa8;" horiz-adv-x="409" 
d="M102 743q79 0 79 -61q0 -88 -110 -88q-38 0 -54.5 13.5t-16.5 45.5q0 90 102 90zM330 743q41 0 60.5 -14.5t19.5 -47.5q0 -87 -109 -87q-39 0 -56 14t-17 47q0 88 102 88z" />
    <glyph glyph-name="copyright" unicode="&#xa9;" horiz-adv-x="932" 
d="M431 734q155 0 264 -109t109 -265q0 -155 -109 -264t-264 -109t-264 109t-109 264q0 154 108.5 264t264.5 110zM217 141q41 -43 99 -67q27 -11 56.5 -17t59.5 -6q61 0 115 22t121 91.5t67 196.5t-67 195t-122 90.5t-116 22.5t-113.5 -21.5t-98.5 -67.5q-41 -43 -66 -101
t-25 -119q0 -126 90 -219zM546 466q-27 23 -53 27l-39 5q-50 0 -87.5 -32.5t-43.5 -67.5l-5 -43q0 -54 30.5 -91t66.5 -43l43 -5l26 3q11 2 14.5 3t10.5 5l19 10q10 5 18 13l43 -66q-38 -29 -79 -40q-39 -9 -66 -9q-78 0 -136 46t-68 92l-10 56l-1 28q0 21 9 72t68 101
t141 50q20 0 59 -6.5t84 -42.5z" />
    <glyph glyph-name="ordfeminine" unicode="&#xaa;" horiz-adv-x="488" 
d="M422 319v-96h-384v96h384zM316 720h105l1 -354h-107v55l-8 -13q-16 -22 -45 -36t-65 -14q-17 0 -55 6.5t-76 55.5t-38 117l1 21l9 50q7 41 55.5 82.5t103.5 41.5q42 0 72.5 -19.5t46.5 -44.5v52zM211 451l18 -1q33 0 56.5 20.5t27.5 40.5l4 33l-6 46q-6 33 -41 42l-44 8
q-36 0 -63 -27q-25 -27 -25 -69q0 -38 19.5 -62.5t53.5 -30.5z" />
    <glyph glyph-name="guillemotleft" unicode="&#xab;" horiz-adv-x="584" 
d="M314 369l29 68l23 58h155l-25 -72l-21 -71l-21 -84l43 -90l35 -62l30 -49h-174l-49 88l-33 51l-42 62l30 59zM72 369l24 53l28 73h155l-28 -79l-19 -64l-20 -84l20 -46l20 -39l38 -67l30 -49h-174l-50 88l-27 42l-47 71z" />
    <glyph glyph-name="logicalnot" unicode="&#xac;" horiz-adv-x="685" 
d="M29 504h576v-288h-108v144h-468v144z" />
    <glyph glyph-name="registered" unicode="&#xae;" horiz-adv-x="932" 
d="M431 734q155 0 264 -109t109 -265q0 -155 -109 -264t-264 -109t-264 109t-109 264q0 154 108.5 264t264.5 110zM217 141q41 -43 99 -67q27 -11 56.5 -17t59.5 -6q61 0 115 22t121 91.5t67 196.5t-67 195t-122 90.5t-116 22.5t-113.5 -21.5t-98.5 -67.5q-41 -43 -66 -101
t-25 -119q0 -126 90 -219zM296 578h134q45 0 63 -5t45 -25.5t33 -46.5l7 -36l1 -18q0 -42 -21.5 -70t-64.5 -41l-8 -2l120 -183h-102l-120 193v-193h-87v427zM416 379q60 0 67 32l7 37q0 27 -19 43t-52 16h-36v-128h33z" />
    <glyph glyph-name="plusminus" unicode="&#xb1;" horiz-adv-x="594" 
d="M506 19h-462v68h462v-68zM309 331h197v-68h-197v-122h-68v122h-197v68h197v122h68v-122z" />
    <glyph glyph-name="acute" unicode="&#xb4;" horiz-adv-x="312" 
d="M80 642l29 49l25 44l26 44h225l-113 -99l-91 -85h-129z" />
    <glyph glyph-name="mu" unicode="&#xb5;" horiz-adv-x="623" 
d="M166 153q0 -71 14 -95t50 -24q56 0 94.5 81.5t38.5 203.5v130h92v-328q0 -45 9 -66t29 -21t31.5 20.5t11.5 61.5v14h21l1 -9v-13q0 -53 -23.5 -85t-66.5 -32q-48 0 -75 43t-27 129q-23 -89 -61.5 -130.5t-96.5 -41.5q-43 0 -73 26q-27 27 -40 77l-1 -28q0 -66 31 -140.5
t33 -92.5q0 -20 -11 -31t-31 -11q-23 0 -33 17.5t-10 52.5l2 58l2 89l-1 101l-2 95v245h92v-296z" />
    <glyph glyph-name="paragraph" unicode="&#xb6;" horiz-adv-x="670" 
d="M591 720v-79h-345q-57 0 -99 -42q-20 -21 -30 -45t-10 -55q0 -58 41 -98.5t98 -40.5h60v223h86v-583h-86v281h-60q-89 0 -153 63t-64 156q0 89 63 154.5t155 65.5h344zM450 583h86v-583h-86v583z" />
    <glyph glyph-name="cedilla" unicode="&#xb8;" horiz-adv-x="212" 
d="M16 -143q29 -15 48 -15q25 0 39.5 6.5t14.5 19.5q0 24 -28 24q-18 0 -41 -10l-17 44q42 33 60 60q9 10 15 23l16 31l41 -13l-32 -79l22 -3l19 -10l10 -5q9 -5 19 -23.5t10 -38.5q0 -38 -33 -63.5t-85 -25.5q-19 0 -41 3t-53 10z" />
    <glyph glyph-name="ordmasculine" unicode="&#xba;" horiz-adv-x="488" 
d="M35 319h382v-96h-382v96zM264 731q71 -13 114.5 -65.5t43.5 -121.5q0 -81 -56.5 -136t-140.5 -55t-140 54.5t-56 136.5t57 136t138 54zM136 526q6 -33 30.5 -54t58.5 -21q38 0 64.5 26.5t26.5 66.5l-2 18q-10 60 -44 67l-45 7q-9 0 -14.5 -1t-33.5 -6.5t-41 -67.5l-2 -17
z" />
    <glyph glyph-name="guillemotright" unicode="&#xbb;" horiz-adv-x="584" 
d="M197 495l25 -48l24 -42l35 -54l39 -56l-50 -101l-24 -56l-29 -71h-153l25 75l20 68l22 85l-43 89l-33 58l-33 53h175zM439 495l49 -87l31 -51l43 -62l-51 -101l-25 -58l-27 -69h-153l24 70l16 54l15 55l12 49l-43 89l-33 58l-33 53h175z" />
    <glyph glyph-name="questiondown" unicode="&#xbf;" horiz-adv-x="489" 
d="M461 136q-30 -46 -94 -97t-156 -51q-76 0 -129 56t-53 135q0 40 10.5 62.5t49.5 61.5l45 45l30 30q38 38 38 72q0 17 -18 41l182 42q19 -40 19 -68q0 -14 -1 -19.5t-7 -17.5l-24 -39q-17 -25 -32 -43l-39 -45q-6 -10 -27 -26q-44 -39 -44 -76q0 -22 10 -38q11 -14 28 -14
q21 0 56 34.5t60 83.5l116 -93zM172 634q0 42 33 69t83 27q38 0 63 -24t25 -65t-28.5 -66.5t-73.5 -25.5t-73.5 22.5t-28.5 58.5v4z" />
    <glyph glyph-name="Agrave" unicode="&#xc0;" horiz-adv-x="681" 
d="M-11 86q23 3 33 12t22 39l179 481l22 60l11 43h176l9 -40l18 -47l182 -513q10 -26 54 -35l-3 -86h-280l4 86q41 0 41 32l-2 9q0 7 -5 20l-14 44h-212l-16 -47l-7 -28q0 -30 47 -30l-4 -86h-258zM262 319h141l-55 151l-6 19l-10 42l-11 -45l-9 -23zM359 998l18 -37l23 -41
q14 -28 27.5 -51.5t34.5 -56.5h-121l-47 42l-48 43l-57 50l-56 51h226z" />
    <glyph glyph-name="Aacute" unicode="&#xc1;" horiz-adv-x="681" 
d="M-11 86q23 3 33 12t22 39l179 481l22 60l11 43h176l9 -40l18 -47l182 -513q10 -26 54 -35l-3 -86h-280l4 86q41 0 41 32l-2 9q0 7 -5 20l-14 44h-212l-16 -47l-7 -28q0 -30 47 -30l-4 -86h-258zM262 319h141l-55 151l-6 19l-10 42l-11 -45l-9 -23zM264 859l29 49l25 44
l26 44h225l-113 -99l-91 -85h-129z" />
    <glyph glyph-name="Acircumflex" unicode="&#xc2;" horiz-adv-x="681" 
d="M-11 86q23 3 33 12t22 39l179 481l22 60l11 43h176l9 -40l18 -47l182 -513q10 -26 54 -35l-3 -86h-280l4 86q41 0 41 32l-2 9q0 7 -5 20l-14 44h-212l-16 -47l-7 -28q0 -30 47 -30l-4 -86h-258zM262 319h141l-55 151l-6 19l-10 42l-11 -45l-9 -23zM185 866l32 56l22 42
l24 42h167l33 -74q23 -48 63 -123h-127l-15 26q-6 12 -17 23l-21 23l-24 -24q-12 -14 -31 -48h-137z" />
    <glyph glyph-name="Atilde" unicode="&#xc3;" horiz-adv-x="681" 
d="M-11 86q23 3 33 12t22 39l179 481l22 60l11 43h176l9 -40l18 -47l182 -513q10 -26 54 -35l-3 -86h-280l4 86q41 0 41 32l-2 9q0 7 -5 20l-14 44h-212l-16 -47l-7 -28q0 -30 47 -30l-4 -86h-258zM262 319h141l-55 151l-6 19l-10 42l-11 -45l-9 -23zM250 980q17 0 26 -1
t29 -7l62 -17l18 -2q10 0 17.5 5.5t13.5 21.5l130 -39q-16 -63 -47.5 -98t-71.5 -35q-15 0 -23 1t-25 7l-69 20l-15 4q-22 0 -29 -35l-131 42q17 62 47 97.5t68 35.5z" />
    <glyph glyph-name="Adieresis" unicode="&#xc4;" horiz-adv-x="681" 
d="M-11 86q23 3 33 12t22 39l179 481l18 65l-37 -3q-36 0 -53 13q-15 14 -15 46q0 86 102 86q40 0 57 -14t17 -47q0 -22 -8 -41h61l-1 20q0 82 102 82q40 0 57 -14q18 -12 18 -46q0 -32 -13.5 -50.5t-31.5 -27.5q-8 -3 -20.5 -5t-31.5 -2l15 -46l182 -513q10 -26 54 -35
l-3 -86h-280l4 86q41 0 41 32l-2 9q0 7 -5 20l-14 44h-212l-16 -47l-7 -28q0 -30 47 -30l-4 -86h-258zM403 319l-55 151l-6 19l-10 42l-11 -45l-9 -23l-50 -144h141z" />
    <glyph glyph-name="Aring" unicode="&#xc5;" horiz-adv-x="681" 
d="M-11 86q21 0 32 10t23 41l179 481l22 60l11 43h33q-37 23 -51 44.5t-14 51.5q0 48 33.5 81t84.5 33q50 0 84.5 -33.5t34.5 -81.5q0 -30 -14 -50.5t-50 -44.5h35l9 -40l18 -47l182 -513q10 -26 54 -35l-3 -86h-280l4 86q41 0 41 32l-2 9q0 7 -5 20l-14 44h-212l-16 -47
l-7 -28q0 -30 47 -30l-4 -86h-258zM403 319l-55 151l-6 19l-10 42l-11 -45l-9 -23l-50 -144h141zM343 775q15 0 25 10t10 27q0 15 -9 25t-26 12q-15 0 -25 -10t-12 -27q0 -16 10 -27q10 -8 27 -10z" />
    <glyph glyph-name="AE" unicode="&#xc6;" horiz-adv-x="895" 
d="M17 77l228 534q14 34 23 110h562l11 -104l14 -107l-112 -2q-17 83 -77 83h-29q-17 0 -30.5 -8.5t-15.5 -22.5v-27v-87h204l-8 -137h-197v-131v-16q3 -8 5 -17.5t7.5 -16t41.5 -6.5h44q39 0 48 21q5 11 8 23t3 13l2 31h118l-11 -57q0 -12 -2 -24t-3 -19l-5 -58l-2 -52
h-482l1 89q21 0 30.5 8.5t13.5 23.5l4 31v157h-115l-64 -137l-6 -29l-1 -12q0 -39 37 -39l-8 -92h-268zM334 445l85 1v88l-1 36v14l1 22h-32q-3 -20 -9 -37l-7 -23z" />
    <glyph glyph-name="Ccedilla" unicode="&#xc7;" horiz-adv-x="615" 
d="M564 671l4 -49l4 -59l4 -58l-123 2q-10 51 -31 70q-18 20 -60 20q-67 0 -103.5 -57.5t-36.5 -167.5t33 -170.5t97 -60.5q78 0 177 87l86 -123l-27 -22l-50 -35l-48 -28q-23 -11 -47 -19l-57 -11l-25 -58q25 -3 30 -8l14 -7l14 -8q5 -2 6 -4l11 -16q12 -27 12 -45
q0 -42 -35 -69.5t-93 -27.5q-46 0 -103 15l19 70l27 -13l20 -3q30 0 45 8q17 6 17 20q0 9 -9 18q-8 6 -21 8q-22 0 -45 -11l-18 48q29 20 43.5 36.5t30.5 43.5q-67 6 -109.5 20.5t-86 53.5t-73.5 124q-14 43 -21 89.5t-7 103.5q0 177 83 267.5t243 90.5l44 -1h28
q12 -3 18 -4l69 -8l47 -2z" />
    <glyph glyph-name="Egrave" unicode="&#xc8;" horiz-adv-x="591" 
d="M11 86q27 0 39.5 15.5t12.5 53.5l2 392q0 88 -57 88l3 86h520l6 -80q0 -15 1 -24.5t6 -30.5l12 -62h-113l-6 25l-6 14q-11 21 -28 27l-40 1h-57q-62 0 -62 -68v-84h251l-5 -137h-246v-108q0 -36 3 -45.5t16.5 -16t28.5 -9.5l28 -3h37q25 0 35 1.5t22 7.5t24 32l18 61h114
l-19 -110l-12 -112h-531zM314 998l18 -37l23 -41q14 -28 27.5 -51.5t34.5 -56.5h-121l-47 42l-48 43l-57 50l-56 51h226z" />
    <glyph glyph-name="Eacute" unicode="&#xc9;" horiz-adv-x="591" 
d="M11 86q27 0 39.5 15.5t12.5 53.5l2 392q0 88 -57 88l3 86h520l6 -80q0 -15 1 -24.5t6 -30.5l12 -62h-113l-6 25l-6 14q-11 21 -28 27l-40 1h-57q-62 0 -62 -68v-84h251l-5 -137h-246v-108q0 -36 3 -45.5t16.5 -16t28.5 -9.5l28 -3h37q25 0 35 1.5t22 7.5t24 32l18 61h114
l-19 -110l-12 -112h-531zM219 859l29 49l25 44l26 44h225l-113 -99l-91 -85h-129z" />
    <glyph glyph-name="Ecircumflex" unicode="&#xca;" horiz-adv-x="591" 
d="M11 86q27 0 39.5 15.5t12.5 53.5l2 392q0 88 -57 88l3 86h520l6 -80q0 -15 1 -24.5t6 -30.5l12 -62h-113l-6 25l-6 14q-11 21 -28 27l-40 1h-57q-62 0 -62 -68v-84h251l-5 -137h-246v-108q0 -36 3 -45.5t16.5 -16t28.5 -9.5l28 -3h37q25 0 35 1.5t22 7.5t24 32l18 61h114
l-19 -110l-12 -112h-531zM140 866l32 56l22 42l24 42h167l33 -74q23 -48 63 -123h-127l-15 26q-6 12 -17 23l-21 23l-24 -24q-12 -14 -31 -48h-137z" />
    <glyph glyph-name="Edieresis" unicode="&#xcb;" horiz-adv-x="591" 
d="M11 86q27 0 39.5 15.5t12.5 53.5l2 392q0 88 -57 88l3 86h520l6 -80q0 -15 1 -24.5t6 -30.5l12 -62h-113l-6 25l-6 14q-11 21 -28 27l-40 1h-57q-62 0 -62 -68v-84h251l-5 -137h-246v-108q0 -36 3 -45.5t16.5 -16t28.5 -9.5l28 -3h37q25 0 35 1.5t22 7.5t24 32l18 61h114
l-19 -110l-12 -112h-531zM193 960q79 0 79 -61q0 -88 -110 -88q-38 0 -54.5 13.5t-16.5 45.5q0 90 102 90zM421 960q41 0 60.5 -14.5t19.5 -47.5q0 -87 -109 -87q-39 0 -56 14t-17 47q0 88 102 88z" />
    <glyph glyph-name="Igrave" unicode="&#xcc;" horiz-adv-x="311" 
d="M11 86q10 2 19 5t15 6t13 16.5t7 40.5v411v13l-1 24q-2 3 -3 5q-4 5 -12 13q-12 15 -41 15l3 86h293l-3 -86q-56 0 -56 -69v-402q0 -42 10 -58t47 -20l-4 -86h-290zM174 998l18 -37l23 -41q14 -28 27.5 -51.5t34.5 -56.5h-121l-47 42l-48 43l-57 50l-56 51h226z" />
    <glyph glyph-name="Iacute" unicode="&#xcd;" horiz-adv-x="311" 
d="M11 86q10 2 19 5t15 6t13 16.5t7 40.5v411v13l-1 24q-2 3 -3 5q-4 5 -12 13q-12 15 -41 15l3 86h293l-3 -86q-56 0 -56 -69v-402q0 -42 10 -58t47 -20l-4 -86h-290zM80 859l29 49l25 44l26 44h225l-113 -99l-91 -85h-129z" />
    <glyph glyph-name="Icircumflex" unicode="&#xce;" horiz-adv-x="311" 
d="M11 86q10 2 19 5t15 6t13 16.5t7 40.5v411v13l-1 24q-2 3 -3 5q-4 5 -12 13q-12 15 -41 15l3 86h293l-3 -86q-56 0 -56 -69v-402q0 -42 10 -58t47 -20l-4 -86h-290zM2 866l32 56l22 42l24 42h167l33 -74q23 -48 63 -123h-127l-15 26q-6 12 -17 23l-21 23l-24 -24
q-12 -14 -31 -48h-137z" />
    <glyph glyph-name="Idieresis" unicode="&#xcf;" horiz-adv-x="311" 
d="M11 86q10 2 19 5t15 6t13 16.5t7 40.5v411v13l-1 24q-2 3 -3 5q-4 5 -12 13q-12 15 -41 15l3 86h293l-3 -86q-56 0 -56 -69v-402q0 -42 10 -58t47 -20l-4 -86h-290zM54 960q79 0 79 -61q0 -88 -110 -88q-38 0 -54.5 13.5t-16.5 45.5q0 90 102 90zM282 960
q41 0 60.5 -14.5t19.5 -47.5q0 -87 -109 -87q-39 0 -56 14t-17 47q0 88 102 88z" />
    <glyph glyph-name="Ntilde" unicode="&#xd1;" horiz-adv-x="710" 
d="M11 86q30 3 41.5 19t11.5 60v408q0 36 -9.5 47t-46.5 15l3 86h254l13 -38l26 -44l145 -297l32 -66l11 -28l14 -36l-13 74q-5 40 -5 70l-4 39l-1 37v122q0 69 -61 81l3 86h278l-4 -86q-32 -6 -44 -18q-10 -13 -10 -49l1 -473v-49v-21l7 -25h-189l-224 412l-14 33l-14 31
l4 -25l3 -25l5 -39l1 -19v-181q0 -54 15 -77.5t53 -23.5l-1 -86h-284zM264 980q17 0 26 -1t29 -7l62 -17l18 -2q10 0 17.5 5.5t13.5 21.5l130 -39q-16 -63 -47.5 -98t-71.5 -35q-15 0 -23 1t-25 7l-69 20l-15 4q-22 0 -29 -35l-131 42q17 62 47 97.5t68 35.5z" />
    <glyph glyph-name="Ograve" unicode="&#xd2;" horiz-adv-x="723" 
d="M84 599q89 138 276 138q190 0 249 -92t72 -149.5t13 -133.5q0 -86 -12.5 -138.5t-71.5 -145t-250 -92.5q-95 0 -161.5 33t-104.5 92t-51.5 116t-13.5 133v9q0 80 12 131.5t43 98.5zM225 365q0 -69 3 -88.5t9 -37t21 -46.5q24 -51 104 -51q76 0 100.5 49.5t30 81.5t5.5 88
v15v12q0 44 -4 63q-3 26 -21 59q-15 33 -47 52t-65 19q-37 0 -65.5 -18.5t-46.5 -54.5q-13 -23 -18.5 -56t-5.5 -87zM380 998l18 -37l23 -41q14 -28 27.5 -51.5t34.5 -56.5h-121l-47 42l-48 43l-57 50l-56 51h226z" />
    <glyph glyph-name="Oacute" unicode="&#xd3;" horiz-adv-x="723" 
d="M84 599q89 138 276 138q190 0 249 -92t72 -149.5t13 -133.5q0 -86 -12.5 -138.5t-71.5 -145t-250 -92.5q-95 0 -161.5 33t-104.5 92t-51.5 116t-13.5 133v9q0 80 12 131.5t43 98.5zM225 365q0 -69 3 -88.5t9 -37t21 -46.5q24 -51 104 -51q76 0 100.5 49.5t30 81.5t5.5 88
v15v12q0 44 -4 63q-3 26 -21 59q-15 33 -47 52t-65 19q-37 0 -65.5 -18.5t-46.5 -54.5q-13 -23 -18.5 -56t-5.5 -87zM285 859l29 49l25 44l26 44h225l-113 -99l-91 -85h-129z" />
    <glyph glyph-name="Ocircumflex" unicode="&#xd4;" horiz-adv-x="723" 
d="M84 599q89 138 276 138q190 0 249 -92t72 -149.5t13 -133.5q0 -86 -12.5 -138.5t-71.5 -145t-250 -92.5q-95 0 -161.5 33t-104.5 92t-51.5 116t-13.5 133v9q0 80 12 131.5t43 98.5zM225 365q0 -69 3 -88.5t9 -37t21 -46.5q24 -51 104 -51q76 0 100.5 49.5t30 81.5t5.5 88
v15v12q0 44 -4 63q-3 26 -21 59q-15 33 -47 52t-65 19q-37 0 -65.5 -18.5t-46.5 -54.5q-13 -23 -18.5 -56t-5.5 -87zM206 866l32 56l22 42l24 42h167l33 -74q23 -48 63 -123h-127l-15 26q-6 12 -17 23l-21 23l-24 -24q-12 -14 -31 -48h-137z" />
    <glyph glyph-name="Otilde" unicode="&#xd5;" horiz-adv-x="723" 
d="M84 599q89 138 276 138q190 0 249 -92t72 -149.5t13 -133.5q0 -86 -12.5 -138.5t-71.5 -145t-250 -92.5q-95 0 -161.5 33t-104.5 92t-51.5 116t-13.5 133v9q0 80 12 131.5t43 98.5zM225 365q0 -69 3 -88.5t9 -37t21 -46.5q24 -51 104 -51q76 0 100.5 49.5t30 81.5t5.5 88
v15v12q0 44 -4 63q-3 26 -21 59q-15 33 -47 52t-65 19q-37 0 -65.5 -18.5t-46.5 -54.5q-13 -23 -18.5 -56t-5.5 -87zM271 980q17 0 26 -1t29 -7l62 -17l18 -2q10 0 17.5 5.5t13.5 21.5l130 -39q-16 -63 -47.5 -98t-71.5 -35q-15 0 -23 1t-25 7l-69 20l-15 4q-22 0 -29 -35
l-131 42q17 62 47 97.5t68 35.5z" />
    <glyph glyph-name="Odieresis" unicode="&#xd6;" horiz-adv-x="723" 
d="M168 749q0 86 96 86q42 0 61.5 -14t19.5 -47q0 -17 -11 -42q24 6 36 6q14 0 28 -5l-2 19q0 39 26 61t71 22q22 0 36.5 -3t24.5 -11q19 -14 19 -46q0 -53 -43 -74l64 -47q50 -45 68 -97t26 -96q6 -41 6 -99q0 -55 -6 -94.5t-27 -101t-94 -121t-210 -59.5
q-127 0 -199.5 57.5t-93.5 117t-29 102.5q-6 42 -6 97q0 107 18 158q8 22 17.5 43t19.5 38q21 32 41.5 50.5t68.5 47.5q-15 9 -19.5 18.5t-5.5 14.5t-1 19zM249 214q33 -72 113 -72q56 0 91 41q21 22 32 57q5 17 7.5 33t3.5 23l2 65v15v12q0 43 -3 59.5t-9 34t-21 46.5
q-24 53 -104 53q-52 0 -91 -40q-24 -29 -35 -70q-3 -10 -5 -22.5t-3 -20.5l-2 -62q0 -69 4 -94q3 -29 20 -58z" />
    <glyph glyph-name="Oslash" unicode="&#xd8;" horiz-adv-x="755" 
d="M114 98q-42 42 -60 105t-18 165q0 144 71 256.5t259 112.5q74 0 116.5 -14t61 -25t56.5 -41l53 58h72l-85 -98l5 -16l47 -129l2 -5q4 -13 6 -31t2 -48v-19l-3 -65q0 -50 -14 -95q-7 -23 -24 -56t-47 -79q-56 -88 -251 -88h-43q-16 3 -34.5 5t-44.5 12q-12 5 -22.5 9.5
t-19.5 10t-19.5 13t-30.5 23.5l-51 -60h-69zM271 198q19 -29 41 -44q21 -12 56 -12q66 0 102 52.5t36 150.5l-1 20l-2 67v12v20zM482 520q-47 61 -107 61q-75 0 -101 -51.5t-31 -78.5l-4 -86v-74v-16l6 -24z" />
    <glyph glyph-name="Ugrave" unicode="&#xd9;" horiz-adv-x="706" 
d="M11 721h292l-4 -86q-32 -8 -43 -17t-11 -53v-304q0 -46 19.5 -93.5t91.5 -47.5q51 0 78 36t27 105v304q0 39 -10.5 51.5t-47.5 18.5l5 86h291l-4 -86q-35 -4 -44 -15q-5 -8 -7 -25l-2 -19l-1 -18v-265q0 -80 -15.5 -129t-56 -92t-89.5 -61.5t-128 -18.5
q-81 0 -126.5 17.5t-85 58.5t-58.5 94q-8 27 -12 58t-4 73v265l-1 14l-3 30q-2 13 -11 22q-8 11 -43 11zM372 998l18 -37l23 -41q14 -28 27.5 -51.5t34.5 -56.5h-121l-47 42l-48 43l-57 50l-56 51h226z" />
    <glyph glyph-name="Uacute" unicode="&#xda;" horiz-adv-x="706" 
d="M11 721h292l-4 -86q-32 -8 -43 -17t-11 -53v-304q0 -46 19.5 -93.5t91.5 -47.5q51 0 78 36t27 105v304q0 39 -10.5 51.5t-47.5 18.5l5 86h291l-4 -86q-35 -4 -44 -15q-5 -8 -7 -25l-2 -19l-1 -18v-265q0 -80 -15.5 -129t-56 -92t-89.5 -61.5t-128 -18.5
q-81 0 -126.5 17.5t-85 58.5t-58.5 94q-8 27 -12 58t-4 73v265l-1 14l-3 30q-2 13 -11 22q-8 11 -43 11zM277 859l29 49l25 44l26 44h225l-113 -99l-91 -85h-129z" />
    <glyph glyph-name="Ucircumflex" unicode="&#xdb;" horiz-adv-x="706" 
d="M11 721h292l-4 -86q-32 -8 -43 -17t-11 -53v-304q0 -46 19.5 -93.5t91.5 -47.5q51 0 78 36t27 105v304q0 39 -10.5 51.5t-47.5 18.5l5 86h291l-4 -86q-35 -4 -44 -15q-5 -8 -7 -25l-2 -19l-1 -18v-265q0 -80 -15.5 -129t-56 -92t-89.5 -61.5t-128 -18.5
q-81 0 -126.5 17.5t-85 58.5t-58.5 94q-8 27 -12 58t-4 73v265l-1 14l-3 30q-2 13 -11 22q-8 11 -43 11zM198 866l32 56l22 42l24 42h167l33 -74q23 -48 63 -123h-127l-15 26q-6 12 -17 23l-21 23l-24 -24q-12 -14 -31 -48h-137z" />
    <glyph glyph-name="Udieresis" unicode="&#xdc;" horiz-adv-x="717" 
d="M11 721l151 3l-3 27q0 39 25.5 61.5t70.5 22.5q44 0 62 -14t18 -47q0 -28 -6.5 -41.5t-24.5 -27.5l-5 -70q-31 -6 -42.5 -20t-11.5 -50v-304q0 -71 30 -106q30 -32 81 -32t85 37t34 94v303v21q0 12 -2 21t-14 17q-12 12 -41 19v59q-31 14 -31 55q0 86 102 86q74 0 74 -60
v-12q0 -6 -2 -14l-12 -26l161 -2l-4 -86q-35 -4 -46 -17.5t-11 -47.5v-6l6 -275v-12q0 -288 -295 -288q-107 0 -177.5 45t-93.5 112t-23 147v265l-1 14l-3 30q-2 13 -11 22q-8 11 -43 11z" />
    <glyph glyph-name="germandbls" unicode="&#xdf;" horiz-adv-x="644" 
d="M13 538l28 3q9 0 14 4q5 2 8 24l3 35q7 82 74 134t166 52q88 0 145 -50t57 -129q0 -39 -24 -75q-14 -25 -41 -59l-17 -23q-8 -10 -10 -18q0 -18 45 -36t74 -36t46 -42l18 -29l11 -19l8 -25q5 -18 5 -39q0 -93 -65 -154q-31 -29 -73 -45t-91 -16q-34 0 -45.5 1.5
t-30.5 6.5q-31 8 -74 25l33 105q53 -14 85 -14q39 0 64.5 22t25.5 58q0 18 -2 25.5t-10 17.5q-3 9 -13 13l-50 22l-23 10l-62 37q-48 29 -48 88q0 14 3 28t11 34l9 18l45 63q18 25 24.5 40.5t6.5 41.5q0 19 -14 33t-33 14q-74 0 -74 -140l-3 -414v-27l2 -56l3 -47h-215l5 91
l13 -2q20 0 25.5 11.5t7.5 24.5l1 29v276q-19 -7 -31 -7q-11 0 -22 5z" />
    <glyph glyph-name="agrave" unicode="&#xe0;" horiz-adv-x="588" 
d="M346 40l-24 -19q-23 -18 -40.5 -25t-53.5 -7q-93 0 -146 48.5t-53 136.5q0 50 24 94t66.5 65t148.5 21h25l59 -3v17q0 12 -8.5 23.5t-21.5 19.5q-20 6 -54 6h-28t-21 -2q-14 0 -48 -10l-99 -24l7 140q38 13 96 23q26 4 55 6t68 2q55 0 87 -7q35 -6 85 -36t50 -134v-213
l-1 -38q0 -29 54 -38l-2 -86h-188l-9 26l-2 26l3 29q-15 -27 -29 -41zM361 223v16h-56q-46 0 -70.5 -17t-24.5 -48q0 -46 60 -46q51 0 76 26q15 14 15 48v21zM313 781l18 -37l23 -41q14 -28 27.5 -51.5t34.5 -56.5h-121l-47 42l-48 43l-57 50l-56 51h226z" />
    <glyph glyph-name="aacute" unicode="&#xe1;" horiz-adv-x="588" 
d="M346 40l-24 -19q-23 -18 -40.5 -25t-53.5 -7q-93 0 -146 48.5t-53 136.5q0 50 24 94t66.5 65t148.5 21h25l59 -3v17q0 12 -8.5 23.5t-21.5 19.5q-20 6 -54 6h-28t-21 -2q-14 0 -48 -10l-99 -24l7 140q38 13 96 23q26 4 55 6t68 2q55 0 87 -7q35 -6 85 -36t50 -134v-213
l-1 -38q0 -29 54 -38l-2 -86h-188l-9 26l-2 26l3 29q-15 -27 -29 -41zM361 223v16h-56q-46 0 -70.5 -17t-24.5 -48q0 -46 60 -46q51 0 76 26q15 14 15 48v21zM218 642l29 49l25 44l26 44h225l-113 -99l-91 -85h-129z" />
    <glyph glyph-name="acircumflex" unicode="&#xe2;" horiz-adv-x="588" 
d="M346 40l-24 -19q-23 -18 -40.5 -25t-53.5 -7q-93 0 -146 48.5t-53 136.5q0 50 24 94t66.5 65t148.5 21h25l59 -3v17q0 12 -8.5 23.5t-21.5 19.5q-20 6 -54 6h-28t-21 -2q-14 0 -48 -10l-99 -24l7 140q38 13 96 23q26 4 55 6t68 2q55 0 87 -7q35 -6 85 -36t50 -134v-213
l-1 -38q0 -29 54 -38l-2 -86h-188l-9 26l-2 26l3 29q-15 -27 -29 -41zM361 223v16h-56q-46 0 -70.5 -17t-24.5 -48q0 -46 60 -46q51 0 76 26q15 14 15 48v21zM139 649l32 56l22 42l24 42h167l33 -74q23 -48 63 -123h-127l-15 26q-6 12 -17 23l-21 23l-24 -24
q-12 -14 -31 -48h-137z" />
    <glyph glyph-name="atilde" unicode="&#xe3;" horiz-adv-x="588" 
d="M346 40l-24 -19q-23 -18 -40.5 -25t-53.5 -7q-93 0 -146 48.5t-53 136.5q0 50 24 94t66.5 65t148.5 21h25l59 -3v17q0 12 -8.5 23.5t-21.5 19.5q-20 6 -54 6h-28t-21 -2q-14 0 -48 -10l-99 -24l7 140q38 13 96 23q26 4 55 6t68 2q55 0 87 -7q35 -6 85 -36t50 -134v-213
l-1 -38q0 -29 54 -38l-2 -86h-188l-9 26l-2 26l3 29q-15 -27 -29 -41zM361 223v16h-56q-46 0 -70.5 -17t-24.5 -48q0 -46 60 -46q51 0 76 26q15 14 15 48v21zM203 763q17 0 26 -1t29 -7l62 -17l18 -2q10 0 17.5 5.5t13.5 21.5l130 -39q-16 -63 -47.5 -98t-71.5 -35
q-15 0 -23 1t-25 7l-69 20l-15 4q-22 0 -29 -35l-131 42q17 62 47 97.5t68 35.5z" />
    <glyph glyph-name="adieresis" unicode="&#xe4;" horiz-adv-x="588" 
d="M346 40l-24 -19q-23 -18 -40.5 -25t-53.5 -7q-93 0 -146 48.5t-53 136.5q0 50 24 94t66.5 65t148.5 21h25l59 -3v17l-3 10q-3 12 -13 25.5t-68 13.5h-28t-21 -2q-14 0 -48 -10l-99 -24l7 140l45 14q39 9 81 14t88 5h33t36 -4q27 -3 68 -19q38 -13 65 -52q25 -39 25 -104
v-213l-1 -38q0 -29 54 -38l-2 -86h-188l-9 26l-2 26l3 29q-15 -27 -29 -41zM203 743q79 0 79 -61q0 -45 -26 -66.5t-83 -21.5q-38 0 -54.5 13.5t-16.5 45.5q0 90 101 90zM431 743q41 0 60.5 -14.5t19.5 -47.5q0 -87 -109 -87q-38 0 -55 14t-17 47q0 88 101 88zM305 239
q-46 0 -70.5 -17t-24.5 -48q0 -46 61 -46q52 0 75 26q15 14 15 48v21v16h-56z" />
    <glyph glyph-name="aring" unicode="&#xe5;" horiz-adv-x="588" 
d="M346 40l-24 -19q-23 -18 -40.5 -25t-53.5 -7q-93 0 -146 48.5t-53 136.5q0 50 24 94t66.5 65t148.5 21h25l59 -3v17l-3 10q-3 12 -13.5 25.5t-67.5 13.5q-34 0 -57 -4l-60 -12l-79 -20l7 140l45 14q82 19 171 19q36 0 51.5 -1t35 -6t41.5 -14.5t46 -24.5q51 -29 51 -133
v-213l-1 -38q0 -29 54 -38l-2 -86h-188l-9 26l-2 26l3 29q-15 -27 -29 -41zM299 774q50 0 84 -35q35 -33 35 -83t-34.5 -84.5t-84.5 -34.5q-49 0 -84 34q-34 36 -34 85q0 48 34.5 83t83.5 35zM305 239q-46 0 -70.5 -17t-24.5 -48q0 -46 59 -46q52 0 77 26q15 14 15 48v21v16
h-56zM263 656q0 -15 9.5 -26t26.5 -11q15 0 25.5 10.5t11.5 26.5q0 14 -10 24.5t-27 11.5q-15 0 -24.5 -9.5t-11.5 -26.5z" />
    <glyph glyph-name="ae" unicode="&#xe6;" horiz-adv-x="852" 
d="M335 23q-57 -34 -126 -34q-79 0 -129.5 53t-50.5 135q0 40 18.5 82.5t43.5 59.5q22 17 64 28.5t76 11.5h105l-4 17q-9 40 -90 40q-26 0 -38 -2t-37 -8t-51.5 -14t-54.5 -19l9 147l34 10l36 8l62 11l70 5q80 0 129 -23l31 -19l19 13q9 6 41.5 19.5t101.5 13.5
q120 0 161 -53t57 -110q8 -30 12 -57.5t4 -60.5l-1 -36l-334 -2v-10q0 -41 30.5 -72.5t74.5 -31.5q26 0 53.5 14.5t78.5 58.5l94 -81l-30 -36l-61 -53q-51 -42 -162 -42q-49 0 -74 8q-12 3 -23 5q-9 3 -18.5 6.5t-23.5 10.5l-23 14l-30 27q-24 -24 -44 -34zM333 172
q-5 27 -5 46l1 23h-51q-31 0 -54 -18.5t-23 -45.5q0 -19 13 -35q14 -14 35 -14q28 0 48 16l21 16zM495 338h175q0 51 -24 78t-65 27q-39 0 -62.5 -28t-23.5 -77z" />
    <glyph glyph-name="ccedilla" unicode="&#xe7;" horiz-adv-x="520" 
d="M483 502v-37l6 -123l-118 3l1 25q0 57 -61 57q-17 0 -30.5 -4.5t-33 -18t-31.5 -52.5q-5 -17 -8 -39t-3 -47q0 -67 26 -102.5t74 -35.5q21 0 47.5 6t40.5 13l21 13l14 11l70 -103l-31 -25l-34 -21q-20 -12 -44 -19l-58 -13l-32 -70q15 0 29 -6l13 -7l13 -8q7 -3 16 -21.5
t9 -37.5q0 -38 -33 -63.5t-84 -25.5q-41 0 -94 13l16 65l24 -12l20 -3q57 0 57 26q0 24 -28 24q-18 0 -41 -10l-17 44l34 32l26 28l23 30q-62 0 -106 18t-79 57t-51.5 92t-16.5 124q0 181 93 227t198 46l72 -3q17 -1 39.5 -4t51.5 -7v-36z" />
    <glyph glyph-name="egrave" unicode="&#xe8;" horiz-adv-x="549" 
d="M195 235q6 -46 33.5 -76.5t68.5 -30.5q25 0 54.5 14t71.5 45l88 -90q-29 -30 -55.5 -49.5t-55.5 -33.5q-53 -24 -123 -24q-119 0 -183.5 72t-64.5 201q0 141 68 215t197 74q114 0 175.5 -67.5t61.5 -193.5l-1 -21q0 -10 -7 -35h-328zM192 337h181q0 90 -90 90
q-41 0 -66 -23.5t-25 -66.5zM293 781l18 -37l23 -41q14 -28 27.5 -51.5t34.5 -56.5h-121l-47 42l-48 43l-57 50l-56 51h226z" />
    <glyph glyph-name="eacute" unicode="&#xe9;" horiz-adv-x="549" 
d="M195 235q6 -46 33.5 -76.5t68.5 -30.5q25 0 54.5 14t71.5 45l88 -90q-29 -30 -55.5 -49.5t-55.5 -33.5q-53 -24 -123 -24q-119 0 -183.5 72t-64.5 201q0 141 68 215t197 74q114 0 175.5 -67.5t61.5 -193.5l-1 -21q0 -10 -7 -35h-328zM192 337h181q0 90 -90 90
q-41 0 -66 -23.5t-25 -66.5zM198 642l29 49l25 44l26 44h225l-113 -99l-91 -85h-129z" />
    <glyph glyph-name="ecircumflex" unicode="&#xea;" horiz-adv-x="549" 
d="M195 235q6 -46 33.5 -76.5t68.5 -30.5q25 0 54.5 14t71.5 45l88 -90q-29 -30 -55.5 -49.5t-55.5 -33.5q-53 -24 -123 -24q-119 0 -183.5 72t-64.5 201q0 141 68 215t197 74q114 0 175.5 -67.5t61.5 -193.5l-1 -21q0 -10 -7 -35h-328zM192 337h181q0 90 -90 90
q-41 0 -66 -23.5t-25 -66.5zM119 649l32 56l22 42l24 42h167l33 -74q23 -48 63 -123h-127l-15 26q-6 12 -17 23l-21 23l-24 -24q-12 -14 -31 -48h-137z" />
    <glyph glyph-name="edieresis" unicode="&#xeb;" horiz-adv-x="549" 
d="M195 235q6 -46 33.5 -76.5t68.5 -30.5q25 0 54.5 14t71.5 45l88 -90q-29 -30 -55.5 -49.5t-55.5 -33.5q-53 -24 -123 -24q-119 0 -183.5 72t-64.5 201q0 141 68 215t197 74q114 0 175.5 -67.5t61.5 -193.5l-1 -21q0 -10 -7 -35h-328zM192 337h181q0 90 -90 90
q-41 0 -66 -23.5t-25 -66.5zM172 743q79 0 79 -61q0 -88 -110 -88q-38 0 -54.5 13.5t-16.5 45.5q0 90 102 90zM400 743q41 0 60.5 -14.5t19.5 -47.5q0 -87 -109 -87q-39 0 -56 14t-17 47q0 88 102 88z" />
    <glyph glyph-name="igrave" unicode="&#xec;" horiz-adv-x="297" 
d="M18 86q34 8 45 29.5t11 78.5v194q0 25 -3 37.5t-12.5 17.5t-44.5 10l4 67l105 19h113l-2 -41l-2 -40v-276q0 -49 8 -65q12 -20 51 -31l-5 -86h-272zM168 781l18 -37l23 -41q14 -28 27.5 -51.5t34.5 -56.5h-121l-47 42l-48 43l-57 50l-56 51h226z" />
    <glyph glyph-name="iacute" unicode="&#xed;" horiz-adv-x="297" 
d="M18 86q34 8 45 29.5t11 78.5v194q0 25 -3 37.5t-12.5 17.5t-44.5 10l4 67l105 19h113l-2 -41l-2 -40v-276q0 -49 8 -65q12 -20 51 -31l-5 -86h-272zM74 642l29 49l25 44l26 44h225l-113 -99l-91 -85h-129z" />
    <glyph glyph-name="icircumflex" unicode="&#xee;" horiz-adv-x="297" 
d="M18 86q34 8 45 29.5t11 78.5v194q0 25 -3 37.5t-12.5 17.5t-44.5 10l4 67l105 19h113l-2 -41l-2 -40v-276q0 -49 8 -65q12 -20 51 -31l-5 -86h-272zM-5 649l32 56l22 42l24 42h167l33 -74q23 -48 63 -123h-127l-15 26q-6 12 -17 23l-21 23l-24 -24q-12 -14 -31 -48h-137z
" />
    <glyph glyph-name="idieresis" unicode="&#xef;" horiz-adv-x="297" 
d="M18 86q34 8 45 29.5t11 78.5v194q0 25 -3 37.5t-12.5 17.5t-44.5 10l4 67l105 19h113l-2 -41l-2 -40v-276q0 -49 8 -65q12 -20 51 -31l-5 -86h-272zM47 743q79 0 79 -61q0 -88 -110 -88q-38 0 -54.5 13.5t-16.5 45.5q0 90 102 90zM275 743q41 0 60.5 -14.5t19.5 -47.5
q0 -87 -109 -87q-39 0 -56 14t-17 47q0 88 102 88z" />
    <glyph glyph-name="ntilde" unicode="&#xf1;" horiz-adv-x="636" 
d="M18 86q32 8 43 17q6 8 9 18l2 42v234l-1 29q0 6 -11 16q-9 11 -46 11l4 67l111 19h84l7 -24l1 -24v-12v-49q40 40 93 83q48 39 125 39q57 0 85 -31q25 -28 38 -60q10 -32 10 -73v-231v-24q0 -18 10 -28q12 -15 46 -19l-4 -86h-273l3 86q33 6 41 14q8 6 12 21l4 33v178
q0 50 -33 50q-57 0 -144 -118v-113q0 -39 11 -50q12 -9 50 -15l-3 -86h-278zM227 763q17 0 26 -1t29 -7l62 -17l18 -2q10 0 17.5 5.5t13.5 21.5l130 -39q-16 -63 -47.5 -98t-71.5 -35q-15 0 -23 1t-25 7l-69 20l-15 4q-22 0 -29 -35l-131 42q17 62 47 97.5t68 35.5z" />
    <glyph glyph-name="ograve" unicode="&#xf2;" horiz-adv-x="612" 
d="M305 556q135 0 207 -72.5t72 -212.5q0 -138 -71 -211.5t-206 -73.5q-136 0 -207 72.5t-71 212.5v5q0 133 72.5 206.5t203.5 73.5zM210 281v-4q0 -73 10.5 -99.5t34 -42t51.5 -15.5q50 0 73 35t23 114q0 65 -17.5 108.5t-78.5 43.5q-73 0 -85 -52q-5 -23 -8 -46t-3 -42z
M325 781l18 -37l23 -41q14 -28 27.5 -51.5t34.5 -56.5h-121l-47 42l-48 43l-57 50l-56 51h226z" />
    <glyph glyph-name="oacute" unicode="&#xf3;" horiz-adv-x="612" 
d="M305 556q135 0 207 -72.5t72 -212.5q0 -138 -71 -211.5t-206 -73.5q-136 0 -207 72.5t-71 212.5v5q0 133 72.5 206.5t203.5 73.5zM210 281v-4q0 -73 10.5 -99.5t34 -42t51.5 -15.5q50 0 73 35t23 114q0 65 -17.5 108.5t-78.5 43.5q-73 0 -85 -52q-5 -23 -8 -46t-3 -42z
M230 642l29 49l25 44l26 44h225l-113 -99l-91 -85h-129z" />
    <glyph glyph-name="ocircumflex" unicode="&#xf4;" horiz-adv-x="612" 
d="M305 556q135 0 207 -72.5t72 -212.5q0 -138 -71 -211.5t-206 -73.5q-136 0 -207 72.5t-71 212.5v5q0 133 72.5 206.5t203.5 73.5zM210 281v-4q0 -73 10.5 -99.5t34 -42t51.5 -15.5q50 0 73 35t23 114q0 65 -17.5 108.5t-78.5 43.5q-73 0 -85 -52q-5 -23 -8 -46t-3 -42z
M151 649l32 56l22 42l24 42h167l33 -74q23 -48 63 -123h-127l-15 26q-6 12 -17 23l-21 23l-24 -24q-12 -14 -31 -48h-137z" />
    <glyph glyph-name="otilde" unicode="&#xf5;" horiz-adv-x="612" 
d="M305 556q135 0 207 -72.5t72 -212.5q0 -138 -71 -211.5t-206 -73.5q-136 0 -207 72.5t-71 212.5v5q0 133 72.5 206.5t203.5 73.5zM210 281v-4q0 -73 10.5 -99.5t34 -42t51.5 -15.5q50 0 73 35t23 114q0 65 -17.5 108.5t-78.5 43.5q-73 0 -85 -52q-5 -23 -8 -46t-3 -42z
M215 763q17 0 26 -1t29 -7l62 -17l18 -2q10 0 17.5 5.5t13.5 21.5l130 -39q-16 -63 -47.5 -98t-71.5 -35q-15 0 -23 1t-25 7l-69 20l-15 4q-22 0 -29 -35l-131 42q17 62 47 97.5t68 35.5z" />
    <glyph glyph-name="odieresis" unicode="&#xf6;" horiz-adv-x="612" 
d="M306 556q133 0 205.5 -72.5t72.5 -211.5q0 -141 -71 -213.5t-208 -72.5q-276 0 -276 290q0 133 72.5 206.5t204.5 73.5zM200 743q79 0 79 -61q0 -88 -109 -88q-39 0 -55.5 13.5t-16.5 45.5q0 90 102 90zM428 743q41 0 60.5 -14.5t19.5 -47.5q0 -87 -109 -87q-39 0 -56 14
t-17 47q0 88 102 88zM210 269q0 -149 96 -149q60 0 82 53q14 30 14 102q0 146 -96 146q-60 0 -74.5 -33.5t-18 -53t-3.5 -49.5v-4v-12z" />
    <glyph glyph-name="divide" unicode="&#xf7;" horiz-adv-x="594" 
d="M275 158q24 0 40 -16t16 -41q0 -24 -17 -40q-15 -17 -39 -17t-41 17q-16 19 -16 40q0 24 18 40.5t39 16.5zM506 202h-463v68h463v-68zM275 427q24 0 40 -17.5t16 -39.5q0 -24 -17 -40q-15 -17 -39 -17t-41 16q-16 18 -16 41q0 24 18 40.5t39 16.5z" />
    <glyph glyph-name="oslash" unicode="&#xf8;" horiz-adv-x="612" 
d="M507 581h53l-63 -85q87 -81 87 -224q0 -141 -71 -213.5t-207 -72.5q-51 0 -81 6t-73 27l-30 -47h-54l53 71q-92 63 -92 231q0 134 72.5 208t205.5 74q50 0 86 -10q38 -9 72 -28zM242 145q34 -26 69 -26q23 0 45.5 15t31 35.5t11.5 43t3 57.5q0 41 -7 84zM373 396
q-34 26 -67 26q-96 0 -96 -139v-31l3 -28l4 -25l4 -16z" />
    <glyph glyph-name="ugrave" unicode="&#xf9;" horiz-adv-x="627" 
d="M11 520l107 19h119l-6 -47l-4 -57l-2 -90v-108v-18q0 -27 11.5 -37t40.5 -10q32 0 53 12q18 12 30 24q9 8 17 16t31 34v136q0 34 -10.5 46.5t-40.5 12.5h-11l-3 67l103 18l127 1l-5 -71l1 -60v-243l1 -36q0 -35 54 -43l-5 -86h-196q-9 41 -9 78l3 46l-38 -42l-31 -31
q-40 -37 -65 -48t-68 -11q-39 0 -74 15t-57 46q-20 31 -20 133v187l-1 40q0 41 -42 41l-13 -1zM332 781l18 -37l23 -41q14 -28 27.5 -51.5t34.5 -56.5h-121l-47 42l-48 43l-57 50l-56 51h226z" />
    <glyph glyph-name="uacute" unicode="&#xfa;" horiz-adv-x="627" 
d="M11 520l107 19h119l-6 -47l-4 -57l-2 -90v-108v-18q0 -27 11.5 -37t40.5 -10q32 0 53 12q18 12 30 24q9 8 17 16t31 34v136q0 34 -10.5 46.5t-40.5 12.5h-11l-3 67l103 18l127 1l-5 -71l1 -60v-243l1 -36q0 -35 54 -43l-5 -86h-196q-9 41 -9 78l3 46l-38 -42l-31 -31
q-40 -37 -65 -48t-68 -11q-39 0 -74 15t-57 46q-20 31 -20 133v187l-1 40q0 41 -42 41l-13 -1zM237 642l29 49l25 44l26 44h225l-113 -99l-91 -85h-129z" />
    <glyph glyph-name="ucircumflex" unicode="&#xfb;" horiz-adv-x="627" 
d="M11 520l107 19h119l-6 -47l-4 -57l-2 -90v-108v-18q0 -27 11.5 -37t40.5 -10q32 0 53 12q18 12 30 24q9 8 17 16t31 34v136q0 34 -10.5 46.5t-40.5 12.5h-11l-3 67l103 18l127 1l-5 -71l1 -60v-243l1 -36q0 -35 54 -43l-5 -86h-196q-9 41 -9 78l3 46l-38 -42l-31 -31
q-40 -37 -65 -48t-68 -11q-39 0 -74 15t-57 46q-20 31 -20 133v187l-1 40q0 41 -42 41l-13 -1zM158 649l32 56l22 42l24 42h167l33 -74q23 -48 63 -123h-127l-15 26q-6 12 -17 23l-21 23l-24 -24q-12 -14 -31 -48h-137z" />
    <glyph glyph-name="udieresis" unicode="&#xfc;" horiz-adv-x="630" 
d="M11 520l107 19h119l-6 -47l-4 -57l-2 -90v-108v-18q0 -27 11.5 -37t41.5 -10q44 0 81 34l49 52v136q0 34 -9.5 46.5t-41.5 12.5h-11l-3 67l103 18l127 1l-5 -71l1 -60v-243q0 -43 8.5 -58t46.5 -21l-5 -86h-196q-9 41 -9 78l3 46l-38 -42l-31 -31q-40 -37 -65 -48
t-68 -11q-39 0 -74 15t-57 46q-20 31 -20 133v187l-1 40q0 41 -42 41l-13 -1zM204 743q79 0 79 -61q0 -45 -26 -66.5t-83 -21.5q-38 0 -54.5 13.5t-16.5 45.5q0 90 101 90zM432 743q41 0 60.5 -14.5t19.5 -47.5q0 -87 -109 -87q-38 0 -55 14t-17 47q0 88 101 88z" />
    <glyph glyph-name="ydieresis" unicode="&#xff;" horiz-adv-x="562" 
d="M-3 539h259l-4 -86q-19 0 -26.5 -5.5t-9.5 -21.5l1 -8l2 -20l22 -74l26 -76l7 -18l10 -29l6 -25l4 -26q0 36 5 51l13 35l19 54l24 79l10 37l1 20q0 23 -34 27l3 86h235l-5 -94q-37 -6 -48 -42l-6 -19l-33 -104l-25 -69l-55 -134l-67 -156q-30 -70 -76 -162l-179 -1
l81 140l53 92l-32 60l-34 68l-33 84l-46 134l-23 64l-11 29q-4 17 -39 24zM178 743q79 0 79 -61q0 -88 -110 -88q-38 0 -54.5 13.5t-16.5 45.5q0 90 102 90zM406 743q41 0 60.5 -14.5t19.5 -47.5q0 -87 -109 -87q-39 0 -56 14t-17 47q0 88 102 88z" />
    <glyph glyph-name="c293" unicode="&#x125;" horiz-adv-x="583" 
d="M529 657l3 -91l3 -71l-124 2l-7 32l-12 43q-4 9 -17.5 25t-66.5 16q-42 0 -67.5 -17t-25.5 -47q0 -13 8.5 -29.5t27.5 -30.5q18 -10 84 -32t113 -50.5t76.5 -69.5t29.5 -119q0 -10 -1 -22.5t-4 -24.5q-3 -23 -36.5 -104t-209.5 -81h-17l-56 3l-45 5l-91 10l-37 5l-2 59
l-3 58l-4 113l118 -1v-8q0 -50 29 -80q31 -29 82 -29q39 0 65 17t26 45q0 14 -9.5 31t-27 27t-80.5 29.5t-102 38.5q-19 10 -39.5 26.5t-41.5 38.5q-41 46 -41 127q0 105 66 168t176 63q33 0 69 -6l96 -15l96 -10zM231 1005l19 -30l14 -19l20 -22l14 13l13 14l13 17l16 27
h137l-31 -56l-32 -56l-23 -42l-23 -43h-167l-33 75q-20 43 -63 122h126z" />
    <glyph glyph-name="c294" unicode="&#x126;" horiz-adv-x="488" 
d="M435 463l8 -105h-114l-13 41q-12 30 -60 30q-21 0 -33.5 -11t-12.5 -28q0 -13 16.5 -24t49.5 -22l50 -16q132 -45 132 -158q0 -83 -52.5 -132.5t-140.5 -49.5q-37 0 -89 7l-78 9l-58 2l-1 46l-2 44l-2 53l-3 53l117 -5q0 -28 3 -40t12 -28q19 -25 64 -25q66 0 66 42
q0 16 -8 24t-35 18l-74 25l-29 11q-55 18 -87.5 58t-32.5 91q0 78 54 130t139 52h11l40 -4l27 -2l67 -6l65 -8zM184 788l19 -30l14 -19l20 -22l14 13l13 14l13 17l16 27h137l-31 -56l-32 -56l-23 -42l-23 -43h-167l-33 75q-20 43 -63 122h126z" />
    <glyph glyph-name="c295" unicode="&#x127;" horiz-adv-x="594" 
d="M19 102l297 461l12 15l14 12h-46h-41q-98 0 -98 -62h-118l6 66l9 96l2 31h503l11 -98l-13 -19l-13 -19l-19 -25l-231 -360l-17 -23l-11 -12l-27 -22h110q92 0 110 78l113 -2l-20 -110l-16 -109h-522zM237 1005l19 -30l14 -19l20 -22l14 13l13 14l13 17l16 27h137l-31 -56
l-32 -56l-23 -42l-23 -43h-167l-33 75q-20 43 -63 122h126z" />
    <glyph glyph-name="c296" unicode="&#x128;" horiz-adv-x="520" 
d="M30 121l11 14l12 13l186 210l20 24l11 10l18 12l-69 2h-7q-30 0 -42 -12t-18 -57h-123l10 64q4 30 5 36v22l5 40l3 43q20 0 68.5 -2t55.5 -2l87 -3l92 2l89 2l58 -95l-31 -35l-18 -26l-183 -221l-14 -17q-5 -5 -24 -13l82 -1q24 0 35 6.5t17 14.5t9 20l4 17l7 24h115
l-16 -71l-9 -49l-8 -51l-6 -48q-21 6 -32 6h-17h-354l-41 107zM200 788l19 -30l14 -19l20 -22l14 13l13 14l13 17l16 27h137l-31 -56l-32 -56l-23 -42l-23 -43h-167l-33 75q-20 43 -63 122h126z" />
    <glyph glyph-name="dotlessi" unicode="&#x131;" horiz-adv-x="297" 
d="M18 86q34 8 45 29.5t11 78.5v194q0 25 -3 37.5t-12.5 17.5t-44.5 10l4 67l105 19h113l-2 -41l-2 -40v-276q0 -49 8 -65q12 -20 51 -31l-5 -86h-272z" />
    <glyph glyph-name="hungarumlaut" unicode="&#x2ba;" horiz-adv-x="312" 
d="M80 642l29 49l25 44l26 44h225l-113 -99l-91 -85h-129z" />
    <glyph glyph-name="caron" unicode="&#x2c7;" horiz-adv-x="372" 
d="M126 788l19 -30l14 -19l20 -22l14 13l13 14l13 17l16 27h137l-31 -56l-32 -56l-23 -42l-23 -43h-167l-33 75q-20 43 -63 122h126z" />
    <glyph glyph-name="macron" unicode="&#x2c9;" horiz-adv-x="328" 
d="M0 752h328v-152h-328v152z" />
    <glyph glyph-name="breve" unicode="&#x2d8;" horiz-adv-x="331" 
d="M126 771v-10q0 -16 11.5 -30t26.5 -15q15 0 25.5 13.5t10.5 31.5v11l132 -1q0 -83 -44.5 -129.5t-126.5 -46.5q-73 0 -117 41.5t-44 108.5l1 26h125z" />
    <glyph glyph-name="dotaccent" unicode="&#x2d9;" horiz-adv-x="355" 
d="M223 962l41 -77l27 -50l37 -59h-122l-47 43l-49 43l-56 50l-57 50h226z" />
    <glyph glyph-name="ring" unicode="&#x2da;" horiz-adv-x="238" 
d="M119 774q50 0 84 -35q35 -33 35 -83t-34.5 -84.5t-84.5 -34.5t-85 34q-34 36 -34 85q0 48 34.5 83t84.5 35zM82 656q0 -16 10 -27q10 -8 27 -10q14 0 25.5 10.5t11.5 26.5q0 14 -10.5 24t-26.5 12q-16 0 -25.5 -9.5t-11.5 -26.5z" />
    <glyph glyph-name="ogonek" unicode="&#x2db;" horiz-adv-x="255" 
d="M126 169q44 0 73.5 -23.5t29.5 -60.5q0 -43 -32 -69.5t-83 -26.5q-39 0 -64 24t-25 65t28 66t73 25z" />
    <glyph glyph-name="circumflex" unicode="&#x302;" horiz-adv-x="372" 
d="M31 649l32 56l22 42l24 42h167l33 -74q23 -48 63 -123h-127l-15 26q-6 12 -17 23l-21 23l-24 -24q-12 -14 -31 -48h-137z" />
    <glyph glyph-name="tilde" unicode="&#x303;" horiz-adv-x="411" 
d="M115 763q17 0 26 -1t29 -7l62 -17l18 -2q10 0 17.5 5.5t13.5 21.5l130 -39q-16 -63 -47.5 -98t-71.5 -35q-15 0 -23 1t-25 7l-69 20l-15 4q-22 0 -29 -35l-131 42q17 62 47 97.5t68 35.5z" />
    <glyph glyph-name="summation" unicode="&#x3a3;" horiz-adv-x="771" 
d="M618 643l15 -129h-44q-32 105 -85 144t-169 39h-132l315 -431l-344 -394h187q64 0 104.5 7.5t67.5 24.5q50 30 83 116h45l-30 -130l-2 -7q-23 -99 -111 -99h-482l389 446l-375 514h460q64 0 82 -15q16 -11 26 -86z" />
    <glyph glyph-name="Omega" unicode="&#x3a9;" horiz-adv-x="830" 
d="M593 90q48 0 68 18.5t20 67.5h23v-176h-272v180q76 15 122 77t46 151q0 106 -59 168.5t-157 62.5q-97 0 -156.5 -62.5t-59.5 -168.5q0 -91 44 -150.5t124 -77.5v-180h-272v176h23q0 -48 19 -67t69 -19h123v59q-118 21 -183 89t-65 170q0 120 93 193.5t241 73.5
q149 0 241.5 -73t92.5 -194q0 -100 -63.5 -167.5t-184.5 -91.5v-59h123z" />
    <glyph glyph-name="pi" unicode="&#x3c0;" horiz-adv-x="594" 
d="M404 373l-1 -24l-3 -150v-40q0 -86 8.5 -106t30.5 -20q26 0 42 30t16 88h25v-5q0 -80 -26 -118t-80 -38q-55 0 -80 40q-11 19 -17 60t-6 104l1 78l3 104l-50 1l-77 2q0 -237 -23 -313t-80 -76q-34 0 -53 29q-17 29 -17 86v19h24q0 -26 9 -39t28 -13q42 0 54 47t18 110
t6 150h-22q-39 0 -60 -14q-21 -12 -27 -39h-23q0 34 9.5 57.5t36.5 44.5t113 21l102 -3l152 -3q34 0 48.5 6.5t17.5 21.5l23 1q0 -51 -23.5 -75.5t-74.5 -24.5h-14z" />
    <glyph glyph-name="partialdiff" unicode="&#x2202;" horiz-adv-x="534" 
d="M358 287l6 28l3 31l3 89q0 85 -15.5 126t-47.5 41q-18 0 -50 -35t-56 -35q-15 0 -26 7q-8 7 -11 25q0 27 30 50q30 21 72 21q76 0 110 -53t47 -102.5t13 -112.5q0 -163 -64 -271.5t-158 -108.5q-66 0 -109 51t-43 137q0 81 53 143t125 62q44 0 72 -21.5t46 -71.5z
M256 349q-50 0 -86 -60q-34 -62 -34 -161q0 -56 21.5 -87.5t62.5 -31.5q53 0 87 62.5t34 152.5q0 57 -22 91t-63 34z" />
    <glyph glyph-name="Delta" unicode="&#x2206;" horiz-adv-x="662" 
d="M595 0h-574l276 672h22zM92 45h373l-186 459z" />
    <glyph glyph-name="product" unicode="&#x220f;" horiz-adv-x="890" 
d="M118 -176v880h-88v40h767v-40h-88v-880h88v-40h-264v40h84v880h-407v-880h84v-40h-264v40h88z" />
    <glyph glyph-name="fraction" unicode="&#x2215;" horiz-adv-x="267" 
d="M179 800h124l-213 -891h-119z" />
    <glyph glyph-name="periodcentered" unicode="&#x2219;" horiz-adv-x="255" 
d="M128 357q46 0 73.5 -23t27.5 -60q0 -41 -32.5 -69t-82.5 -28q-38 0 -65 24q-24 24 -24 65t28 66t75 25z" />
    <glyph glyph-name="radical" unicode="&#x221a;" horiz-adv-x="594" 
d="M594 764h-57l-290 -784h-32l-156 431l-61 -22l-12 39l138 48l125 -346l252 681h93v-47z" />
    <glyph glyph-name="infinity" unicode="&#x221e;" horiz-adv-x="771" 
d="M366 238q-33 -61 -72 -93q-19 -16 -39.5 -23.5t-45.5 -7.5q-66 0 -111 52.5t-45 131.5q0 83 41 134.5t105 51.5q46 0 82 -29.5t66 -94.5q30 62 69 93q20 15 41.5 23t46.5 8q63 0 109 -53q23 -26 34.5 -58.5t11.5 -72.5q0 -84 -40 -135t-105 -51q-45 0 -84 30
q-36 30 -64 94zM330 327q-26 46 -59 69.5t-76 23.5q-52 0 -84.5 -35t-32.5 -90q0 -54 29 -89q31 -34 77 -34q39 0 71 31.5t75 123.5zM383 271q22 -45 57.5 -69t77.5 -24q52 0 84.5 35t32.5 90q0 54 -30.5 88.5t-79.5 34.5q-35 0 -71 -36q-32 -35 -71 -119z" />
    <glyph glyph-name="integral" unicode="&#x222b;" horiz-adv-x="296" 
d="M283 757q36 0 58.5 -18.5t22.5 -48.5q0 -20 -12.5 -34t-36.5 -14q-28 0 -43.5 31.5t-29.5 32.5q-57 0 -57 -310l-3 -98v-16v-13v-12q0 -20 -1 -40t-4 -39q0 -26 -3.5 -56.5t-11.5 -87t-29 -103.5t-60.5 -79.5t-81.5 -32.5q-35 0 -58 18.5t-23 48.5q0 21 12.5 34t36.5 13
q28 0 43 -30t31 -33q57 0 57 324l2 84q0 21 2 67.5t2 48.5q0 23 3.5 54t11 89.5t30.5 106.5q21 51 59.5 82t82.5 31z" />
    <glyph glyph-name="approxequal" unicode="&#x2248;" horiz-adv-x="594" 
d="M15 100v77q23 14 43.5 24.5t43.5 19.5q39 14 74 14q43 0 114.5 -24t99.5 -24q26 0 59.5 15t84.5 52v-78q-22 -14 -41 -24.5t-36 -17.5q-36 -13 -72 -13q-18 0 -41 5t-63 18q-72 24 -116 24q-29 0 -55 -11.5t-47 -24.5q-16 -9 -23.5 -14t-24.5 -18zM15 219v77l43 25l51 21
q31 11 66 11q42 0 115 -23.5t100 -23.5q29 0 60 14q16 7 36.5 19.5t47.5 32.5v-77l-41 -24l-49 -22q-26 -9 -59 -9q-36 0 -106 23.5t-109 23.5q-37 0 -66 -14q-28 -11 -89 -54z" />
    <glyph glyph-name="notequal" unicode="&#x2260;" horiz-adv-x="594" 
d="M413 336h91v-64h-149l-73 -72h222v-64h-281l-118 -118l-43 44l74 74h-91v64h150l73 72h-223v64h281l118 118l44 -44z" />
    <glyph glyph-name="lessequal" unicode="&#x2264;" horiz-adv-x="594" 
d="M506 18h-463v68h463v-68zM162 280l344 -107v-70l-462 145v65l462 145v-70z" />
    <glyph glyph-name="greaterequal" unicode="&#x2265;" horiz-adv-x="594" 
d="M506 18h-463v68h463v-68zM506 248l-463 -145v70l344 107l-344 108v70l463 -145v-65z" />
    <glyph glyph-name="lozenge" unicode="&#x25ca;" horiz-adv-x="534" 
d="M247 807l244 -518l-244 -522l-244 522zM247 688l-188 -399l188 -403l188 403z" />
    <glyph glyph-name="apple" unicode="&#xf000;" horiz-adv-x="854" 
d="M408 594l-1 7v11q0 60 45.5 111.5t116.5 64.5v-12l1 -18q0 -62 -50.5 -113.5t-99.5 -51.5h-4zM735 197q-28 -60 -53.5 -102.5t-47.5 -65.5q-46 -46 -99 -46q-25 0 -65.5 16t-58.5 16q-23 0 -65 -16t-61 -16q-30 0 -63 21l-31 27l-48 60q-30 43 -60 121q-14 41 -21 76.5
t-7 71.5q0 107 61.5 174.5t157.5 67.5q16 0 31.5 -3t26.5 -6.5t29 -11.5q11 -4 26.5 -8.5t22.5 -4.5q20 0 62 17t72 17q56 0 97 -20q42 -18 78 -60q-47 -30 -74 -71q-24 -39 -24 -89q0 -53 30 -97t84 -68z" />
    <glyph glyph-name="fi" unicode="&#xf001;" 
d="M204 344l-138 137l109 109l139 -138l135 136l106 -106l-137 -136l139 -138l-108 -107l-140 139l-139 -139l-105 103z" />
    <glyph glyph-name="fl" unicode="&#xf002;" horiz-adv-x="426" 
d="M96 656l47 26l58 43h127q-12 -39 -12 -56l2 -38v-631h-181v555l-28 -19l-61 -40l-33 -21l-55 126q39 14 71 26.5t65 28.5z" />
    <glyph glyph-name=".null" horiz-adv-x="0" 
 />
    </font>
</defs>
</svg>
