<?xml version="1.0" standalone="no"?>
<!DOCTYPE svg PUBLIC "-//W3C//DTD SVG 1.1//EN" "http://www.w3.org/Graphics/SVG/1.1/DTD/svg11.dtd" >
<svg>
<metadata>
Created by FontForge 20110222 at Tue Mar 19 13:19:02 2013
 By Orthosie Webmaster
(C) 1993 B &#38; P Graphics, Ltd.
</metadata>
<defs>
<font id="CongressExtraBoldRegular" horiz-adv-x="608" >
  <font-face 
    font-family="CongressExtraBoldRegular"
    font-weight="100"
    font-stretch="normal"
    units-per-em="1000"
    panose-1="0 0 0 0 0 0 0 0 0 0"
    ascent="800"
    descent="-200"
    x-height="545"
    cap-height="721"
    bbox="-90 -275 1086 984"
    underline-thickness="50"
    underline-position="-75"
    unicode-range="U+0020-F002"
  />
<missing-glyph horiz-adv-x="984" 
d="M61 0v984h862v-984h-862zM862 61v862h-740v-862h740z" />
    <glyph glyph-name=".notdef" horiz-adv-x="984" 
d="M61 0v984h862v-984h-862zM862 61v862h-740v-862h740z" />
    <glyph glyph-name="glyph1" horiz-adv-x="0" 
 />
    <glyph glyph-name="nonmarkingreturn" horiz-adv-x="290" 
 />
    <glyph glyph-name="space" unicode=" " horiz-adv-x="290" 
 />
    <glyph glyph-name="exclam" unicode="!" horiz-adv-x="249" 
d="M217 735l-15 -151q-6 -63 -6 -132l-3 -126l-3 -103l-106 -13q0 19 -2 72.5t-2 66.5l-4 89q0 75 -10 145l-18 134zM135 143q84 0 84 -69q0 -38 -28 -62q-28 -22 -74 -22q-74 0 -74 72q0 35 25 59q25 22 67 22z" />
    <glyph glyph-name="quotedbl" unicode="&#x22;" horiz-adv-x="457" 
d="M35 448l31 36l22 33l15 30l13 32l-20 -1q-29 0 -47 17t-18 46q0 40 26 64.5t68 24.5q41 0 64.5 -24.5t23.5 -65.5q0 -60 -28 -112t-44 -73l-47 -53zM249 448l33 38l19 30l13 24l15 39l-19 -1q-31 0 -48.5 17t-17.5 46q0 40 26 64.5t69 24.5q40 0 63.5 -24.5t23.5 -65.5
q0 -56 -28.5 -110.5t-42 -74t-47.5 -53.5z" />
    <glyph glyph-name="numbersign" unicode="#" horiz-adv-x="634" 
d="M44 274h116l36 172h-115l15 72h116l42 202h72l-42 -202h86l43 202h72l-43 -202h115l-15 -72h-115l-37 -172h115l-15 -72h-115l-43 -202h-72l43 202h-87l-43 -202h-72l43 202h-115zM318 274l37 172h-87l-36 -172h86z" />
    <glyph glyph-name="dollar" unicode="$" horiz-adv-x="562" 
d="M226 787h147v-69l57 -4l39 -5l38 -3l-1 -56l2 -63l3 -58h-97q-3 29 -14 48q-8 18 -41 34t-68 16q-46 0 -75.5 -24t-29.5 -62q0 -30 11 -47q11 -14 29 -23q10 -4 19.5 -7t31.5 -13l64 -23l35 -12q36 -11 94.5 -50t58.5 -153q0 -31 -4 -52.5t-16 -48.5q-19 -44 -45.5 -64.5
t-47.5 -31.5l-48 -20v-58h-144v52l-41 3l-39 5l-50 6l-50 4v47v53l-5 103l93 -1q0 -114 133 -114q53 0 86 24q31 25 31 68q0 14 -2 19q0 7 -8 22q-6 15 -23 26q-5 4 -21 11q-26 12 -33 15l-54 21l-47 18q-68 26 -114 70q-49 52 -49 128q0 88 53.5 145t141.5 66v58z" />
    <glyph glyph-name="percent" unicode="%" horiz-adv-x="938" 
d="M215 721q90 0 137 -50t47 -147q0 -196 -185 -196q-90 0 -125 35q-31 34 -47 75q-13 42 -13 84q0 98 47.5 148.5t138.5 50.5zM585 729h109l-337 -734h-106zM725 387q90 0 137 -50t47 -147q0 -198 -185 -198q-86 0 -124 36q-34 36 -48 75q-13 42 -13 85q0 98 47.5 148.5
t138.5 50.5zM151 525q0 -107 63 -107q64 0 64 105q0 106 -66 106q-28 0 -45 -27q-16 -29 -16 -77zM662 190q0 -106 62 -106q64 0 64 105q0 106 -66 106q-60 0 -60 -105z" />
    <glyph glyph-name="ampersand" unicode="&#x26;" horiz-adv-x="726" 
d="M141 565q0 75 56.5 121.5t150.5 46.5q96 0 149 -44t53 -124q0 -124 -153 -199l20 -30l21 -29l18 -24l32 -37l24 27l25 30l22 29l27 41l93 -65l-27 -40q-2 -3 -13 -18q-14 -19 -19 -25l-32 -38l-26 -28l57 -63l93 -96l-177 -1l-27 36l-38 42l-28 -21q-15 -11 -65.5 -40
t-139.5 -29q-91 0 -147 54.5t-56 144.5q0 46 15.5 85.5t45 65.5t110.5 66q-64 93 -64 162zM282 312q-103 -42 -103 -118q0 -42 25 -67t66 -25q63 0 128 52l-40 45l-26 35l-22 33zM331 457q90 39 90 115q0 30 -19 47.5t-53 17.5q-30 0 -50 -18.5t-20 -48.5q0 -38 28 -84
l12 -16z" />
    <glyph glyph-name="quotesingle" unicode="'" horiz-adv-x="244" 
d="M35 448l31 37l22 34l17 32l11 30l-20 -3q-29 0 -47 17t-18 47q0 39 26.5 64t67.5 25t64.5 -24.5t23.5 -66.5q0 -58 -28 -110.5t-43 -71.5l-48 -56z" />
    <glyph glyph-name="parenleft" unicode="(" horiz-adv-x="305" 
d="M295 773l-36 -113l-36 -146q-23 -101 -23 -207q0 -102 19 -204t31 -148q6 -26 13.5 -52t20.5 -68l-74 -3q-22 32 -39 59t-29 48q-17 33 -46 105q-24 67 -38.5 134t-14.5 127q0 136 43 235q40 95 62.5 133t67.5 100h79z" />
    <glyph glyph-name="parenright" unicode=")" horiz-adv-x="305" 
d="M71 42q16 72 25 138.5t9 117.5q0 101 -19 200q-9 50 -17.5 90.5t-14.5 60.5l-33 122l74 2q44 -65 67 -108q21 -36 60 -141q20 -53 30 -106.5t10 -116.5q0 -132 -42.5 -233t-64.5 -136q-20 -35 -67 -100h-78l35 112z" />
    <glyph glyph-name="asterisk" unicode="*" horiz-adv-x="465" 
d="M48 579l8 34l8 38l31 -22l29 -17l37 -19l40 -18q-3 29 -7 41q-2 13 -2.5 16.5t-5.5 20.5q-5 28 -11 44l-10 33l37 -4l35 -1h17l23 1q13 0 32 4l-18 -40l-13 -35l-7 -34l-6 -43l37 17l31 17q9 5 17.5 11t17.5 13l24 20q1 -7 2 -14.5t6 -19.5l9 -31l12 -32l18 -39h-14h-13
q-10 2 -15 2l-35 2l-40 -2l-37 -2l23 -22l26 -23l35 -27l32 -23l-31 -18l-31 -21l-24 -18l-29 -27l-9 34l-12 38l-26 68l-18 -36l-18 -42l-16 -66l-27 22l-31 23l-21 14l-37 18l59 49l60 54l-68 1l-37 2l-59 -1l13 34z" />
    <glyph glyph-name="plus" unicode="+" 
d="M39 417h203v204h122v-204h205v-123h-206v-206h-121v205h-203v124z" />
    <glyph glyph-name="comma" unicode="," horiz-adv-x="244" 
d="M35 -142l32 38l21 33l15 29l13 33l-20 -2q-29 0 -47 17t-18 47q0 39 26.5 64t67.5 25t64.5 -24.5t23.5 -66.5q0 -60 -29 -111q-27 -53 -43 -73q-7 -11 -18.5 -24.5t-28.5 -29.5z" />
    <glyph glyph-name="hyphen" unicode="-" horiz-adv-x="396" 
d="M45 325l4 28l2 32q12 0 41 -1t46 -1l70 -2l82 2l79 2l-15 -61l-9 -61l-159 3l-160 -3l11 32z" />
    <glyph glyph-name="period" unicode="." horiz-adv-x="239" 
d="M123 143q40 0 62.5 -18.5t22.5 -50.5q0 -38 -28 -62q-28 -22 -75 -22q-74 0 -74 72q0 35 25 59q25 22 67 22z" />
    <glyph glyph-name="slash" unicode="/" horiz-adv-x="511" 
d="M403 786h96l-389 -870h-98z" />
    <glyph glyph-name="zero" unicode="0" 
d="M303 729q92 0 145 -29t79.5 -83t36.5 -111.5t10 -150.5q0 -88 -9 -142t-36 -110t-81.5 -86t-143.5 -30q-146 0 -208 86t-62 291q0 196 62 280.5t207 84.5zM183 358q0 -68 7 -118t22 -82q29 -63 92 -63q62 0 91.5 62.5t29.5 199.5q0 139 -29 202t-92 63q-62 0 -91.5 -63.5
t-29.5 -200.5z" />
    <glyph glyph-name="one" unicode="1" 
d="M196 659q12 6 24 13t24 16q16 8 28 20l23 20h94l-7 -62v-74v-592h-145v577l-62 -40l-74 -39l-42 102q42 16 78.5 31.5t58.5 27.5z" />
    <glyph glyph-name="two" unicode="2" 
d="M56 595q24 46 78 94t170 48q113 0 178 -60.5t65 -168.5q0 -94 -71 -156l-258 -233h145h25q15 0 26 2t20.5 10t18.5 24l13 37h89l-8 -43l-9 -58l-5 -43l-1 -48h-491v103l282 287l38 42q37 46 37 92q0 39 -29 65q-27 27 -72 27q-32 0 -53 -11q-21 -9 -41 -32l-30 -38
l-21 -39l-113 53z" />
    <glyph glyph-name="three" unicode="3" 
d="M98 174q52 -39 97 -58t88 -19q60 0 97.5 31.5t37.5 81.5q0 47 -24 70q-24 21 -53 28q-14 3 -36 5t-51 2l-51 -1q-9 0 -22.5 -1t-30.5 -4v123l60 -3q52 0 89 7.5t62 34.5t25 64q0 35 -26 58t-67 23q-44 0 -78 -16.5t-83 -61.5l-70 86q64 59 120.5 84t121.5 25
q99 0 161.5 -51.5t62.5 -132.5q0 -96 -103 -154l38 -15l29 -19q62 -53 62 -143q0 -104 -74.5 -168t-200.5 -64q-112 0 -160 32t-62 44l-25 23z" />
    <glyph glyph-name="four" unicode="4" 
d="M43 335l34 40l40 49l72 88l102 126l27 34l16 22l21 32h126v-435h82v-109h-82v-182h-144v183h-293l-39 106zM154 291h191v245l-21 -31l-22 -29z" />
    <glyph glyph-name="five" unicode="5" 
d="M96 178q103 -76 174 -76q55 0 93 36.5t38 92.5q0 50 -27 82.5t-70 32.5q-70 0 -126 -65l-97 66l17 61l4 72l10 241h398v-16l1 -55l10 -100h-104q-9 38 -21.5 48.5t-46.5 10.5h-112l-3 -81l-9 -86l30 9q20 4 37 6t39 2q100 0 157.5 -57.5t57.5 -161.5q0 -117 -74.5 -185.5
t-200.5 -68.5q-111 0 -163 36.5t-81 65.5z" />
    <glyph glyph-name="six" unicode="6" 
d="M469 690l-67 -61l-54 -56l-47 -54q-7 -8 -21 -27t-29 -40q28 11 52 16l51 4q83 0 124.5 -31t63.5 -83q10 -25 16 -53.5t6 -58.5q0 -124 -70.5 -192t-195.5 -68q-122 0 -188.5 66.5t-66.5 190.5q0 86 27 152q13 30 28 59t31 52q32 47 72.5 92.5t65.5 69.5q6 6 31.5 27
t49.5 41zM192 317l-8 -38l-2 -34q0 -72 30 -112t87 -40q129 0 129 151q0 118 -117 118q-53 0 -119 -45z" />
    <glyph glyph-name="seven" unicode="7" 
d="M49 720h454l56 -74q-49 -126 -84 -206q-27 -63 -72 -149q-40 -80 -79 -145l-103 -168l-117 54l83 145l47 82l76 164q57 128 79 150l25 28h-39l-153 -1q-81 0 -90 -61h-91z" />
    <glyph glyph-name="eight" unicode="8" 
d="M61 542q0 89 67.5 142.5t183.5 53.5q56 0 99 -12t76 -38q63 -50 63 -140q0 -55 -25 -94.5t-85 -75.5q68 -34 99.5 -77.5t31.5 -102.5q0 -49 -23 -95.5t-75.5 -81t-178.5 -34.5q-124 0 -193 53t-69 147q0 54 29 99q18 33 41 50q13 10 18 13t18 10l35 14q-61 38 -86.5 76.5
t-25.5 92.5zM293 320q-64 -26 -89.5 -51.5t-25.5 -66.5q0 -49 33 -79q34 -28 93 -28q54 0 84 24t30 69q0 31 -15 52q-13 21 -55 46l-41 25zM322 429q89 42 89 116q0 85 -101 85q-45 0 -71 -18.5t-26 -55.5q0 -40 24 -67q10 -13 42 -35z" />
    <glyph glyph-name="nine" unicode="9" 
d="M133 32l63 57l62 63q39 42 93 118l-27 -10l-32 -7l-43 -3q-81 0 -124 31t-65 83q-10 25 -16 53.5t-6 58.5q0 122 70.5 191t195.5 69q123 0 188.5 -66.5t65.5 -190.5q0 -89 -35.5 -173t-96.5 -154q-25 -27 -53 -57q-19 -20 -40 -41l-79 -68zM409 405l9 41l3 31
q0 72 -31 112t-88 40q-128 0 -128 -150q0 -119 117 -119q55 0 118 45z" />
    <glyph glyph-name="colon" unicode=":" horiz-adv-x="249" 
d="M135 143q84 0 84 -69q0 -37 -28 -60.5t-73 -23.5q-75 0 -75 72q0 35 25 59q25 22 67 22zM135 555q84 0 84 -70q0 -36 -28 -59.5t-73 -23.5q-75 0 -75 72q0 35 25 59q25 22 67 22z" />
    <glyph glyph-name="semicolon" unicode=";" horiz-adv-x="253" 
d="M48 -142l29 36l21 32l17 32l13 33l-20 -2q-29 0 -47 17t-18 47q0 39 26 64t66 25q42 0 66 -24t24 -67q0 -57 -28 -109.5t-44 -75t-46 -53.5zM134 555q85 0 85 -70q0 -36 -28 -59.5t-73 -23.5q-75 0 -75 72q0 35 25 59q25 22 66 22z" />
    <glyph glyph-name="less" unicode="&#x3c;" horiz-adv-x="311" 
d="M81 376l31 70l22 53h122l-30 -79l-16 -48l-16 -51l-17 -54l20 -46l24 -47l29 -53l34 -58h-136l-24 45l-31 54l-29 48l-38 57l32 62z" />
    <glyph glyph-name="equal" unicode="=" 
d="M39 328h530v-124h-530v124zM39 510h530v-123h-530v123z" />
    <glyph glyph-name="greater" unicode="&#x3e;" horiz-adv-x="311" 
d="M163 499l49 -90l72 -114l-55 -109l-29 -66l-23 -57h-123l26 66l23 65l31 101l-24 53l-29 55q-14 29 -29 54q-3 5 -26 42h137z" />
    <glyph glyph-name="question" unicode="?" horiz-adv-x="467" 
d="M262 730q69 0 121.5 -55.5t52.5 -128.5q0 -36 -10.5 -61t-40.5 -55l-83 -83q-50 -52 -50 -84q0 -16 14 -38l-145 -33l-13 30q-3 12 -3 31q0 22 14 46t52 67l68 80l23 38l15 30q3 8 5 24q0 28 -12.5 45.5t-33.5 17.5q-26 0 -60 -31t-69 -86l-90 73q108 173 245 173z
M199 142q84 0 84 -68q0 -38 -27.5 -61.5t-74.5 -23.5q-74 0 -74 72q0 35 25 59q25 22 67 22z" />
    <glyph glyph-name="at" unicode="@" horiz-adv-x="865" 
d="M458 214l-14 -21l-21 -24q-16 -19 -64 -19q-26 0 -51 12t-52 48t-27 130q0 23 2 34l12 50q10 35 34.5 72t50 55t50.5 25t40 7q29 0 56 -15q24 -15 34 -41l7 45h54l-36 -204l-12 -79l-3 -43q0 -20 11 -32t27 -12l16 3q10 3 19 11l24 22l20 23l14 24q20 36 28 69l6 37l1 18
q0 113 -68.5 186.5t-178.5 73.5q-25 0 -91 -9.5t-138.5 -96t-72.5 -210.5l2 -35q6 -56 36 -119.5t98.5 -109t150.5 -45.5q93 0 169 51t116 110l11 -67l-24 -30q-115 -124 -277 -124q-142 0 -243 90t-110 175l-8 108q0 222 114 287.5t169 77.5t116 12q126 0 210.5 -88
t84.5 -214v-37q-3 -15 -5 -29t-20 -63q-14 -43 -51 -86q-33 -39 -60 -51l-41 -14l-26 -3q-33 0 -57 18q-21 18 -25 47l-1 12zM310 234q17 -34 58 -34q25 0 39.5 14.5t23.5 29.5l17 41l15 46l9 39l3 17l6 33l4 56q0 25 -18.5 42.5t-42.5 17.5q-14 0 -34 -8t-37.5 -31.5
t-28.5 -52.5l-14 -42l-8 -32l-4 -35l-1 -42l3 -33q3 -15 10 -26z" />
    <glyph glyph-name="A" unicode="A" horiz-adv-x="669" 
d="M-11 69q20 3 30 13q5 5 9.5 13.5t10.5 22.5l204 517l16 46q6 18 9 40h144l6 -35l16 -41l195 -537q14 -39 52 -39l-4 -69h-233l5 69q34 0 34 27q0 9 -7 26l-34 92h-232l-37 -91l-4 -25q0 -23 37 -29l-4 -69h-215zM242 317h173l-68 194l-6 18q-5 11 -10 43l-7 -36
q-2 -11 -10 -30z" />
    <glyph glyph-name="B" unicode="B" horiz-adv-x="637" 
d="M22 69q32 3 42 18q5 7 8 21t3 35v435l-1 41q0 5 -15.5 19t-39.5 14l6 69l61 -1h23t26 -2l78 1l117 5h17q101 0 154.5 -45.5t53.5 -131.5q0 -50 -13 -72l-17 -28l-13 -16q-6 -7 -21 -17l-39 -19l48 -12q17 -6 63.5 -38.5t46.5 -132.5q0 -39 -15 -79.5t-46 -72.5
q-29 -32 -77.5 -46.5t-138.5 -14.5l-174 2h-28l-113 -1zM218 320v-149q0 -29 3 -39t21 -24q19 -11 70 -11q75 0 112 27t37 87q0 74 -48 93t-120 19h-43zM218 439l49 -5q37 0 59 7q12 3 25.5 11.5t29.5 23.5q32 29 32 65t-33.5 60t-87.5 24q-51 0 -62.5 -16t-11.5 -45v-125z
" />
    <glyph glyph-name="C" unicode="C" horiz-adv-x="609" 
d="M564 638l8 -103l-96 -1q-15 89 -112 89q-174 0 -174 -258q0 -255 161 -255q86 0 175 84l71 -92q-17 -17 -34.5 -31.5t-39.5 -28.5q-38 -25 -85 -39.5t-102 -14.5q-147 0 -223.5 96t-76.5 278q0 180 80 276.5t226 96.5l93 -5l74 -8l20 -1h29z" />
    <glyph glyph-name="D" unicode="D" horiz-adv-x="684" 
d="M19 69q56 0 56 63v455q0 55 -58 62l4 72l86 -3l52 -2l94 2l83 3h18q156 0 225.5 -103t69.5 -256q0 -156 -54 -234t-115 -105q-63 -25 -165 -25h-8l-156 6h-21l-115 -4zM219 524v-340q0 -45 15.5 -59.5t64.5 -14.5q56 0 82.5 6.5t70 49t43.5 195.5q0 116 -35 182.5
t-132 66.5q-44 0 -65 -6.5t-32.5 -24.5t-11.5 -55z" />
    <glyph glyph-name="E" unicode="E" horiz-adv-x="581" 
d="M23 69l22 3q9 3 15.5 10t9.5 19l2 35l3 442q0 71 -56 71l5 72h494l4 -70l6 -52l8 -50h-88l-6 27l-12 22q-8 11 -21 16l-34 1h-100q-30 0 -43.5 -13t-13.5 -48v-124h259l-6 -111h-253v-154l1 -34q2 -10 20.5 -21t46.5 -11h84q33 0 48 6t24 21l15 31q6 15 9 34h90l-8 -51
l-6 -45l-6 -46l-2 -49h-516z" />
    <glyph glyph-name="F" unicode="F" horiz-adv-x="532" 
d="M24 721h494l4 -70l3 -52l7 -49l-95 -1q-6 36 -24.5 52t-51.5 16h-81q-11 0 -27.5 -6t-25.5 -19q-4 -6 -6 -17.5t-2 -32.5v-120h260l-8 -112h-252v-172q0 -47 15 -56l28 -10l27 -2l-5 -70h-266l5 70q14 0 23 5l17 10q8 11 9 21l2 30l1 441v4v19q0 12 -2 18q0 6 -14 20
q-12 14 -41 14z" />
    <glyph glyph-name="G" unicode="G" horiz-adv-x="679" 
d="M604 645l13 -108l-97 -2q-9 46 -40 67.5t-91 21.5q-197 0 -197 -265t187 -265q61 0 82 21t21 88v16q0 9 -2 21.5t-13.5 27t-49.5 14.5h-4l4 73h250l-4 -73h-4q-50 0 -50 -78v-101v-47v-21l3 -31h-23h-7l-25 -1l-91 -9q-28 -3 -56.5 -5t-57.5 -2q-80 0 -132.5 21
t-118 98.5t-65.5 248.5q0 132 46.5 211t94.5 111.5t94.5 44.5t115.5 12l74 -3l78 -9l24 -1h36z" />
    <glyph glyph-name="H" unicode="H" horiz-adv-x="712" 
d="M23 68q29 3 40 15.5t11 45.5l1 457q0 34 -11 48q-11 18 -46 18l5 69h254l-3 -69q-56 0 -56 -69v-145h275v154q0 32 -11.5 46t-42.5 14l4 69h253l-4 -69q-53 -11 -53 -63v-452v-26q0 -10 9.5 -24t44.5 -18l-2 -69h-253l4 69q51 0 51 65v192h-275v-193q0 -36 12 -51
q13 -13 47 -13l-5 -69h-254z" />
    <glyph glyph-name="I" unicode="I" horiz-adv-x="293" 
d="M21 69q32 7 43 20.5t11 51.5v444v18q0 12 -2 18q0 5 -9 13.5t-19 12t-29 5.5l5 69h256l-3 -70q-56 0 -56 -64v-444q0 -42 12 -57t46 -15l-4 -71h-256z" />
    <glyph glyph-name="J" unicode="J" horiz-adv-x="286" 
d="M14 721h254l-4 -70q-54 0 -54 -70l3 -466v-11q0 -95 -14 -156t-43 -99l-40 -50l-36 -34l-50 27l12 26l13 38l8 43l5 44l1 65v586q0 34 -11.5 46t-45.5 12z" />
    <glyph glyph-name="K" unicode="K" horiz-adv-x="619" 
d="M22 68q30 0 42 15t12 49l-1 458q0 38 -10.5 50.5t-45.5 12.5l6 68h246l-4 -68q-49 0 -49 -67v-173l173 189q18 19 19 29q0 23 -37 23h-5l5 67h226l-5 -70l-228 -228l203 -318q12 -18 23.5 -26t34.5 -11l-5 -68h-159l-189 319l-56 -61v-117q0 -37 11 -55q14 -17 40 -17
l-1 -69h-252z" />
    <glyph glyph-name="L" unicode="L" horiz-adv-x="541" 
d="M21 70q33 3 44 16.5t11 48.5v460q0 56 -57 56l4 70h259l-4 -69q-36 0 -47.5 -12.5t-11.5 -50.5v-415l1 -22l4 -29q3 -19 45 -19l52 -2h12q44 0 59.5 4.5t31 25t22.5 65.5l95 1l-13 -92l-12 -106h-500z" />
    <glyph glyph-name="M" unicode="M" horiz-adv-x="925" 
d="M4 69q26 3 34.5 12t11.5 22l5 28l70 450l3 31q0 38 -49 38l4 71h219q0 -19 1 -33t4 -22l21 -60l36 -99l8 -23l36 -101l26 -80l9 -45l7 -35l4 -24l6 45l11 53l20 63l37 94l50 119l12 28l7 26q0 18 -36 26l3 68h233v-24l1 -23l8 -61l59 -476q0 -40 11 -49q12 -18 42 -18
l-3 -70h-238l4 66q23 0 35 9q10 10 10 32l-1 16v14l-28 298l-2 45l-4 64l-8 -38q-6 -29 -24.5 -82t-55.5 -136l-66 -157l-21 -52l-14 -38l-6 -21l-4 -20h-95q-3 30 -5 34l-16 44l-53 150l-41 117l-23 72l-15 61l-9 61l1 -41l-1 -27l-7 -60l-31 -275l-1 -27q0 -40 45 -40
l-4 -69h-237z" />
    <glyph glyph-name="N" unicode="N" horiz-adv-x="717" 
d="M21 69q32 3 42.5 19t10.5 57l1 446q0 34 -12 48.5t-46 14.5l5 67h217l6 -19l7 -14l20 -38l202 -352l30 -57l10 -27l11 -30l-8 56l-3 49l-4 66v224q0 63 -59 72l4 70h244l-3 -69q-33 -6 -43 -19t-10 -51v-441v-71q0 -14 0.5 -30t7.5 -40h-145l-278 464l-19 33l-13 35
l5 -59l4 -57v-261q0 -48 14 -66.5t49 -18.5h4l-4 -70h-251z" />
    <glyph glyph-name="O" unicode="O" horiz-adv-x="716" 
d="M64 554q29 74 95.5 127t199.5 53q129 0 196.5 -51.5t95.5 -126.5q14 -38 21 -84t7 -107q0 -50 -3 -85.5t-11 -67.5q-14 -61 -52 -114t-100 -81.5t-154 -28.5q-94 0 -156 27t-99 80.5t-54 116.5q-14 65 -14 150q0 121 28 192zM191 363q0 -70 6.5 -109.5t25 -73.5t55.5 -55
q38 -19 80 -19q91 0 120.5 50.5t37.5 93.5q3 22 5 49t2 62q0 106 -20 159t-61.5 74.5t-83.5 21.5q-57 0 -97 -30.5t-55 -83.5t-15 -139z" />
    <glyph glyph-name="P" unicode="P" horiz-adv-x="587" 
d="M19 68h7q49 0 49 63v450q0 71 -51 71h-5l6 69l97 -2l107 2l114 3h19q65 0 98 -10.5t79 -53.5t46 -144q0 -71 -27 -123t-69.5 -70.5t-94 -24t-176.5 -5.5v-152q0 -34 5 -42q9 -30 51 -30l-5 -69h-254zM218 408l57 -2q44 0 69.5 3.5t53.5 20.5q30 15 30 81q0 57 -23 81.5
t-77 24.5h-56q-30 0 -42 -15.5t-12 -55.5v-138z" />
    <glyph glyph-name="Q" unicode="Q" horiz-adv-x="716" 
d="M534 5q51 -27 114 -66l-149 -45l-48 39l-42 29l-51 28l-40 -1q-65 0 -123.5 30t-92.5 79.5t-50 112.5t-16 150q0 120 28.5 193.5t95 126.5t199.5 53q92 0 153 -27t114 -100.5t53 -246.5q0 -92 -13.5 -148.5t-42.5 -99t-63 -66.5l-26 -13l-32 -9zM191 363
q0 -70 6.5 -109.5t25 -73.5t55.5 -55q38 -19 80 -19q91 0 120.5 50.5t37.5 93.5q3 22 5 49t2 62q0 106 -20 159t-61.5 74.5t-83.5 21.5q-57 0 -97 -30.5t-55 -83.5t-15 -139z" />
    <glyph glyph-name="R" unicode="R" horiz-adv-x="629" 
d="M22 70q30 0 40 14q10 17 10 58l3 440q0 39 -11 51q-8 12 -43 17l3 71l117 -5h18l108 4l64 1q27 0 50 -1t48.5 -4.5t53.5 -18.5q46 -21 73.5 -65t27.5 -100q0 -67 -35 -120q-10 -18 -25 -32.5t-30 -23.5l-41 -17l118 -220q12 -22 27 -35q12 -10 36 -15l-4 -69h-165l-11 37
l-19 39l-116 223l-101 -3v-155q0 -37 12 -55q13 -16 44 -16l-5 -70h-252zM218 414l65 -3h12q20 0 34.5 1t24.5 4q21 6 51 30t30 75q0 56 -29 76q-14 10 -35 15t-53 5q-23 0 -40 -1t-31 -4.5t-23 -20.5q-6 -8 -6 -15v-29v-133z" />
    <glyph glyph-name="S" unicode="S" horiz-adv-x="562" 
d="M506 650l2 -63l3 -58h-97q-3 29 -14 48q-8 18 -41 34t-68 16q-45 0 -75 -24t-30 -60q0 -32 11 -46.5t33 -25.5l54 -22l51 -18l26 -9l31 -10q21 -6 79 -45t58 -153q0 -108 -65 -167t-183 -59q-64 0 -138 10l-49 6l-50 4v47v53l-5 103l93 -1q0 -114 132 -114q58 0 88.5 23
t30.5 68q0 35 -20 55q-18 21 -76 42l-95 37q-39 17 -100 55t-61 142q0 95 64 154.5t170 59.5q31 0 45 -1.5t40 -6.5l80 -10l35 -6l42 -2z" />
    <glyph glyph-name="T" unicode="T" horiz-adv-x="591" 
d="M8 644l3 77q22 0 67 -1t68 -1q20 0 69.5 -1t79.5 -1l152 2l144 2l-4 -79l-3 -93h-94l1 10q0 33 -14 46q-12 14 -46 14h-66v-477v-24q0 -16 8 -25q15 -24 51 -24l-6 -69h-255l6 70q25 0 38.5 15.5t13.5 47.5v486h-59q-57 0 -67 -70h-95z" />
    <glyph glyph-name="U" unicode="U" horiz-adv-x="702" 
d="M19 721h258l-5 -69q-34 -4 -45 -17.5t-11 -48.5v-335q0 -27 3.5 -49t18.5 -65t117 -43q67 0 98.5 39.5t31.5 125.5v330q0 34 -10.5 45t-44.5 17l6 70h252l-6 -70q-17 0 -25 -2.5t-14 -8.5t-9 -22t-4 -20.5t-1 -16.5v-302q0 -150 -68 -219.5t-215 -69.5q-68 0 -115.5 15
t-85.5 50.5t-55.5 86t-17.5 135.5v302q0 45 -11 59t-46 14z" />
    <glyph glyph-name="V" unicode="V" horiz-adv-x="656" 
d="M-10 721h248v-71q-49 0 -49 -31q0 -13 8 -33l110 -323q12 -37 18 -86l3 27l5 24l12 33l112 312l12 32l2 12q0 32 -42 32l9 72h232l-4 -70q-23 -6 -32.5 -15.5t-24.5 -45.5l-197 -489q-14 -37 -25 -101h-123l-13 47q-6 21 -19 50l-96 234l-48 123l-36 106l-18 53
q-5 14 -15.5 27t-32.5 13z" />
    <glyph glyph-name="W" unicode="W" horiz-adv-x="955" 
d="M-1 721h247l-3 -69q-34 -6 -43.5 -12.5t-9.5 -27.5l3 -22l5 -22l55 -251l10 -67l7 -51l11 69l10 46l85 314l8 38l3 24l1 31h161l3 -37l11 -45l93 -322l10 -42l9 -71l10 70l11 42l63 260l4 17l1 21q0 38 -42 38l6 69h233l-3 -68q-22 -3 -33.5 -15.5t-21.5 -43.5l-65 -240
l-14 -52l-56 -198l-11 -40l-6 -26l-2 -38h-140q-3 25 -7 49t-10 42l-97 317l-15 50l-10 66l-9 -65l-12 -55l-85 -311l-10 -47l-3 -48l-155 2q-3 33 -7 44l-15 55l-28 104l-40 149l-61 235l-10 37q-6 22 -43 26z" />
    <glyph glyph-name="X" unicode="X" horiz-adv-x="652" 
d="M8 66l241 304l-184 245q-10 15 -20 24.5t-28 12.5l5 69h253l-5 -68h-7q-10 0 -16.5 -6t-8.5 -16q0 -8 4 -16l11 -19l86 -141l93 142q14 22 16 33q0 9 -9 15.5t-23 8.5h-4l4 67h216l-4 -66l-214 -274l191 -280q11 -17 21.5 -24.5t25.5 -7.5l-4 -69h-250l3 67q36 0 36 25
q0 7 -2 11l-13 27l-99 150l-107 -143l-14 -23l-4 -16q0 -30 39 -30l-3 -68h-234z" />
    <glyph glyph-name="Y" unicode="Y" horiz-adv-x="576" 
d="M235 721l-1 -76q-37 0 -37 -24q0 -17 11 -36l68 -140l10 -23l6 -15l6 -26l12 42l14 28l67 137q5 11 7 28q0 30 -36 30h-6l3 75h231l-3 -69q-17 0 -25 -7.5t-18 -26.5l-175 -348v-128q0 -43 8.5 -55t40.5 -18l-4 -69h-245l4 69q32 3 42 15t10 42v144l-195 345l-5 12
q-6 18 -37 18l-2 76h249z" />
    <glyph glyph-name="Z" unicode="Z" horiz-adv-x="589" 
d="M21 79l314 486l18 28q5 8 21 22l-48 -1h-96q-49 0 -73 -15.5t-24 -50.5h-93l12 108l6 65h493l7 -75l-19 -24l-10 -16l-22 -33l-250 -389q-16 -27 -28 -39q-2 -3 -13 -13t-19 -17h141q76 0 102.5 16t33.5 67l87 -1l-14 -100l-12 -97h-517z" />
    <glyph glyph-name="bracketleft" unicode="[" horiz-adv-x="329" 
d="M75 771h244v-64h-107v-790h106v-63h-243v917z" />
    <glyph glyph-name="backslash" unicode="\" horiz-adv-x="355" 
d="M173 720l126 -720h-144l-126 720h144z" />
    <glyph glyph-name="bracketright" unicode="]" horiz-adv-x="329" 
d="M10 -81h107v790h-106v63h243v-918h-244v65z" />
    <glyph glyph-name="asciicircum" unicode="^" horiz-adv-x="362" 
d="M66 698l46 75h146l37 -68l67 -110h-105l-21 24l-21 24l-15 18l-15 17l-35 -36l-39 -47h-111z" />
    <glyph glyph-name="underscore" unicode="_" horiz-adv-x="452" 
d="M29 0h360v-67h-360v67z" />
    <glyph glyph-name="grave" unicode="`" horiz-adv-x="293" 
d="M152 766l39 -68l64 -102h-99l-44 39l-43 37l-53 47l-52 47h188z" />
    <glyph glyph-name="a" unicode="a" horiz-adv-x="583" 
d="M352 49q-12 -15 -32 -28q-44 -32 -106 -32q-81 0 -129.5 48.5t-48.5 132.5q0 51 19.5 89.5t63.5 66.5t153 28h8l92 -3v30q0 69 -97 69l-46 -3q-16 0 -53 -10l-83 -22l-15 -4l5 112l80 23q27 5 48 5q41 6 94 6q96 0 148.5 -39.5t52.5 -127.5v-233l1 -49q0 -7 9 -18
q12 -21 43 -21l-3 -69h-155q-16 38 -16 66l3 30l-19 -26zM377 258h-91q-49 0 -78 -21.5t-29 -67.5q0 -66 72 -66q55 0 90.5 43t35.5 112z" />
    <glyph glyph-name="b" unicode="b" horiz-adv-x="622" 
d="M24 782l93 15h97l-6 -56l-3 -50v-259q50 64 97 93t101 29q84 0 133.5 -68.5t49.5 -184.5q0 -142 -69.5 -227.5t-184.5 -85.5q-95 0 -161 67q-15 -29 -42 -55h-73l9 47l6 51l4 89v476v17q0 9 -1.5 16.5t-14 17.5t-40.5 10zM208 296v-64q0 -60 32 -98t84 -38q57 0 91 53.5
t34 142.5q0 135 -80 135q-91 0 -161 -131z" />
    <glyph glyph-name="c" unicode="c" horiz-adv-x="520" 
d="M477 478l5 -97l-90 -2q-4 28 -15 53q-9 24 -68 24q-131 0 -131 -186q0 -81 31 -124t89 -43q75 0 137 54l58 -80l-30 -28q-9 -7 -53.5 -33t-128.5 -26q-118 0 -181.5 72.5t-63.5 209.5q0 134 63 210t179 76l43 -1l26 -2l69 -5l59 -4z" />
    <glyph glyph-name="d" unicode="d" horiz-adv-x="625" 
d="M421 643q0 41 -14.5 60.5t-50.5 19.5l3 59l93 15h105l-5 -46l-1 -47v-21v-536q0 -38 12 -55t45 -23l-5 -69h-162q-16 45 -16 82l2 37l-29 -41l-29 -32q-66 -58 -138 -58q-90 0 -142.5 72t-52.5 196q0 138 67 220t180 82q42 0 72.5 -12t65.5 -42v139zM417 251v79
q0 45 -34 79.5t-81 34.5q-56 0 -91 -49t-35 -131q0 -146 85 -146q87 0 156 133z" />
    <glyph glyph-name="e" unicode="e" horiz-adv-x="545" 
d="M171 251q0 -69 32 -109.5t89 -40.5q37 0 69 16q34 15 70 53l73 -71l-29 -31l-58 -47q-44 -33 -143 -33q-116 0 -177 70t-61 205q0 145 65 220.5t191 75.5q222 0 222 -260v-11l-3 -37h-340zM170 338h216l1 13q0 49 -28.5 79.5t-76.5 30.5q-50 0 -81 -32.5t-31 -90.5z" />
    <glyph glyph-name="f" unicode="f" horiz-adv-x="310" 
d="M13 546h68v81q0 81 49 128.5t133 47.5l38 -1q12 0 38 -6l-6 -111l-36 7l-29 2q-33 0 -47.5 -15.5t-14.5 -49.5v-83h115l-4 -90h-105v-312l1 -11l1 -33q0 -6 6.5 -12.5t22.5 -12.5q11 -3 16 -4t17 -1l-7 -70h-248l5 69q55 0 55 79v308h-73z" />
    <glyph glyph-name="g" unicode="g" horiz-adv-x="569" 
d="M158 -67q-10 -20 -10 -36q0 -35 32 -57q16 -10 37.5 -16t48.5 -6q63 0 100 19t37 53q0 22 -16.5 43.5t-89.5 21.5l-49 1q-64 0 -96.5 26t-32.5 73q0 42 65 100l-38 9q-12 3 -62 35t-50 140q0 96 63 157t169 61q40 0 76 -7t80 -25l130 23l-3 -87l-56 -20q18 -28 27 -52
q4 -13 6 -25t2 -30q0 -92 -66 -146q-33 -26 -78 -39t-106 -13l-16 -15q-15 -17 -16 -26q0 -12 15 -20q12 -4 30 -4.5t35 -0.5q55 0 80.5 -7.5t59.5 -32.5t45.5 -49.5t11.5 -70.5q0 -88 -66.5 -136.5t-192.5 -48.5q-105 0 -152 26t-67.5 57.5t-20.5 67.5q0 57 53 110z
M171 345q0 -49 30.5 -79.5t83.5 -30.5q50 0 81.5 30.5t31.5 81.5q0 49 -30.5 78.5t-83.5 29.5q-50 0 -81.5 -29.5t-31.5 -80.5z" />
    <glyph glyph-name="h" unicode="h" horiz-adv-x="624" 
d="M26 68q26 4 38 21q10 17 10 57v515l-1 33q0 7 -5 13q-3 7 -14 12q-9 6 -27 6h-5l4 57l95 15h89l-4 -48l-1 -45v-289l18 24l23 29l36 36q24 23 57 38t76 15q70 0 102 -38q33 -36 33 -118v-266q0 -35 6 -43q9 -17 47 -24l-4 -68h-234l5 68q26 0 37.5 15.5t11.5 52.5v223
l-1 32q-5 35 -40 35q-22 0 -49 -16.5t-56 -49.5t-68 -92v-125v-32q0 -14 9 -23q12 -20 42 -20l-3 -68h-231z" />
    <glyph glyph-name="i" unicode="i" horiz-adv-x="289" 
d="M26 531l98 14h95q-5 -50 -5 -100v-288v-36q0 -17 9.5 -30t45.5 -22l-3 -69h-244l4 69q35 7 45.5 24.5t10.5 67.5v245q0 42 -9 51t-51 15zM50 648q0 45 29 70t81 25q77 0 77 -51q0 -48 -28 -73t-84 -25q-75 0 -75 54z" />
    <glyph glyph-name="j" unicode="j" horiz-adv-x="262" 
d="M11 531l100 14h97l-4 -25l-2 -18v-25v-35v-440q0 -64 -4.5 -89t-10.5 -41t-17 -35q-7 -16 -19 -32l-24 -28l-26 -25l-31 -23l-41 39q26 36 32 62l7 50l2 48v466v20q0 11 -2 23t-8 20l-18 12q-7 3 -24 5h-7v57zM34 648q0 45 29 70t81 25q77 0 77 -51q0 -48 -28 -73
t-84 -25q-75 0 -75 54z" />
    <glyph glyph-name="k" unicode="k" horiz-adv-x="573" 
d="M21 69q28 3 41 16l8 12l4 16l1 37l2 505q0 45 -12 57t-42 12h-6l6 58l92 15h98l-5 -39l-3 -33v-33v-389l113 114q26 29 26 39q0 6 -12.5 12.5t-28.5 6.5l9 70h245l-2 -70q-23 -3 -31.5 -8t-30.5 -29l-143 -144l175 -196q10 -12 22 -19l28 -10l-6 -69h-148q-6 20 -11 24
l-23 29l-182 205l1 -116v-27q0 -18 13 -32q14 -12 42 -12l-5 -71h-241z" />
    <glyph glyph-name="l" unicode="l" horiz-adv-x="281" 
d="M16 783l103 14h93l-6 -47v-66v-540l1 -38q1 -6 12 -23q11 -14 46 -14l-4 -69h-246l6 69q31 4 42.5 17.5t11.5 48.5v523q0 35 -15.5 51.5t-47.5 16.5z" />
    <glyph glyph-name="m" unicode="m" horiz-adv-x="928" 
d="M26 69q32 0 43.5 12.5t11.5 50.5l-1 277q0 31 -8 47t-46 16l2 59l104 15l70 -1l2 -29l1 -23l1 -54l54 54l42 33q45 34 109 34q100 0 113 -77l8 -38q34 60 80 88t104 28q62 0 91.5 -26t38.5 -52.5t9 -76.5v-264q0 -40 11 -57q13 -16 41 -16l-1 -69h-241l3 69q35 0 47 12
q10 13 10 57v231v17l-2 20q-2 12 -13 21.5t-27 10.5q-17 0 -44.5 -14.5t-42.5 -28.5l-32 -36l-31 -41v-188q0 -33 12 -48q13 -13 46 -13l-3 -69h-247l4 68q31 0 44 15t13 51v220l-1 33q0 16 -13.5 29.5t-32.5 13.5q-31 0 -69 -31t-75 -85v-167q0 -32 2 -41.5t9 -17.5
q14 -19 47 -19l-4 -69h-242z" />
    <glyph glyph-name="n" unicode="n" horiz-adv-x="631" 
d="M31 68q29 3 43 18l6 19l2 41v263l-1 28q0 8 -9 23q-6 15 -38 15h-6l4 56l96 15h76l1 -30v-4l-1 -34v-69l20 25l23 27l40 39q26 24 62.5 40.5t75.5 16.5q132 0 132 -156v-266v-15q0 -30 11 -41t42 -11l-6 -68h-235l3 68q33 3 43.5 16.5t10.5 51.5v223l-1 32q-6 34 -40 34
q-21 0 -38.5 -10.5t-38.5 -31.5l-37 -39l-29 -33l-29 -43v-133q0 -39 8 -47q12 -20 49 -20l-3 -68h-241z" />
    <glyph glyph-name="o" unicode="o" horiz-adv-x="603" 
d="M298 560q268 0 268 -286t-264 -286q-266 0 -266 284q0 141 66.5 214.5t195.5 73.5zM182 281q0 -97 28 -140.5t91 -43.5q62 0 91.5 42.5t29.5 134.5q0 90 -29 133.5t-92 43.5q-43 0 -71 -21.5t-37 -54.5l-10 -50z" />
    <glyph glyph-name="p" unicode="p" horiz-adv-x="627" 
d="M21 531l98 15l84 -1l-1 -16l-3 -90l24 30l29 30l34 29q44 30 106 30q95 0 147 -70q26 -35 39 -83t13 -113q0 -137 -66 -219.5t-179 -82.5q-47 0 -78 14t-63 48v-169q0 -38 12 -52.5t54 -14.5l-5 -70l-85 3l-63 -2l-56 -2l5 31l2 22l4 51l2 55v494q0 30 -3 42.5t-11 21.5
l-19 9l-26 4zM205 302v-59q0 -67 32 -105.5t87 -38.5q127 0 127 195q0 138 -91 138q-74 0 -155 -130z" />
    <glyph glyph-name="q" unicode="q" horiz-adv-x="614" 
d="M475 518l8 12l14 16h62l-9 -62l-2 -66v-526q0 -45 12 -61t51 -16l-3 -70l-48 1h-14h-11q-8 2 -12 2l-54 -1q-10 0 -26 -1t-37 -4l8 72l3 111v174q-45 -58 -88.5 -84t-101.5 -26q-93 0 -142 64t-49 188q0 142 68 225.5t184 83.5q65 0 96 -19l41 -26l26 -23l13 22zM416 235
v69q0 138 -112 138q-62 0 -98.5 -51.5t-36.5 -141.5q0 -67 24 -104t70 -37q47 0 80.5 26.5t48.5 47.5q13 21 24 53z" />
    <glyph glyph-name="r" unicode="r" horiz-adv-x="388" 
d="M27 70q36 6 45.5 15.5t9.5 61.5v261q0 37 -11 51q-10 16 -35 16l-13 -1l4 57l97 15h76l2 -79v-14l-2 -63l18 45l27 51q21 36 42 51t58 15q28 0 36 -2l21 -3l-7 -121l-25 3q-18 0 -24 -2l-18 -7q-7 -2 -21.5 -13t-25.5 -30l-23 -36l-9 -18l-35 -54l1 -128v-17v-20
q0 -8 11.5 -21t49.5 -13l-5 -70h-249z" />
    <glyph glyph-name="s" unicode="s" horiz-adv-x="479" 
d="M124 178q0 -97 99 -97q87 0 87 66q0 24 -26.5 42.5t-89.5 41t-81 32.5q-11 6 -25.5 20t-20.5 21q-27 30 -27 94q0 75 49 118t139 43q14 0 33 -1t43 -4l64 -7l56 -5l2 -66l5 -91h-90q-9 74 -89 74q-77 0 -77 -57q0 -20 16 -35q17 -12 62 -24l62 -18q62 -15 96 -58t34 -101
q0 -80 -53.5 -129t-141.5 -49q-29 0 -84 7l-75 9l-53 5l-1 80l-3 90z" />
    <glyph glyph-name="t" unicode="t" horiz-adv-x="356" 
d="M22 545h53l14 120l116 32v-152h140l-9 -89h-131v-285q0 -33 2 -44.5t7 -19.5q4 -4 21 -11l24 -3q16 0 29.5 3.5t34.5 17.5l40 -72q-59 -56 -149 -56q-71 0 -100 32q-26 31 -34 54q-6 23 -6 76v308h-61z" />
    <glyph glyph-name="u" unicode="u" horiz-adv-x="624" 
d="M24 531l94 14h99l-6 -41l-2 -39l-3 -77v-191q0 -41 10.5 -54.5t41.5 -13.5q54 0 81.5 27.5t35.5 39.5l17 23l14 19l17 27v148q0 36 -11 47q-9 12 -43 12h-9v59l96 14h103l-3 -29l-2 -30v-74v-266l1 -34q0 -36 53 -42l-5 -70h-167q-9 50 -9 92l3 54l-20 -30l-37 -47
q-29 -36 -68 -57.5t-87 -21.5q-34 0 -66.5 12t-54 37.5t-21.5 124.5v236q0 44 -9 59q-10 13 -41 13h-8z" />
    <glyph glyph-name="v" unicode="v" horiz-adv-x="552" 
d="M-2 546h230l-4 -66q-38 -6 -38 -34l5 -25l25 -80l11 -32l32 -98l8 -26l9 -48l4 30l5 20l8 24l22 61l14 44l40 107l4 19l1 6q0 25 -40 32l5 66h220l-4 -67q-21 -3 -30 -12t-20 -35l-48 -118l-22 -60l-37 -98l-32 -77l-18 -42l-10 -37h-128l-10 35l-19 46l-40 92l-35 84
l-51 129l-16 44l-15 29q-6 13 -32 19z" />
    <glyph glyph-name="w" unicode="w" horiz-adv-x="857" 
d="M-1 546h238l-5 -69q-26 -6 -34 -13t-8 -27q0 -19 5 -35l41 -175l7 -35l6 -44l5 39l15 44l25 73q19 51 30 89l20 69l6 22l7 27l6 35h130l18 -77l24 -79l25 -76l25 -71l7 -21l9 -35l9 -40l5 39l10 42l39 160l7 51q0 17 -6.5 23.5t-27.5 12.5l3 71h222l-4 -71q-34 0 -49 -46
l-19 -56l-28 -101l-46 -198l-8 -36l-1 -12l1 -26h-166l-7 38l-12 33l-81 243q-5 16 -7 28t-7 47q0 -21 -3 -34.5t-13 -39.5l-84 -241l-12 -29q-8 -13 -8 -45h-132l-6 29l-10 32l-43 133l-16 54l-23 71l-24 83l-5 22l-17 35q-1 6 -10 10l-26 8z" />
    <glyph glyph-name="x" unicode="x" horiz-adv-x="592" 
d="M4 68q20 0 29 6.5t26 28.5l138 171l-130 170q-19 25 -29.5 31t-32.5 6l5 65h256l-4 -69h-8q-8 0 -17.5 -5t-11.5 -19q0 -11 13 -30l60 -90l70 92q11 17 13 27q0 20 -33 25l4 69h227l-4 -70q-32 -7 -53 -34l-131 -157l148 -182q19 -24 53 -34l-4 -69h-243l4 66q36 0 36 19
q0 7 -5 15q-3 9 -10 16l-79 105l-76 -102l-10 -14q-3 -5 -5 -14q0 -9 11.5 -16.5t29.5 -7.5l-4 -67h-237z" />
    <glyph glyph-name="y" unicode="y" horiz-adv-x="556" 
d="M-2 546h228l-3 -69q-23 0 -30.5 -7t-7.5 -25l3 -24l8 -26l27 -75l45 -123l9 -27l4 -17l5 -30l5 36l14 44l49 141l17 52l8 27l4 23v4q0 27 -41 27l4 69h217l-4 -74q-27 -3 -34 -14l-10 -16l-12 -31l-72 -197q-9 -28 -20 -58t-29 -71l-67 -152l-88 -187l-148 -1l79 135
l60 109l-56 126l-83 216l-38 99l-9 24q-6 21 -40 24z" />
    <glyph glyph-name="z" unicode="z" horiz-adv-x="517" 
d="M36 98l15 20l17 21l203 252l19 24l27 21l-109 2h-5q-35 0 -49.5 -12t-21.5 -50h-92l8 53l6 43l8 75l126 -3l80 -2l93 2l90 2l44 -71l-33 -38l-30 -40l-189 -245l-20 -26l-26 -19l117 1q39 0 55 11t27 46l5 19l1 3h87l-20 -103l-14 -90l-24 4l-19 2h-41h-318l-34 79z" />
    <glyph glyph-name="braceleft" unicode="{" horiz-adv-x="397" 
d="M96 432v310q0 48 26 74t73 26h143v-86h-13q-31 0 -43.5 -11t-12.5 -37v-254q0 -63 -62 -88l-27 -6l27 -6q28 -11 45 -35.5t17 -52.5v-254q0 -48 56 -48h13v-86h-143q-47 0 -73 26t-26 74v310q0 31 -18.5 51.5t-48.5 20.5q29 0 48 20.5t19 51.5z" />
    <glyph glyph-name="bar" unicode="|" horiz-adv-x="218" 
d="M29 720h144v-720h-144v720z" />
    <glyph glyph-name="braceright" unicode="}" horiz-adv-x="397" 
d="M29 -36h13q31 0 43.5 11t12.5 37v254q0 29 17 52.5t46 35.5l26 6l-26 6q-29 12 -46 36t-17 52v254q0 25 -12.5 36.5t-43.5 11.5h-13v86h143q47 0 73 -26t26 -74v-310q0 -30 19 -52q20 -20 48 -20q-27 0 -48 -21q-19 -21 -19 -51v-310q0 -48 -26 -74t-73 -26h-143v86z" />
    <glyph glyph-name="asciitilde" unicode="~" horiz-adv-x="386" 
d="M103 924q16 0 24 -1t27 -7l72 -22l20 -3q21 0 36 32l104 -32q-33 -119 -107 -119q-25 0 -45 7l-79 25l-19 4q-22 0 -31 -37l-105 33q14 56 41 88t62 32z" />
    <glyph glyph-name="c128" horiz-adv-x="692" 
d="M680 102l-71 92q-89 -84 -175 -84q-161 0 -161 255q0 258 174 258q36 0 52 -11t16 -36q0 -16 -8 -48l96 -1l22 113l16 81h-29l-20 1l-74 8l-93 5q-147 0 -226.5 -96t-79.5 -277q0 -183 76 -278t224 -95q55 0 102 14t85 39q22 14 39.5 28.5t34.5 31.5zM601 478h-547
l-30 -98h555zM577 332h-495l-30 -98h503z" />
    <glyph glyph-name="c128" unicode="&#x20ac;" horiz-adv-x="692" 
d="M680 102l-71 92q-89 -84 -175 -84q-161 0 -161 255q0 258 174 258q36 0 52 -11t16 -36q0 -16 -8 -48l96 -1l22 113l16 81h-29l-20 1l-74 8l-93 5q-147 0 -226.5 -96t-79.5 -277q0 -183 76 -278t224 -95q55 0 102 14t85 39q22 14 39.5 28.5t34.5 31.5zM601 478h-547
l-30 -98h555zM577 332h-495l-30 -98h503z" />
    <glyph glyph-name="quotesinglbase" horiz-adv-x="244" 
d="M35 -142l32 38l21 33l15 29l13 33l-20 -2q-29 0 -47 17t-18 47q0 39 26.5 64t67.5 25t64.5 -24.5t23.5 -66.5q0 -60 -29 -111q-27 -53 -43 -73q-7 -11 -18.5 -24.5t-28.5 -29.5z" />
    <glyph glyph-name="quotesinglbase" unicode="&#x201a;" horiz-adv-x="244" 
d="M35 -142l32 38l21 33l15 29l13 33l-20 -2q-29 0 -47 17t-18 47q0 39 26.5 64t67.5 25t64.5 -24.5t23.5 -66.5q0 -60 -29 -111q-27 -53 -43 -73q-7 -11 -18.5 -24.5t-28.5 -29.5z" />
    <glyph glyph-name="florin" horiz-adv-x="396" 
d="M-42 -146q21 -4 37 -6t31 -2q58 0 58 66l37 541h-75l13 85h69l4 78q0 37 15 69t54.5 71t126.5 39q33 0 72 -11l-14 -112q-43 10 -66 10q-29 0 -44 -15q-13 -15 -13 -51l-6 -77h108l-11 -87h-103l-37 -534q0 -35 -17 -70q-15 -37 -55 -75.5t-123 -38.5h-14q-8 0 -21 1.5
t-18.5 2.5t-19.5 6z" />
    <glyph glyph-name="florin" unicode="&#x192;" horiz-adv-x="396" 
d="M-42 -146q21 -4 37 -6t31 -2q58 0 58 66l37 541h-75l13 85h69l4 78q0 37 15 69t54.5 71t126.5 39q33 0 72 -11l-14 -112q-43 10 -66 10q-29 0 -44 -15q-13 -15 -13 -51l-6 -77h108l-11 -87h-103l-37 -534q0 -35 -17 -70q-15 -37 -55 -75.5t-123 -38.5h-14q-8 0 -21 1.5
t-18.5 2.5t-19.5 6z" />
    <glyph glyph-name="quotedblbase" horiz-adv-x="457" 
d="M35 -142l32 38l21 33l15 29l13 33l-20 -2q-29 0 -47 17t-18 47q0 39 26.5 64t67.5 25t64.5 -24.5t23.5 -66.5q0 -60 -29 -111q-27 -53 -43 -73q-7 -11 -18.5 -24.5t-28.5 -29.5zM249 -142q16 19 31 39q12 16 22 33l11 22l16 39l-19 -2q-31 0 -48.5 17t-17.5 47
q0 39 27 64t68 25q40 0 63.5 -24.5t23.5 -66.5q0 -56 -27 -109q-14 -26 -25 -44.5t-19 -28.5q-15 -23 -47 -56z" />
    <glyph glyph-name="quotedblbase" unicode="&#x201e;" horiz-adv-x="457" 
d="M35 -142l32 38l21 33l15 29l13 33l-20 -2q-29 0 -47 17t-18 47q0 39 26.5 64t67.5 25t64.5 -24.5t23.5 -66.5q0 -60 -29 -111q-27 -53 -43 -73q-7 -11 -18.5 -24.5t-28.5 -29.5zM249 -142q16 19 31 39q12 16 22 33l11 22l16 39l-19 -2q-31 0 -48.5 17t-17.5 47
q0 39 27 64t68 25q40 0 63.5 -24.5t23.5 -66.5q0 -56 -27 -109q-14 -26 -25 -44.5t-19 -28.5q-15 -23 -47 -56z" />
    <glyph glyph-name="ellipsis" unicode="&#x85;" horiz-adv-x="996" 
d="M167 202q44 0 76 -32t32 -76q0 -45 -31.5 -76.5t-76.5 -31.5t-77 31q-31 33 -31 77q0 45 31.5 76.5t76.5 31.5zM500 202q44 0 76 -32t32 -76q0 -45 -31.5 -76.5t-76.5 -31.5t-77 31q-31 33 -31 77q0 45 31.5 76.5t76.5 31.5zM833 202q44 0 76 -32t32 -76
q0 -45 -31.5 -76.5t-76.5 -31.5t-77 31q-31 33 -31 77q0 45 31.5 76.5t76.5 31.5z" />
    <glyph glyph-name="ellipsis" unicode="&#x2026;" horiz-adv-x="996" 
d="M167 202q44 0 76 -32t32 -76q0 -45 -31.5 -76.5t-76.5 -31.5t-77 31q-31 33 -31 77q0 45 31.5 76.5t76.5 31.5zM500 202q44 0 76 -32t32 -76q0 -45 -31.5 -76.5t-76.5 -31.5t-77 31q-31 33 -31 77q0 45 31.5 76.5t76.5 31.5zM833 202q44 0 76 -32t32 -76
q0 -45 -31.5 -76.5t-76.5 -31.5t-77 31q-31 33 -31 77q0 45 31.5 76.5t76.5 31.5z" />
    <glyph glyph-name="dagger" horiz-adv-x="546" 
d="M26 536l100 -14l99 -12v11q0 19 -1 36t-4 32l-7 59l-8 56q-4 27 -5.5 35.5t-8.5 33.5h165l-19 -120l-8 -68l-3 -74l92 12l102 20v-141l-54 6l-41 4l-95 7l3 -22l5 -18l10 -28l13 -34l-15 -113l-12 -110l-12 -126q0 -25 -2.5 -77.5t-2.5 -69.5h-74q0 82 -7 141
q-2 23 -4.5 46.5t-9.5 69.5q-3 27 -6 51.5t-8 56.5l-19 125l22 58l12 47l-97 -10l-100 -11v141z" />
    <glyph glyph-name="dagger" unicode="&#x2020;" horiz-adv-x="546" 
d="M26 536l100 -14l99 -12v11q0 19 -1 36t-4 32l-7 59l-8 56q-4 27 -5.5 35.5t-8.5 33.5h165l-19 -120l-8 -68l-3 -74l92 12l102 20v-141l-54 6l-41 4l-95 7l3 -22l5 -18l10 -28l13 -34l-15 -113l-12 -110l-12 -126q0 -25 -2.5 -77.5t-2.5 -69.5h-74q0 82 -7 141
q-2 23 -4.5 46.5t-9.5 69.5q-3 27 -6 51.5t-8 56.5l-19 125l22 58l12 47l-97 -10l-100 -11v141z" />
    <glyph glyph-name="daggerdbl" horiz-adv-x="550" 
d="M28 243l98 -14l79 -7l-3 20l-3 21l-5 26l-5 26l23 58l16 46l-99 -7l-54 -5l-47 -6l1 137l51 -10l51 -7l98 -10q0 43 -6 79l-10 71q0 16 -5 45q-1 7 -13 66h166l-12 -58l-9 -67l-8 -69l-2 -69l96 14l97 19v-138l-92 11l-98 8l3 -21l7 -28l21 -54l-8 -49l-6 -47l47 5l35 6
l91 15v-138l-43 6l-49 6l-45 2l-44 3l-16 -131l-7 -89l-2 -83l-71 -1l-11 164l-17 139l-92 -10l-100 -15z" />
    <glyph glyph-name="daggerdbl" unicode="&#x2021;" horiz-adv-x="550" 
d="M28 243l98 -14l79 -7l-3 20l-3 21l-5 26l-5 26l23 58l16 46l-99 -7l-54 -5l-47 -6l1 137l51 -10l51 -7l98 -10q0 43 -6 79l-10 71q0 16 -5 45q-1 7 -13 66h166l-12 -58l-9 -67l-8 -69l-2 -69l96 14l97 19v-138l-92 11l-98 8l3 -21l7 -28l21 -54l-8 -49l-6 -47l47 5l35 6
l91 15v-138l-43 6l-49 6l-45 2l-44 3l-16 -131l-7 -89l-2 -83l-71 -1l-11 164l-17 139l-92 -10l-100 -15z" />
    <glyph glyph-name="perthousand" horiz-adv-x="1116" 
d="M479 729h89l-285 -734h-86zM183 735q153 0 153 -198q0 -196 -153 -196q-74 0 -114 50.5t-40 143.5q0 200 154 200zM584 387q152 0 152 -198q0 -93 -39 -145t-113 -52q-155 0 -155 196q0 96 39.5 147.5t115.5 51.5zM933 387q153 0 153 -199q0 -94 -39.5 -145t-113.5 -51
q-71 0 -112.5 51.5t-41.5 143.5q0 96 40 148t114 52zM528 182q0 -96 53 -96q23 0 41 34.5t18 82.5q0 44 -14 66q-14 25 -38 25t-42 -33.5t-18 -78.5zM126 529q0 -94 53 -94q24 0 42 33t18 83q0 44 -14 66q-14 25 -38 25t-42.5 -33.5t-18.5 -79.5zM877 181q0 -95 53 -95
q24 0 41.5 34t17.5 83q0 44 -14 66q-13 25 -38 25q-24 0 -42 -33.5t-18 -79.5z" />
    <glyph glyph-name="perthousand" unicode="&#x2030;" horiz-adv-x="1116" 
d="M479 729h89l-285 -734h-86zM183 735q153 0 153 -198q0 -196 -153 -196q-74 0 -114 50.5t-40 143.5q0 200 154 200zM584 387q152 0 152 -198q0 -93 -39 -145t-113 -52q-155 0 -155 196q0 96 39.5 147.5t115.5 51.5zM933 387q153 0 153 -199q0 -94 -39.5 -145t-113.5 -51
q-71 0 -112.5 51.5t-41.5 143.5q0 96 40 148t114 52zM528 182q0 -96 53 -96q23 0 41 34.5t18 82.5q0 44 -14 66q-14 25 -38 25t-42 -33.5t-18 -78.5zM126 529q0 -94 53 -94q24 0 42 33t18 83q0 44 -14 66q-14 25 -38 25t-42.5 -33.5t-18.5 -79.5zM877 181q0 -95 53 -95
q24 0 41.5 34t17.5 83q0 44 -14 66q-13 25 -38 25q-24 0 -42 -33.5t-18 -79.5z" />
    <glyph glyph-name="guilsinglleft" horiz-adv-x="311" 
d="M81 376l31 70l22 53h122l-30 -79l-16 -48l-16 -51l-17 -54l20 -46l24 -47l29 -53l34 -58h-136l-24 45l-31 54l-29 48l-38 57l32 62z" />
    <glyph glyph-name="guilsinglleft" unicode="&#x2039;" horiz-adv-x="311" 
d="M81 376l31 70l22 53h122l-30 -79l-16 -48l-16 -51l-17 -54l20 -46l24 -47l29 -53l34 -58h-136l-24 45l-31 54l-29 48l-38 57l32 62z" />
    <glyph glyph-name="OE" horiz-adv-x="926" 
d="M395 3l-45 1l-62 -1q-66 0 -123 35t-93 110.5t-36 201.5q0 55 12 115.5t40.5 122t76 87t93.5 37.5q20 5 42 8t41 3l126 -3l87 1h304l6 -82l8 -100h-91q0 76 -52 76h-76q-23 0 -32 -1.5t-19 -8t-10 -29.5v-28v-118h225l-4 -109h-221v-155q0 -37 14 -51t51 -14h4l64 2
q17 0 33 5t28 17t18 61h91l-11 -91l-8 -95h-334zM449 198v338q0 31 -5 41q-3 12 -20.5 24t-57.5 12q-179 0 -179 -264q0 -123 55 -181.5t133 -58.5q45 0 55.5 14t14.5 27.5t4 47.5z" />
    <glyph glyph-name="OE" unicode="&#x152;" horiz-adv-x="926" 
d="M395 3l-45 1l-62 -1q-66 0 -123 35t-93 110.5t-36 201.5q0 55 12 115.5t40.5 122t76 87t93.5 37.5q20 5 42 8t41 3l126 -3l87 1h304l6 -82l8 -100h-91q0 76 -52 76h-76q-23 0 -32 -1.5t-19 -8t-10 -29.5v-28v-118h225l-4 -109h-221v-155q0 -37 14 -51t51 -14h4l64 2
q17 0 33 5t28 17t18 61h91l-11 -91l-8 -95h-334zM449 198v338q0 31 -5 41q-3 12 -20.5 24t-57.5 12q-179 0 -179 -264q0 -123 55 -181.5t133 -58.5q45 0 55.5 14t14.5 27.5t4 47.5z" />
    <glyph glyph-name="quoteleft" horiz-adv-x="244" 
d="M209 686q-35 -38 -49 -61l-19 -37l-12 -33l18 1q31 0 48.5 -17t17.5 -46q0 -38 -27 -65q-26 -24 -68 -24q-40 0 -63.5 24.5t-23.5 65.5q0 56 26.5 108t43.5 76l48 54z" />
    <glyph glyph-name="quoteleft" unicode="&#x2018;" horiz-adv-x="244" 
d="M209 686q-35 -38 -49 -61l-19 -37l-12 -33l18 1q31 0 48.5 -17t17.5 -46q0 -38 -27 -65q-26 -24 -68 -24q-40 0 -63.5 24.5t-23.5 65.5q0 56 26.5 108t43.5 76l48 54z" />
    <glyph glyph-name="quoteright" horiz-adv-x="244" 
d="M35 448l31 37l22 34l17 32l11 30l-20 -3q-29 0 -47 17t-18 47q0 39 26.5 64t67.5 25t64.5 -24.5t23.5 -66.5q0 -58 -28 -110.5t-43 -71.5l-48 -56z" />
    <glyph glyph-name="quoteright" unicode="&#x2019;" horiz-adv-x="244" 
d="M35 448l31 37l22 34l17 32l11 30l-20 -3q-29 0 -47 17t-18 47q0 39 26.5 64t67.5 25t64.5 -24.5t23.5 -66.5q0 -58 -28 -110.5t-43 -71.5l-48 -56z" />
    <glyph glyph-name="quotedblleft" horiz-adv-x="457" 
d="M423 685q-19 -19 -32 -37l-22 -34l-15 -28l-12 -34l9 1q7 0 10 2q29 0 47 -17t18 -46q0 -39 -26.5 -64.5t-67.5 -25.5t-64.5 24.5t-23.5 66.5q0 58 27 109q14 26 25 44.5t20 30t19 23.5q7 8 28 31zM209 685l-28 -33q-14 -17 -25 -38l-15 -27l-12 -35l8 1q7 0 10 2
q31 0 48.5 -17t17.5 -46q0 -39 -26.5 -64.5t-68.5 -25.5q-40 0 -63.5 24.5t-23.5 66.5q0 56 27 108.5t43 73.5q10 13 20 25q7 8 28 31z" />
    <glyph glyph-name="quotedblleft" unicode="&#x201c;" horiz-adv-x="457" 
d="M423 685q-19 -19 -32 -37l-22 -34l-15 -28l-12 -34l9 1q7 0 10 2q29 0 47 -17t18 -46q0 -39 -26.5 -64.5t-67.5 -25.5t-64.5 24.5t-23.5 66.5q0 58 27 109q14 26 25 44.5t20 30t19 23.5q7 8 28 31zM209 685l-28 -33q-14 -17 -25 -38l-15 -27l-12 -35l8 1q7 0 10 2
q31 0 48.5 -17t17.5 -46q0 -39 -26.5 -64.5t-68.5 -25.5q-40 0 -63.5 24.5t-23.5 66.5q0 56 27 108.5t43 73.5q10 13 20 25q7 8 28 31z" />
    <glyph glyph-name="quotedblright" horiz-adv-x="457" 
d="M35 448l31 36l22 33l15 30l13 32l-20 -1q-29 0 -47 17t-18 46q0 40 26 64.5t68 24.5q41 0 64.5 -24.5t23.5 -65.5q0 -60 -28 -112t-44 -73l-47 -53zM249 448l33 38l19 30l13 24l15 39l-19 -1q-31 0 -48.5 17t-17.5 46q0 40 26 64.5t69 24.5q40 0 63.5 -24.5t23.5 -65.5
q0 -56 -28.5 -110.5t-42 -74t-47.5 -53.5z" />
    <glyph glyph-name="quotedblright" unicode="&#x201d;" horiz-adv-x="457" 
d="M35 448l31 36l22 33l15 30l13 32l-20 -1q-29 0 -47 17t-18 46q0 40 26 64.5t68 24.5q41 0 64.5 -24.5t23.5 -65.5q0 -60 -28 -112t-44 -73l-47 -53zM249 448l33 38l19 30l13 24l15 39l-19 -1q-31 0 -48.5 17t-17.5 46q0 40 26 64.5t69 24.5q40 0 63.5 -24.5t23.5 -65.5
q0 -56 -28.5 -110.5t-42 -74t-47.5 -53.5z" />
    <glyph glyph-name="bullet" horiz-adv-x="239" 
d="M122 369q86 0 86 -68q0 -38 -27.5 -61.5t-74.5 -23.5q-75 0 -75 72q0 35 25 59q25 22 66 22z" />
    <glyph glyph-name="bullet" unicode="&#x2022;" horiz-adv-x="239" 
d="M122 369q86 0 86 -68q0 -38 -27.5 -61.5t-74.5 -23.5q-75 0 -75 72q0 35 25 59q25 22 66 22z" />
    <glyph glyph-name="endash" 
d="M39 418h530v-123h-530v123z" />
    <glyph glyph-name="endash" unicode="&#x2013;" 
d="M39 418h530v-123h-530v123z" />
    <glyph glyph-name="emdash" horiz-adv-x="996" 
d="M30 446h936v-172h-936v172z" />
    <glyph glyph-name="emdash" unicode="&#x2014;" horiz-adv-x="996" 
d="M30 446h936v-172h-936v172z" />
    <glyph glyph-name="trademark" horiz-adv-x="759" 
d="M29 720h222v-68l-74 1v-293h-75v293l-73 -1v68zM298 720h74l64 -174l16 -51l4 -39q0 21 4 40t16 50l64 174h75l58 -360h-72l-30 191l-3 26v24l1 24l-13 -48l-5 -19l-3 -7l-69 -191h-46l-69 191l-2 7l-6 19l-13 48l1 -18v-18v-12l-3 -26l-30 -191h-72z" />
    <glyph glyph-name="trademark" unicode="&#x2122;" horiz-adv-x="759" 
d="M29 720h222v-68l-74 1v-293h-75v293l-73 -1v68zM298 720h74l64 -174l16 -51l4 -39q0 21 4 40t16 50l64 174h75l58 -360h-72l-30 191l-3 26v24l1 24l-13 -48l-5 -19l-3 -7l-69 -191h-46l-69 191l-2 7l-6 19l-13 48l1 -18v-18v-12l-3 -26l-30 -191h-72z" />
    <glyph glyph-name="guilsinglright" horiz-adv-x="311" 
d="M163 499l49 -90l72 -114l-55 -109l-29 -66l-23 -57h-123l26 66l23 65l31 101l-24 53l-29 55q-14 29 -29 54q-3 5 -26 42h137z" />
    <glyph glyph-name="guilsinglright" unicode="&#x203a;" horiz-adv-x="311" 
d="M163 499l49 -90l72 -114l-55 -109l-29 -66l-23 -57h-123l26 66l23 65l31 101l-24 53l-29 55q-14 29 -29 54q-3 5 -26 42h137z" />
    <glyph glyph-name="oe" horiz-adv-x="937" 
d="M665 558q239 0 239 -295v-14l-343 -1q0 -146 116 -146q79 0 140 70l76 -67q-53 -63 -108 -91t-132 -28q-57 0 -98 15q-37 15 -75 54l-26 -22q-11 -8 -47.5 -27t-120.5 -19q-117 0 -183.5 74t-66.5 207q0 139 72 216.5t206 77.5q46 0 76 -5t51 -18q39 -21 64 -53
q37 39 74.5 55.5t85.5 16.5zM307 95q124 0 124 184q0 183 -124 183q-125 0 -125 -181q0 -186 125 -186zM565 332h209v13q0 54 -27.5 85.5t-76.5 31.5q-105 0 -105 -130z" />
    <glyph glyph-name="oe" unicode="&#x153;" horiz-adv-x="937" 
d="M665 558q239 0 239 -295v-14l-343 -1q0 -146 116 -146q79 0 140 70l76 -67q-53 -63 -108 -91t-132 -28q-57 0 -98 15q-37 15 -75 54l-26 -22q-11 -8 -47.5 -27t-120.5 -19q-117 0 -183.5 74t-66.5 207q0 139 72 216.5t206 77.5q46 0 76 -5t51 -18q39 -21 64 -53
q37 39 74.5 55.5t85.5 16.5zM307 95q124 0 124 184q0 183 -124 183q-125 0 -125 -181q0 -186 125 -186zM565 332h209v13q0 54 -27.5 85.5t-76.5 31.5q-105 0 -105 -130z" />
    <glyph glyph-name="Ydieresis" horiz-adv-x="576" 
d="M235 721l-1 -76q-37 0 -37 -24q0 -17 11 -36l68 -140l10 -23l6 -15l6 -26l12 42l14 28l67 137q5 11 7 28q0 30 -36 30h-6l3 75h231l-3 -69q-17 0 -25 -7.5t-18 -26.5l-175 -348v-128q0 -43 8.5 -55t40.5 -18l-4 -69h-245l4 69q32 3 42 15t10 42v144l-195 345l-5 12
q-6 18 -37 18l-2 76h249zM189 944q71 0 71 -53q0 -77 -95 -77q-34 0 -48 11.5t-14 40.5q0 78 86 78zM402 944q71 0 71 -53q0 -77 -95 -77q-33 0 -47.5 12t-14.5 41q0 77 86 77z" />
    <glyph glyph-name="Ydieresis" unicode="&#x178;" horiz-adv-x="576" 
d="M235 721l-1 -76q-37 0 -37 -24q0 -17 11 -36l68 -140l10 -23l6 -15l6 -26l12 42l14 28l67 137q5 11 7 28q0 30 -36 30h-6l3 75h231l-3 -69q-17 0 -25 -7.5t-18 -26.5l-175 -348v-128q0 -43 8.5 -55t40.5 -18l-4 -69h-245l4 69q32 3 42 15t10 42v144l-195 345l-5 12
q-6 18 -37 18l-2 76h249zM189 944q71 0 71 -53q0 -77 -95 -77q-34 0 -48 11.5t-14 40.5q0 78 86 78zM402 944q71 0 71 -53q0 -77 -95 -77q-33 0 -47.5 12t-14.5 41q0 77 86 77z" />
    <glyph glyph-name="nonbreakingspace" unicode="&#xa0;" horiz-adv-x="500" 
 />
    <glyph glyph-name="exclamdown" unicode="&#xa1;" horiz-adv-x="249" 
d="M68 272l6 230l104 14q0 -21 2 -74t2 -61l5 -95q0 -62 10 -136l18 -142l-169 -19l15 148q3 35 5 69t2 66zM145 732q74 0 74 -71q0 -37 -24.5 -59.5t-65.5 -22.5t-63.5 18.5t-22.5 51.5q0 37 27.5 60t74.5 23z" />
    <glyph glyph-name="cent" unicode="&#xa2;" horiz-adv-x="520" 
d="M224 610h145v-59l47 -1l59 -4l2 -68l5 -97l-90 -4q-6 44 -16 54q-7 12 -23.5 18.5t-43.5 6.5q-62 0 -96.5 -47.5t-34.5 -137.5q0 -168 120 -168q75 0 137 54l58 -80l-30 -27q-9 -8 -14 -12t-15 -9l-29 -14l-40 -14v-57h-147v52q-182 42 -182 276q0 121 41 178t68 73
q9 5 22 11t21 9l36 11v56z" />
    <glyph glyph-name="sterling" unicode="&#xa3;" horiz-adv-x="578" 
d="M25 388h83q-32 98 -32 144q0 91 62 144t170 53q69 0 105 -18q38 -17 57 -35q22 -17 36.5 -37t25.5 -41l20 -54l-99 -53q-19 58 -58.5 92t-85.5 34q-35 0 -63 -23.5t-28 -56.5l1 -21l7 -28l16 -51l13 -49h189l-4 -106h-175l1 -37q0 -25 -3 -42.5t-11 -30.5
q-11 -23 -21 -34q-6 -9 -27 -27q61 14 105 14l37 -3l41 -5l48 -5l40 -2l39 3l29 5l-12 -113q-69 -15 -125 -15l-37 1q-18 0 -34 5l-73 9l-45 4q-63 0 -135 -18l-41 88q48 27 69 63t21 93v20l-5 26h-102z" />
    <glyph glyph-name="currency" unicode="&#xa4;" horiz-adv-x="497" 
d="M82 260q-29 46 -29 104l1 25q0 10 7 31q6 23 21 45l-51 51q6 9 9 13t11 12q9 12 23 22l55 -56q47 33 103 33q55 0 100 -32l54 56l24 -23l11 -13l10 -13l-52 -49q16 -22 25 -50q4 -14 6 -26.5t2 -29.5q0 -56 -34 -102l53 -52l-20 -22l-25 -25l-54 54q-45 -33 -102 -33
q-53 0 -100 33l-57 -53l-21 22l-23 26zM232 243q48 0 82.5 34t34.5 83q0 48 -34 82.5t-83 34.5q-48 0 -82.5 -34.5t-34.5 -82.5t34 -82.5t83 -34.5z" />
    <glyph glyph-name="yen" unicode="&#xa5;" horiz-adv-x="604" 
d="M249 721l-1 -76q-37 0 -37 -24q0 -12 12 -36l67 -140l11 -23l5 -15l6 -26l7 26l6 16l13 28l68 137q5 13 7 28q0 30 -37 30h-6l4 75h230l-2 -69q-16 0 -24.5 -6.5t-19.5 -27.5l-131 -268h163v-55h-194l-13 -25l1 -19h207v-56h-207l1 -59v-22q0 -20 11 -29.5t38 -15.5
l-5 -69h-245l3 69q34 5 43 14.5t9 42.5v65h-224v60h225l-1 19l-11 25h-214v57h181l-150 263l-6 12q-6 18 -36 18l-3 76h249z" />
    <glyph glyph-name="section" unicode="&#xa7;" horiz-adv-x="591" 
d="M118 -14q0 -62 36 -90t115 -28q70 0 106 29q38 27 38 80q0 19 -6.5 36t-17.5 30.5t-26 21.5t-55 21l-104 31l-43 15q-18 8 -23.5 11.5t-21.5 14.5q-24 17 -45 60.5t-21 87.5q0 70 59 144q-20 28 -28.5 55.5t-8.5 64.5q0 97 59 151.5t167 54.5q29 0 52.5 -2t61.5 -9
l81 -11l25 -5l37 -1l-6 -50l-2 -45v-36q3 -21 4 -32l-82 1q-5 43 -31 73t-112 30q-126 0 -126 -98q0 -57 52 -81l47 -18l96 -36l62 -26q100 -45 100 -169q0 -67 -17 -97q-15 -30 -35 -50l25 -44q12 -23 12 -68q0 -59 -27 -113t-85.5 -83t-152.5 -29q-43 0 -96 9l-76 12
q-21 3 -57 3h-7l-2 93l-3 93zM200 390q-19 -43 -19 -70q0 -39 26 -58l38 -23l23 -9l66 -17l44 -13l37 -14l7 29l2 31q0 28 -6.5 42.5t-24.5 26.5l-34 21q-15 9 -28 12l-80 26z" />
    <glyph glyph-name="dieresis" unicode="&#xa8;" horiz-adv-x="369" 
d="M86 733q71 0 71 -53q0 -77 -95 -77q-34 0 -48 11.5t-14 40.5q0 78 86 78zM299 733q71 0 71 -53q0 -77 -95 -77q-33 0 -47.5 12t-14.5 41q0 77 86 77z" />
    <glyph glyph-name="copyright" unicode="&#xa9;" horiz-adv-x="932" 
d="M431 734q155 0 264 -109t109 -265q0 -155 -109 -264t-264 -109t-264 109t-109 264q0 154 108.5 264t264.5 110zM217 141q41 -43 99 -67q27 -11 56.5 -17t59.5 -6q61 0 115 22t121 91.5t67 196.5t-67 195t-122 90.5t-116 22.5t-113.5 -21.5t-98.5 -67.5q-41 -43 -66 -101
t-25 -119q0 -126 90 -219zM546 466q-27 23 -53 27l-39 5q-50 0 -87.5 -32.5t-43.5 -67.5l-5 -43q0 -54 30.5 -91t66.5 -43l43 -5l26 3q11 2 14.5 3t10.5 5l19 10q10 5 18 13l43 -66q-38 -29 -79 -40q-39 -9 -66 -9q-78 0 -136 46t-68 92l-10 56l-1 28q0 21 9 72t68 101
t141 50q20 0 59 -6.5t84 -42.5z" />
    <glyph glyph-name="ordfeminine" unicode="&#xaa;" horiz-adv-x="488" 
d="M422 319v-96h-384v96h384zM316 720h105l1 -354h-107v55l-8 -13q-16 -22 -45 -36t-65 -14q-17 0 -55 6.5t-76 55.5t-38 117l1 21l9 50q7 41 55.5 82.5t103.5 41.5q42 0 72.5 -19.5t46.5 -44.5v52zM211 451l18 -1q33 0 56.5 20.5t27.5 40.5l4 33l-6 46q-6 33 -41 42l-44 8
q-36 0 -63 -27q-25 -27 -25 -69q0 -38 19.5 -62.5t53.5 -30.5z" />
    <glyph glyph-name="guillemotleft" unicode="&#xab;" horiz-adv-x="518" 
d="M288 376l53 123h122l-29 -73l-18 -53l-18 -58q-3 -12 -6 -23t-8 -25q14 -34 21 -49q12 -26 20 -41l36 -64l30 -50h-136l-50 91q-7 14 -14.5 26t-17 26.5t-12.5 19.5q-11 17 -29 41l34 66zM82 376l27 61l25 62h122l-30 -79l-16 -48l-16 -51l-17 -54l20 -46l24 -47l29 -53
l34 -58h-136l-50 91q-22 39 -72 113q20 37 32 60q6 11 24 49z" />
    <glyph glyph-name="logicalnot" unicode="&#xac;" horiz-adv-x="685" 
d="M29 504h576v-288h-108v144h-468v144z" />
    <glyph glyph-name="registered" unicode="&#xae;" horiz-adv-x="932" 
d="M431 734q155 0 264 -109t109 -265q0 -155 -109 -264t-264 -109t-264 109t-109 264q0 154 108.5 264t264.5 110zM217 141q41 -43 99 -67q27 -11 56.5 -17t59.5 -6q61 0 115 22t121 91.5t67 196.5t-67 195t-122 90.5t-116 22.5t-113.5 -21.5t-98.5 -67.5q-41 -43 -66 -101
t-25 -119q0 -126 90 -219zM296 578h134q45 0 63 -5t45 -25.5t33 -46.5l7 -36l1 -18q0 -42 -21.5 -70t-64.5 -41l-8 -2l120 -183h-102l-120 193v-193h-87v427zM416 379q60 0 67 32l7 37q0 27 -19 43t-52 16h-36v-128h33z" />
    <glyph glyph-name="plusminus" unicode="&#xb1;" horiz-adv-x="594" 
d="M506 19h-462v68h462v-68zM309 331h197v-68h-197v-122h-68v122h-197v68h197v122h68v-122z" />
    <glyph glyph-name="acute" unicode="&#xb4;" horiz-adv-x="296" 
d="M111 691l47 77h187l-104 -92l-84 -79h-104l28 44z" />
    <glyph glyph-name="mu" unicode="&#xb5;" horiz-adv-x="623" 
d="M166 153q0 -71 14 -95t50 -24q56 0 94.5 81.5t38.5 203.5v130h92v-328q0 -45 9 -66t29 -21t31.5 20.5t11.5 61.5v14h21l1 -9v-13q0 -53 -23.5 -85t-66.5 -32q-48 0 -75 43t-27 129q-23 -89 -61.5 -130.5t-96.5 -41.5q-43 0 -73 26q-27 27 -40 77l-1 -28q0 -66 31 -140.5
t33 -92.5q0 -20 -11 -31t-31 -11q-23 0 -33 17.5t-10 52.5l2 58l2 89l-1 101l-2 95v245h92v-296z" />
    <glyph glyph-name="paragraph" unicode="&#xb6;" horiz-adv-x="670" 
d="M591 720v-79h-345q-57 0 -99 -42q-20 -21 -30 -45t-10 -55q0 -58 41 -98.5t98 -40.5h60v223h86v-583h-86v281h-60q-89 0 -153 63t-64 156q0 89 63 154.5t155 65.5h344zM450 583h86v-583h-86v583z" />
    <glyph glyph-name="cedilla" unicode="&#xb8;" horiz-adv-x="214" 
d="M15 -151q17 -5 32 -8t27 -3q21 0 36 10.5t16 26.5q0 22 -29 22q-14 0 -23 -3l-15 -5l-19 34l28 28l18 26l14 23l10 29l46 -12l-30 -72q41 0 64.5 -18t23.5 -55q0 -40 -35 -64.5t-96 -24.5q-38 0 -83 12z" />
    <glyph glyph-name="ordmasculine" unicode="&#xba;" horiz-adv-x="488" 
d="M35 319h382v-96h-382v96zM264 731q71 -13 114.5 -65.5t43.5 -121.5q0 -81 -56.5 -136t-140.5 -55t-140 54.5t-56 136.5t57 136t138 54zM136 526q6 -33 30.5 -54t58.5 -21q38 0 64.5 26.5t26.5 66.5l-2 18q-10 60 -44 67l-45 7q-9 0 -14.5 -1t-33.5 -6.5t-41 -67.5l-2 -17
z" />
    <glyph glyph-name="guillemotright" unicode="&#xbb;" horiz-adv-x="518" 
d="M163 499l30 -57l28 -49l63 -98l-23 -43l-30 -64q-28 -59 -54 -125h-123l26 66l23 65l31 101l-24 53l-29 55q-14 29 -29 54q-3 5 -26 42h137zM370 499l30 -57l28 -49l63 -98l-29 -55l-28 -57l-24 -54l-27 -66h-122l25 66l23 65l32 101l-46 95l-28 52q-7 14 -15 27
q-13 19 -20 30h138z" />
    <glyph glyph-name="questiondown" unicode="&#xbf;" horiz-adv-x="467" 
d="M206 -11q-69 0 -122 56t-53 129q0 33 12 59.5t40 56.5l82 82q28 28 39 46q5 8 8 17.5t3 20.5q0 18 -14 38l146 32q9 -16 12.5 -29t3.5 -30q0 -31 -26 -66l-40 -49l-69 -80l-23 -36l-8 -14l-6 -11q-6 -14 -6 -30q0 -28 12.5 -45.5t34.5 -17.5q26 0 59 30t69 87l91 -72
q-108 -174 -245 -174zM286 730q75 0 75 -72q0 -35 -25 -59q-25 -22 -67 -22q-40 0 -62.5 18.5t-22.5 50.5q0 38 27.5 61t74.5 23z" />
    <glyph glyph-name="Agrave" unicode="&#xc0;" horiz-adv-x="669" 
d="M-11 69q20 3 30 13q5 5 9.5 13.5t10.5 22.5l204 517l16 46q6 18 9 40h144l6 -35l16 -41l195 -537q14 -39 52 -39l-4 -69h-233l5 69q34 0 34 27q0 9 -7 26l-34 92h-232l-37 -91l-4 -25q0 -23 37 -29l-4 -69h-215zM242 317h173l-68 194l-6 18q-5 11 -10 43l-7 -36
q-2 -11 -10 -30zM340 977l39 -68l64 -102h-99l-44 39l-43 37l-53 47l-52 47h188z" />
    <glyph glyph-name="Aacute" unicode="&#xc1;" horiz-adv-x="669" 
d="M-11 69q20 3 30 13q5 5 9.5 13.5t10.5 22.5l204 517l16 46q6 18 9 40h144l6 -35l16 -41l195 -537q14 -39 52 -39l-4 -69h-233l5 69q34 0 34 27q0 9 -7 26l-34 92h-232l-37 -91l-4 -25q0 -23 37 -29l-4 -69h-215zM242 317h173l-68 194l-6 18q-5 11 -10 43l-7 -36
q-2 -11 -10 -30zM297 902l47 77h187l-104 -92l-84 -79h-104l28 44z" />
    <glyph glyph-name="Acircumflex" unicode="&#xc2;" horiz-adv-x="669" 
d="M-11 69q20 3 30 13q5 5 9.5 13.5t10.5 22.5l204 517l16 46q6 18 9 40h144l6 -35l16 -41l195 -537q14 -39 52 -39l-4 -69h-233l5 69q34 0 34 27q0 9 -7 26l-34 92h-232l-37 -91l-4 -25q0 -23 37 -29l-4 -69h-215zM242 317h173l-68 194l-6 18q-5 11 -10 43l-7 -36
q-2 -11 -10 -30zM219 909l46 75h146l37 -68l67 -110h-105l-21 24l-21 24l-15 18l-15 17l-35 -36l-39 -47h-111z" />
    <glyph glyph-name="Atilde" unicode="&#xc3;" horiz-adv-x="669" 
d="M-11 69q20 3 30 13q5 5 9.5 13.5t10.5 22.5l204 517l16 46q6 18 9 40h144l6 -35l16 -41l195 -537q14 -39 52 -39l-4 -69h-233l5 69q34 0 34 27q0 9 -7 26l-34 92h-232l-37 -91l-4 -25q0 -23 37 -29l-4 -69h-215zM242 317h173l-68 194l-6 18q-5 11 -10 43l-7 -36
q-2 -11 -10 -30zM244 957q18 0 51 -9l72 -21l20 -4q21 0 36 33l104 -33q-35 -120 -107 -120l-25 3l-20 5l-79 26l-19 3q-22 0 -31 -37l-105 34q14 54 41.5 87t61.5 33z" />
    <glyph glyph-name="Adieresis" unicode="&#xc4;" horiz-adv-x="669" 
d="M-11 69q20 3 30 13q5 5 9.5 13.5t10.5 22.5l204 517l13 50l-45 -4q-61 0 -61 54q0 76 90 76q67 0 67 -51q0 -13 -2 -19.5t-10 -17.5h80q-8 10 -10 19q0 29 25 50q25 19 67 19q66 0 66 -54q0 -75 -82 -75h-15l8 -37l195 -537q14 -39 52 -39l-4 -69h-233l5 69q34 0 34 27
q0 8 -7 26l-34 93h-232l-37 -92l-4 -25q0 -23 37 -29l-4 -69h-215zM415 317l-68 194l-6 18q-5 11 -10 43l-7 -36q-2 -11 -10 -30l-72 -189h173z" />
    <glyph glyph-name="Aring" unicode="&#xc5;" horiz-adv-x="669" 
d="M-11 69q20 3 30 13q5 5 9.5 13.5t10.5 22.5l204 517l16 46q6 18 9 40l27 1q-39 21 -54.5 42.5t-15.5 54.5q0 47 32.5 79.5t80.5 32.5q46 0 80.5 -33.5t34.5 -79.5q0 -31 -13 -51q-6 -10 -18 -21t-32 -24l22 -1l6 -35l16 -41l195 -537q14 -39 52 -39l-4 -69h-233l5 69
q34 0 34 27q0 8 -7 26l-34 93h-232l-37 -92l-4 -25q0 -23 37 -29l-4 -69h-215zM415 317l-68 194l-6 18q-5 11 -10 43l-7 -36q-2 -11 -10 -30l-72 -189h173zM339 771q18 0 31.5 13t13.5 32q0 18 -12.5 32t-32.5 14q-18 0 -31.5 -13.5t-13.5 -32.5q0 -18 13 -31.5t32 -13.5z
" />
    <glyph glyph-name="AE" unicode="&#xc6;" horiz-adv-x="910" 
d="M17 72l233 539q19 49 19 107l574 3l1 -36l6 -50l11 -93l-90 -1q-5 41 -22 57.5t-55 16.5h-68q-21 0 -38 -9q-12 -8 -14 -24v-25v-126h228l-6 -109h-222v-163l3 -28q3 -14 11 -22t48 -8h76q35 0 52 18t23 67h92l-8 -51l-7 -55l-3 -34v-46h-484l4 72q28 3 34 9t11 22l3 30
v189h-160l-75 -173q-9 -20 -9 -41q0 -34 36 -34l-8 -74h-225zM303 431h132v126q0 68 -18 68h-47q0 -15 -5 -28l-8 -28z" />
    <glyph glyph-name="Ccedilla" unicode="&#xc7;" horiz-adv-x="609" 
d="M564 638l8 -103l-96 -1q-15 89 -112 89q-174 0 -174 -257q0 -105 22.5 -157.5t59 -75.5t80.5 -23q25 0 43 4t43 16q42 21 88 64l71 -92l-29 -27q-40 -34 -68 -48l-41 -18l-28 -9l-55 -10l-25 -54q92 0 92 -77q0 -42 -37 -68.5t-100 -26.5q-37 0 -89 13l17 58
q38 -11 61 -11q20 0 37.5 11.5t17.5 26.5q0 9 -8 17q-7 5 -21 7q-14 0 -41 -9l-21 37l35 36q12 15 25 38q-32 0 -53.5 4.5t-49.5 14.5q-38 13 -80.5 49.5t-71.5 118.5q-14 42 -21 87t-7 101q0 177 80 274.5t226 97.5l93 -5l74 -8l20 -1h29z" />
    <glyph glyph-name="Egrave" unicode="&#xc8;" horiz-adv-x="581" 
d="M23 69l22 3q9 3 15.5 10t9.5 19l2 35l3 442q0 71 -56 71l5 72h494l4 -70l6 -52l8 -50h-88l-6 27l-12 22q-8 11 -21 16l-34 1h-100q-30 0 -43.5 -13t-13.5 -48v-124h259l-6 -111h-253v-154l1 -34q2 -10 20.5 -21t46.5 -11h84q33 0 48 6t24 21l15 31q6 15 9 34h90l-8 -51
l-6 -45l-6 -46l-2 -49h-516zM296 977l39 -68l64 -102h-99l-44 39l-43 37l-53 47l-52 47h188z" />
    <glyph glyph-name="Eacute" unicode="&#xc9;" horiz-adv-x="581" 
d="M23 69l22 3q9 3 15.5 10t9.5 19l2 35l3 442q0 71 -56 71l5 72h494l4 -70l6 -52l8 -50h-88l-6 27l-12 22q-8 11 -21 16l-34 1h-100q-30 0 -43.5 -13t-13.5 -48v-124h259l-6 -111h-253v-154l1 -34q2 -10 20.5 -21t46.5 -11h84q33 0 48 6t24 21l15 31q6 15 9 34h90l-8 -51
l-6 -45l-6 -46l-2 -49h-516zM253 902l47 77h187l-104 -92l-84 -79h-104l28 44z" />
    <glyph glyph-name="Ecircumflex" unicode="&#xca;" horiz-adv-x="581" 
d="M23 69l22 3q9 3 15.5 10t9.5 19l2 35l3 442q0 71 -56 71l5 72h494l4 -70l6 -52l8 -50h-88l-6 27l-12 22q-8 11 -21 16l-34 1h-100q-30 0 -43.5 -13t-13.5 -48v-124h259l-6 -111h-253v-154l1 -34q2 -10 20.5 -21t46.5 -11h84q33 0 48 6t24 21l15 31q6 15 9 34h90l-8 -51
l-6 -45l-6 -46l-2 -49h-516zM175 909l46 75h146l37 -68l67 -110h-105l-21 24l-21 24l-15 18l-15 17l-35 -36l-39 -47h-111z" />
    <glyph glyph-name="Edieresis" unicode="&#xcb;" horiz-adv-x="581" 
d="M23 69l22 3q9 3 15.5 10t9.5 19l2 35l3 442q0 71 -56 71l5 72h494l4 -70l6 -52l8 -50h-88l-6 27l-12 22q-8 11 -21 16l-34 1h-100q-30 0 -43.5 -13t-13.5 -48v-124h259l-6 -111h-253v-154l1 -34q2 -10 20.5 -21t46.5 -11h84q33 0 48 6t24 21l15 31q6 15 9 34h90l-8 -51
l-6 -45l-6 -46l-2 -49h-516zM192 944q71 0 71 -53q0 -77 -95 -77q-34 0 -48 11.5t-14 40.5q0 78 86 78zM405 944q71 0 71 -53q0 -77 -95 -77q-33 0 -47.5 12t-14.5 41q0 77 86 77z" />
    <glyph glyph-name="Igrave" unicode="&#xcc;" horiz-adv-x="293" 
d="M21 69q32 7 43 20.5t11 51.5v444v18q0 12 -2 18q0 5 -9 13.5t-19 12t-29 5.5l5 69h256l-3 -70q-56 0 -56 -64v-444q0 -42 12 -57t46 -15l-4 -71h-256zM152 977l39 -68l64 -102h-99l-44 39l-43 37l-53 47l-52 47h188z" />
    <glyph glyph-name="Iacute" unicode="&#xcd;" horiz-adv-x="293" 
d="M21 69q32 7 43 20.5t11 51.5v444v18q0 12 -2 18q0 5 -9 13.5t-19 12t-29 5.5l5 69h256l-3 -70q-56 0 -56 -64v-444q0 -42 12 -57t46 -15l-4 -71h-256zM111 902l47 77h187l-104 -92l-84 -79h-104l28 44z" />
    <glyph glyph-name="Icircumflex" unicode="&#xce;" horiz-adv-x="293" 
d="M21 69q32 7 43 20.5t11 51.5v444v18q0 12 -2 18q0 5 -9 13.5t-19 12t-29 5.5l5 69h256l-3 -70q-56 0 -56 -64v-444q0 -42 12 -57t46 -15l-4 -71h-256zM33 909l46 75h146l37 -68l67 -110h-105l-21 24l-21 24l-15 18l-15 17l-35 -36l-39 -47h-111z" />
    <glyph glyph-name="Idieresis" unicode="&#xcf;" horiz-adv-x="293" 
d="M21 69q32 7 43 20.5t11 51.5v444v18q0 12 -2 18q0 5 -9 13.5t-19 12t-29 5.5l5 69h256l-3 -70q-56 0 -56 -64v-444q0 -42 12 -57t46 -15l-4 -71h-256zM49 944q71 0 71 -53q0 -77 -95 -77q-34 0 -48 11.5t-14 40.5q0 78 86 78zM262 944q71 0 71 -53q0 -77 -95 -77
q-33 0 -47.5 12t-14.5 41q0 77 86 77z" />
    <glyph glyph-name="Ntilde" unicode="&#xd1;" horiz-adv-x="717" 
d="M21 69q32 3 42.5 19t10.5 57l1 446q0 34 -12 48.5t-46 14.5l5 67h217l6 -19l7 -14l20 -38l202 -352l30 -57l10 -27l11 -30l-8 56l-3 49l-4 66v224q0 63 -59 72l4 70h244l-3 -69q-33 -6 -43 -19t-10 -51v-441v-71q0 -14 0.5 -30t7.5 -40h-145l-278 464l-19 33l-13 35
l5 -59l4 -57v-261q0 -48 14 -66.5t49 -18.5h4l-4 -70h-251zM268 957q18 0 51 -9l72 -21l20 -4q21 0 36 33l104 -33q-35 -120 -107 -120l-25 3l-20 5l-79 26l-19 3q-22 0 -31 -37l-105 34q14 54 41.5 87t61.5 33z" />
    <glyph glyph-name="Ograve" unicode="&#xd2;" horiz-adv-x="716" 
d="M64 554q29 74 95.5 127t199.5 53q129 0 196.5 -51.5t95.5 -126.5q14 -38 21 -84t7 -107q0 -50 -3 -85.5t-11 -67.5q-14 -61 -52 -114t-100 -81.5t-154 -28.5q-94 0 -156 27t-99 80.5t-54 116.5q-14 65 -14 150q0 121 28 192zM191 363q0 -70 6.5 -109.5t25 -73.5t55.5 -55
q38 -19 80 -19q91 0 120.5 50.5t37.5 93.5q3 22 5 49t2 62q0 106 -20 159t-61.5 74.5t-83.5 21.5q-57 0 -97 -30.5t-55 -83.5t-15 -139zM363 977l39 -68l64 -102h-99l-44 39l-43 37l-53 47l-52 47h188z" />
    <glyph glyph-name="Oacute" unicode="&#xd3;" horiz-adv-x="716" 
d="M64 554q29 74 95.5 127t199.5 53q129 0 196.5 -51.5t95.5 -126.5q14 -38 21 -84t7 -107q0 -50 -3 -85.5t-11 -67.5q-14 -61 -52 -114t-100 -81.5t-154 -28.5q-94 0 -156 27t-99 80.5t-54 116.5q-14 65 -14 150q0 121 28 192zM191 363q0 -70 6.5 -109.5t25 -73.5t55.5 -55
q38 -19 80 -19q91 0 120.5 50.5t37.5 93.5q3 22 5 49t2 62q0 106 -20 159t-61.5 74.5t-83.5 21.5q-57 0 -97 -30.5t-55 -83.5t-15 -139zM321 902l47 77h187l-104 -92l-84 -79h-104l28 44z" />
    <glyph glyph-name="Ocircumflex" unicode="&#xd4;" horiz-adv-x="716" 
d="M64 554q29 74 95.5 127t199.5 53q129 0 196.5 -51.5t95.5 -126.5q14 -38 21 -84t7 -107q0 -50 -3 -85.5t-11 -67.5q-14 -61 -52 -114t-100 -81.5t-154 -28.5q-94 0 -156 27t-99 80.5t-54 116.5q-14 65 -14 150q0 121 28 192zM191 363q0 -70 6.5 -109.5t25 -73.5t55.5 -55
q38 -19 80 -19q91 0 120.5 50.5t37.5 93.5q3 22 5 49t2 62q0 106 -20 159t-61.5 74.5t-83.5 21.5q-57 0 -97 -30.5t-55 -83.5t-15 -139zM243 909l46 75h146l37 -68l67 -110h-105l-21 24l-21 24l-15 18l-15 17l-35 -36l-39 -47h-111z" />
    <glyph glyph-name="Otilde" unicode="&#xd5;" horiz-adv-x="716" 
d="M64 554q29 74 95.5 127t199.5 53q129 0 196.5 -51.5t95.5 -126.5q14 -38 21 -84t7 -107q0 -50 -3 -85.5t-11 -67.5q-14 -61 -52 -114t-100 -81.5t-154 -28.5q-94 0 -156 27t-99 80.5t-54 116.5q-14 65 -14 150q0 121 28 192zM191 363q0 -70 6.5 -109.5t25 -73.5t55.5 -55
q38 -19 80 -19q91 0 120.5 50.5t37.5 93.5q3 22 5 49t2 62q0 106 -20 159t-61.5 74.5t-83.5 21.5q-57 0 -97 -30.5t-55 -83.5t-15 -139zM268 957q18 0 51 -9l72 -21l20 -4q21 0 36 33l104 -33q-35 -120 -107 -120l-25 3l-20 5l-79 26l-19 3q-22 0 -31 -37l-105 34
q14 54 41.5 87t61.5 33z" />
    <glyph glyph-name="Odieresis" unicode="&#xd6;" horiz-adv-x="716" 
d="M176 745q0 31 24.5 50.5t62.5 19.5q11 0 22 -1t24 -5.5t18.5 -15.5t5.5 -43l1 -18l30 3h18q11 -3 16 -4l-4 17q0 28 24.5 47.5t63.5 19.5q69 0 69 -51q0 -30 -23 -66q36 -24 54.5 -39.5t34.5 -40.5q30 -42 46 -105t16 -149q0 -48 -3 -84t-11 -68q-14 -61 -52 -114
t-100 -81.5t-154 -28.5q-94 0 -156 27.5t-98.5 80.5t-52.5 115.5t-16 148.5q0 126 17 170l24 57l22 34q9 13 14.5 19t21.5 19q20 17 62 40q-21 32 -21 46zM223 179q18 -33 55 -54q38 -19 80 -19q91 0 120.5 50.5t37.5 93.5q3 22 5 49t2 62q0 70 -6 107.5t-35.5 92.5
t-123.5 55q-89 0 -121 -51q-28 -47 -38 -93q-4 -21 -6 -46.5t-2 -62.5q0 -70 6.5 -109.5t25.5 -74.5z" />
    <glyph glyph-name="Oslash" unicode="&#xd8;" horiz-adv-x="726" 
d="M111 88q-8 8 -15 16.5t-12.5 17.5t-15.5 35q-10 21 -14 33q-18 48 -18 175q0 118 28 189t78 114q48 38 98 53q52 13 122 13q76 0 120 -15t94 -52l48 54h67l-77 -92q36 -61 50.5 -120t14.5 -141q0 -50 -3 -86t-11 -69q-14 -61 -52 -115t-101 -82q-31 -14 -68 -21t-87 -7
q-78 0 -121 14.5t-90 51.5l-49 -62h-61zM239 162q42 -56 119 -56q45 0 80 19q37 18 54 52t25 76q3 20 5 46.5t2 61.5v24v19q-2 12 -2 17l-6 54l-7 33zM488 557q-62 56 -133 56q-59 0 -90.5 -31.5t-49.5 -74.5q-16 -43 -16 -88l-2 -65v-52t2 -35q0 -8 4 -22t11 -34z" />
    <glyph glyph-name="Ugrave" unicode="&#xd9;" horiz-adv-x="702" 
d="M19 721h258l-5 -69q-34 -4 -45 -17.5t-11 -48.5v-335q0 -27 3.5 -49t18.5 -65t117 -43q67 0 98.5 39.5t31.5 125.5v330q0 34 -10.5 45t-44.5 17l6 70h252l-6 -70q-17 0 -25 -2.5t-14 -8.5t-9 -22t-4 -20.5t-1 -16.5v-302q0 -150 -68 -219.5t-215 -69.5q-68 0 -115.5 15
t-85.5 50.5t-55.5 86t-17.5 135.5v302q0 45 -11 59t-46 14zM356 977l39 -68l64 -102h-99l-44 39l-43 37l-53 47l-52 47h188z" />
    <glyph glyph-name="Uacute" unicode="&#xda;" horiz-adv-x="702" 
d="M19 721h258l-5 -69q-34 -4 -45 -17.5t-11 -48.5v-335q0 -27 3.5 -49t18.5 -65t117 -43q67 0 98.5 39.5t31.5 125.5v330q0 34 -10.5 45t-44.5 17l6 70h252l-6 -70q-17 0 -25 -2.5t-14 -8.5t-9 -22t-4 -20.5t-1 -16.5v-302q0 -150 -68 -219.5t-215 -69.5q-68 0 -115.5 15
t-85.5 50.5t-55.5 86t-17.5 135.5v302q0 45 -11 59t-46 14zM314 902l47 77h187l-104 -92l-84 -79h-104l28 44z" />
    <glyph glyph-name="Ucircumflex" unicode="&#xdb;" horiz-adv-x="702" 
d="M19 721h258l-5 -69q-34 -4 -45 -17.5t-11 -48.5v-335q0 -27 3.5 -49t18.5 -65t117 -43q67 0 98.5 39.5t31.5 125.5v330q0 34 -10.5 45t-44.5 17l6 70h252l-6 -70q-17 0 -25 -2.5t-14 -8.5t-9 -22t-4 -20.5t-1 -16.5v-302q0 -150 -68 -219.5t-215 -69.5q-68 0 -115.5 15
t-85.5 50.5t-55.5 86t-17.5 135.5v302q0 45 -11 59t-46 14zM236 909l46 75h146l37 -68l67 -110h-105l-21 24l-21 24l-15 18l-15 17l-35 -36l-39 -47h-111z" />
    <glyph glyph-name="Udieresis" unicode="&#xdc;" horiz-adv-x="709" 
d="M19 721l158 2q-12 17 -12 25q0 29 24.5 49t63.5 20q71 0 71 -49q0 -54 -45 -75l-7 -41q-31 -3 -43.5 -17t-12.5 -49v-335q0 -23 6 -60.5t21 -56t46.5 -29t65.5 -10.5q139 0 139 160v329q0 40 -14 53l-17 8l-23 6l1 38q-43 6 -43 53q0 75 90 75q67 0 67 -52q0 -18 -12 -42
l151 -2l-4 -70q-33 -3 -44 -16.5t-11 -47.5l3 -311q0 -147 -70 -217.5t-212 -70.5q-137 0 -193 50.5t-73.5 102t-17.5 136.5v302q0 45 -11 59t-46 14z" />
    <glyph glyph-name="germandbls" unicode="&#xdf;" horiz-adv-x="634" 
d="M15 544h20q11 0 23.5 5t12.5 27l4 46q0 82 63.5 135t160.5 53q83 0 138.5 -48.5t55.5 -120.5q0 -35 -14 -63.5t-56 -78.5l-23 -29q-9 -9 -11 -24q0 -27 69 -48t110.5 -68.5t41.5 -125.5q0 -96 -62.5 -154t-162.5 -58q-43 0 -70 7l-44 12l-29 12l29 91q65 -19 98 -19
q49 0 76 27t27 72q0 30 -8 50t-22 29.5t-68.5 28t-87.5 48t-33 71.5v17q0 10 8 29q5 16 18 38q6 9 14 20t23 28q24 29 33 48.5t9 44.5q0 31 -18 51.5t-48 20.5q-89 0 -89 -139l-2 -460v-18q0 -32 1 -48t6 -53h-194l5 72l11 -1q22 0 32 17t10 55v319q-18 -6 -36 -6l-27 3z
" />
    <glyph glyph-name="agrave" unicode="&#xe0;" horiz-adv-x="583" 
d="M352 49q-12 -15 -32 -28q-44 -32 -106 -32q-81 0 -129.5 48.5t-48.5 132.5q0 51 19.5 89.5t63.5 66.5t153 28h8l92 -3v30q0 69 -97 69l-46 -3q-16 0 -53 -10l-83 -22l-15 -4l5 112l80 23q27 5 48 5q41 6 94 6q96 0 148.5 -39.5t52.5 -127.5v-233l1 -49q0 -7 9 -18
q12 -21 43 -21l-3 -69h-155q-16 38 -16 66l3 30l-19 -26zM377 258h-91q-49 0 -78 -21.5t-29 -67.5q0 -66 72 -66q55 0 90.5 43t35.5 112zM297 766l39 -68l64 -102h-99l-44 39l-43 37l-53 47l-52 47h188z" />
    <glyph glyph-name="aacute" unicode="&#xe1;" horiz-adv-x="583" 
d="M352 49q-12 -15 -32 -28q-44 -32 -106 -32q-81 0 -129.5 48.5t-48.5 132.5q0 51 19.5 89.5t63.5 66.5t153 28h8l92 -3v30q0 69 -97 69l-46 -3q-16 0 -53 -10l-83 -22l-15 -4l5 112l80 23q27 5 48 5q41 6 94 6q96 0 148.5 -39.5t52.5 -127.5v-233l1 -49q0 -7 9 -18
q12 -21 43 -21l-3 -69h-155q-16 38 -16 66l3 30l-19 -26zM377 258h-91q-49 0 -78 -21.5t-29 -67.5q0 -66 72 -66q55 0 90.5 43t35.5 112zM254 691l47 77h187l-104 -92l-84 -79h-104l28 44z" />
    <glyph glyph-name="acircumflex" unicode="&#xe2;" horiz-adv-x="583" 
d="M352 49q-12 -15 -32 -28q-44 -32 -106 -32q-81 0 -129.5 48.5t-48.5 132.5q0 51 19.5 89.5t63.5 66.5t153 28h8l92 -3v30q0 69 -97 69l-46 -3q-16 0 -53 -10l-83 -22l-15 -4l5 112l80 23q27 5 48 5q41 6 94 6q96 0 148.5 -39.5t52.5 -127.5v-233l1 -49q0 -7 9 -18
q12 -21 43 -21l-3 -69h-155q-16 38 -16 66l3 30l-19 -26zM377 258h-91q-49 0 -78 -21.5t-29 -67.5q0 -66 72 -66q55 0 90.5 43t35.5 112zM176 698l46 75h146l37 -68l67 -110h-105l-21 24l-21 24l-15 18l-15 17l-35 -36l-39 -47h-111z" />
    <glyph glyph-name="atilde" unicode="&#xe3;" horiz-adv-x="583" 
d="M352 49q-12 -15 -32 -28q-44 -32 -106 -32q-81 0 -129.5 48.5t-48.5 132.5q0 51 19.5 89.5t63.5 66.5t153 28h8l92 -3v30q0 69 -97 69l-46 -3q-16 0 -53 -10l-83 -22l-15 -4l5 112l80 23q27 5 48 5q41 6 94 6q96 0 148.5 -39.5t52.5 -127.5v-233l1 -49q0 -7 9 -18
q12 -21 43 -21l-3 -69h-155q-16 38 -16 66l3 30l-19 -26zM377 258h-91q-49 0 -78 -21.5t-29 -67.5q0 -66 72 -66q55 0 90.5 43t35.5 112zM201 746q18 0 51 -9l72 -21l20 -4q21 0 36 33l104 -33q-35 -120 -107 -120l-25 3l-20 5l-79 26l-19 3q-22 0 -31 -37l-105 34
q14 54 41.5 87t61.5 33z" />
    <glyph glyph-name="adieresis" unicode="&#xe4;" horiz-adv-x="583" 
d="M352 49q-12 -15 -32 -28q-44 -32 -106 -32q-81 0 -129.5 48.5t-48.5 132.5q0 51 19.5 89.5t63.5 66.5t153 28h8l92 -3v30q0 69 -95 69q-40 0 -74.5 -6.5t-109.5 -28.5l-15 -4l5 112l47 14l57 12q42 8 118 8q41 0 64 -4q28 -3 81 -29q56 -24 56 -134v-233l1 -49
q0 -7 9 -18q12 -21 43 -21l-3 -69h-155q-16 38 -16 66l3 30l-19 -26zM203 725q71 0 71 -53q0 -39 -23 -57.5t-73 -18.5q-33 0 -47 11.5t-14 40.5q0 77 86 77zM416 725q37 0 53.5 -12.5t16.5 -40.5q0 -39 -22 -57.5t-73 -18.5q-32 0 -46.5 12t-14.5 41q0 76 86 76zM286 258
q-49 0 -78 -21.5t-29 -67.5q0 -31 20 -48.5t52 -17.5q55 0 90.5 43t35.5 112h-91z" />
    <glyph glyph-name="aring" unicode="&#xe5;" horiz-adv-x="583" 
d="M352 49q-12 -15 -32 -28q-44 -32 -106 -32q-81 0 -129.5 48.5t-48.5 132.5q0 51 19.5 89.5t63.5 66.5t153 28h8l92 -3v30q0 69 -97 69l-27 -1q-12 0 -35 -5q-12 -1 -25 -3.5t-28 -7.5l-67 -18l-15 -4l5 112l78 22q48 12 144 12t148.5 -39.5t52.5 -127.5v-233l1 -49
q0 -7 9 -18q12 -21 43 -21l-3 -69h-155q-16 38 -16 66l3 30l-19 -26zM298 786q46 0 80.5 -33.5t34.5 -81.5q0 -45 -34 -79.5t-81 -34.5q-48 0 -81 33t-33 81t33.5 81.5t80.5 33.5zM286 258q-49 0 -78 -21.5t-29 -67.5q0 -66 72 -66q55 0 90.5 43t35.5 112h-91zM253 671
q0 -18 13 -31t32 -13q17 0 32 12q13 13 13 32q0 18 -12.5 32t-32.5 14q-18 0 -31.5 -13.5t-13.5 -32.5z" />
    <glyph glyph-name="ae" unicode="&#xe6;" horiz-adv-x="858" 
d="M347 34q-62 -45 -141 -45q-77 0 -123.5 48t-46.5 133q0 84 53 134t146 50h122l-2 28q-6 68 -99 68q-26 0 -58 -7l-35 -6l-35 -10l-33 -10l-27 -9l10 117l42 12l57 14q39 9 104 9q79 0 110 -17q29 -14 50 -34l20 18l22 14q15 8 52 16q19 3 36 5t34 2q104 0 162.5 -72
t58.5 -202l-1 -34l-342 -1q0 -71 31 -111t87 -40q71 0 148 75l75 -64q-15 -21 -30 -36l-62 -52q-48 -39 -156 -39q-62 0 -103.5 18.5t-81.5 67.5q-23 -26 -44 -40zM358 176l-6 31l-1 31v18h-75q-46 0 -73.5 -21.5t-27.5 -60.5q0 -73 63 -73q57 0 120 75zM485 339h211
q0 63 -29 98t-78 35q-48 0 -76 -35.5t-28 -97.5z" />
    <glyph glyph-name="ccedilla" unicode="&#xe7;" horiz-adv-x="520" 
d="M477 478l5 -97l-90 -2q-3 23 -7 33q-3 12 -9.5 21t-23 16t-43.5 7q-131 0 -131 -186q0 -81 31 -124t89 -43q56 0 84 17l37 23l16 14l58 -80l-30 -28q-11 -10 -31 -21l-50 -22q-29 -9 -64 -15l-27 -65q86 0 86 -72q0 -43 -35 -66.5t-96 -23.5h-15q-9 0 -25 1.5t-43 9.5
l15 55q16 -4 33 -7.5t26 -3.5q22 0 37.5 11t15.5 26q0 9 -7.5 15.5t-20.5 7.5l-16 -1l-23 -9l-20 36l29 30q10 10 15 20l11 17l10 18q-113 0 -172.5 73.5t-59.5 208.5q0 134 63 210t179 76l43 -1l26 -2l69 -5l59 -4z" />
    <glyph glyph-name="egrave" unicode="&#xe8;" horiz-adv-x="545" 
d="M171 251q0 -69 32 -109.5t89 -40.5q37 0 69 16q34 15 70 53l73 -71l-29 -31l-58 -47q-44 -33 -143 -33q-116 0 -177 70t-61 205q0 145 65 220.5t191 75.5q222 0 222 -260v-11l-3 -37h-340zM170 338h216l1 13q0 49 -28.5 79.5t-76.5 30.5q-50 0 -81 -32.5t-31 -90.5z
M278 766l39 -68l64 -102h-99l-44 39l-43 37l-53 47l-52 47h188z" />
    <glyph glyph-name="eacute" unicode="&#xe9;" horiz-adv-x="545" 
d="M171 251q0 -69 32 -109.5t89 -40.5q37 0 69 16q34 15 70 53l73 -71l-29 -31l-58 -47q-44 -33 -143 -33q-116 0 -177 70t-61 205q0 145 65 220.5t191 75.5q222 0 222 -260v-11l-3 -37h-340zM170 338h216l1 13q0 49 -28.5 79.5t-76.5 30.5q-50 0 -81 -32.5t-31 -90.5z
M235 691l47 77h187l-104 -92l-84 -79h-104l28 44z" />
    <glyph glyph-name="ecircumflex" unicode="&#xea;" horiz-adv-x="545" 
d="M171 251q0 -69 32 -109.5t89 -40.5q37 0 69 16q34 15 70 53l73 -71l-29 -31l-58 -47q-44 -33 -143 -33q-116 0 -177 70t-61 205q0 145 65 220.5t191 75.5q222 0 222 -260v-11l-3 -37h-340zM170 338h216l1 13q0 49 -28.5 79.5t-76.5 30.5q-50 0 -81 -32.5t-31 -90.5z
M157 698l46 75h146l37 -68l67 -110h-105l-21 24l-21 24l-15 18l-15 17l-35 -36l-39 -47h-111z" />
    <glyph glyph-name="edieresis" unicode="&#xeb;" horiz-adv-x="545" 
d="M171 251q0 -69 32 -109.5t89 -40.5q37 0 69 16q34 15 70 53l73 -71l-29 -31l-58 -47q-44 -33 -143 -33q-116 0 -177 70t-61 205q0 145 65 220.5t191 75.5q222 0 222 -260v-11l-3 -37h-340zM170 338h216l1 13q0 49 -28.5 79.5t-76.5 30.5q-50 0 -81 -32.5t-31 -90.5z
M174 733q71 0 71 -53q0 -77 -95 -77q-34 0 -48 11.5t-14 40.5q0 78 86 78zM387 733q71 0 71 -53q0 -77 -95 -77q-33 0 -47.5 12t-14.5 41q0 77 86 77z" />
    <glyph glyph-name="igrave" unicode="&#xec;" horiz-adv-x="288" 
d="M26 531l97 14h94l-3 -44l-1 -56v-288v-36q0 -17 9.5 -30t45.5 -22l-4 -69h-242l4 69q29 4 44 22q12 12 12 70v245q0 42 -9 51t-51 15zM151 766l39 -68l64 -102h-99l-44 39l-43 37l-53 47l-52 47h188z" />
    <glyph glyph-name="iacute" unicode="&#xed;" horiz-adv-x="288" 
d="M26 531l97 14h94l-3 -44l-1 -56v-288v-36q0 -17 9.5 -30t45.5 -22l-4 -69h-242l4 69q29 4 44 22q12 12 12 70v245q0 42 -9 51t-51 15zM108 691l47 77h187l-104 -92l-84 -79h-104l28 44z" />
    <glyph glyph-name="icircumflex" unicode="&#xee;" horiz-adv-x="288" 
d="M26 531l97 14h94l-3 -44l-1 -56v-288v-36q0 -17 9.5 -30t45.5 -22l-4 -69h-242l4 69q29 4 44 22q12 12 12 70v245q0 42 -9 51t-51 15zM30 698l46 75h146l37 -68l67 -110h-105l-21 24l-21 24l-15 18l-15 17l-35 -36l-39 -47h-111z" />
    <glyph glyph-name="idieresis" unicode="&#xef;" horiz-adv-x="288" 
d="M26 531l97 14h94l-3 -44l-1 -56v-288v-36q0 -17 9.5 -30t45.5 -22l-4 -69h-242l4 69q29 4 44 22q12 12 12 70v245q0 42 -9 51t-51 15zM47 733q71 0 71 -53q0 -77 -95 -77q-34 0 -48 11.5t-14 40.5q0 78 86 78zM260 733q71 0 71 -53q0 -77 -95 -77q-33 0 -47.5 12
t-14.5 41q0 77 86 77z" />
    <glyph glyph-name="ntilde" unicode="&#xf1;" horiz-adv-x="631" 
d="M31 68q29 3 43 18l6 19l2 41v263l-1 28q0 8 -9 23q-6 15 -38 15h-6l4 56l96 15h76l1 -30v-4l-1 -34v-69l20 25l23 27l40 39q26 24 62.5 40.5t75.5 16.5q132 0 132 -156v-266v-15q0 -30 11 -41t42 -11l-6 -68h-235l3 68q33 3 43.5 16.5t10.5 51.5v223l-1 32q-6 34 -40 34
q-21 0 -38.5 -10.5t-38.5 -31.5l-37 -39l-29 -33l-29 -43v-133q0 -39 8 -47q12 -20 49 -20l-3 -68h-241zM225 746q18 0 51 -9l72 -21l20 -4q21 0 36 33l104 -33q-35 -120 -107 -120l-25 3l-20 5l-79 26l-19 3q-22 0 -31 -37l-105 34q14 54 41.5 87t61.5 33z" />
    <glyph glyph-name="ograve" unicode="&#xf2;" horiz-adv-x="603" 
d="M298 560q268 0 268 -286t-264 -286q-266 0 -266 284q0 141 66.5 214.5t195.5 73.5zM182 281q0 -97 28 -140.5t91 -43.5q62 0 91.5 42.5t29.5 134.5q0 90 -29 133.5t-92 43.5q-43 0 -71 -21.5t-37 -54.5l-10 -50zM307 766l39 -68l64 -102h-99l-44 39l-43 37l-53 47l-52 47
h188z" />
    <glyph glyph-name="oacute" unicode="&#xf3;" horiz-adv-x="603" 
d="M298 560q268 0 268 -286t-264 -286q-266 0 -266 284q0 141 66.5 214.5t195.5 73.5zM182 281q0 -97 28 -140.5t91 -43.5q62 0 91.5 42.5t29.5 134.5q0 90 -29 133.5t-92 43.5q-43 0 -71 -21.5t-37 -54.5l-10 -50zM264 691l47 77h187l-104 -92l-84 -79h-104l28 44z" />
    <glyph glyph-name="ocircumflex" unicode="&#xf4;" horiz-adv-x="603" 
d="M298 560q268 0 268 -286t-264 -286q-266 0 -266 284q0 141 66.5 214.5t195.5 73.5zM182 281q0 -97 28 -140.5t91 -43.5q62 0 91.5 42.5t29.5 134.5q0 90 -29 133.5t-92 43.5q-43 0 -71 -21.5t-37 -54.5l-10 -50zM186 698l46 75h146l37 -68l67 -110h-105l-21 24l-21 24
l-15 18l-15 17l-35 -36l-39 -47h-111z" />
    <glyph glyph-name="otilde" unicode="&#xf5;" horiz-adv-x="603" 
d="M298 560q268 0 268 -286t-264 -286q-266 0 -266 284q0 141 66.5 214.5t195.5 73.5zM182 281q0 -97 28 -140.5t91 -43.5q62 0 91.5 42.5t29.5 134.5q0 90 -29 133.5t-92 43.5q-43 0 -71 -21.5t-37 -54.5l-10 -50zM211 746q18 0 51 -9l72 -21l20 -4q21 0 36 33l104 -33
q-35 -120 -107 -120l-25 3l-20 5l-79 26l-19 3q-22 0 -31 -37l-105 34q14 54 41.5 87t61.5 33z" />
    <glyph glyph-name="odieresis" unicode="&#xf6;" horiz-adv-x="603" 
d="M302 560q264 0 264 -284q0 -288 -267 -288q-263 0 -263 291q0 138 67.5 209.5t198.5 71.5zM200 725q37 0 53.5 -12.5t16.5 -40.5q0 -39 -22 -57.5t-73 -18.5q-33 0 -47 11.5t-14 40.5q0 77 86 77zM413 725q37 0 53.5 -12.5t16.5 -40.5q0 -39 -22 -57.5t-73 -18.5
q-33 0 -47.5 12t-14.5 41q0 76 87 76zM302 97q62 0 90.5 43t28.5 138q0 90 -28 131.5t-91 41.5q-61 0 -90.5 -42.5t-29.5 -131.5q0 -95 27.5 -137.5t92.5 -42.5z" />
    <glyph glyph-name="divide" unicode="&#xf7;" horiz-adv-x="594" 
d="M275 158q24 0 40 -16t16 -41q0 -24 -17 -40q-15 -17 -39 -17t-41 17q-16 19 -16 40q0 24 18 40.5t39 16.5zM506 202h-463v68h463v-68zM275 427q24 0 40 -17.5t16 -39.5q0 -24 -17 -40q-15 -17 -39 -17t-41 16q-16 18 -16 41q0 24 18 40.5t39 16.5z" />
    <glyph glyph-name="oslash" unicode="&#xf8;" horiz-adv-x="603" 
d="M508 574h52l-64 -83q38 -51 54 -100t16 -108q0 -151 -64 -223t-200 -72q-53 0 -82 8q-33 6 -72 28l-33 -50h-53l56 74l-21 18q-61 67 -61 206q0 288 266 288q57 0 84 -8q28 -6 41 -13q8 -3 16 -7.5t24 -15.5zM223 124q35 -27 83 -27q30 0 55.5 14.5t43 50t17.5 113.5
l-3 44q0 18 -8 55zM390 415q-38 35 -83 35q-65 0 -94 -41t-29 -134v-35.5t2 -27.5q0 -14 13 -50z" />
    <glyph glyph-name="ugrave" unicode="&#xf9;" horiz-adv-x="624" 
d="M24 531l94 14h99l-6 -41l-2 -39l-3 -77v-191q0 -41 10.5 -54.5t41.5 -13.5q54 0 81.5 27.5t35.5 39.5l17 23l14 19l17 27v148q0 36 -11 47q-9 12 -43 12h-9v59l96 14h103l-3 -29l-2 -30v-74v-266l1 -34q0 -36 53 -42l-5 -70h-167q-9 50 -9 92l3 54l-20 -30l-37 -47
q-29 -36 -68 -57.5t-87 -21.5q-34 0 -66.5 12t-54 37.5t-21.5 124.5v236q0 44 -9 59q-10 13 -41 13h-8zM317 766l39 -68l64 -102h-99l-44 39l-43 37l-53 47l-52 47h188z" />
    <glyph glyph-name="uacute" unicode="&#xfa;" horiz-adv-x="624" 
d="M24 531l94 14h99l-6 -41l-2 -39l-3 -77v-191q0 -41 10.5 -54.5t41.5 -13.5q54 0 81.5 27.5t35.5 39.5l17 23l14 19l17 27v148q0 36 -11 47q-9 12 -43 12h-9v59l96 14h103l-3 -29l-2 -30v-74v-266l1 -34q0 -36 53 -42l-5 -70h-167q-9 50 -9 92l3 54l-20 -30l-37 -47
q-29 -36 -68 -57.5t-87 -21.5q-34 0 -66.5 12t-54 37.5t-21.5 124.5v236q0 44 -9 59q-10 13 -41 13h-8zM275 691l47 77h187l-104 -92l-84 -79h-104l28 44z" />
    <glyph glyph-name="ucircumflex" unicode="&#xfb;" horiz-adv-x="624" 
d="M24 531l94 14h99l-6 -41l-2 -39l-3 -77v-191q0 -41 10.5 -54.5t41.5 -13.5q54 0 81.5 27.5t35.5 39.5l17 23l14 19l17 27v148q0 36 -11 47q-9 12 -43 12h-9v59l96 14h103l-3 -29l-2 -30v-74v-266l1 -34q0 -36 53 -42l-5 -70h-167q-9 50 -9 92l3 54l-20 -30l-37 -47
q-29 -36 -68 -57.5t-87 -21.5q-34 0 -66.5 12t-54 37.5t-21.5 124.5v236q0 44 -9 59q-10 13 -41 13h-8zM197 698l46 75h146l37 -68l67 -110h-105l-21 24l-21 24l-15 18l-15 17l-35 -36l-39 -47h-111z" />
    <glyph glyph-name="udieresis" unicode="&#xfc;" horiz-adv-x="626" 
d="M24 531l94 14h99l-6 -41l-2 -39l-3 -77v-191q0 -41 10.5 -54.5t41.5 -13.5q54 0 81.5 27.5t35.5 39.5l17 23l14 19l17 27v148q0 36 -11 47q-9 12 -43 12h-9v59l96 14h103l-3 -29l-2 -30v-74v-266l1 -34q0 -36 53 -42l-5 -70h-167q-9 50 -9 92l3 54l-20 -30l-37 -47
q-29 -36 -68 -57.5t-87 -21.5q-34 0 -66.5 12t-54 37.5t-21.5 124.5v236q0 44 -9 59q-10 13 -41 13h-8zM210 725q70 0 70 -53q0 -39 -22 -57.5t-73 -18.5q-34 0 -48 11.5t-14 40.5q0 37 23 57t64 20zM423 725q70 0 70 -53q0 -39 -22 -57.5t-73 -18.5q-33 0 -47.5 12
t-14.5 41q0 76 87 76z" />
    <glyph glyph-name="ydieresis" unicode="&#xff;" horiz-adv-x="556" 
d="M-2 546h228l-3 -69q-23 0 -30.5 -7t-7.5 -25l3 -24l8 -26l27 -75l45 -123l9 -27l4 -17l5 -30l5 36l14 44l49 141l17 52l8 27l4 23v4q0 27 -41 27l4 69h217l-4 -74q-27 -3 -34 -14l-10 -16l-12 -31l-72 -197q-9 -28 -20 -58t-29 -71l-67 -152l-88 -187l-148 -1l79 135
l60 109l-56 126l-83 216l-38 99l-9 24q-6 21 -40 24zM179 733q71 0 71 -53q0 -77 -95 -77q-34 0 -48 11.5t-14 40.5q0 78 86 78zM392 733q71 0 71 -53q0 -77 -95 -77q-33 0 -47.5 12t-14.5 41q0 77 86 77z" />
    <glyph glyph-name="c293" unicode="&#x125;" horiz-adv-x="562" 
d="M506 650l2 -63l3 -58h-97q-3 29 -14 48q-8 18 -41 34t-68 16q-45 0 -75 -24t-30 -60q0 -32 11 -46.5t33 -25.5l54 -22l51 -18l26 -9l31 -10q21 -6 79 -45t58 -153q0 -108 -65 -167t-183 -59q-64 0 -138 10l-49 6l-50 4v47v53l-5 103l93 -1q0 -114 132 -114q58 0 88.5 23
t30.5 68q0 35 -20 55q-18 21 -76 42l-95 37q-39 17 -100 55t-61 142q0 95 64 154.5t170 59.5q31 0 45 -1.5t40 -6.5l80 -10l35 -6l42 -2zM202 984l22 -25l21 -25l15 -17l17 -17l35 36l22 25l18 23h113l-39 -58l-29 -46l-47 -74h-148l-38 67l-29 47q-11 22 -39 64h106z" />
    <glyph glyph-name="c294" unicode="&#x126;" horiz-adv-x="479" 
d="M124 178q0 -97 99 -97q87 0 87 66q0 24 -26.5 42.5t-89.5 41t-81 32.5q-11 6 -25.5 20t-20.5 21q-27 30 -27 94q0 75 49 118t139 43q14 0 33 -1t43 -4l64 -7l56 -5l2 -66l5 -91h-90q-9 74 -89 74q-77 0 -77 -57q0 -20 16 -35q17 -12 62 -24l62 -18q62 -15 96 -58t34 -101
q0 -80 -53.5 -129t-141.5 -49q-29 0 -84 7l-75 9l-53 5l-1 80l-3 90zM161 773l22 -25l21 -25l15 -17l17 -17l35 36l22 25l18 23h113l-39 -58l-29 -46l-47 -74h-148l-38 67l-29 47q-11 22 -39 64h106z" />
    <glyph glyph-name="c295" unicode="&#x127;" horiz-adv-x="589" 
d="M21 79l314 486l18 28q5 8 21 22l-48 -1h-96q-49 0 -73 -15.5t-24 -50.5h-93l12 108l6 65h493l7 -75l-19 -24l-10 -16l-22 -33l-250 -389q-16 -27 -28 -39q-2 -3 -13 -13t-19 -17h141q76 0 102.5 16t33.5 67l87 -1l-14 -100l-12 -97h-517zM216 984l22 -25l21 -25l15 -17
l17 -17l35 36l22 25l18 23h113l-39 -58l-29 -46l-47 -74h-148l-38 67l-29 47q-11 22 -39 64h106z" />
    <glyph glyph-name="c296" unicode="&#x128;" horiz-adv-x="517" 
d="M36 98l15 20l17 21l203 252l19 24l27 21l-109 2h-5q-35 0 -49.5 -12t-21.5 -50h-92l8 53l6 43l8 75l126 -3l80 -2l93 2l90 2l44 -71l-33 -38l-30 -40l-189 -245l-20 -26l-26 -19l117 1q39 0 55 11t27 46l5 19l1 3h87l-20 -103l-14 -90l-24 4l-19 2h-41h-318l-34 79z
M180 773l22 -25l21 -25l15 -17l17 -17l35 36l22 25l18 23h113l-39 -58l-29 -46l-47 -74h-148l-38 67l-29 47q-11 22 -39 64h106z" />
    <glyph glyph-name="dotlessi" unicode="&#x131;" horiz-adv-x="288" 
d="M26 531l97 14h94l-3 -44l-1 -56v-288v-36q0 -17 9.5 -30t45.5 -22l-4 -69h-242l4 69q29 4 44 22q12 12 12 70v245q0 42 -9 51t-51 15z" />
    <glyph glyph-name="hungarumlaut" unicode="&#x2ba;" horiz-adv-x="296" 
d="M111 691l47 77h187l-104 -92l-84 -79h-104l28 44z" />
    <glyph glyph-name="caron" unicode="&#x2c7;" horiz-adv-x="369" 
d="M106 773l22 -25l21 -25l15 -17l17 -17l35 36l22 25l18 23h113l-39 -58l-29 -46l-47 -74h-148l-38 67l-29 47q-11 22 -39 64h106z" />
    <glyph glyph-name="macron" unicode="&#x2c9;" horiz-adv-x="324" 
d="M0 734h324v-126h-324v126z" />
    <glyph glyph-name="breve" unicode="&#x2d8;" horiz-adv-x="316" 
d="M105 761v-4q0 -28 14.5 -45.5t37.5 -17.5t37.5 18.5t14.5 49.5l108 -1v-10q0 -73 -44 -114.5t-121 -41.5q-71 0 -111.5 39t-40.5 105l1 22h104z" />
    <glyph glyph-name="dotaccent" unicode="&#x2d9;" horiz-adv-x="320" 
d="M175 943l40 -68l63 -103h-100l-43 39l-20 16l-23 22l-53 46l-52 48h188z" />
    <glyph glyph-name="ring" unicode="&#x2da;" horiz-adv-x="229" 
d="M115 786q46 0 80 -34t34 -81t-33.5 -80.5t-80.5 -33.5t-81 33t-34 81t33.5 81.5t81.5 33.5zM69 671q0 -18 13 -32q14 -12 33 -12q17 0 30.5 12.5t13.5 31.5q0 18 -12.5 32t-31.5 14t-32.5 -13.5t-13.5 -32.5z" />
    <glyph glyph-name="ogonek" unicode="&#x2db;" horiz-adv-x="239" 
d="M123 143q40 0 62.5 -18.5t22.5 -50.5q0 -38 -28 -62q-28 -22 -75 -22q-74 0 -74 72q0 35 25 59q25 22 67 22z" />
    <glyph glyph-name="circumflex" unicode="&#x302;" horiz-adv-x="362" 
d="M66 698l46 75h146l37 -68l67 -110h-105l-21 24l-21 24l-15 18l-15 17l-35 -36l-39 -47h-111z" />
    <glyph glyph-name="tilde" unicode="&#x303;" horiz-adv-x="386" 
d="M103 746q18 0 51 -9l72 -21l20 -4q21 0 36 33l104 -33q-35 -120 -107 -120l-25 3l-20 5l-79 26l-19 3q-22 0 -31 -37l-105 34q14 54 41.5 87t61.5 33z" />
    <glyph glyph-name="summation" unicode="&#x3a3;" horiz-adv-x="771" 
d="M618 643l15 -129h-44q-32 105 -85 144t-169 39h-132l315 -431l-344 -394h187q64 0 104.5 7.5t67.5 24.5q50 30 83 116h45l-30 -130l-2 -7q-23 -99 -111 -99h-482l389 446l-375 514h460q64 0 82 -15q16 -11 26 -86z" />
    <glyph glyph-name="Omega" unicode="&#x3a9;" horiz-adv-x="830" 
d="M593 90q48 0 68 18.5t20 67.5h23v-176h-272v180q76 15 122 77t46 151q0 106 -59 168.5t-157 62.5q-97 0 -156.5 -62.5t-59.5 -168.5q0 -91 44 -150.5t124 -77.5v-180h-272v176h23q0 -48 19 -67t69 -19h123v59q-118 21 -183 89t-65 170q0 120 93 193.5t241 73.5
q149 0 241.5 -73t92.5 -194q0 -100 -63.5 -167.5t-184.5 -91.5v-59h123z" />
    <glyph glyph-name="pi" unicode="&#x3c0;" horiz-adv-x="594" 
d="M404 373l-1 -24l-3 -150v-40q0 -86 8.5 -106t30.5 -20q26 0 42 30t16 88h25v-5q0 -80 -26 -118t-80 -38q-55 0 -80 40q-11 19 -17 60t-6 104l1 78l3 104l-50 1l-77 2q0 -237 -23 -313t-80 -76q-34 0 -53 29q-17 29 -17 86v19h24q0 -26 9 -39t28 -13q42 0 54 47t18 110
t6 150h-22q-39 0 -60 -14q-21 -12 -27 -39h-23q0 34 9.5 57.5t36.5 44.5t113 21l102 -3l152 -3q34 0 48.5 6.5t17.5 21.5l23 1q0 -51 -23.5 -75.5t-74.5 -24.5h-14z" />
    <glyph glyph-name="partialdiff" unicode="&#x2202;" horiz-adv-x="534" 
d="M358 287l6 28l3 31l3 89q0 85 -15.5 126t-47.5 41q-18 0 -50 -35t-56 -35q-15 0 -26 7q-8 7 -11 25q0 27 30 50q30 21 72 21q76 0 110 -53t47 -102.5t13 -112.5q0 -163 -64 -271.5t-158 -108.5q-66 0 -109 51t-43 137q0 81 53 143t125 62q44 0 72 -21.5t46 -71.5z
M256 349q-50 0 -86 -60q-34 -62 -34 -161q0 -56 21.5 -87.5t62.5 -31.5q53 0 87 62.5t34 152.5q0 57 -22 91t-63 34z" />
    <glyph glyph-name="Delta" unicode="&#x2206;" horiz-adv-x="662" 
d="M595 0h-574l276 672h22zM92 45h373l-186 459z" />
    <glyph glyph-name="product" unicode="&#x220f;" horiz-adv-x="890" 
d="M118 -176v880h-88v40h767v-40h-88v-880h88v-40h-264v40h84v880h-407v-880h84v-40h-264v40h88z" />
    <glyph glyph-name="fraction" unicode="&#x2215;" horiz-adv-x="254" 
d="M189 812h99l-216 -906h-97z" />
    <glyph glyph-name="periodcentered" unicode="&#x2219;" horiz-adv-x="239" 
d="M122 369q86 0 86 -68q0 -38 -27.5 -61.5t-74.5 -23.5q-75 0 -75 72q0 35 25 59q25 22 66 22z" />
    <glyph glyph-name="radical" unicode="&#x221a;" horiz-adv-x="594" 
d="M594 764h-57l-290 -784h-32l-156 431l-61 -22l-12 39l138 48l125 -346l252 681h93v-47z" />
    <glyph glyph-name="infinity" unicode="&#x221e;" horiz-adv-x="771" 
d="M366 238q-33 -61 -72 -93q-19 -16 -39.5 -23.5t-45.5 -7.5q-66 0 -111 52.5t-45 131.5q0 83 41 134.5t105 51.5q46 0 82 -29.5t66 -94.5q30 62 69 93q20 15 41.5 23t46.5 8q63 0 109 -53q23 -26 34.5 -58.5t11.5 -72.5q0 -84 -40 -135t-105 -51q-45 0 -84 30
q-36 30 -64 94zM330 327q-26 46 -59 69.5t-76 23.5q-52 0 -84.5 -35t-32.5 -90q0 -54 29 -89q31 -34 77 -34q39 0 71 31.5t75 123.5zM383 271q22 -45 57.5 -69t77.5 -24q52 0 84.5 35t32.5 90q0 54 -30.5 88.5t-79.5 34.5q-35 0 -71 -36q-32 -35 -71 -119z" />
    <glyph glyph-name="integral" unicode="&#x222b;" horiz-adv-x="296" 
d="M283 757q36 0 58.5 -18.5t22.5 -48.5q0 -20 -12.5 -34t-36.5 -14q-28 0 -43.5 31.5t-29.5 32.5q-57 0 -57 -310l-3 -98v-16v-13v-12q0 -20 -1 -40t-4 -39q0 -26 -3.5 -56.5t-11.5 -87t-29 -103.5t-60.5 -79.5t-81.5 -32.5q-35 0 -58 18.5t-23 48.5q0 21 12.5 34t36.5 13
q28 0 43 -30t31 -33q57 0 57 324l2 84q0 21 2 67.5t2 48.5q0 23 3.5 54t11 89.5t30.5 106.5q21 51 59.5 82t82.5 31z" />
    <glyph glyph-name="approxequal" unicode="&#x2248;" horiz-adv-x="594" 
d="M15 100v77q23 14 43.5 24.5t43.5 19.5q39 14 74 14q43 0 114.5 -24t99.5 -24q26 0 59.5 15t84.5 52v-78q-22 -14 -41 -24.5t-36 -17.5q-36 -13 -72 -13q-18 0 -41 5t-63 18q-72 24 -116 24q-29 0 -55 -11.5t-47 -24.5q-16 -9 -23.5 -14t-24.5 -18zM15 219v77l43 25l51 21
q31 11 66 11q42 0 115 -23.5t100 -23.5q29 0 60 14q16 7 36.5 19.5t47.5 32.5v-77l-41 -24l-49 -22q-26 -9 -59 -9q-36 0 -106 23.5t-109 23.5q-37 0 -66 -14q-28 -11 -89 -54z" />
    <glyph glyph-name="notequal" unicode="&#x2260;" horiz-adv-x="594" 
d="M413 336h91v-64h-149l-73 -72h222v-64h-281l-118 -118l-43 44l74 74h-91v64h150l73 72h-223v64h281l118 118l44 -44z" />
    <glyph glyph-name="lessequal" unicode="&#x2264;" horiz-adv-x="594" 
d="M506 18h-463v68h463v-68zM162 280l344 -107v-70l-462 145v65l462 145v-70z" />
    <glyph glyph-name="greaterequal" unicode="&#x2265;" horiz-adv-x="594" 
d="M506 18h-463v68h463v-68zM506 248l-463 -145v70l344 107l-344 108v70l463 -145v-65z" />
    <glyph glyph-name="lozenge" unicode="&#x25ca;" horiz-adv-x="534" 
d="M247 807l244 -518l-244 -522l-244 522zM247 688l-188 -399l188 -403l188 403z" />
    <glyph glyph-name="apple" unicode="&#xf000;" horiz-adv-x="854" 
d="M408 594l-1 7v11q0 60 45.5 111.5t116.5 64.5v-12l1 -18q0 -62 -50.5 -113.5t-99.5 -51.5h-4zM735 197q-28 -60 -53.5 -102.5t-47.5 -65.5q-46 -46 -99 -46q-25 0 -65.5 16t-58.5 16q-23 0 -65 -16t-61 -16q-30 0 -63 21l-31 27l-48 60q-30 43 -60 121q-14 41 -21 76.5
t-7 71.5q0 107 61.5 174.5t157.5 67.5q16 0 31.5 -3t26.5 -6.5t29 -11.5q11 -4 26.5 -8.5t22.5 -4.5q20 0 62 17t72 17q56 0 97 -20q42 -18 78 -60q-47 -30 -74 -71q-24 -39 -24 -89q0 -53 30 -97t84 -68z" />
    <glyph glyph-name="fi" unicode="&#xf001;" 
d="M217 350l-143 144l87 88l144 -144l144 144l86 -87l-144 -144l144 -143l-86 -88l-146 145l-145 -145l-87 85z" />
    <glyph glyph-name="fl" unicode="&#xf002;" horiz-adv-x="413" 
d="M105 659l23 13l29 18l26 20l20 18h94l-9 -59v-77v-592h-142v577l-63 -40l-73 -39l-42 102q94 35 137 59z" />
    <glyph glyph-name=".null" horiz-adv-x="0" 
 />
    </font>
</defs>
</svg>
