<?xml version="1.0" standalone="no"?>
<!DOCTYPE svg PUBLIC "-//W3C//DTD SVG 1.1//EN" "http://www.w3.org/Graphics/SVG/1.1/DTD/svg11.dtd" >
<svg>
<metadata>
Created by FontForge 20110222 at Tue Mar 19 13:18:16 2013
 By Orthosie Webmaster
(C) 1993 B &#38; P Graphics, Ltd.
</metadata>
<defs>
<font id="CongressRegularRegular" horiz-adv-x="586" >
  <font-face 
    font-family="CongressRegularRegular"
    font-weight="100"
    font-stretch="normal"
    units-per-em="1000"
    panose-1="0 0 0 0 0 0 0 0 0 0"
    ascent="800"
    descent="-200"
    x-height="555"
    cap-height="721"
    bbox="-90 -296 1109 965"
    underline-thickness="50"
    underline-position="-75"
    unicode-range="U+0020-F002"
  />
<missing-glyph horiz-adv-x="965" 
d="M60 0v965h845v-965h-845zM845 60v845h-725v-845h725z" />
    <glyph glyph-name=".notdef" horiz-adv-x="965" 
d="M60 0v965h845v-965h-845zM845 60v845h-725v-845h725z" />
    <glyph glyph-name="glyph1" horiz-adv-x="0" 
 />
    <glyph glyph-name="nonmarkingreturn" horiz-adv-x="290" 
 />
    <glyph glyph-name="space" unicode=" " horiz-adv-x="290" 
 />
    <glyph glyph-name="exclam" unicode="!" horiz-adv-x="232" 
d="M192 732q0 -69 -9 -171l-9 -123l-11 -229l-62 -9l2 139l-1 122l-11 265zM131 103q59 0 59 -45q0 -67 -83 -67q-31 0 -42 10.5t-11 35.5q0 66 77 66z" />
    <glyph glyph-name="quotedbl" unicode="&#x22;" horiz-adv-x="398" 
d="M41 458l30 37l18 34l16 39l11 48l-20 -1q-57 0 -57 42q0 37 19 54.5t62 17.5q34 0 48 -14.5t14 -50.5l-4 -38q-3 -25 -10 -43l-9 -28l-10 -22q-10 -23 -26 -45.5t-48 -57.5zM217 458l30 39l22 40q11 23 22 79l-19 -1q-29 0 -44 9q-13 10 -13 32q0 73 80 73q35 0 49 -14
t14 -51l-4 -38q-3 -25 -10 -43l-9 -28l-13 -30q-8 -18 -24 -40q-5 -7 -18 -22q-17 -20 -29 -33z" />
    <glyph glyph-name="numbersign" unicode="#" horiz-adv-x="632" 
d="M58 274h115l36 172h-115l10 50h116l44 210h50l-45 -210h105l44 210h49l-44 -210h115l-10 -50h-115l-37 -172h115l-10 -50h-115l-45 -210h-49l44 210h-104l-45 -210h-49l44 210h-115zM327 274l36 172h-104l-37 -172h105z" />
    <glyph glyph-name="dollar" unicode="$" horiz-adv-x="545" 
d="M94 166q0 -23 5 -36t7.5 -17t9.5 -14q12 -15 42.5 -27.5t56.5 -12.5h12l22 2v273l-62 23l-79 33q-56 24 -56 144q0 88 54 142.5t143 54.5v70h57v-72l77 -7l57 -6l46 -2l-2 -57l1 -34l4 -45l-54 -2q0 17 -9 34q-10 13 -22 24q-20 14 -40 21t-58 7v-253q110 -26 154.5 -71
t44.5 -133q0 -96 -51.5 -153.5t-148.5 -57.5v-92h-57v90l-72 5l-69 7l-37 1h-32l6 44l1 39l-1 37l-6 45zM306 318v-254q50 0 82.5 34.5t32.5 88.5q0 30 -9.5 55t-23 38.5t-31.5 20.5zM249 659q-47 0 -77.5 -34t-30.5 -86q0 -44 24.5 -70t83.5 -42v232z" />
    <glyph glyph-name="percent" unicode="%" horiz-adv-x="881" 
d="M50 616q26 109 154 109q88 0 127 -46.5t39 -149.5t-39.5 -149.5t-125.5 -46.5t-125.5 46.5t-39.5 146.5v23t2 24q0 19 8 43zM581 721h74l-356 -721h-75zM522 278q27 109 155 109q87 0 125.5 -46t38.5 -152q0 -105 -38 -150t-126 -45q-86 0 -126 46q-20 23 -30 59t-10 89
l3 44q2 18 3.5 25.5t4.5 20.5zM116 529q0 -67 23 -103t66 -36q42 0 65.5 37t23.5 105q0 63 -23.5 99t-65.5 36t-65.5 -36.5t-23.5 -101.5zM588 190q0 -67 23 -102.5t66 -35.5q42 0 65.5 37t23.5 105q0 64 -23 99.5t-66 35.5q-42 0 -65.5 -37t-23.5 -102z" />
    <glyph glyph-name="ampersand" unicode="&#x26;" horiz-adv-x="698" 
d="M165 577q0 29 30 92t153 63q86 0 132 -40t46 -115q0 -68 -38 -116t-129 -91l28 -43l29 -39l70 -96l41 52l25 34l56 76l59 -53l-35 -44l-32 -37l-29 -31l-42 -42l62 -62l81 -85h-121q-21 30 -36 45l-26 29l-19 20q-35 -35 -94 -70.5t-152 -35.5q-83 0 -133 51.5t-50 138.5
q0 27 4 47t16 44q20 43 59 69.5t120 56.5q-40 63 -57.5 104.5t-17.5 77.5zM280 341q-43 -15 -71 -35q-37 -22 -52 -42.5t-20 -40.5l-6 -24v-16q0 -54 32 -87.5t82 -33.5q16 0 33.5 3t36.5 10q21 6 43.5 17.5t45.5 28.5l24 20q-18 21 -36 42.5t-41 51.5l-39 55zM319 427
q125 42 125 147q0 96 -100 96q-43 0 -70.5 -23t-27.5 -58q0 -31 18 -72t55 -90z" />
    <glyph glyph-name="quotesingle" unicode="'" horiz-adv-x="222" 
d="M41 459l30 37l18 34l16 39l11 48l-20 -1q-57 0 -57 42q0 72 80 72q35 0 49 -14t14 -51l-4 -38q-3 -25 -10 -43l-9 -28l-13 -30q-10 -23 -22 -39.5t-49 -55.5z" />
    <glyph glyph-name="parenleft" unicode="(" horiz-adv-x="251" 
d="M238 765l-29 -95l-36 -144q-23 -101 -23 -225q0 -73 15 -195q8 -65 18 -126t26 -136l-48 -6l-45 116l-31 111q-7 27 -12.5 56.5t-10.5 65.5q-8 64 -8 119l3 75q3 34 12 86.5t33 121.5t82 176h54z" />
    <glyph glyph-name="parenright" unicode=")" horiz-adv-x="251" 
d="M64 15q37 167 37 289v44q-3 33 -4 50q0 23 -3.5 52.5t-10.5 69.5l-15 109q-4 26 -9 51.5t-17 79.5l48 5q8 -18 24 -61q12 -32 20 -54q15 -45 39.5 -141.5t24.5 -210.5v-42q-3 -20 -4 -29q0 -15 -3 -35t-11 -62.5t-28 -102.5t-38 -95q-7 -16 -19 -41t-28 -52h-54l29 94z
" />
    <glyph glyph-name="asterisk" unicode="*" horiz-adv-x="446" 
d="M53 597l10 47l60 -31l40 -17l35 -12v16q0 10 -2 22q0 18 -5 39q-3 23 -15 70l32 -5l27 -1l22 1l24 3l-13 -38l-8 -31l-7 -34l-2 -41l43 16q7 2 12.5 3.5t15.5 7.5l64 31l4 -27l5 -21l6 -20l12 -29l-39 2l-32 -1q-15 0 -21 -0.5t-16.5 -3.5t-18.5 -4t-19 -5l24 -27l26 -27
l28 -26l26 -20l-37 -21l-22 -18l-23 -23q-14 45 -27 73l-31 62l-22 -37l-16 -32l-13 -31l-14 -38l-19 18l-21 17q-13 10 -44 25l37 27q13 10 24 22l22 25l20 26l-80 13l-71 5l9 20z" />
    <glyph glyph-name="plus" unicode="+" 
d="M37 391h215v220h82v-219h215v-80h-216v-219h-82v219h-214v79z" />
    <glyph glyph-name="comma" unicode="," horiz-adv-x="222" 
d="M41 -162l29 37q8 11 19 34l16 38l11 49l-20 -2q-57 0 -57 42q0 71 80 71q35 0 49 -14t14 -51l-4 -38q-2 -15 -3.5 -23.5t-4 -15t-3.5 -12t-5 -12.5q-2 -8 -4 -13t-9 -17q-11 -24 -25.5 -45.5t-48.5 -56.5z" />
    <glyph glyph-name="hyphen" unicode="-" horiz-adv-x="373" 
d="M38 338l-1 17l155 -1l147 1v-38v-36l-136 1h-7l-162 -2z" />
    <glyph glyph-name="period" unicode="." horiz-adv-x="215" 
d="M117 103q59 0 59 -45q0 -67 -82 -67q-54 0 -54 46q0 66 77 66z" />
    <glyph glyph-name="slash" unicode="/" horiz-adv-x="452" 
d="M366 816h66l-352 -937h-61z" />
    <glyph glyph-name="zero" unicode="0" 
d="M290 736q135 0 177.5 -52t57 -91.5t14.5 -86.5l4 -74l2 -67l-2 -69q0 -39 -5 -72q0 -43 -15 -83.5t-43 -75.5q-26 -35 -72 -55q-45 -18 -110 -18q-136 0 -187 64t-59 129l-9 105l-2 75q0 205 55.5 288t193.5 83zM135 362q0 -46 1.5 -65.5t8 -71t26.5 -105t122 -53.5
q99 0 120.5 53t27 76.5t5.5 65.5l4 49l1 48q0 73 -6.5 133t-28 115.5t-123.5 55.5q-98 0 -119.5 -52t-27 -78t-5.5 -65l-5 -58z" />
    <glyph glyph-name="one" unicode="1" 
d="M211 664q8 4 20 11t26 18q19 14 44 37h45l-3 -58l-2 -139v-533h-90v612l-38 -26l-33 -17l-40 -19l-46 -16l-22 64l81 36q31 14 58 30z" />
    <glyph glyph-name="two" unicode="2" 
d="M46 67l298 280q55 50 76.5 87.5t21.5 85.5q0 143 -138 143q-68 0 -110.5 -32.5t-72.5 -108.5l-70 27l17 45q6 14 21.5 37.5t61 64t164.5 40.5q216 0 216 -220q0 -47 -11 -76.5t-39.5 -68.5t-58.5 -64l-267 -228h236q47 0 68 12t25 46h46l-10 -65l-4 -72h-470v67z" />
    <glyph glyph-name="three" unicode="3" 
d="M71 143q50 -44 94.5 -62.5t102.5 -18.5q169 0 169 150q0 93 -50 112q-15 5 -40.5 12.5t-37.5 10.5l-69 4l-88 -2l5 73l38 -1q62 0 109 9.5t79 48.5t32 91q0 97 -125 97q-41 0 -78 -11.5t-55 -25.5q-17 -11 -41 -40l-49 50l27 27l56 41q49 35 148 35q98 0 152.5 -44
t54.5 -124q0 -121 -132 -178q31 -6 55.5 -16.5t50.5 -30.5q47 -36 47 -138q0 -108 -68 -167t-192 -59q-106 0 -157 32t-84 70z" />
    <glyph glyph-name="four" unicode="4" 
d="M43 334l74 94l43 56l74 97l41 55l44 56l16 29h90v-459h90v-65h-90v-197h-90v197h-324l-21 74l30 34zM77 262h259v347q-8 -18 -14 -25l-23 -30z" />
    <glyph glyph-name="five" unicode="5" 
d="M83 134q97 -76 185 -76q76 0 118.5 42.5t42.5 121.5q0 82 -30.5 119.5t-97.5 37.5q-49 0 -78 -11q-17 -6 -32.5 -14t-36.5 -24l-57 26l10 53l2 54l13 258h358l-3 -34l-1 -31l4 -62h-51q0 52 -44 52h-24h-166l-6 -48l-2 -46l-1 -65v-20v-16q-2 -12 -2 -17l31 11
q47 14 96 14q207 0 207 -216q0 -255 -254 -255q-106 0 -151 30l-53 38l-25 28z" />
    <glyph glyph-name="six" unicode="6" 
d="M415 710l-79 -72q-32 -30 -57 -61q-26 -28 -47 -59l-49 -72l46 17q19 6 38 9l41 7l41 3q95 0 145 -59t50 -173q0 -264 -253 -264q-243 0 -243 263q0 110 36.5 180.5t64 108.5t63.5 78l61 64l73 62zM150 360q-9 -30 -12 -52l-3 -49q0 -63 16.5 -110.5t46.5 -66.5
q37 -26 96 -26q83 0 111 31t39.5 71.5t11.5 86.5q0 82 -33.5 127.5t-97.5 45.5q-41 0 -101 -21q-28 -12 -74 -37z" />
    <glyph glyph-name="seven" unicode="7" 
d="M46 715h464l26 -29q-53 -144 -85.5 -216t-81.5 -168q-45 -91 -82 -155l-99 -164l-77 26l123 208l57 108l128 276l23 38h-46h-225q-37 0 -54.5 -12t-24.5 -43h-53z" />
    <glyph glyph-name="eight" unicode="8" 
d="M64 555q0 83 65 133t177 50q101 0 160 -47t59 -129q0 -63 -34.5 -105.5t-114.5 -74.5q170 -50 170 -199q0 -93 -67.5 -144t-193.5 -51q-115 0 -161.5 31t-66.5 71q-19 43 -19 87q0 100 51 136t70.5 45t51.5 17q-76 33 -111.5 75.5t-35.5 104.5zM284 346q-90 -37 -122 -74
t-32 -86q0 -127 161 -127q165 0 165 116q0 38 -12.5 63.5t-30.5 38.5q-14 13 -58 34l-54 27zM303 410q70 31 102.5 67.5t32.5 83.5q0 49 -36.5 76.5t-106.5 27.5q-67 0 -106 -27q-37 -28 -37 -76q0 -20 6.5 -39.5t29.5 -44t115 -68.5z" />
    <glyph glyph-name="nine" unicode="9" 
d="M172 17q49 42 79 72l56 61l49 60q13 17 21 29t27 42l-42 -15l-53 -13q-38 -8 -71 -8q-94 0 -144.5 60.5t-50.5 172.5q0 129 64 196.5t188 67.5q244 0 244 -263q0 -112 -46 -200t-96 -143t-83 -86l-73 -64zM436 368l13 53q3 18 3 47q0 63 -16.5 110.5t-49 70t-94.5 22.5
q-82 0 -110 -31t-39.5 -71.5t-11.5 -85.5q0 -82 33.5 -127.5t97.5 -45.5q23 0 42 3t40 11l53 22q7 3 15.5 7.5t23.5 14.5z" />
    <glyph glyph-name="colon" unicode=":" horiz-adv-x="229" 
d="M131 103q59 0 59 -45q0 -67 -83 -67q-53 0 -53 46q0 66 77 66zM131 561q32 0 45.5 -9.5t13.5 -33.5q0 -36 -19 -52t-64 -16q-28 0 -40.5 9.5t-12.5 35.5q0 66 77 66z" />
    <glyph glyph-name="semicolon" unicode=";" horiz-adv-x="236" 
d="M55 -162l29 37q10 13 18 32l15 39q6 19 12 50l-19 -2q-31 0 -44 9t-13 36q0 68 75 68q37 0 52.5 -12.5t15.5 -49.5q0 -16 -3.5 -38.5t-9.5 -44.5l-10 -27q-3 -11 -4 -13q-6 -12 -10 -19q-10 -23 -23 -40q-6 -9 -17 -22.5t-30 -31.5zM131 561q32 0 45.5 -9.5t13.5 -33.5
q0 -36 -19 -52t-63 -16q-31 0 -42.5 9.5t-11.5 35.5q0 66 77 66z" />
    <glyph glyph-name="less" unicode="&#x3c;" horiz-adv-x="265" 
d="M96 388l27 59l26 59h75l-29 -60l-23 -52l-26 -70l-20 -58l24 -54l28 -59q9 -19 21 -41t32 -56h-79l-50 96l-68 114l34 64z" />
    <glyph glyph-name="equal" unicode="=" 
d="M36 312h514v-80h-514v80zM36 471h514v-80h-514v80z" />
    <glyph glyph-name="greater" unicode="&#x3e;" horiz-adv-x="265" 
d="M114 506q14 -27 26 -51q18 -34 24 -45l67 -114l-35 -65l-31 -64l-24 -51l-25 -60h-75l30 64l22 50l21 53l24 73l-22 53l-24 50q-12 28 -31 59l-27 48h80z" />
    <glyph glyph-name="question" unicode="?" horiz-adv-x="436" 
d="M239 731q66 0 114 -51.5t48 -124.5q0 -63 -40 -102l-138 -138l-19 -26q-6 -11 -8 -25q0 -18 13 -40l-91 -19q-13 26 -13 46q0 34 28 65l42 44l114 131q17 22 17 64q0 36 -24.5 64.5t-55.5 28.5q-26 0 -57 -25q-27 -21 -86 -90l-52 41q73 92 116 124.5t92 32.5zM174 103
q61 0 61 -44q0 -68 -84 -68q-28 0 -40.5 9.5t-12.5 35.5q0 67 76 67z" />
    <glyph glyph-name="at" unicode="@" horiz-adv-x="841" 
d="M434 194q-36 -42 -82 -42q-11 0 -24.5 3t-30.5 11q-31 15 -52 59q-19 46 -19 117l4 35q15 95 52.5 139t66 59t57.5 15q57 0 86 -53l5 -10l9 57l49 -1l-38 -215l-14 -87l-3 -31q0 -10 1 -16.5t7.5 -26t37.5 -19.5l17 3q12 3 24 14l31 32q17 20 30.5 53t19.5 69.5t6 66.5
q0 116 -71 188t-181 72q-26 0 -91 -9.5t-139.5 -100.5t-74.5 -217v-24l3 -27l2 -19l17 -68q16 -64 95 -127t177 -63q45 0 83.5 11t71.5 31q16 10 31 20.5t30 23.5q29 25 51 55l20 -36l-25 -29q-57 -60 -124 -90.5t-142 -30.5q-153 0 -251 113t-98 286q0 55 18.5 105
t57.5 103.5t102.5 92t113.5 44.5l69 6q133 0 220 -87.5t87 -222.5q0 -27 -4 -53t-7 -42q-11 -64 -56.5 -120t-78.5 -62l-41 -4q-39 0 -64 25q-21 21 -21 60q-5 -19 -20 -36zM297 229q17 -36 57 -36q27 0 43.5 16.5t26.5 32.5q7 12 19.5 47.5t21.5 83.5l2 10l7 42l2 21v16
l-3 32q0 16 -20 34t-44 18q-12 0 -31.5 -8t-39.5 -34q-8 -11 -17 -30t-18 -45l-13 -49l-5 -45l-1 -44l3 -34q3 -16 10 -28z" />
    <glyph glyph-name="A" unicode="A" horiz-adv-x="651" 
d="M-11 42q16 5 22.5 12t18.5 34l242 571q12 27 12 62h98q0 -19 2 -28t11 -29l216 -574q11 -27 20.5 -37.5t25.5 -10.5l-3 -42h-160l5 42q22 0 22 19q0 13 -5 24l-62 164h-265l-67 -157q-3 -8 -5 -24q0 -21 28 -25l-6 -43h-151zM214 315h220l-89 258l-7 16l-8 46v-14
q0 -9 -2 -17l-12 -34z" />
    <glyph glyph-name="B" unicode="B" horiz-adv-x="635" 
d="M39 43l26 6q11 4 15.5 8t7.5 14l2 37v514l-1 26q-5 13 -17 21.5t-33 8.5l7 43l82 -2h10l167 4h17q112 0 148 -27t50 -61q13 -36 13 -73q0 -44 -14 -73t-33 -48q-15 -15 -32 -26l-44 -18q42 0 57 -5q49 -9 90 -50t41 -127q0 -100 -41 -142t-66.5 -53t-55.5 -16l-87 -4h-28
l-97 2l-80 2l-10 1l-97 -5zM181 349v-214q0 -35 6 -49q6 -10 35 -15.5t94 -5.5q103 0 147.5 33t44.5 113q0 105 -58 120q-19 5 -40 10q-34 8 -56 8l-93 3zM181 421l46 -3q126 0 158 23t45 53q3 7 8 25t5 36q0 27 -9.5 49.5t-25 31.5t-56.5 17q-39 6 -82 6q-53 0 -72 -14.5
t-19 -57.5z" />
    <glyph glyph-name="C" unicode="C" horiz-adv-x="601" 
d="M560 662l6 -83l-56 -5q-6 47 -41 67q-33 21 -106 21q-113 0 -166 -73t-53 -235q0 -154 49 -221.5t161 -67.5q52 0 89.5 17.5t79.5 60.5l48 -47q-33 -39 -85 -72.5t-156 -33.5q-78 0 -127.5 21.5t-103 94t-53.5 237.5q0 189 72.5 290t211.5 101q36 0 89 -7l89 -7l46 2z
" />
    <glyph glyph-name="D" unicode="D" horiz-adv-x="697" 
d="M34 42q56 0 56 68v505q0 55 -59 55l6 51h32t29 -2h23t25 -2h9l171 2l19 1q80 0 126.5 -14.5t88.5 -60t66 -119t24 -164.5q0 -82 -21 -152t-60.5 -118.5t-100 -71.5t-147.5 -23h-6l-176 5l-18 1l-93 -3zM179 559v-405q0 -32 3 -45t13 -25q11 -9 37 -15l76 -4
q67 0 106.5 13.5t72 48t51.5 97.5t19 138q0 100 -30.5 173t-79 95.5t-139.5 22.5q-63 0 -88.5 -8t-35.5 -31l-5 -20v-35z" />
    <glyph glyph-name="E" unicode="E" horiz-adv-x="564" 
d="M40 43q24 0 33.5 7.5t10.5 13.5l4 12l1 32v516q0 25 -5 30q-8 17 -45 17l3 50h455l2 -55l7 -79h-52v7q0 57 -62 57h-164q-28 0 -37 -6t-12 -17l-1 -30v-182h272l-6 -70h-266v-223q0 -27 9 -41q14 -14 51 -14h152q50 0 70.5 17.5t20.5 60.5h54l-6 -74l-4 -72h-490z" />
    <glyph glyph-name="F" unicode="F" horiz-adv-x="505" 
d="M42 721h454l2 -30l4 -64l3 -35l-56 -6q0 37 -16 51.5t-55 14.5h-125q-42 0 -58 -12.5t-16 -48.5v-179h275l-5 -70h-271v-221q0 -45 12 -62q16 -14 55 -14l-5 -45h-203l4 45q26 0 37 15.5t11 54.5v503q0 29 -11.5 43t-41.5 18z" />
    <glyph glyph-name="G" unicode="G" horiz-adv-x="679" 
d="M594 653l3 -39l7 -35l-56 -6q-6 44 -45 67q-39 21 -125 21q-69 0 -112 -21.5t-83 -91t-40 -207.5q0 -94 22.5 -154t77.5 -94t128 -34q68 0 98 11.5t39 33.5q8 24 8 77q0 74 -11 91t-60 17l-14 -1l6 54h212l-5 -53l-10 1q-37 0 -37 -51v-145v-37l4 -47l-33 -2l-27 -3
l-88 -10q-25 -3 -51 -5t-51 -2q-82 0 -136.5 23t-111.5 96.5t-57 229.5q0 81 18.5 151t76 156.5t217.5 86.5q43 0 100 -6l63 -6l27 -1l40 1z" />
    <glyph glyph-name="H" unicode="H" horiz-adv-x="719" 
d="M40 40q49 0 49 59v516q0 62 -53 62l4 44h201l-4 -42q-31 -6 -45 -22.5t-14 -44.5v-190h361v197q0 20 -7 31q-6 13 -11 15l-25 10l-10 3l6 43h197l-5 -42q-32 -6 -43 -19.5t-11 -44.5v-505l1 -32q0 -6 7 -14q11 -21 47 -21l-3 -43h-199l7 43q25 0 41 20q4 8 8 22v30v235
h-361v-243q0 -64 54 -64h9l-4 -43h-201z" />
    <glyph glyph-name="I" unicode="I" horiz-adv-x="267" 
d="M36 44q27 3 36.5 13t13 22.5t3.5 41.5v492v19q0 12 -2 18q0 5 -8 12.5t-21 11.5l-28 4l5 43h202l-5 -44q-34 -9 -43.5 -18.5t-9.5 -41.5v-506v-15q0 -48 46 -48l13 1l-3 -49h-205z" />
    <glyph glyph-name="J" unicode="J" horiz-adv-x="262" 
d="M28 -164q31 59 42.5 119t11.5 180v493q0 27 -8.5 37.5t-34.5 10.5l-21 2l7 43h201l-4 -45h-5q-11 0 -19 -4q-16 -4 -21.5 -14.5t-5.5 -35.5l1 -471q0 -100 -11 -159q-9 -64 -40 -114q-14 -25 -29 -46.5t-33 -41.5l-47 18z" />
    <glyph glyph-name="K" unicode="K" horiz-adv-x="597" 
d="M38 41q33 3 42.5 13t9.5 48l-1 525q0 32 -8.5 42.5t-43.5 10.5l8 41h203l-7 -40q-35 0 -48.5 -18t-13.5 -66v-228l251 262q15 15 15 26q0 26 -44 26l9 38h174l-10 -45l-250 -255l220 -341q12 -20 21.5 -26.5t28.5 -12.5l-8 -41h-103l-219 359l-85 -91v-165q0 -60 47 -60
h12l-7 -43h-201z" />
    <glyph glyph-name="L" unicode="L" horiz-adv-x="517" 
d="M35 45q17 0 27 5q9 3 16 9.5t10 16.5l2 38v512q0 51 -53 51l4 44h198l-3 -44l-12 1q-17 0 -35 -12l-6 -9l-2 -11l-2 -18v-11v-487q0 -19 4 -31t12.5 -18t28.5 -11q20 -3 66 -3h12l80 1q36 0 58.5 19t22.5 52v11l54 4l-6 -80l-2 -74h-480z" />
    <glyph glyph-name="M" unicode="M" horiz-adv-x="924" 
d="M15 43q27 6 36 22l6 21l5 24l82 521l2 23q0 8 -5.5 13.5t-19.5 6.5h-12l7 47h145l9 -51q3 -12 9 -28q3 -9 11 -28l57 -149l12 -31l64 -169l17 -59l2 -9l13 -73l6 36q1 6 4 15.5t10 26.5l23 62l57 132l67 156l6 16l33 76l5 20q0 13 -25 17l7 40h139l4 -54l5 -33l65 -540
q3 -28 8 -35q12 -12 37 -15l-3 -44h-173l6 41h5q32 0 32 27l-2 23l-43 399q-6 45 -6 108q-25 -75 -52 -136l-75 -181l-33 -77l-52 -130l-12 -34l-5 -16l-1 -24h-77l1 14q0 17 -2 22l-12 32l-36 97l-122 341l-17 48l-12 42l1 -23l-1 -18l-4 -38l-57 -396l-5 -26l-1 -12
q0 -39 44 -39l-5 -44h-176z" />
    <glyph glyph-name="N" unicode="N" horiz-adv-x="725" 
d="M37 43q29 0 40.5 15.5t11.5 53.5v507q0 64 -55 64l5 38h162q12 -37 26 -56l285 -431l27 -47l16 -44q-5 55 -5 96v378q0 32 -11.5 45.5t-44.5 13.5l5 45h195l-3 -43q-34 -7 -43.5 -20.5t-9.5 -56.5v-393v-103v-28.5t2 -26.5q0 -12 2.5 -24t6.5 -26h-81l-359 541l-23 38
l-16 39l4 -64l1 -66v-383l1 -28q1 -8 16 -20q14 -9 39 -9h6l-6 -48h-200z" />
    <glyph glyph-name="O" unicode="O" horiz-adv-x="704" 
d="M50 426q0 48 7 82q6 37 21.5 73.5t45.5 72.5t86 57q28 10 63.5 15t82.5 5q91 0 141 -18.5t93 -72t52 -112.5q2 -14 6.5 -46t4.5 -61l3 -59q0 -199 -68.5 -285t-230.5 -86q-92 0 -147.5 19.5t-98.5 70.5q-39 50 -50 113l-12 98l-3 70zM142 361v-24l5 -78
q12 -118 67.5 -162.5t137.5 -44.5q74 0 122.5 32.5t63 81t19 84t4.5 87.5l1 24l-1 25l-4 77q-3 36 -8 58t-15 44q-15 40 -57.5 72.5t-124.5 32.5q-73 0 -123 -33t-65 -81l-18 -82l-4 -88v-25z" />
    <glyph glyph-name="P" unicode="P" horiz-adv-x="552" 
d="M34 42h7q48 0 48 69v504v20q0 12 -4 20q-6 23 -46 23l7 43l63 -1h24t27 -2l89 1l80 3l15 1q96 0 149.5 -52t53.5 -148q0 -88 -35 -137.5t-68.5 -62t-65.5 -15.5t-107 -3l-23 -1l-70 1v-202v-32q0 -7 11 -18q9 -11 46 -11l-5 -42h-202zM178 373l92 -1h16h13q22 0 39 1
t28 4q29 5 58.5 32t29.5 112q0 71 -32 102q-30 32 -101 32h-93q-27 0 -39 -13q-5 -6 -8 -18t-3 -32v-219z" />
    <glyph glyph-name="Q" unicode="Q" horiz-adv-x="704" 
d="M485 -22q32 -12 35 -13q9 -5 19 -10l72 -39l-73 -46l-69 35l-70 36l-54 28l-54 28q-31 0 -44 2.5t-54 18t-80.5 62t-51.5 114.5l-12 101l-3 68l3 62q0 50 6 81.5t33.5 100.5t100.5 96q37 14 78 21t91 7q88 0 138.5 -18.5t93.5 -72t52 -113.5q2 -14 6.5 -46t4.5 -61l3 -59
q0 -79 -12 -153t-48.5 -119.5t-70.5 -61t-53.5 -20.5t-33 -5.5t-21.5 -0.5l36 -11zM142 361v-24l5 -78q12 -118 67.5 -162.5t137.5 -44.5q74 0 122.5 32.5t63 81t19 84t4.5 87.5l1 24l-1 25l-4 77q-3 36 -8 58t-15 44q-15 40 -57.5 72.5t-124.5 32.5q-73 0 -123 -33t-65 -81
l-18 -82l-4 -88v-25z" />
    <glyph glyph-name="R" unicode="R" horiz-adv-x="617" 
d="M37 45h12h8q5 2 7 2q8 3 17 11l6 16l2 35v503q0 23 -3 33t-12 16.5t-34 12.5l3 48h30t29 -2l56 -3h31l115 6h29q59 0 102 -11q46 -10 81.5 -57.5t35.5 -113.5q0 -71 -24 -106t-40 -50l-29 -21l-36 -16l129 -245l14 -27l12 -18q16 -14 36 -14h4l-3 -44h-130q0 29 -9 49
l-137 275l-64 -2l-44 -2l-52 1v-207q0 -69 56 -69l-6 -45h-195zM179 391l38 -3h35q74 0 104 7.5t67.5 40.5t37.5 98q0 66 -25 88t-52 28t-72 6q-66 0 -92 -6t-36 -23l-5 -16v-37v-183z" />
    <glyph glyph-name="S" unicode="S" horiz-adv-x="545" 
d="M94 166q0 -23 5 -36q2 -5 7 -14.5t10 -16.5q32 -40 139 -40q164 0 164 131q0 31 -10 60q-11 26 -37 42q-21 15 -78 32l-93 27q-149 45 -149 183q0 92 57.5 145t158.5 53q41 0 115 -10l57 -6l46 -2l-2 -57l1 -34l4 -45l-54 -2q0 41 -40 63t-115 22q-65 0 -103 -32t-38 -88
q0 -24 9.5 -46.5t25.5 -33t34 -18.5l34 -13l19 -6l105 -29q139 -39 139 -187q0 -105 -61 -161t-176 -56l-45 3l-47 3l-69 7l-37 1h-32l6 44l1 39l-1 37l-6 45z" />
    <glyph glyph-name="T" unicode="T" horiz-adv-x="537" 
d="M4 680l-1 41q19 0 58 -1t58 -1q18 0 59 -1t65 -1l33 1l133 2l128 3l-4 -65l-2 -72h-61l1 17q0 34 -11.5 43t-59.5 9h-91v-541v-29q0 -15 9 -24q12 -17 41 -17h5l-6 -44h-198l8 45h7q44 0 44 72v538h-94q-40 0 -51 -12q-9 -12 -13 -26l-3 -32h-58l2 51z" />
    <glyph glyph-name="U" unicode="U" horiz-adv-x="695" 
d="M34 721h203l-3 -42h-5q-56 0 -56 -63v-379l3 -55q0 -69 40.5 -98.5t134.5 -29.5q89 0 121.5 29.5t41.5 61.5q4 15 6 41t2 71v369q0 26 -11 36.5t-41 14.5l10 44h189l-6 -44q-51 0 -51 -62v-357q0 -98 -35 -184.5t-240 -86.5q-117 0 -168 34t-68.5 84.5t-17.5 145.5v361
l-1 24q0 15 -12.5 28.5t-43.5 13.5z" />
    <glyph glyph-name="V" unicode="V" horiz-adv-x="626" 
d="M-8 721h190l-7 -49h-13q-34 0 -34 -30l3 -18l148 -416l7 -25l7 -36l5 -31q9 47 27 94l159 407q6 13 8 25q0 12 -11 20q-9 9 -27 9l16 50h170l-4 -46q-22 -6 -32.5 -16.5t-24.5 -39.5l-207 -507l-8 -20l-12 -33l-16 -59h-78l-5 18l-5 22l-9 25l-3 15l-93 248l-31 83
l-74 213q-20 56 -46 56h-6z" />
    <glyph glyph-name="W" unicode="W" horiz-adv-x="964" 
d="M3 721h185l-2 -42l-17 -4q-34 -9 -34 -32l6 -31l90 -372l12 -50l14 -69l14 67l12 43l133 411l10 40l3 39h92l3 -47l9 -36l133 -425l12 -37l13 -56l5 33q2 15 5 22l11 42l109 402l3 23q0 37 -45 37l8 42h184l-2 -40q-21 -6 -33 -18q-11 -9 -21 -35l-78 -271l-74 -261
l-4 -15l-10 -45l-4 -36h-103l-6 37l-10 41l-133 402l-16 51q-3 14 -3 40l-10 -53l-13 -39l-133 -401q-5 -14 -8 -33t-3 -41v-5l-106 2q0 17 -5 35l-11 43l-70 269q-62 240 -74 275l-3 13l-8 17q-6 21 -32 21h-6z" />
    <glyph glyph-name="X" unicode="X" horiz-adv-x="643" 
d="M3 36l266 336l-190 258l-25 29l-15 16q-5 3 -18 3l6 43h201l-7 -41h-7q-14 0 -23 -8t-9 -20q0 -8 9 -26l132 -195l144 196q9 12 11 30q0 22 -38 26l6 38h170l-4 -36l-241 -306l220 -308q18 -27 47 -27h5l-5 -44h-201l4 37q41 0 41 21q0 19 -13 36l-155 220l-158 -209
q-20 -25 -20 -36q0 -7 5 -13l13 -11q5 -3 18 -5h11l-6 -40h-177z" />
    <glyph glyph-name="Y" unicode="Y" horiz-adv-x="543" 
d="M165 721l5 -43h-11q-9 0 -18.5 -6.5t-9.5 -16.5l1 -11l10 -17l3 -8l113 -206q14 -25 20 -66l1 25q2 10 7 19l13 24l103 204q9 18 11 30q0 26 -50 26l7 46h187l-1 -42q-31 -3 -47 -31l-187 -359v-179v-24q0 -42 51 -42l-5 -44h-197l3 44q35 0 46.5 14.5t11.5 56.5v173
l-205 366q-6 11 -10 14t-15 3h-12l-4 50h179z" />
    <glyph glyph-name="Z" unicode="Z" horiz-adv-x="583" 
d="M24 44l340 526l31 47l10 14l19 20h-51h-182l-43 -3q-17 -3 -25.5 -8.5t-14.5 -21t-11 -39.5h-56l12 73l9 69h477v-38l-19 -25l-13 -19l-27 -48l-278 -431l-31 -48l-14 -17l-24 -24h189h26h45q17 0 25 1.5t25 6.5q51 9 51 80v4h52l-8 -83l-4 -80h-510v44z" />
    <glyph glyph-name="bracketleft" unicode="[" horiz-adv-x="282" 
d="M89 765h180v-46h-95v-790h94v-46h-179v882z" />
    <glyph glyph-name="backslash" unicode="\" horiz-adv-x="321" 
d="M123 720l127 -720h-77l-126 720h76z" />
    <glyph glyph-name="bracketright" unicode="]" horiz-adv-x="282" 
d="M13 -72h95v791h-95v44h181v-881h-181v46z" />
    <glyph glyph-name="asciicircum" unicode="^" horiz-adv-x="347" 
d="M72 688l45 59h115l22 -27l22 -28l35 -47l36 -47h-73l-30 24l-22 21l-27 30l-22 26l-50 -54l-31 -28l-21 -19h-71z" />
    <glyph glyph-name="underscore" unicode="_" horiz-adv-x="491" 
d="M47 0h360v-30h-360v30z" />
    <glyph glyph-name="grave" unicode="`" horiz-adv-x="284" 
d="M129 746l19 -28l51 -74l31 -45h-67l-73 63l-41 36l-51 48h131z" />
    <glyph glyph-name="a" unicode="a" horiz-adv-x="575" 
d="M203 -10q-72 0 -116 45q-41 46 -41 126q0 95 57 144t158 49h140v45q0 52 -27.5 75.5t-88.5 23.5q-34 0 -47 -1.5t-33.5 -6t-47.5 -12t-71 -22.5l4 69l59 18l65 14q36 6 95 6q91 0 133 -35.5t42 -114.5v-265q0 -60 11.5 -83t41.5 -23l-4 -42h-106q-12 25 -18 46
q-5 23 -5 42l2 31q-45 -69 -91.5 -99t-111.5 -30zM402 286h-143q-43 0 -65 -8t-40.5 -36.5t-18.5 -81.5q0 -42 24 -69t63 -27q74 0 127 65t53 157z" />
    <glyph glyph-name="b" unicode="b" horiz-adv-x="618" 
d="M43 819l73 10h69l-7 -52l-2 -48v-317q84 156 214 156q87 0 134.5 -64t47.5 -185q0 -157 -66 -245t-185 -88q-54 0 -91 17l-27 15l-24 18l-23 28q-15 -35 -40 -64h-55l11 44l9 45l6 47l3 45v534v15q0 27 -10 37.5t-41 10.5zM176 308v-116l1 -36q0 -9 7 -23q3 -12 18 -30
q12 -15 46.5 -31t73.5 -16q73 0 116.5 67t43.5 180q0 86 -18 123t-41.5 52t-51.5 15q-102 0 -195 -185z" />
    <glyph glyph-name="c" unicode="c" horiz-adv-x="521" 
d="M466 497l3 -29l2 -30l-45 -6q-12 35 -42 53q-16 8 -36 12t-52 4q-81 0 -120.5 -53t-39.5 -165q0 -40 4 -72t13 -55q16 -44 51.5 -67.5t83.5 -23.5q47 0 86 19l23 12q20 14 46 40l41 -47l-25 -29l-51 -39q-42 -30 -138 -30q-107 0 -165.5 72.5t-58.5 206.5q0 142 59 219
t167 77q47 0 99 -7l51 -4l39 4z" />
    <glyph glyph-name="d" unicode="d" horiz-adv-x="616" 
d="M441 709q0 37 -9.5 51.5t-33.5 14.5h-7l3 44l71 10h70l-7 -56v-72v-545q0 -46 6 -68t17 -33q11 -8 33 -13l-5 -42h-110l-10 30q-4 18 -6 34.5t-2 37.5l3 44l-28 -45q-13 -23 -58.5 -67t-136.5 -44q-87 0 -136 66t-49 192q0 149 65 235t178 86q67 0 98 -20l37 -26l17 -19
v205zM441 241v132q0 59 -25.5 82.5t-55 35t-58.5 11.5q-38 0 -71.5 -19.5t-64 -66t-30.5 -161.5q0 -186 112 -186q108 0 193 172z" />
    <glyph glyph-name="e" unicode="e" horiz-adv-x="539" 
d="M135 277l-1 -27q0 -93 39 -142.5t109 -49.5q29 0 48.5 4t42.5 16q40 20 72 65l48 -41q-14 -21 -27 -35.5t-55 -47.5t-143 -33q-222 0 -222 281q0 132 57.5 216.5t190.5 84.5q99 0 150 -63.5t51 -190.5l-1 -37h-359zM137 339h269l2 23q0 65 -36 107t-94 42
q-62 0 -101.5 -45.5t-39.5 -126.5z" />
    <glyph glyph-name="f" unicode="f" horiz-adv-x="297" 
d="M27 555h71v75q0 110 41.5 146.5t77 46t98.5 9.5h33l-12 -70l-53 3q-58 0 -78 -15.5t-20 -64.5v-130h125l-4 -63h-121v-376l-1 -37q0 -15 15.5 -24.5t43.5 -9.5l-7 -45h-200l7 44h12q7 0 14 2t14 7q15 14 15 64v375h-79z" />
    <glyph glyph-name="g" unicode="g" horiz-adv-x="557" 
d="M132 -65q-12 -15 -18.5 -29.5t-6.5 -33.5q0 -98 155 -98q72 0 115.5 28t43.5 75q0 86 -107 86l-73 2q-56 0 -94.5 30t-38.5 73q0 24 12 39t34 31l55 33q-31 0 -46 4t-70 37t-55 145q0 91 63.5 148.5t166.5 57.5q45 0 74 -6.5t70 -25.5l135 16l-5 -52l-80 -20l19 -27
q27 -39 27 -100q0 -84 -58 -138q-29 -26 -66 -39t-86 -13l-22 1l-65 -52q-19 -16 -19 -32q0 -33 59 -33q32 0 56 -1t39 -4q29 -3 92 -26.5t63 -124.5q0 -84 -64 -133t-174 -49q-109 0 -172 41t-63 112q0 17 3 28t5.5 19t6.5 16l16 26l29 25zM128 359q0 -64 42 -102t110 -38
q52 0 97 30t45 110q0 66 -37.5 103t-107.5 37q-69 0 -109 -37t-40 -103z" />
    <glyph glyph-name="h" unicode="h" horiz-adv-x="616" 
d="M49 40q22 3 31 12.5t9 36.5v31v582v31v11q0 7 -1.5 14t-8.5 13q-15 9 -29 11h-8l6 37l70 10h67q-4 -17 -7 -38.5t-3 -41.5v-371l21 34q14 22 35.5 49.5t45.5 51.5q48 50 127 50q65 0 100 -35q13 -16 18.5 -38.5t5.5 -67.5v-320l1 -26q0 -17 6 -26q6 -6 41 -10l-6 -40
h-181l5 41q28 0 36 10.5t10 19.5l1 39v289v45q0 21 -14 33.5t-38 12.5q-46 0 -99 -53.5t-115 -166.5v-156q0 -38 6 -50q9 -23 35 -23h8l-3 -41h-179z" />
    <glyph glyph-name="i" unicode="i" horiz-adv-x="272" 
d="M38 546l84 9h68l-5 -62l-1 -68v-306v-34q0 -17 11 -28q11 -9 41 -14l-6 -43h-196l4 42q39 5 49 17.5t10 54.5v320l-1 34q-3 24 -41 30l-20 4zM72 663q0 70 83 70q56 0 56 -38q0 -72 -83 -72q-56 0 -56 40z" />
    <glyph glyph-name="j" unicode="j" horiz-adv-x="252" 
d="M22 546l90 9h65l-5 -51v-93v-419v-15v-12q0 -20 -1 -38t-4 -33q-5 -39 -17 -66q-12 -37 -34 -60q-20 -23 -34 -33l-41 -26l-24 32q21 18 34 39t18.5 36t10.5 60l4 78v481v19q0 16 -6.5 33.5t-53.5 17.5l-9 -1zM52 663q0 70 81 70q56 0 56 -38q0 -72 -82 -72q-55 0 -55 40
z" />
    <glyph glyph-name="k" unicode="k" horiz-adv-x="529" 
d="M35 42q30 0 40 10.5t13 21.5l2 44v593q0 35 -5 50q-3 17 -43 17l-8 -1l6 42l77 10h70l-8 -54l-3 -42l-1 -59v-377l149 156q22 25 22 37q0 6 -11.5 12t-27.5 6h-5l8 47h201l-5 -47l-20 -3q-31 -12 -55 -38l-157 -165l212 -233q9 -10 19 -16l29 -11l-9 -42h-110l-13 21
l-12 16l-215 244l1 -164v-35q0 -40 49 -40l10 1l-7 -43h-200z" />
    <glyph glyph-name="l" unicode="l" horiz-adv-x="267" 
d="M24 819l94 10h68l-7 -59l-2 -79v-576q0 -44 11.5 -58t40.5 -14h8l-3 -43h-207l8 43l23 5q19 4 25.5 13t6.5 35l1 24v582q0 41 -14.5 61t-46.5 20h-12z" />
    <glyph glyph-name="m" unicode="m" horiz-adv-x="930" 
d="M39 43l16 -1q20 0 31 12q5 3 6 10q3 6 3 14v31v335q0 33 -9.5 45.5t-40.5 12.5h-5l3 44l81 10h58l-3 -34l-1 -30v-100q62 103 106 138t113 35q110 0 110 -110l1 -57q39 88 88 129.5t116 41.5q61 0 95.5 -33.5t34.5 -94.5v-325v-28q0 -45 48 -45h7l-3 -43h-203l4 43
q39 0 50 14t11 62v290q0 31 -5 44q-3 17 -18 27.5t-35 10.5q-14 0 -38.5 -9.5t-41.5 -22.5t-31 -30q-5 -6 -16 -24q-26 -41 -28 -45l-33 -56v-202q0 -37 12 -48t47 -11l-3 -43h-209l6 40q19 0 29.5 3t19.5 12q7 9 10 17l2 33v313q0 28 -8 48q-6 22 -45 22q-43 0 -89 -44
t-100 -142v-183q0 -44 9.5 -61t36.5 -17l12 1l-5 -42h-199z" />
    <glyph glyph-name="n" unicode="n" horiz-adv-x="624" 
d="M51 40q24 0 34.5 11.5t10.5 36.5v32v307v16v11v24l-5 13q-1 4 -13 10q-9 6 -21 6h-7l5 39l69 10h66q-9 -39 -9 -81v-99l20 36q17 26 33.5 47.5t34.5 39.5q33 34 66 50q33 14 75 14q68 0 91 -26q23 -23 28.5 -46.5t5.5 -68.5v-320v-31q0 -13 8 -22q6 -9 40 -9l-7 -40h-181
l5 41q29 0 36.5 10.5t10.5 20.5l2 38v289l-1 45q0 46 -53 46q-33 0 -60 -18.5t-74 -77.5l-44 -59l-34 -59v-164v-27q0 -20 11 -32t31 -12h9l-5 -41h-185z" />
    <glyph glyph-name="o" unicode="o" horiz-adv-x="589" 
d="M91 478q52 88 201 88q88 0 139.5 -24.5t81 -94.5t29.5 -171q0 -117 -48 -200.5t-200 -83.5q-41 0 -74 6t-61 20q-54 27 -83.5 94t-29.5 166q0 56 12 107.5t33 92.5zM139 280q0 -111 37 -164q18 -26 47 -39t71 -13q113 0 130.5 57.5t21.5 94.5l4 73q0 207 -155 207
q-80 0 -118 -51t-38 -165z" />
    <glyph glyph-name="p" unicode="p" horiz-adv-x="622" 
d="M35 546l82 10h68l-9 -61l-2 -59v-24l22 38q14 21 30.5 39t35.5 33q56 48 132 48q87 0 134 -67.5t47 -196.5q0 -112 -49 -212t-203 -100q-50 0 -80 12q-26 12 -68 55v-205v-31q0 -14 8 -31.5t48 -17.5h14l-7 -50h-15q-4 0 -12 1t-13 1h-15q-7 0 -15.5 1t-13.5 1l-44 -2
l-42 -2l9 46l5 37l5 57l2 64v489v12l-1 32q-5 44 -48 44l-10 -1zM173 293v-82q0 -69 39.5 -107.5t109.5 -38.5q159 0 159 247q0 111 -36 147q-29 32 -74 32q-54 0 -100 -45.5t-98 -152.5z" />
    <glyph glyph-name="q" unicode="q" horiz-adv-x="605" 
d="M474 522q4 9 7.5 16t12.5 17h47q-17 -114 -17 -180v-513q0 -52 14 -70q18 -20 64 -20l-7 -44l-60 2q-47 0 -112 -9l11 68l4 77v267l-30 -43q-7 -10 -39 -44q-27 -29 -61.5 -45t-77.5 -16q-184 0 -184 255q0 156 63 240t181 84q41 0 66.5 -6.5t48.5 -21.5q21 -12 29 -23
q7 -7 23 -34l7 22q3 12 10 21zM438 255v76q0 69 -25 115t-115 46q-164 0 -164 -242q0 -113 33.5 -149.5t77.5 -36.5q57 0 109.5 52t83.5 139z" />
    <glyph glyph-name="r" unicode="r" horiz-adv-x="377" 
d="M41 45l30 4q10 2 15.5 7.5t8.5 18.5l2 45v314q0 43 -9.5 57.5t-36.5 14.5l-14 -2l4 42l84 10h58v-28l-1 -27l-3 -48l-1 -49l20 53q8 18 30 50q22 29 44 42q26 13 61 13q28 0 58 -10l-12 -76l-36 4q-44 0 -76.5 -25.5t-50.5 -73.5l-17 -52l-15 -35v-173q0 -45 10 -56
q15 -20 49 -20h8l-5 -45h-214z" />
    <glyph glyph-name="s" unicode="s" horiz-adv-x="471" 
d="M93 151v-5q0 -46 33.5 -71.5t95.5 -25.5q57 0 90 27t33 78q0 69 -88 94l-87 22q-64 16 -94.5 49.5t-30.5 86.5q0 27 9.5 55t38 66t147.5 38l37 -1q23 0 40 -4l59 -8l43 -2l-2 -80l1 -44h-54v5q0 32 -32.5 54t-86.5 22q-117 0 -117 -86q0 -33 9.5 -45.5t25.5 -18.5l88 -22
q74 -15 126.5 -41.5t52.5 -120.5q0 -184 -202 -184q-38 0 -77 6l-62 9l-48 6l1 66l-1 69z" />
    <glyph glyph-name="t" unicode="t" horiz-adv-x="352" 
d="M29 555h62l11 124l75 22v-146h165l-9 -63h-156v-344l1 -45q0 -45 53 -45q27 0 47.5 9t46.5 34l37 -34l-21 -27q-3 -4 -12.5 -11.5t-25.5 -18.5q-30 -21 -91 -21q-79 0 -107 47q-9 14 -12 30l-2 71v355h-68z" />
    <glyph glyph-name="u" unicode="u" horiz-adv-x="618" 
d="M42 546l77 9h68l-8 -54l-1 -47v-316q0 -34 6.5 -54.5t55.5 -20.5q22 0 36.5 4t30.5 16q27 20 71 79l19 27l24 41l23 46v165q0 32 -4 41q-6 20 -51 20h-8l6 44l84 9h66l-4 -40l-2 -98v-300l1 -35q0 -7 9.5 -22t40.5 -15l-5 -45h-122l-4 38l-4 40l-1 34l4 67
q-25 -52 -57.5 -97t-74 -70t-95.5 -25q-67 0 -92 21t-32 46q-3 13 -5 31.5t-2 45.5v309q0 38 -6.5 47t-36.5 14l-14 2z" />
    <glyph glyph-name="v" unicode="v" horiz-adv-x="542" 
d="M1 555h180l-5 -35q-39 0 -39 -31q0 -17 5 -31l12 -35l47 -128l43 -120l11 -30l7 -27l6 -28l5 26l9 28l12 31l20 54l25 70l34 91l31 76l1 4l3 14q0 36 -42 36l6 35h177l-4 -36q-16 0 -24 -6t-19 -29l-51 -116l-29 -75l-51 -131l-35 -82l-15 -34l-12 -46h-96l-3 27t-5 16
l-17 46l-63 172l-18 48l-62 156l-13 29q-6 15 -40 21z" />
    <glyph glyph-name="w" unicode="w" horiz-adv-x="818" 
d="M3 555h199l-4 -43q-31 0 -42 -8t-11 -29l1 -11l70 -283l9 -29l9 -38l11 40l12 29l52 146l25 71l31 88l9 34l4 33h58l3 -11l6 -30l6 -22l14 -49q7 -29 36 -107l47 -140l9 -23l8 -31l4 -12l7 -24l5 19l4 19l9 32l72 278l2 17q0 27 -39 36l3 48h187l-3 -48q-23 0 -36.5 -11
t-22.5 -40l-27 -88l-27 -94l-25 -99l-24 -96l-8 -40l-1 -8q0 -8 0.5 -12.5t4.5 -18.5h-113l-7 34l-12 30l-97 282l-9 25l-7 27l-6 -28l-10 -26l-104 -286l-10 -28l-3 -30h-96l-4 31l-2 11l-5 19l-58 202l-39 138l-19 70l-10 26q-2 7 -12.5 11t-27.5 6z" />
    <glyph glyph-name="x" unicode="x" horiz-adv-x="562" 
d="M4 41q25 0 52 34l163 203l-162 204l-20 23l-16 4l-13 -1l6 47h192l-4 -41h-6q-27 0 -27 -20q0 -9 16 -32l97 -128l95 123q12 14 13 29q0 26 -34 26l7 43h184l-6 -46q-17 0 -24.5 -4t-22.5 -22l-160 -193l174 -220q20 -22 54 -27l-4 -43h-198l4 36q20 0 27.5 3t8.5 14
q0 13 -9 24l-120 157l-99 -137l-13 -16q-5 -8 -7 -16q0 -9 11 -16.5t27 -9.5h6l-5 -39h-191z" />
    <glyph glyph-name="y" unicode="y" horiz-adv-x="546" 
d="M0 555h182l-5 -41q-41 0 -41 -32q0 -14 7 -29l21 -59l33 -82l29 -74l33 -92l5 -13l11 -50l7 32l12 39l58 152l33 91l15 52l5 29l1 6q0 30 -44 30h-5l6 41h191l-6 -40q-20 -5 -27 -10.5t-18 -27.5l-13 -27l-23 -56l-118 -315q-8 -21 -19 -48q-18 -44 -40 -90
q-30 -68 -105 -215h-102l41 66l37 62l28 49l43 85l-29 78l-102 258l-36 90l-25 62l-12 26q-5 13 -36 13z" />
    <glyph glyph-name="z" unicode="z" horiz-adv-x="512" 
d="M42 63l24 30l26 35l227 313l17 24l8 8l16 11h-170q-47 0 -63.5 -9.5t-25.5 -42.5h-46l13 60l8 63l119 -3l76 -2l98 2l92 3l24 -36l-20 -20l-20 -21l-43 -60l-199 -280l-30 -41q-3 -3 -12 -11.5t-17 -15.5l170 2l44 1q15 2 28 7.5t23 21t18 46.5h44l-6 -39l-6 -39l-6 -39
l-7 -39l-60 7l-77 1h-266l-22 37z" />
    <glyph glyph-name="braceleft" unicode="{" horiz-adv-x="342" 
d="M110 432v330q0 71 81 71h78v-45h-12q-33 0 -45.5 -11.5t-12.5 -46.5v-290q0 -31 -19.5 -53t-51.5 -27q31 -3 51 -26t20 -54v-290q0 -35 11.5 -46.5t46.5 -11.5h12v-45h-78q-81 0 -81 71v330q0 30 -17.5 51t-45.5 21q28 0 45.5 20t17.5 52z" />
    <glyph glyph-name="bar" unicode="|" horiz-adv-x="184" 
d="M47 720h76v-720h-76v720z" />
    <glyph glyph-name="braceright" unicode="}" horiz-adv-x="342" 
d="M47 -68h12q34 0 46 11.5t12 46.5v290q0 31 19.5 53t51.5 27q-31 3 -51 26t-20 54v290q0 34 -11.5 46t-46.5 12h-12v45h78q81 0 81 -71v-330q0 -31 17.5 -51.5t45.5 -20.5q-28 0 -45.5 -20t-17.5 -52v-330q0 -71 -81 -71h-78v45z" />
    <glyph glyph-name="asciitilde" unicode="~" horiz-adv-x="349" 
d="M84 885q11 0 16 -2l29 -7l87 -28q8 -3 25 -5q27 0 42 39l66 -23q-33 -98 -91 -98q-14 0 -21 1t-21 7l-92 32l-21 4q-17 0 -38 -41l-65 22q9 41 34 70t50 29z" />
    <glyph glyph-name="c128" horiz-adv-x="660" 
d="M571 500h-513l-30 -74h519zM643 720h-76l-89 7q-26 4 -48.5 5.5t-40.5 1.5q-140 0 -212 -100.5t-72 -290.5q0 -164 53 -238q54 -72 103 -93t128 -21q103 0 156 33q51 32 85 72l-48 47q-42 -43 -79.5 -60.5t-89.5 -17.5q-56 0 -95.5 16.5t-65 51.5t-37.5 89.5t-12 131.5
q0 162 53 235t166 73q73 0 106 -21q4 -2 11.5 -7t7.5 -13q0 -13 -18 -49l60 -1l34 91zM537 380h-466l-29 -74h471z" />
    <glyph glyph-name="c128" unicode="&#x20ac;" horiz-adv-x="660" 
d="M571 500h-513l-30 -74h519zM643 720h-76l-89 7q-26 4 -48.5 5.5t-40.5 1.5q-140 0 -212 -100.5t-72 -290.5q0 -164 53 -238q54 -72 103 -93t128 -21q103 0 156 33q51 32 85 72l-48 47q-42 -43 -79.5 -60.5t-89.5 -17.5q-56 0 -95.5 16.5t-65 51.5t-37.5 89.5t-12 131.5
q0 162 53 235t166 73q73 0 106 -21q4 -2 11.5 -7t7.5 -13q0 -13 -18 -49l60 -1l34 91zM537 380h-466l-29 -74h471z" />
    <glyph glyph-name="quotesinglbase" horiz-adv-x="222" 
d="M41 -162l29 37q8 11 19 34l16 38l11 49l-20 -2q-57 0 -57 42q0 71 80 71q35 0 49 -14t14 -51l-4 -38q-2 -15 -3.5 -23.5t-4 -15t-3.5 -12t-5 -12.5q-2 -8 -4 -13t-9 -17q-11 -24 -25.5 -45.5t-48.5 -56.5z" />
    <glyph glyph-name="quotesinglbase" unicode="&#x201a;" horiz-adv-x="222" 
d="M41 -162l29 37q8 11 19 34l16 38l11 49l-20 -2q-57 0 -57 42q0 71 80 71q35 0 49 -14t14 -51l-4 -38q-2 -15 -3.5 -23.5t-4 -15t-3.5 -12t-5 -12.5q-2 -8 -4 -13t-9 -17q-11 -24 -25.5 -45.5t-48.5 -56.5z" />
    <glyph glyph-name="florin" horiz-adv-x="381" 
d="M-64 -219l65 -2q50 0 70.5 17.5t20.5 68.5l32 629h-79l10 61h73l4 77q0 36 12 69t37 66.5t61 40.5l44 8l38 1l70 1l-16 -71l-46 2q-72 0 -84 -12.5t-19 -33.5t-7 -41l-6 -107h125l-9 -58h-119l-31 -595q0 -39 -15 -75q-13 -35 -39 -64.5t-61 -40.5q-37 -10 -108 -10
l-38 2z" />
    <glyph glyph-name="florin" unicode="&#x192;" horiz-adv-x="381" 
d="M-64 -219l65 -2q50 0 70.5 17.5t20.5 68.5l32 629h-79l10 61h73l4 77q0 36 12 69t37 66.5t61 40.5l44 8l38 1l70 1l-16 -71l-46 2q-72 0 -84 -12.5t-19 -33.5t-7 -41l-6 -107h125l-9 -58h-119l-31 -595q0 -39 -15 -75q-13 -35 -39 -64.5t-61 -40.5q-37 -10 -108 -10
l-38 2z" />
    <glyph glyph-name="quotedblbase" horiz-adv-x="398" 
d="M41 -162l29 37q8 11 19 34l16 38l11 49l-20 -2q-57 0 -57 42q0 71 80 71q35 0 49 -14t14 -51l-4 -38q-2 -15 -3.5 -23.5t-4 -15t-3.5 -12t-5 -12.5q-2 -8 -4 -13t-9 -17q-11 -24 -25.5 -45.5t-48.5 -56.5zM217 -162q23 26 30 38q10 13 17.5 30t14.5 40l12 50l-19 -2
q-29 0 -44 9q-13 10 -13 33q0 71 80 71q35 0 49 -14t14 -51l-4 -37q-3 -28 -11 -48q-4 -15 -7 -23t-11 -23.5t-13.5 -25.5t-13.5 -21q-15 -21 -47 -55z" />
    <glyph glyph-name="quotedblbase" unicode="&#x201e;" horiz-adv-x="398" 
d="M41 -162l29 37q8 11 19 34l16 38l11 49l-20 -2q-57 0 -57 42q0 71 80 71q35 0 49 -14t14 -51l-4 -38q-2 -15 -3.5 -23.5t-4 -15t-3.5 -12t-5 -12.5q-2 -8 -4 -13t-9 -17q-11 -24 -25.5 -45.5t-48.5 -56.5zM217 -162q23 26 30 38q10 13 17.5 30t14.5 40l12 50l-19 -2
q-29 0 -44 9q-13 10 -13 33q0 71 80 71q35 0 49 -14t14 -51l-4 -37q-3 -28 -11 -48q-4 -15 -7 -23t-11 -23.5t-13.5 -25.5t-13.5 -21q-15 -21 -47 -55z" />
    <glyph glyph-name="ellipsis" unicode="&#x85;" horiz-adv-x="996" 
d="M167 116q27 0 45 -18t18 -45t-18 -45t-45 -18t-45 18t-18 45t18 45t45 18zM500 116q27 0 45 -18t18 -45t-18 -45t-45 -18t-45 18t-18 45t18 45t45 18zM833 116q27 0 45 -18t18 -45t-18 -45t-45 -18t-45 18t-18 45t18 45t45 18z" />
    <glyph glyph-name="ellipsis" unicode="&#x2026;" horiz-adv-x="996" 
d="M167 116q27 0 45 -18t18 -45t-18 -45t-45 -18t-45 18t-18 45t18 45t45 18zM500 116q27 0 45 -18t18 -45t-18 -45t-45 -18t-45 18t-18 45t18 45t45 18zM833 116q27 0 45 -18t18 -45t-18 -45t-45 -18t-45 18t-18 45t18 45t45 18z" />
    <glyph glyph-name="dagger" horiz-adv-x="543" 
d="M34 495h44h47h27t37 -4l51 -5v12q0 44 -4 76l-7 67l-4 49l-9 75h113l-9 -76l-2 -50l-7 -154l60 3l41 4l97 4v-81l-48 -1l-44 1l-52 3l-51 6q0 -26 2 -36l6 -39l6 -34l6 -20l-13 -137l-5 -120l-4 -117l-4 -145h-55l-13 258l-21 259l15 68l4 30l3 34l-56 -6l-57 -2l-44 -2
l-50 1v79z" />
    <glyph glyph-name="dagger" unicode="&#x2020;" horiz-adv-x="543" 
d="M34 495h44h47h27t37 -4l51 -5v12q0 44 -4 76l-7 67l-4 49l-9 75h113l-9 -76l-2 -50l-7 -154l60 3l41 4l97 4v-81l-48 -1l-44 1l-52 3l-51 6q0 -26 2 -36l6 -39l6 -34l6 -20l-13 -137l-5 -120l-4 -117l-4 -145h-55l-13 258l-21 259l15 68l4 30l3 34l-56 -6l-57 -2l-44 -2
l-50 1v79z" />
    <glyph glyph-name="daggerdbl" horiz-adv-x="543" 
d="M82 210h43l50 -3l53 -2l-3 49l-4 43l9 43l8 33l11 55l-67 -6l-58 -1l-43 2l-44 2l2 69l103 -2l106 -7l-13 171l-11 107l107 1l-7 -51q-6 -42 -6 -68l-4 -72l-4 -91l51 2l100 5l48 1v-73l-51 -1l-45 1l-52 3l-47 7l4 -59q3 -26 15 -67l-8 -48l-4 -50l49 5l88 2l49 -1v-73
l-52 -1l-45 1q-41 0 -61 3l-34 4l-9 -147l-4 -90l-3 -123h-45q0 18 -2.5 60.5t-2.5 58.5l-5 89q0 30 -2 48t-3 28l-7 77l-51 -3l-99 -3h-48v72h48z" />
    <glyph glyph-name="daggerdbl" unicode="&#x2021;" horiz-adv-x="543" 
d="M82 210h43l50 -3l53 -2l-3 49l-4 43l9 43l8 33l11 55l-67 -6l-58 -1l-43 2l-44 2l2 69l103 -2l106 -7l-13 171l-11 107l107 1l-7 -51q-6 -42 -6 -68l-4 -72l-4 -91l51 2l100 5l48 1v-73l-51 -1l-45 1l-52 3l-47 7l4 -59q3 -26 15 -67l-8 -48l-4 -50l49 5l88 2l49 -1v-73
l-52 -1l-45 1q-41 0 -61 3l-34 4l-9 -147l-4 -90l-3 -123h-45q0 18 -2.5 60.5t-2.5 58.5l-5 89q0 30 -2 48t-3 28l-7 77l-51 -3l-99 -3h-48v72h48z" />
    <glyph glyph-name="perthousand" horiz-adv-x="1149" 
d="M520 721h70l-342 -721h-72zM50 651q24 109 147 109q81 0 119 -46.5t38 -150.5t-37 -150.5t-120 -46.5q-81 0 -119 47t-38 148v22t2 24q0 20 8 44zM441 278q24 109 147 109q81 0 119 -46.5t38 -149.5q0 -104 -37.5 -150.5t-119.5 -46.5t-120 47t-38 147l3 44
q2 18 3.5 25.5t4.5 20.5zM805 277q13 55 49 82t98 27q83 0 120 -46.5t37 -150.5t-37 -150.5t-118 -46.5q-82 0 -120 47t-38 148v22.5t2 22.5zM501 195v-4q0 -66 22 -103t62 -37q92 0 92 143q0 64 -23 99.5t-64 35.5q-89 0 -89 -134zM109 568v-4q0 -67 23 -103.5t63 -36.5
q90 0 90 142q0 63 -23 99.5t-62 36.5q-43 0 -67 -34.5t-24 -99.5zM865 195v-5q0 -66 22.5 -102.5t62.5 -36.5q91 0 91 141q0 64 -23 100.5t-62 36.5q-91 0 -91 -134z" />
    <glyph glyph-name="perthousand" unicode="&#x2030;" horiz-adv-x="1149" 
d="M520 721h70l-342 -721h-72zM50 651q24 109 147 109q81 0 119 -46.5t38 -150.5t-37 -150.5t-120 -46.5q-81 0 -119 47t-38 148v22t2 24q0 20 8 44zM441 278q24 109 147 109q81 0 119 -46.5t38 -149.5q0 -104 -37.5 -150.5t-119.5 -46.5t-120 47t-38 147l3 44
q2 18 3.5 25.5t4.5 20.5zM805 277q13 55 49 82t98 27q83 0 120 -46.5t37 -150.5t-37 -150.5t-118 -46.5q-82 0 -120 47t-38 148v22.5t2 22.5zM501 195v-4q0 -66 22 -103t62 -37q92 0 92 143q0 64 -23 99.5t-64 35.5q-89 0 -89 -134zM109 568v-4q0 -67 23 -103.5t63 -36.5
q90 0 90 142q0 63 -23 99.5t-62 36.5q-43 0 -67 -34.5t-24 -99.5zM865 195v-5q0 -66 22.5 -102.5t62.5 -36.5q91 0 91 141q0 64 -23 100.5t-62 36.5q-91 0 -91 -134z" />
    <glyph glyph-name="guilsinglleft" horiz-adv-x="265" 
d="M96 388l27 59l26 59h75l-29 -60l-23 -52l-26 -70l-20 -58l24 -54l28 -59q9 -19 21 -41t32 -56h-79l-50 96l-68 114l34 64z" />
    <glyph glyph-name="guilsinglleft" unicode="&#x2039;" horiz-adv-x="265" 
d="M96 388l27 59l26 59h75l-29 -60l-23 -52l-26 -70l-20 -58l24 -54l28 -59q9 -19 21 -41t32 -56h-79l-50 96l-68 114l34 64z" />
    <glyph glyph-name="OE" horiz-adv-x="932" 
d="M378 0q-103 0 -149.5 9.5t-114.5 65.5t-68 273q0 60 10.5 119.5t34.5 118t87.5 97.5t153.5 39h6l127 -1h95h308l3 -62l7 -74h-60v13q0 27 -16.5 40t-51.5 13h-123q-39 0 -54 -8t-15 -28v-31v-172h258l-3 -68h-255v-211q0 -36 15.5 -50.5t63.5 -14.5l105 1q102 0 102 75
h53l-5 -65l-1 -66v-13h-513zM469 154v421q0 50 -18.5 65t-82.5 15q-143 0 -186 -80.5t-43 -218.5q0 -144 35.5 -197.5t70.5 -74.5q38 -19 78 -19l58 -1q37 0 50.5 3t24.5 15.5t12 26.5z" />
    <glyph glyph-name="OE" unicode="&#x152;" horiz-adv-x="932" 
d="M378 0q-103 0 -149.5 9.5t-114.5 65.5t-68 273q0 60 10.5 119.5t34.5 118t87.5 97.5t153.5 39h6l127 -1h95h308l3 -62l7 -74h-60v13q0 27 -16.5 40t-51.5 13h-123q-39 0 -54 -8t-15 -28v-31v-172h258l-3 -68h-255v-211q0 -36 15.5 -50.5t63.5 -14.5l105 1q102 0 102 75
h53l-5 -65l-1 -66v-13h-513zM469 154v421q0 50 -18.5 65t-82.5 15q-143 0 -186 -80.5t-43 -218.5q0 -144 35.5 -197.5t70.5 -74.5q38 -19 78 -19l58 -1q37 0 50.5 3t24.5 15.5t12 26.5z" />
    <glyph glyph-name="quoteleft" horiz-adv-x="222" 
d="M181 706q-33 -39 -46 -65l-17 -45l-11 -48l19 1q57 0 57 -41q0 -37 -19 -54.5t-61 -17.5q-35 0 -49 14t-14 51l4 38q3 25 9 43l7 22l14 31q13 30 26 45q6 9 17.5 22.5t29.5 31.5z" />
    <glyph glyph-name="quoteleft" unicode="&#x2018;" horiz-adv-x="222" 
d="M181 706q-33 -39 -46 -65l-17 -45l-11 -48l19 1q57 0 57 -41q0 -37 -19 -54.5t-61 -17.5q-35 0 -49 14t-14 51l4 38q3 25 9 43l7 22l14 31q13 30 26 45q6 9 17.5 22.5t29.5 31.5z" />
    <glyph glyph-name="quoteright" horiz-adv-x="222" 
d="M41 459l30 37l18 34l16 39l11 48l-20 -1q-57 0 -57 42q0 72 80 72q35 0 49 -14t14 -51l-4 -38q-3 -25 -10 -43l-9 -28l-13 -30q-10 -23 -22 -39.5t-49 -55.5z" />
    <glyph glyph-name="quoteright" unicode="&#x2019;" horiz-adv-x="222" 
d="M41 459l30 37l18 34l16 39l11 48l-20 -1q-57 0 -57 42q0 72 80 72q35 0 49 -14t14 -51l-4 -38q-3 -25 -10 -43l-9 -28l-13 -30q-10 -23 -22 -39.5t-49 -55.5z" />
    <glyph glyph-name="quotedblleft" horiz-adv-x="398" 
d="M357 702q-23 -26 -30 -38q-9 -12 -21 -39t-23 -81l19 2q57 0 57 -42q0 -37 -19 -54.5t-61 -17.5q-35 0 -49 14t-14 51l4 37q3 24 9 44l9 27l11 23q20 45 74 103zM181 702l-30 -40l-19 -33l-14 -35l-11 -50l18 2q58 0 58 -42q0 -37 -19 -54.5t-61 -17.5q-35 0 -49 14
t-14 51l4 37q2 17 3.5 25t5.5 22.5t10 24.5l14 32l22 37l48 56z" />
    <glyph glyph-name="quotedblleft" unicode="&#x201c;" horiz-adv-x="398" 
d="M357 702q-23 -26 -30 -38q-9 -12 -21 -39t-23 -81l19 2q57 0 57 -42q0 -37 -19 -54.5t-61 -17.5q-35 0 -49 14t-14 51l4 37q3 24 9 44l9 27l11 23q20 45 74 103zM181 702l-30 -40l-19 -33l-14 -35l-11 -50l18 2q58 0 58 -42q0 -37 -19 -54.5t-61 -17.5q-35 0 -49 14
t-14 51l4 37q2 17 3.5 25t5.5 22.5t10 24.5l14 32l22 37l48 56z" />
    <glyph glyph-name="quotedblright" horiz-adv-x="398" 
d="M41 458l30 37l18 34l16 39l11 48l-20 -1q-57 0 -57 42q0 37 19 54.5t62 17.5q34 0 48 -14.5t14 -50.5l-4 -38q-3 -25 -10 -43l-9 -28l-10 -22q-10 -23 -26 -45.5t-48 -57.5zM217 458l30 39l22 40q11 23 22 79l-19 -1q-29 0 -44 9q-13 10 -13 32q0 73 80 73q35 0 49 -14
t14 -51l-4 -38q-3 -25 -10 -43l-9 -28l-13 -30q-8 -18 -24 -40q-5 -7 -18 -22q-17 -20 -29 -33z" />
    <glyph glyph-name="quotedblright" unicode="&#x201d;" horiz-adv-x="398" 
d="M41 458l30 37l18 34l16 39l11 48l-20 -1q-57 0 -57 42q0 37 19 54.5t62 17.5q34 0 48 -14.5t14 -50.5l-4 -38q-3 -25 -10 -43l-9 -28l-10 -22q-10 -23 -26 -45.5t-48 -57.5zM217 458l30 39l22 40q11 23 22 79l-19 -1q-29 0 -44 9q-13 10 -13 32q0 73 80 73q35 0 49 -14
t14 -51l-4 -38q-3 -25 -10 -43l-9 -28l-13 -30q-8 -18 -24 -40q-5 -7 -18 -22q-17 -20 -29 -33z" />
    <glyph glyph-name="bullet" horiz-adv-x="215" 
d="M117 387q60 0 60 -42q0 -38 -19 -54t-64 -16q-28 0 -41 9t-13 34q0 69 77 69z" />
    <glyph glyph-name="bullet" unicode="&#x2022;" horiz-adv-x="215" 
d="M117 387q60 0 60 -42q0 -38 -19 -54t-64 -16q-28 0 -41 9t-13 34q0 69 77 69z" />
    <glyph glyph-name="endash" 
d="M36 389h514v-80h-514v80z" />
    <glyph glyph-name="endash" unicode="&#x2013;" 
d="M36 389h514v-80h-514v80z" />
    <glyph glyph-name="emdash" horiz-adv-x="996" 
d="M30 405h936v-74h-936v74z" />
    <glyph glyph-name="emdash" unicode="&#x2014;" horiz-adv-x="996" 
d="M30 405h936v-74h-936v74z" />
    <glyph glyph-name="trademark" horiz-adv-x="788" 
d="M47 720h217v-50h-81v-310h-56v310h-80v50zM321 729h30l100 -228l12 -34l4 -29q0 31 16 63l100 228h30l69 -369h-56l-36 210l-2 11l-1 9v18l1 17l-10 -35l-5 -13l-1 -5l-95 -220h-20l-95 220l-2 7l-4 12l-10 34l1 -12v-11v-12l-1 -9l-2 -11l-36 -210h-56z" />
    <glyph glyph-name="trademark" unicode="&#x2122;" horiz-adv-x="788" 
d="M47 720h217v-50h-81v-310h-56v310h-80v50zM321 729h30l100 -228l12 -34l4 -29q0 31 16 63l100 228h30l69 -369h-56l-36 210l-2 11l-1 9v18l1 17l-10 -35l-5 -13l-1 -5l-95 -220h-20l-95 220l-2 7l-4 12l-10 34l1 -12v-11v-12l-1 -9l-2 -11l-36 -210h-56z" />
    <glyph glyph-name="guilsinglright" horiz-adv-x="265" 
d="M114 506q14 -27 26 -51q18 -34 24 -45l67 -114l-35 -65l-31 -64l-24 -51l-25 -60h-75l30 64l22 50l21 53l24 73l-22 53l-24 50q-12 28 -31 59l-27 48h80z" />
    <glyph glyph-name="guilsinglright" unicode="&#x203a;" horiz-adv-x="265" 
d="M114 506q14 -27 26 -51q18 -34 24 -45l67 -114l-35 -65l-31 -64l-24 -51l-25 -60h-75l30 64l22 50l21 53l24 73l-22 53l-24 50q-12 28 -31 59l-27 48h80z" />
    <glyph glyph-name="oe" horiz-adv-x="910" 
d="M654 571q101 0 156 -67.5t55 -192.5l-1 -31h-346l-2 -40q0 -61 17.5 -101t45.5 -58q15 -8 31.5 -12t42.5 -4q76 0 108.5 26t38.5 33l17 22l41 -43q-43 -59 -95.5 -87.5t-125.5 -28.5q-34 0 -57 4t-46 16q-42 20 -75 68q-21 -27 -59.5 -56.5t-134.5 -29.5q-113 0 -166 68
t-53 214q0 140 64.5 217.5t182.5 77.5q87 0 124.5 -25.5t58.5 -60.5q36 49 76.5 70t101.5 21zM137 274q0 -120 26 -155q26 -32 56 -47q33 -13 63 -13t61 12.5t46 33t27 68.5q4 21 7 49.5t3 55.5q0 145 -45.5 181.5t-98.5 36.5q-32 0 -62 -12q-26 -12 -54.5 -48t-28.5 -157
v-5zM519 342h258l1 16q0 73 -32 111.5t-94 38.5q-133 0 -133 -158v-8z" />
    <glyph glyph-name="oe" unicode="&#x153;" horiz-adv-x="910" 
d="M654 571q101 0 156 -67.5t55 -192.5l-1 -31h-346l-2 -40q0 -61 17.5 -101t45.5 -58q15 -8 31.5 -12t42.5 -4q76 0 108.5 26t38.5 33l17 22l41 -43q-43 -59 -95.5 -87.5t-125.5 -28.5q-34 0 -57 4t-46 16q-42 20 -75 68q-21 -27 -59.5 -56.5t-134.5 -29.5q-113 0 -166 68
t-53 214q0 140 64.5 217.5t182.5 77.5q87 0 124.5 -25.5t58.5 -60.5q36 49 76.5 70t101.5 21zM137 274q0 -120 26 -155q26 -32 56 -47q33 -13 63 -13t61 12.5t46 33t27 68.5q4 21 7 49.5t3 55.5q0 145 -45.5 181.5t-98.5 36.5q-32 0 -62 -12q-26 -12 -54.5 -48t-28.5 -157
v-5zM519 342h258l1 16q0 73 -32 111.5t-94 38.5q-133 0 -133 -158v-8z" />
    <glyph glyph-name="Ydieresis" horiz-adv-x="543" 
d="M165 721l5 -43h-11q-9 0 -18.5 -6.5t-9.5 -16.5l1 -11l10 -17l3 -8l113 -206q14 -25 20 -66l1 25q2 10 7 19l13 24l103 204q9 18 11 30q0 26 -50 26l7 46h187l-1 -42q-31 -3 -47 -31l-187 -359v-179v-24q0 -42 51 -42l-5 -44h-197l3 44q35 0 46.5 14.5t11.5 56.5v173
l-205 366q-6 11 -10 14t-15 3h-12l-4 50h179zM184 919q54 0 54 -40q0 -60 -73 -60q-48 0 -48 39q0 61 67 61zM373 919q54 0 54 -40q0 -60 -73 -60q-48 0 -48 39q0 61 67 61z" />
    <glyph glyph-name="Ydieresis" unicode="&#x178;" horiz-adv-x="543" 
d="M165 721l5 -43h-11q-9 0 -18.5 -6.5t-9.5 -16.5l1 -11l10 -17l3 -8l113 -206q14 -25 20 -66l1 25q2 10 7 19l13 24l103 204q9 18 11 30q0 26 -50 26l7 46h187l-1 -42q-31 -3 -47 -31l-187 -359v-179v-24q0 -42 51 -42l-5 -44h-197l3 44q35 0 46.5 14.5t11.5 56.5v173
l-205 366q-6 11 -10 14t-15 3h-12l-4 50h179zM184 919q54 0 54 -40q0 -60 -73 -60q-48 0 -48 39q0 61 67 61zM373 919q54 0 54 -40q0 -60 -73 -60q-48 0 -48 39q0 61 67 61z" />
    <glyph glyph-name="nonbreakingspace" unicode="&#xa0;" horiz-adv-x="500" 
 />
    <glyph glyph-name="exclamdown" unicode="&#xa1;" horiz-adv-x="232" 
d="M72 285l11 230l63 8l-1 -138l1 -121q0 -15 2.5 -62.5t2.5 -70.5l5 -134l-102 -6q0 69 9 171zM56 661q0 71 83 71q30 0 41 -11q12 -9 12 -35q0 -67 -76 -67q-55 0 -59 34z" />
    <glyph glyph-name="cent" unicode="&#xa2;" horiz-adv-x="521" 
d="M257 606h60v-40l61 -8l44 -3l39 4l5 -62l3 -29l2 -30l-45 -6q-12 35 -37 53q-26 16 -73 16v-433q16 2 22.5 3.5t20.5 5.5t36 18q11 8 22.5 17.5t25.5 23.5l41 -47l-25 -29l-28 -23q-18 -13 -47 -24t-69 -17v-51h-58v49q-100 0 -155.5 72.5t-55.5 203.5q0 57 11 104
t34 92.5t77 77.5q22 11 37 15.5t52 8.5v38zM257 497q-66 -15 -93 -69.5t-27 -155.5q0 -183 120 -201v426z" />
    <glyph glyph-name="sterling" unicode="&#xa3;" horiz-adv-x="562" 
d="M42 359h76q-39 113 -39 179q0 81 60.5 132t157.5 51q34 0 52.5 -3t32.5 -7t34 -14q36 -15 61.5 -52t34.5 -57l17 -51l-75 -29q-21 76 -58.5 109.5t-97.5 33.5q-55 0 -92.5 -30.5t-37.5 -75.5l2 -27q2 -19 5 -29l21 -80l12 -49h219l-5 -67h-203l4 -56q0 -63 -14 -92.5
t-24 -41t-34 -28.5l32 7l34 5l39 3l26 -1l38 -6l53 -8l44 -3q43 0 103 16l-6 -79l-35 -10q-17 -4 -38 -7t-42 -3l-33 1l-38 6l-75 13l-24 3l-27 1q-59 0 -141 -22l-22 53q21 9 33 18t38 40t26 115q0 31 -6 73h-91z" />
    <glyph glyph-name="currency" unicode="&#xa4;" horiz-adv-x="495" 
d="M109 274q-28 39 -28 88q0 45 27 86l-60 58q11 17 31 35l62 -62q38 29 88 29q49 0 87 -28l61 62l14 -12l13 -14l7 -10l-62 -58q28 -39 28 -87q0 -49 -29 -88l62 -62l-7 -8l-8 -7l-19 -17l-60 62q-38 -29 -88 -29q-48 0 -86 29l-63 -61l-17 14l-15 19zM229 261q41 0 70 29
t29 71q0 40 -29 69t-70 29t-70.5 -28t-29.5 -71q0 -41 29 -70t71 -29z" />
    <glyph glyph-name="yen" unicode="&#xa5;" horiz-adv-x="572" 
d="M181 721l3 -43h-10q-10 0 -19.5 -6.5t-9.5 -16.5l2 -10l9 -18l4 -8l114 -206q14 -25 18 -66q0 23 2 28l7 16l13 24l102 204q9 17 11 30q0 26 -49 26l7 46h187l-2 -42q-33 -3 -46 -31l-149 -290l182 1l1 -44h-209l-15 -26l2 -22h223l-1 -43h-222l1 -115l-1 -23
q0 -42 51 -42l-5 -44h-197l4 44q35 0 46 14t11 57v107h-232v44h234l-2 22l-12 24h-222v47h194l-165 295l-1 11l-6 4l-6 1l-14 1h-10l-4 50h181z" />
    <glyph glyph-name="section" unicode="&#xa7;" horiz-adv-x="595" 
d="M51 -95l-2 66h56q0 -57 39 -86q39 -27 123 -27q56 0 91 15t54.5 49t19.5 75q0 46 -19 75q-16 29 -105 52.5t-120 34.5t-60 31q-26 20 -47 61q-19 41 -19 82q0 62 19 90l24 34l16 17q-14 24 -21 46.5t-7 53.5q0 96 54.5 147t158.5 51q42 0 98 -6l64 -6l34 -1h24l-4 -32
l-1 -26v-23.5t2 -20.5l7 -32h-54q0 37 -36 59.5t-117 22.5q-70 0 -108 -32t-38 -91q0 -21 5 -34q6 -27 26.5 -43t55.5 -25q38 -8 61 -16q12 -3 26.5 -7.5t41.5 -14.5q14 -5 31 -11.5t40.5 -17.5t41.5 -30q15 -15 29 -54q8 -24 10.5 -41.5t2.5 -34.5q0 -63 -15.5 -91.5
t-24.5 -39.5l-14 -16q10 -25 16 -49.5t6 -47.5q0 -49 -21.5 -103t-75.5 -81.5t-145 -27.5q-44 0 -91 6l-73 10l-64 6l4 43zM178 423q-30 -54 -30 -94q0 -34 26 -63t65 -39l119 -30l36 -13l49 -21q21 50 21 91q0 30 -9 48.5t-30 35.5l-30 21l-27 10l-91 22l-35 8z" />
    <glyph glyph-name="dieresis" unicode="&#xa8;" horiz-adv-x="309" 
d="M67 718q54 0 54 -40q0 -60 -73 -60q-48 0 -48 39q0 61 67 61zM256 718q54 0 54 -40q0 -60 -73 -60q-48 0 -48 39q0 61 67 61z" />
    <glyph glyph-name="copyright" unicode="&#xa9;" horiz-adv-x="932" 
d="M167 625q52 52 122 80q36 14 70 21t73 7q73 0 140 -27t122.5 -81t82.5 -123.5t27 -141.5q0 -73 -27 -140t-81 -121.5t-123 -82.5t-143 -28q-72 0 -140.5 27t-150 108.5t-81.5 237.5q0 155 109 264zM204 128q45 -44 105.5 -69t123.5 -25q33 0 61.5 5t59.5 18q60 25 105 71
t70 108t25 124t-24.5 124t-94 133t-205.5 71q-62 0 -122 -25t-104.5 -70t-70 -106.5t-25.5 -125.5q0 -66 24.5 -126t71.5 -107zM575 500q-36 32 -88 44l-38 3q-78 0 -132 -54.5t-54 -139.5l3 -37q12 -66 64 -107.5t118 -41.5q15 0 24 1t30.5 6.5t46.5 21.5l24 18l31 -43
q-33 -27 -71.5 -42t-83.5 -15q-105 0 -176.5 69t-71.5 170q0 46 21.5 105.5t83.5 101t140 41.5q17 0 26.5 -1t38.5 -7q45 -6 94 -49z" />
    <glyph glyph-name="ordfeminine" unicode="&#xaa;" horiz-adv-x="482" 
d="M399 340v-61h-342v61h342zM332 720h66l1 -331h-67v73l-3 -8q-14 -32 -48 -52.5t-73 -20.5q-33 0 -87 22t-64 79l-10 74q0 37 11 67t36 57q48 51 113 51q13 0 21 -1t31 -7q37 -7 65 -56l5 -8l3 -7v68zM118 533q9 -48 41 -71q35 -22 66 -22q32 0 64 22.5t38 50t6 43.5v12
l-8 40q-6 32 -41.5 48.5t-58.5 16.5q-25 0 -60 -17q-36 -15 -48 -79l-2 -21z" />
    <glyph glyph-name="guillemotleft" unicode="&#xab;" horiz-adv-x="417" 
d="M249 388l27 61l26 57h74l-29 -61l-26 -61l-20 -53l-22 -65l21 -52l28 -56q10 -19 31 -58q9 -17 25 -44h-79l-51 96l-68 114l31 60zM96 388l27 61l26 57h75l-29 -60l-23 -52l-26 -70l-20 -58l24 -54l28 -59q9 -19 21 -41t32 -56h-79l-12 26q-9 17 -14 25l-33 59l-37 65
l-22 35l33 63z" />
    <glyph glyph-name="logicalnot" unicode="&#xac;" horiz-adv-x="627" 
d="M47 436h486v-220h-63v144h-423v76z" />
    <glyph glyph-name="registered" unicode="&#xae;" horiz-adv-x="932" 
d="M167 625q52 52 122 80q36 14 70 21t73 7q73 0 140 -27t122.5 -81t82.5 -123.5t27 -141.5q0 -73 -27 -140t-81 -121.5t-123 -82.5t-143 -28q-72 0 -140.5 27t-150 108.5t-81.5 237.5q0 155 109 264zM204 128q45 -44 105.5 -69t123.5 -25q33 0 61.5 5t59.5 18q60 25 105 71
t70 108t25 124t-24.5 124t-94 133t-205.5 71q-62 0 -122 -25t-104.5 -70t-70 -106.5t-25.5 -125.5q0 -66 24.5 -126t71.5 -107zM314 600h110q40 0 62.5 -6t49 -27.5t32.5 -52t6 -45.5q0 -50 -28.5 -82t-78.5 -40l-16 -1l147 -215h-71l-153 231v-231h-60v469zM413 382
q47 0 73.5 21t26.5 62q0 38 -24.5 61.5t-69.5 23.5h-45v-168h39z" />
    <glyph glyph-name="plusminus" unicode="&#xb1;" horiz-adv-x="594" 
d="M506 19h-462v68h462v-68zM309 331h197v-68h-197v-122h-68v122h-197v68h197v122h68v-122z" />
    <glyph glyph-name="acute" unicode="&#xb4;" horiz-adv-x="272" 
d="M117 691l38 58h129l-89 -80l-74 -68h-67l32 45z" />
    <glyph glyph-name="mu" unicode="&#xb5;" horiz-adv-x="623" 
d="M166 153q0 -71 14 -95t50 -24q56 0 94.5 81.5t38.5 203.5v130h92v-328q0 -45 9 -66t29 -21t31.5 20.5t11.5 61.5v14h21l1 -9v-13q0 -53 -23.5 -85t-66.5 -32q-48 0 -75 43t-27 129q-23 -89 -61.5 -130.5t-96.5 -41.5q-43 0 -73 26q-27 27 -40 77l-1 -28q0 -66 31 -140.5
t33 -92.5q0 -20 -11 -31t-31 -11q-23 0 -33 17.5t-10 52.5l2 58l2 89l-1 101l-2 95v245h92v-296z" />
    <glyph glyph-name="paragraph" unicode="&#xb6;" horiz-adv-x="644" 
d="M549 720v-52h-309q-57 0 -98.5 -42.5t-41.5 -102.5q0 -59 41 -100t99 -41h69v242h55v-624h-55v330h-69q-77 0 -135 57t-58 138q0 82 56 138.5t137 56.5h309zM430 624h55v-624h-55v624z" />
    <glyph glyph-name="cedilla" unicode="&#xb8;" horiz-adv-x="216" 
d="M12 -164l31 -5l34 -1q69 0 69 44q0 12 -9 21.5t-25 11.5q-13 0 -36 -10l-24 23l15 24l14 26q6 12 12 43l50 -11l-24 -63q11 5 26 7q31 0 51.5 -18t20.5 -47q0 -46 -38 -69.5t-109 -23.5q-40 0 -70 10z" />
    <glyph glyph-name="ordmasculine" unicode="&#xba;" horiz-adv-x="482" 
d="M53 340h341v-61h-341v61zM51 593q12 62 60 103q25 20 51.5 30t58.5 10q36 0 78 -18q41 -16 70.5 -60.5t29.5 -100.5q0 -20 -6.5 -54.5t-42.5 -71t-74 -45.5l-53 -7q-19 0 -53 7q-19 3 -35.5 13t-36.5 31q-36 36 -48 91l-3 36q0 21 4 36zM115 536q11 -61 47.5 -78
t61.5 -17q40 0 69 25t35 55l5 38q0 60 -29 80q-28 22 -45 28t-37 6q-25 0 -60 -16.5t-47 -77.5l-1 -22z" />
    <glyph glyph-name="guillemotright" unicode="&#xbb;" horiz-adv-x="417" 
d="M114 506l20 -42l30 -54l67 -114l-33 -63l-35 -69l-22 -48l-25 -60h-75l30 64l22 50l21 53l24 73l-22 53l-24 50q-12 28 -31 59l-27 48h80zM266 506l25 -49l26 -47l67 -114l-30 -56l-33 -66l-52 -118h-75l26 55l24 56l26 67l22 62l-20 47q-7 18 -24 49l-30 57l-32 57h80z
" />
    <glyph glyph-name="questiondown" unicode="&#xbf;" horiz-adv-x="436" 
d="M359 93q-47 -56 -84 -79t-78 -23q-66 0 -114 51.5t-48 125.5q0 62 40 101l137 139q27 24 27 50q0 19 -12 40l91 19l9 -23q3 -9 3 -23q0 -16 -6.5 -34.5t-20.5 -30.5l-42 -44l-114 -131q-17 -20 -17 -62q0 -38 24 -66t58 -28q20 0 37.5 11.5t45.5 39.5q13 13 27.5 29.5
t28.5 33.5l53 -41zM201 659q0 39 19.5 55.5t63.5 16.5q28 0 40.5 -9.5t12.5 -35.5q0 -32 -19 -49.5t-56 -17.5q-57 0 -60 34z" />
    <glyph glyph-name="Agrave" unicode="&#xc0;" horiz-adv-x="651" 
d="M-11 42q16 5 22.5 12t18.5 34l242 571q12 27 12 62h98q0 -19 2 -28t11 -29l216 -574q11 -27 20.5 -37.5t25.5 -10.5l-3 -42h-160l5 42q22 0 22 19q0 13 -5 24l-62 164h-265l-67 -157q-3 -8 -5 -24q0 -21 28 -25l-6 -43h-151zM214 315h220l-89 258l-7 16l-8 46v-14
q0 -9 -2 -17l-12 -34zM312 947l19 -28l51 -74l31 -45h-67l-73 63l-41 36l-51 48h131z" />
    <glyph glyph-name="Aacute" unicode="&#xc1;" horiz-adv-x="651" 
d="M-11 42q16 5 22.5 12t18.5 34l242 571q12 27 12 62h98q0 -19 2 -28t11 -29l216 -574q11 -27 20.5 -37.5t25.5 -10.5l-3 -42h-160l5 42q22 0 22 19q0 13 -5 24l-62 164h-265l-67 -157q-3 -8 -5 -24q0 -21 28 -25l-6 -43h-151zM214 315h220l-89 258l-7 16l-8 46v-14
q0 -9 -2 -17l-12 -34zM306 892l38 58h129l-89 -80l-74 -68h-67l32 45z" />
    <glyph glyph-name="Acircumflex" unicode="&#xc2;" horiz-adv-x="651" 
d="M-11 42q16 5 22.5 12t18.5 34l242 571q12 27 12 62h98q0 -19 2 -28t11 -29l216 -574q11 -27 20.5 -37.5t25.5 -10.5l-3 -42h-160l5 42q22 0 22 19q0 13 -5 24l-62 164h-265l-67 -157q-3 -8 -5 -24q0 -21 28 -25l-6 -43h-151zM214 315h220l-89 258l-7 16l-8 46v-14
q0 -9 -2 -17l-12 -34zM224 889l45 59h115l22 -27l22 -28l35 -47l36 -47h-73l-30 24l-22 21l-27 30l-22 26l-50 -54l-31 -28l-21 -19h-71z" />
    <glyph glyph-name="Atilde" unicode="&#xc3;" horiz-adv-x="651" 
d="M-11 42q16 5 22.5 12t18.5 34l242 571q12 27 12 62h98q0 -19 2 -28t11 -29l216 -574q11 -27 20.5 -37.5t25.5 -10.5l-3 -42h-160l5 42q22 0 22 19q0 13 -5 24l-62 164h-265l-67 -157q-3 -8 -5 -24q0 -21 28 -25l-6 -43h-151zM214 315h220l-89 258l-7 16l-8 46v-14
q0 -9 -2 -17l-12 -34zM235 920q18 0 45 -9l87 -28l25 -4q27 0 42 39l66 -23q-33 -99 -91 -99l-18 1l-24 7l-92 32l-21 4q-17 0 -38 -40l-65 22q9 42 34 70t50 28z" />
    <glyph glyph-name="Adieresis" unicode="&#xc4;" horiz-adv-x="651" 
d="M-11 42q16 5 22.5 12t18.5 34l242 571q12 27 12 62h98q0 -19 2 -28t11 -29l216 -574q11 -27 20.5 -37.5t25.5 -10.5l-3 -42h-160l5 42q22 0 22 19q0 13 -5 24l-62 167h-265l-67 -160q-3 -8 -5 -25q0 -24 25 -24l-3 -43h-151zM240 869q57 0 57 -42q0 -63 -76 -63
q-50 0 -50 42q0 63 69 63zM440 869q57 0 57 -42q0 -63 -76 -63q-50 0 -50 44q0 61 69 61zM434 315l-89 258l-7 16l-8 46v-14q0 -9 -2 -17l-12 -34l-102 -255h220z" />
    <glyph glyph-name="Aring" unicode="&#xc5;" horiz-adv-x="651" 
d="M-11 42q16 5 22.5 12t18.5 34l242 571q12 27 12 62h98q0 -19 2 -28t11 -29l216 -574q11 -27 20.5 -37.5t25.5 -10.5l-3 -42h-160l5 42q22 0 22 19q0 13 -5 24l-62 167h-265l-67 -160q-3 -8 -5 -24q0 -21 28 -25l-6 -43h-151zM334 965q45 0 76 -32q32 -30 32 -76
q0 -45 -31.5 -76.5t-76.5 -31.5q-44 0 -76 32t-32 76q0 45 31.5 76.5t76.5 31.5zM434 315l-89 258l-7 16l-8 46v-14q0 -9 -2 -17l-12 -34l-102 -255h220zM277 857q0 -23 15.5 -40t41.5 -17q23 0 40 17t17 40q0 24 -17 41t-40 17q-24 0 -40.5 -16.5t-16.5 -41.5z" />
    <glyph glyph-name="AE" unicode="&#xc6;" horiz-adv-x="931" 
d="M18 66l237 546q19 46 19 76l-4 33h592l1 -59l2 -35l5 -38l-58 -1q0 30 -12.5 46.5t-62.5 16.5h-127q-32 0 -42 -7q-9 -3 -13 -13l-6 -15v-24v-182h265l-6 -68h-259v-211q0 -32 15 -49q16 -14 59 -14h126q95 0 95 83h52l-6 -63l-3 -47l-2 -41h-484l5 46q32 5 41.5 14.5
t9.5 44.5v237h-228l-95 -227q-6 -15 -7.5 -21t-3.5 -15q0 -28 35 -34l-7 -45h-160zM254 410h205v181q0 36 -9.5 49.5t-35.5 13.5h-70q0 -27 -9 -51z" />
    <glyph glyph-name="Ccedilla" unicode="&#xc7;" horiz-adv-x="601" 
d="M560 662l6 -83l-56 -5q-6 45 -39.5 66.5t-104.5 21.5q-116 0 -169 -73t-53 -240q0 -120 26.5 -176t72.5 -83q48 -25 109 -25q96 0 171 78l48 -47q-34 -40 -65 -60q-31 -18 -64 -29.5t-80 -15.5l-24 -47q14 6 25 6q33 0 54 -18t21 -48q0 -44 -40.5 -69t-108.5 -25h-16
q-10 0 -22 1.5t-16 2.5t-18 6l13 39q28 -4 40 -4.5t26 -0.5q68 0 68 43q0 33 -33 33q-9 0 -19.5 -3l-17.5 -5l-25 22l20 31l19 36q-49 0 -84.5 12t-106.5 69.5t-71 270.5q0 189 72.5 290t211.5 101q36 0 89 -7l89 -7l46 2z" />
    <glyph glyph-name="Egrave" unicode="&#xc8;" horiz-adv-x="564" 
d="M40 43q24 0 33.5 7.5t10.5 13.5l4 12l1 32v516q0 25 -5 30q-8 17 -45 17l3 50h455l2 -55l7 -79h-52v7q0 57 -62 57h-164q-28 0 -37 -6t-12 -17l-1 -30v-182h272l-6 -70h-266v-223q0 -27 9 -41q14 -14 51 -14h152q50 0 70.5 17.5t20.5 60.5h54l-6 -74l-4 -72h-490z
M269 947l19 -28l51 -74l31 -45h-67l-73 63l-41 36l-51 48h131z" />
    <glyph glyph-name="Eacute" unicode="&#xc9;" horiz-adv-x="564" 
d="M40 43q24 0 33.5 7.5t10.5 13.5l4 12l1 32v516q0 25 -5 30q-8 17 -45 17l3 50h455l2 -55l7 -79h-52v7q0 57 -62 57h-164q-28 0 -37 -6t-12 -17l-1 -30v-182h272l-6 -70h-266v-223q0 -27 9 -41q14 -14 51 -14h152q50 0 70.5 17.5t20.5 60.5h54l-6 -74l-4 -72h-490z
M263 892l38 58h129l-89 -80l-74 -68h-67l32 45z" />
    <glyph glyph-name="Ecircumflex" unicode="&#xca;" horiz-adv-x="564" 
d="M40 43q24 0 33.5 7.5t10.5 13.5l4 12l1 32v516q0 25 -5 30q-8 17 -45 17l3 50h455l2 -55l7 -79h-52v7q0 57 -62 57h-164q-28 0 -37 -6t-12 -17l-1 -30v-182h272l-6 -70h-266v-223q0 -27 9 -41q14 -14 51 -14h152q50 0 70.5 17.5t20.5 60.5h54l-6 -74l-4 -72h-490z
M180 889l45 59h115l22 -27l22 -28l35 -47l36 -47h-73l-30 24l-22 21l-27 30l-22 26l-50 -54l-31 -28l-21 -19h-71z" />
    <glyph glyph-name="Edieresis" unicode="&#xcb;" horiz-adv-x="564" 
d="M40 43q24 0 33.5 7.5t10.5 13.5l4 12l1 32v516q0 25 -5 30q-8 17 -45 17l3 50h455l2 -55l7 -79h-52v7q0 57 -62 57h-164q-28 0 -37 -6t-12 -17l-1 -30v-182h272l-6 -70h-266v-223q0 -27 9 -41q14 -14 51 -14h152q50 0 70.5 17.5t20.5 60.5h54l-6 -74l-4 -72h-490z
M194 919q54 0 54 -40q0 -60 -73 -60q-48 0 -48 39q0 61 67 61zM383 919q54 0 54 -40q0 -60 -73 -60q-48 0 -48 39q0 61 67 61z" />
    <glyph glyph-name="Igrave" unicode="&#xcc;" horiz-adv-x="267" 
d="M36 44q27 3 36.5 13t13 22.5t3.5 41.5v492v19q0 12 -2 18q0 5 -8 12.5t-21 11.5l-28 4l5 43h202l-5 -44q-34 -9 -43.5 -18.5t-9.5 -41.5v-506v-15q0 -48 46 -48l13 1l-3 -49h-205zM122 947l19 -28l51 -74l31 -45h-67l-73 63l-41 36l-51 48h131z" />
    <glyph glyph-name="Iacute" unicode="&#xcd;" horiz-adv-x="267" 
d="M36 44q27 3 36.5 13t13 22.5t3.5 41.5v492v19q0 12 -2 18q0 5 -8 12.5t-21 11.5l-28 4l5 43h202l-5 -44q-34 -9 -43.5 -18.5t-9.5 -41.5v-506v-15q0 -48 46 -48l13 1l-3 -49h-205zM116 892l38 58h129l-89 -80l-74 -68h-67l32 45z" />
    <glyph glyph-name="Icircumflex" unicode="&#xce;" horiz-adv-x="267" 
d="M36 44q27 3 36.5 13t13 22.5t3.5 41.5v492v19q0 12 -2 18q0 5 -8 12.5t-21 11.5l-28 4l5 43h202l-5 -44q-34 -9 -43.5 -18.5t-9.5 -41.5v-506v-15q0 -48 46 -48l13 1l-3 -49h-205zM33 889l45 59h115l22 -27l22 -28l35 -47l36 -47h-73l-30 24l-22 21l-27 30l-22 26
l-50 -54l-31 -28l-21 -19h-71z" />
    <glyph glyph-name="Idieresis" unicode="&#xcf;" horiz-adv-x="267" 
d="M36 44q27 3 36.5 13t13 22.5t3.5 41.5v492v19q0 12 -2 18q0 5 -8 12.5t-21 11.5l-28 4l5 43h202l-5 -44q-34 -9 -43.5 -18.5t-9.5 -41.5v-506v-15q0 -48 46 -48l13 1l-3 -49h-205zM47 919q54 0 54 -40q0 -60 -73 -60q-48 0 -48 39q0 61 67 61zM236 919q54 0 54 -40
q0 -60 -73 -60q-48 0 -48 39q0 61 67 61z" />
    <glyph glyph-name="Ntilde" unicode="&#xd1;" horiz-adv-x="725" 
d="M37 43q29 0 40.5 15.5t11.5 53.5v507q0 64 -55 64l5 38h162q12 -37 26 -56l285 -431l27 -47l16 -44q-5 55 -5 96v378q0 32 -11.5 45.5t-44.5 13.5l5 45h195l-3 -43q-34 -7 -43.5 -20.5t-9.5 -56.5v-393v-103v-28.5t2 -26.5q0 -12 2.5 -24t6.5 -26h-81l-359 541l-23 38
l-16 39l4 -64l1 -66v-383l1 -28q1 -8 16 -20q14 -9 39 -9h6l-6 -48h-200zM272 920q18 0 45 -9l87 -28l25 -4q27 0 42 39l66 -23q-33 -99 -91 -99l-18 1l-24 7l-92 32l-21 4q-17 0 -38 -40l-65 22q9 42 34 70t50 28z" />
    <glyph glyph-name="Ograve" unicode="&#xd2;" horiz-adv-x="704" 
d="M50 426q0 48 7 82q6 37 21.5 73.5t45.5 72.5t86 57q28 10 63.5 15t82.5 5q91 0 141 -18.5t93 -72t52 -112.5q2 -14 6.5 -46t4.5 -61l3 -59q0 -199 -68.5 -285t-230.5 -86q-92 0 -147.5 19.5t-98.5 70.5q-39 50 -50 113l-12 98l-3 70zM142 361v-24l5 -78
q12 -118 67.5 -162.5t137.5 -44.5q74 0 122.5 32.5t63 81t19 84t4.5 87.5l1 24l-1 25l-4 77q-3 36 -8 58t-15 44q-15 40 -57.5 72.5t-124.5 32.5q-73 0 -123 -33t-65 -81l-18 -82l-4 -88v-25zM339 947l19 -28l51 -74l31 -45h-67l-73 63l-41 36l-51 48h131z" />
    <glyph glyph-name="Oacute" unicode="&#xd3;" horiz-adv-x="704" 
d="M50 426q0 48 7 82q6 37 21.5 73.5t45.5 72.5t86 57q28 10 63.5 15t82.5 5q91 0 141 -18.5t93 -72t52 -112.5q2 -14 6.5 -46t4.5 -61l3 -59q0 -199 -68.5 -285t-230.5 -86q-92 0 -147.5 19.5t-98.5 70.5q-39 50 -50 113l-12 98l-3 70zM142 361v-24l5 -78
q12 -118 67.5 -162.5t137.5 -44.5q74 0 122.5 32.5t63 81t19 84t4.5 87.5l1 24l-1 25l-4 77q-3 36 -8 58t-15 44q-15 40 -57.5 72.5t-124.5 32.5q-73 0 -123 -33t-65 -81l-18 -82l-4 -88v-25zM333 892l38 58h129l-89 -80l-74 -68h-67l32 45z" />
    <glyph glyph-name="Ocircumflex" unicode="&#xd4;" horiz-adv-x="704" 
d="M50 426q0 48 7 82q6 37 21.5 73.5t45.5 72.5t86 57q28 10 63.5 15t82.5 5q91 0 141 -18.5t93 -72t52 -112.5q2 -14 6.5 -46t4.5 -61l3 -59q0 -199 -68.5 -285t-230.5 -86q-92 0 -147.5 19.5t-98.5 70.5q-39 50 -50 113l-12 98l-3 70zM142 361v-24l5 -78
q12 -118 67.5 -162.5t137.5 -44.5q74 0 122.5 32.5t63 81t19 84t4.5 87.5l1 24l-1 25l-4 77q-3 36 -8 58t-15 44q-15 40 -57.5 72.5t-124.5 32.5q-73 0 -123 -33t-65 -81l-18 -82l-4 -88v-25zM250 889l45 59h115l22 -27l22 -28l35 -47l36 -47h-73l-30 24l-22 21l-27 30
l-22 26l-50 -54l-31 -28l-21 -19h-71z" />
    <glyph glyph-name="Otilde" unicode="&#xd5;" horiz-adv-x="704" 
d="M50 426q0 48 7 82q6 37 21.5 73.5t45.5 72.5t86 57q28 10 63.5 15t82.5 5q91 0 141 -18.5t93 -72t52 -112.5q2 -14 6.5 -46t4.5 -61l3 -59q0 -199 -68.5 -285t-230.5 -86q-92 0 -147.5 19.5t-98.5 70.5q-39 50 -50 113l-12 98l-3 70zM142 361v-24l5 -78
q12 -118 67.5 -162.5t137.5 -44.5q74 0 122.5 32.5t63 81t19 84t4.5 87.5l1 24l-1 25l-4 77q-3 36 -8 58t-15 44q-15 40 -57.5 72.5t-124.5 32.5q-73 0 -123 -33t-65 -81l-18 -82l-4 -88v-25zM261 920q18 0 45 -9l87 -28l25 -4q27 0 42 39l66 -23q-33 -99 -91 -99l-18 1
l-24 7l-92 32l-21 4q-17 0 -38 -40l-65 22q9 42 34 70t50 28z" />
    <glyph glyph-name="Odieresis" unicode="&#xd6;" horiz-adv-x="704" 
d="M50 426q0 47 7.5 83.5t33.5 101.5t99.5 92.5t166.5 27.5q89 0 139.5 -18.5t93.5 -72t52 -112.5q2 -14 6.5 -46t4.5 -61l3 -59q0 -199 -68.5 -285t-230.5 -86q-93 0 -147.5 19.5t-96.5 68t-52 113.5l-12 100l-3 70zM262 869q57 0 57 -42q0 -63 -77 -63q-50 0 -50 44
q0 61 70 61zM462 869q57 0 57 -42q0 -63 -77 -63q-50 0 -50 42q0 63 70 63zM142 337l5 -78q18 -207 204 -207q114 0 154.5 59t51.5 148l4 78l1 24l-1 25v13v11q0 42 -5 65q-3 38 -17 81q-12 48 -62.5 81t-125.5 33q-113 0 -148.5 -51.5t-45.5 -83.5t-10 -72l-5 -77v-25v-24z
" />
    <glyph glyph-name="Oslash" unicode="&#xd8;" horiz-adv-x="704" 
d="M590 730h59l-62 -82q23 -30 32 -53l16 -44l11 -54l7 -79l3 -59q0 -75 -12 -149t-54 -126t-96 -72.5t-142 -20.5q-92 0 -128.5 14.5t-72.5 39.5l-44 -62h-50l61 88q-29 34 -42 74q-13 35 -21.5 96.5t-8.5 121.5q0 135 35.5 224t109 116.5t166.5 27.5q83 0 119 -12l41 -16
l35 -22zM200 110l26 -24q51 -34 126 -34q112 0 153 58.5t52 148.5l2 64l3 45q0 84 -15 150l-16 57zM505 613q-30 25 -64.5 39.5t-91.5 14.5q-109 0 -158 -73q-23 -36 -35 -95t-12 -143q0 -79 6 -116t27 -90z" />
    <glyph glyph-name="Ugrave" unicode="&#xd9;" horiz-adv-x="695" 
d="M34 721h203l-3 -42h-5q-56 0 -56 -63v-379l3 -55q0 -69 40.5 -98.5t134.5 -29.5q89 0 121.5 29.5t41.5 61.5q4 15 6 41t2 71v369q0 26 -11 36.5t-41 14.5l10 44h189l-6 -44q-51 0 -51 -62v-357q0 -98 -35 -184.5t-240 -86.5q-117 0 -168 34t-68.5 84.5t-17.5 145.5v361
l-1 24q0 15 -12.5 28.5t-43.5 13.5zM334 947l19 -28l51 -74l31 -45h-67l-73 63l-41 36l-51 48h131z" />
    <glyph glyph-name="Uacute" unicode="&#xda;" horiz-adv-x="695" 
d="M34 721h203l-3 -42h-5q-56 0 -56 -63v-379l3 -55q0 -69 40.5 -98.5t134.5 -29.5q89 0 121.5 29.5t41.5 61.5q4 15 6 41t2 71v369q0 26 -11 36.5t-41 14.5l10 44h189l-6 -44q-51 0 -51 -62v-357q0 -98 -35 -184.5t-240 -86.5q-117 0 -168 34t-68.5 84.5t-17.5 145.5v361
l-1 24q0 15 -12.5 28.5t-43.5 13.5zM328 892l38 58h129l-89 -80l-74 -68h-67l32 45z" />
    <glyph glyph-name="Ucircumflex" unicode="&#xdb;" horiz-adv-x="695" 
d="M34 721h203l-3 -42h-5q-56 0 -56 -63v-379l3 -55q0 -69 40.5 -98.5t134.5 -29.5q89 0 121.5 29.5t41.5 61.5q4 15 6 41t2 71v369q0 26 -11 36.5t-41 14.5l10 44h189l-6 -44q-51 0 -51 -62v-357q0 -98 -35 -184.5t-240 -86.5q-117 0 -168 34t-68.5 84.5t-17.5 145.5v361
l-1 24q0 15 -12.5 28.5t-43.5 13.5zM246 889l45 59h115l22 -27l22 -28l35 -47l36 -47h-73l-30 24l-22 21l-27 30l-22 26l-50 -54l-31 -28l-21 -19h-71z" />
    <glyph glyph-name="Udieresis" unicode="&#xdc;" horiz-adv-x="697" 
d="M34 721h203l-3 -42h-5q-56 0 -56 -63v-379l3 -56q0 -28 6 -47t30 -49t135 -30q93 0 129.5 31.5t42.5 75.5q3 28 4 44.5t1 49.5v368q0 27 -9.5 37t-42.5 16l10 44h189l-6 -44q-52 0 -52 -61l1 -359q0 -100 -37 -185.5t-234 -85.5q-124 0 -174.5 34.5t-68 85t-17.5 145.5
v361l-1 24q0 15 -12.5 28.5t-43.5 13.5zM261 869q57 0 57 -42q0 -63 -77 -63q-50 0 -50 42q0 63 70 63zM462 869q56 0 56 -42q0 -63 -77 -63q-50 0 -50 42q0 63 71 63z" />
    <glyph glyph-name="germandbls" unicode="&#xdf;" horiz-adv-x="617" 
d="M19 554l15 -2q54 0 54 44l2 50q0 85 55 138.5t141 53.5q83 0 134 -44t51 -118q0 -39 -17 -69q-15 -31 -60.5 -75t-45.5 -74q0 -32 34 -41q35 -6 53 -13l55 -17q35 -12 67.5 -47.5t32.5 -138.5q0 -214 -214 -214q-39 0 -67 5t-69 22l23 70l27 -9l28 -8l33 -5l34 -3
q118 0 118 136q0 39 -9 63q-7 24 -28 40q-9 7 -20 12.5t-25 10.5l-69 18q-86 24 -86 98q0 29 11 51l8 19l12 17l31 33q27 28 40 54.5t13 54.5q0 102 -97 102q-54 0 -81.5 -33.5t-27.5 -102.5v-529l1 -61l7 -43l-160 1l4 44h12q6 0 15 2.5t18 10.5t14 21q3 12 3 48v381h-20
h-19h-20h-20z" />
    <glyph glyph-name="agrave" unicode="&#xe0;" horiz-adv-x="575" 
d="M203 -10q-72 0 -116 45q-41 46 -41 126q0 95 57 144t158 49h140v45q0 52 -27.5 75.5t-88.5 23.5q-34 0 -47 -1.5t-33.5 -6t-47.5 -12t-71 -22.5l4 69l59 18l65 14q36 6 95 6q91 0 133 -35.5t42 -114.5v-265q0 -60 11.5 -83t41.5 -23l-4 -42h-106q-12 25 -18 46
q-5 23 -5 42l2 31q-45 -69 -91.5 -99t-111.5 -30zM402 286h-143q-43 0 -65 -8t-40.5 -36.5t-18.5 -81.5q0 -42 24 -69t63 -27q74 0 127 65t53 157zM274 746l19 -28l51 -74l31 -45h-67l-73 63l-41 36l-51 48h131z" />
    <glyph glyph-name="aacute" unicode="&#xe1;" horiz-adv-x="575" 
d="M203 -10q-72 0 -116 45q-41 46 -41 126q0 95 57 144t158 49h140v45q0 52 -27.5 75.5t-88.5 23.5q-34 0 -47 -1.5t-33.5 -6t-47.5 -12t-71 -22.5l4 69l59 18l65 14q36 6 95 6q91 0 133 -35.5t42 -114.5v-265q0 -60 11.5 -83t41.5 -23l-4 -42h-106q-12 25 -18 46
q-5 23 -5 42l2 31q-45 -69 -91.5 -99t-111.5 -30zM402 286h-143q-43 0 -65 -8t-40.5 -36.5t-18.5 -81.5q0 -42 24 -69t63 -27q74 0 127 65t53 157zM268 691l38 58h129l-89 -80l-74 -68h-67l32 45z" />
    <glyph glyph-name="acircumflex" unicode="&#xe2;" horiz-adv-x="575" 
d="M203 -10q-72 0 -116 45q-41 46 -41 126q0 95 57 144t158 49h140v45q0 52 -27.5 75.5t-88.5 23.5q-34 0 -47 -1.5t-33.5 -6t-47.5 -12t-71 -22.5l4 69l59 18l65 14q36 6 95 6q91 0 133 -35.5t42 -114.5v-265q0 -60 11.5 -83t41.5 -23l-4 -42h-106q-12 25 -18 46
q-5 23 -5 42l2 31q-45 -69 -91.5 -99t-111.5 -30zM402 286h-143q-43 0 -65 -8t-40.5 -36.5t-18.5 -81.5q0 -42 24 -69t63 -27q74 0 127 65t53 157zM186 688l45 59h115l22 -27l22 -28l35 -47l36 -47h-73l-30 24l-22 21l-27 30l-22 26l-50 -54l-31 -28l-21 -19h-71z" />
    <glyph glyph-name="atilde" unicode="&#xe3;" horiz-adv-x="575" 
d="M203 -10q-72 0 -116 45q-41 46 -41 126q0 95 57 144t158 49h140v45q0 52 -27.5 75.5t-88.5 23.5q-34 0 -47 -1.5t-33.5 -6t-47.5 -12t-71 -22.5l4 69l59 18l65 14q36 6 95 6q91 0 133 -35.5t42 -114.5v-265q0 -60 11.5 -83t41.5 -23l-4 -42h-106q-12 25 -18 46
q-5 23 -5 42l2 31q-45 -69 -91.5 -99t-111.5 -30zM402 286h-143q-43 0 -65 -8t-40.5 -36.5t-18.5 -81.5q0 -42 24 -69t63 -27q74 0 127 65t53 157zM197 719q18 0 45 -9l87 -28l25 -4q27 0 42 39l66 -23q-33 -99 -91 -99l-18 1l-24 7l-92 32l-21 4q-17 0 -38 -40l-65 22
q9 42 34 70t50 28z" />
    <glyph glyph-name="adieresis" unicode="&#xe4;" horiz-adv-x="575" 
d="M203 -10q-72 0 -116 45q-41 46 -41 126q0 95 57 144t158 49h140v45q0 51 -27.5 75t-87.5 24q-34 0 -47 -1.5t-33 -5.5t-50 -12.5t-70 -22.5l4 69q48 17 81 24q8 2 29 5.5t37 5.5l72 3q91 0 133 -35.5t42 -114.5v-265q0 -60 11.5 -83t41.5 -23l-4 -42h-106q-12 25 -18 46
q-5 23 -5 42l2 31q-45 -69 -91.5 -99t-111.5 -30zM206 699q55 0 55 -40q0 -59 -74 -59q-48 0 -48 39q0 60 67 60zM396 699q54 0 54 -40q0 -59 -74 -59q-24 0 -35.5 9t-11.5 30q0 60 67 60zM259 286q-62 0 -93 -28t-31 -98q0 -42 24 -69t62 -27q75 0 128 65t53 157h-143z" />
    <glyph glyph-name="aring" unicode="&#xe5;" horiz-adv-x="575" 
d="M203 -10q-72 0 -116 45q-41 46 -41 126q0 95 57 144t158 49h140v45q0 51 -27.5 75t-87.5 24q-34 0 -47 -1.5t-33 -5.5t-50 -12.5t-70 -22.5l4 69l53 18q40 10 80 15t87 5q90 0 132 -35.5t42 -114.5v-265q0 -60 11.5 -83t41.5 -23l-4 -42h-106q-12 25 -18 46q-5 23 -5 42
l2 31q-45 -69 -91.5 -99t-111.5 -30zM297 803q45 0 76 -32q32 -30 32 -76q0 -45 -31.5 -76.5t-76.5 -31.5q-44 0 -76 32t-32 76q0 45 31.5 76.5t76.5 31.5zM259 286q-62 0 -93 -28t-31 -98q0 -39 24 -67t62 -28q74 0 127.5 64t53.5 157h-143zM240 695q0 -23 15.5 -40
t41.5 -17q24 0 41 17t17 40q0 24 -17.5 40.5t-40.5 16.5t-40 -15.5t-17 -41.5z" />
    <glyph glyph-name="ae" unicode="&#xe6;" horiz-adv-x="870" 
d="M199 -11q-77 0 -116 40q-37 42 -37 128q0 90 51 139t142 49h149l1 45v11v30l-4 19q0 9 -25.5 31t-84.5 22q-48 0 -114 -18q-30 -6 -81 -24l10 72q26 9 49.5 15.5t49 11.5t54 8t52.5 3q43 0 70 -6.5t53 -25.5q11 -5 20 -16l16 -18l19 22l15 11q48 36 131 36q53 0 87.5 -15
t59.5 -50.5t41 -90t16 -110.5v-28h-353q0 -108 33 -159.5t107 -51.5q73 0 108 27l40 33l19 22l48 -40q-32 -43 -59 -60q-76 -61 -179 -61q-67 0 -108 24.5t-69 83.5q-49 -58 -99 -84q-23 -11 -52 -18t-60 -7zM394 183l-4 26l-2 25l-2 46h-112q-78 0 -99.5 -19t-33.5 -50
q-10 -32 -10 -57q0 -45 23 -71q25 -25 64 -25q42 0 86.5 32t89.5 93zM470 342h265q0 79 -36 126.5t-97 47.5q-57 0 -95 -46t-38 -115z" />
    <glyph glyph-name="ccedilla" unicode="&#xe7;" horiz-adv-x="521" 
d="M466 497l3 -29l2 -30l-45 -6q-12 35 -42 53q-30 16 -87 16q-84 0 -122.5 -53.5t-38.5 -172.5q0 -210 153 -210q55 0 87.5 19t45.5 32l21 20l41 -47l-25 -29l-22 -18l-33 -20l-40 -17l-30 -7l-35 -6l-22 -58l12 6l13 2q31 0 52 -18t21 -47q0 -46 -38 -69.5t-109 -23.5
q-40 0 -70 10l12 37l30 -4l36 -1q68 0 68 43q0 14 -9.5 23.5t-24.5 9.5l-15 -1q-6 -1 -9 -2t-12 -6l-24 22q10 14 13.5 19t9.5 18l8 22l5 18q-200 24 -200 278q0 142 59 219t167 77q47 0 99 -7l51 -4l39 4z" />
    <glyph glyph-name="egrave" unicode="&#xe8;" horiz-adv-x="539" 
d="M135 277l-1 -27q0 -93 39 -142.5t109 -49.5q29 0 48.5 4t42.5 16q40 20 72 65l48 -41q-14 -21 -27 -35.5t-55 -47.5t-143 -33q-222 0 -222 281q0 132 57.5 216.5t190.5 84.5q99 0 150 -63.5t51 -190.5l-1 -37h-359zM137 339h269l2 23q0 65 -36 107t-94 42
q-62 0 -101.5 -45.5t-39.5 -126.5zM256 746l19 -28l51 -74l31 -45h-67l-73 63l-41 36l-51 48h131z" />
    <glyph glyph-name="eacute" unicode="&#xe9;" horiz-adv-x="539" 
d="M135 277l-1 -27q0 -93 39 -142.5t109 -49.5q29 0 48.5 4t42.5 16q40 20 72 65l48 -41q-14 -21 -27 -35.5t-55 -47.5t-143 -33q-222 0 -222 281q0 132 57.5 216.5t190.5 84.5q99 0 150 -63.5t51 -190.5l-1 -37h-359zM137 339h269l2 23q0 65 -36 107t-94 42
q-62 0 -101.5 -45.5t-39.5 -126.5zM250 691l38 58h129l-89 -80l-74 -68h-67l32 45z" />
    <glyph glyph-name="ecircumflex" unicode="&#xea;" horiz-adv-x="539" 
d="M135 277l-1 -27q0 -93 39 -142.5t109 -49.5q29 0 48.5 4t42.5 16q40 20 72 65l48 -41q-14 -21 -27 -35.5t-55 -47.5t-143 -33q-222 0 -222 281q0 132 57.5 216.5t190.5 84.5q99 0 150 -63.5t51 -190.5l-1 -37h-359zM137 339h269l2 23q0 65 -36 107t-94 42
q-62 0 -101.5 -45.5t-39.5 -126.5zM168 688l45 59h115l22 -27l22 -28l35 -47l36 -47h-73l-30 24l-22 21l-27 30l-22 26l-50 -54l-31 -28l-21 -19h-71z" />
    <glyph glyph-name="edieresis" unicode="&#xeb;" horiz-adv-x="539" 
d="M135 277l-1 -27q0 -93 39 -142.5t109 -49.5q29 0 48.5 4t42.5 16q40 20 72 65l48 -41q-14 -21 -27 -35.5t-55 -47.5t-143 -33q-222 0 -222 281q0 132 57.5 216.5t190.5 84.5q99 0 150 -63.5t51 -190.5l-1 -37h-359zM137 339h269l2 23q0 65 -36 107t-94 42
q-62 0 -101.5 -45.5t-39.5 -126.5zM182 718q54 0 54 -40q0 -60 -73 -60q-48 0 -48 39q0 61 67 61zM371 718q54 0 54 -40q0 -60 -73 -60q-48 0 -48 39q0 61 67 61z" />
    <glyph glyph-name="igrave" unicode="&#xec;" horiz-adv-x="272" 
d="M38 546l84 9h67l-4 -59l-1 -71v-306v-34q0 -16 12 -28q11 -9 40 -14l-7 -43h-195l4 42q32 3 41.5 11.5t13.5 21.5t4 39v320l-1 34q-3 24 -41 30l-20 4zM124 746l19 -28l51 -74l31 -45h-67l-73 63l-41 36l-51 48h131z" />
    <glyph glyph-name="iacute" unicode="&#xed;" horiz-adv-x="272" 
d="M38 546l84 9h67l-4 -59l-1 -71v-306v-34q0 -16 12 -28q11 -9 40 -14l-7 -43h-195l4 42q32 3 41.5 11.5t13.5 21.5t4 39v320l-1 34q-3 24 -41 30l-20 4zM117 691l38 58h129l-89 -80l-74 -68h-67l32 45z" />
    <glyph glyph-name="icircumflex" unicode="&#xee;" horiz-adv-x="272" 
d="M38 546l84 9h67l-4 -59l-1 -71v-306v-34q0 -16 12 -28q11 -9 40 -14l-7 -43h-195l4 42q32 3 41.5 11.5t13.5 21.5t4 39v320l-1 34q-3 24 -41 30l-20 4zM36 688l45 59h115l22 -27l22 -28l35 -47l36 -47h-73l-30 24l-22 21l-27 30l-22 26l-50 -54l-31 -28l-21 -19h-71z" />
    <glyph glyph-name="idieresis" unicode="&#xef;" horiz-adv-x="272" 
d="M38 546l84 9h67l-4 -59l-1 -71v-306v-34q0 -16 12 -28q11 -9 40 -14l-7 -43h-195l4 42q32 3 41.5 11.5t13.5 21.5t4 39v320l-1 34q-3 24 -41 30l-20 4zM50 718q54 0 54 -40q0 -60 -73 -60q-48 0 -48 39q0 61 67 61zM239 718q54 0 54 -40q0 -60 -73 -60q-48 0 -48 39
q0 61 67 61z" />
    <glyph glyph-name="ntilde" unicode="&#xf1;" horiz-adv-x="624" 
d="M51 40q24 0 34.5 11.5t10.5 36.5v32v307v16v11v24l-5 13q-1 4 -13 10q-9 6 -21 6h-7l5 39l69 10h66q-9 -39 -9 -81v-99l20 36q17 26 33.5 47.5t34.5 39.5q33 34 66 50q33 14 75 14q68 0 91 -26q23 -23 28.5 -46.5t5.5 -68.5v-320v-31q0 -13 8 -22q6 -9 40 -9l-7 -40h-181
l5 41q29 0 36.5 10.5t10.5 20.5l2 38v289l-1 45q0 46 -53 46q-33 0 -60 -18.5t-74 -77.5l-44 -59l-34 -59v-164v-27q0 -20 11 -32t31 -12h9l-5 -41h-185zM221 719q18 0 45 -9l87 -28l25 -4q27 0 42 39l66 -23q-33 -99 -91 -99l-18 1l-24 7l-92 32l-21 4q-17 0 -38 -40
l-65 22q9 42 34 70t50 28z" />
    <glyph glyph-name="ograve" unicode="&#xf2;" horiz-adv-x="589" 
d="M91 478q52 88 201 88q88 0 139.5 -24.5t81 -94.5t29.5 -171q0 -117 -48 -200.5t-200 -83.5q-41 0 -74 6t-61 20q-54 27 -83.5 94t-29.5 166q0 56 12 107.5t33 92.5zM139 280q0 -111 37 -164q18 -26 47 -39t71 -13q113 0 130.5 57.5t21.5 94.5l4 73q0 207 -155 207
q-80 0 -118 -51t-38 -165zM281 746l19 -28l51 -74l31 -45h-67l-73 63l-41 36l-51 48h131z" />
    <glyph glyph-name="oacute" unicode="&#xf3;" horiz-adv-x="589" 
d="M91 478q52 88 201 88q88 0 139.5 -24.5t81 -94.5t29.5 -171q0 -117 -48 -200.5t-200 -83.5q-41 0 -74 6t-61 20q-54 27 -83.5 94t-29.5 166q0 56 12 107.5t33 92.5zM139 280q0 -111 37 -164q18 -26 47 -39t71 -13q113 0 130.5 57.5t21.5 94.5l4 73q0 207 -155 207
q-80 0 -118 -51t-38 -165zM275 691l38 58h129l-89 -80l-74 -68h-67l32 45z" />
    <glyph glyph-name="ocircumflex" unicode="&#xf4;" horiz-adv-x="589" 
d="M91 478q52 88 201 88q88 0 139.5 -24.5t81 -94.5t29.5 -171q0 -117 -48 -200.5t-200 -83.5q-41 0 -74 6t-61 20q-54 27 -83.5 94t-29.5 166q0 56 12 107.5t33 92.5zM139 280q0 -111 37 -164q18 -26 47 -39t71 -13q113 0 130.5 57.5t21.5 94.5l4 73q0 207 -155 207
q-80 0 -118 -51t-38 -165zM193 688l45 59h115l22 -27l22 -28l35 -47l36 -47h-73l-30 24l-22 21l-27 30l-22 26l-50 -54l-31 -28l-21 -19h-71z" />
    <glyph glyph-name="otilde" unicode="&#xf5;" horiz-adv-x="589" 
d="M91 478q52 88 201 88q88 0 139.5 -24.5t81 -94.5t29.5 -171q0 -117 -48 -200.5t-200 -83.5q-41 0 -74 6t-61 20q-54 27 -83.5 94t-29.5 166q0 56 12 107.5t33 92.5zM139 280q0 -111 37 -164q18 -26 47 -39t71 -13q113 0 130.5 57.5t21.5 94.5l4 73q0 207 -155 207
q-80 0 -118 -51t-38 -165zM204 719q18 0 45 -9l87 -28l25 -4q27 0 42 39l66 -23q-33 -99 -91 -99l-18 1l-24 7l-92 32l-21 4q-17 0 -38 -40l-65 22q9 42 34 70t50 28z" />
    <glyph glyph-name="odieresis" unicode="&#xf6;" horiz-adv-x="589" 
d="M91 478q52 88 203 88q116 0 161.5 -39.5t66.5 -104.5q10 -32 15 -66.5t5 -78.5q0 -119 -48.5 -202t-201.5 -83q-110 0 -156 40t-68 103.5t-22 142.5q0 56 12 107.5t33 92.5zM203 699q54 0 54 -40q0 -59 -73 -59q-48 0 -48 39q0 60 67 60zM392 699q54 0 54 -40
q0 -59 -73 -59q-48 0 -48 39q0 60 67 60zM294 64q113 0 130.5 57t21.5 93l4 72q0 110 -36.5 160t-118.5 50t-113 -44t-39 -107l-4 -50v-15q0 -113 36 -164.5t119 -51.5z" />
    <glyph glyph-name="divide" unicode="&#xf7;" horiz-adv-x="594" 
d="M275 158q24 0 40 -16t16 -41q0 -24 -17 -40q-15 -17 -39 -17t-41 17q-16 19 -16 40q0 24 18 40.5t39 16.5zM506 202h-463v68h463v-68zM275 427q24 0 40 -17.5t16 -39.5q0 -24 -17 -40q-15 -17 -39 -17t-41 16q-16 18 -16 41q0 24 18 40.5t39 16.5z" />
    <glyph glyph-name="oslash" unicode="&#xf8;" horiz-adv-x="606" 
d="M509 565h51l-64 -82q26 -58 36 -98t10 -96q0 -159 -58 -228t-191 -69q-46 0 -77 8q-34 6 -74 29l-38 -51h-52l62 77q-13 11 -40.5 49.5t-27.5 172.5q0 122 35 184t86.5 83.5t127.5 21.5h29t22 -2q13 0 36.5 -5.5t38.5 -13.5l49 -31zM194 95q34 -31 102 -31q81 0 117.5 50
t36.5 169q0 56 -15 122zM416 444q-39 50 -119 50q-71 0 -104 -33q-29 -32 -40 -76q-4 -20 -7 -52.5t-3 -70.5q0 -50 3.5 -73.5t19.5 -58.5z" />
    <glyph glyph-name="ugrave" unicode="&#xf9;" horiz-adv-x="618" 
d="M42 546l77 9h68l-8 -54l-1 -47v-316q0 -34 6.5 -54.5t55.5 -20.5q22 0 36.5 4t30.5 16q27 20 71 79l19 27l24 41l23 46v165q0 32 -4 41q-6 20 -51 20h-8l6 44l84 9h66l-4 -40l-2 -98v-300l1 -35q0 -7 9.5 -22t40.5 -15l-5 -45h-122l-4 38l-4 40l-1 34l4 67
q-25 -52 -57.5 -97t-74 -70t-95.5 -25q-67 0 -92 21t-32 46q-3 13 -5 31.5t-2 45.5v309q0 38 -6.5 47t-36.5 14l-14 2zM296 746l19 -28l51 -74l31 -45h-67l-73 63l-41 36l-51 48h131z" />
    <glyph glyph-name="uacute" unicode="&#xfa;" horiz-adv-x="618" 
d="M42 546l77 9h68l-8 -54l-1 -47v-316q0 -34 6.5 -54.5t55.5 -20.5q22 0 36.5 4t30.5 16q27 20 71 79l19 27l24 41l23 46v165q0 32 -4 41q-6 20 -51 20h-8l6 44l84 9h66l-4 -40l-2 -98v-300l1 -35q0 -7 9.5 -22t40.5 -15l-5 -45h-122l-4 38l-4 40l-1 34l4 67
q-25 -52 -57.5 -97t-74 -70t-95.5 -25q-67 0 -92 21t-32 46q-3 13 -5 31.5t-2 45.5v309q0 38 -6.5 47t-36.5 14l-14 2zM290 691l38 58h129l-89 -80l-74 -68h-67l32 45z" />
    <glyph glyph-name="ucircumflex" unicode="&#xfb;" horiz-adv-x="618" 
d="M42 546l77 9h68l-8 -54l-1 -47v-316q0 -34 6.5 -54.5t55.5 -20.5q22 0 36.5 4t30.5 16q27 20 71 79l19 27l24 41l23 46v165q0 32 -4 41q-6 20 -51 20h-8l6 44l84 9h66l-4 -40l-2 -98v-300l1 -35q0 -7 9.5 -22t40.5 -15l-5 -45h-122l-4 38l-4 40l-1 34l4 67
q-25 -52 -57.5 -97t-74 -70t-95.5 -25q-67 0 -92 21t-32 46q-3 13 -5 31.5t-2 45.5v309q0 38 -6.5 47t-36.5 14l-14 2zM207 688l45 59h115l22 -27l22 -28l35 -47l36 -47h-73l-30 24l-22 21l-27 30l-22 26l-50 -54l-31 -28l-21 -19h-71z" />
    <glyph glyph-name="udieresis" unicode="&#xfc;" horiz-adv-x="618" 
d="M42 546l77 9h68l-8 -54l-1 -47v-316q0 -34 7.5 -54.5t51.5 -20.5q49 0 84 31q37 36 67 82q27 41 56 100v165q0 40 -10 51q-13 10 -45 10h-8l6 44l84 9h66l-4 -40l-2 -98v-300q0 -29 3 -42t16 -21.5t32 -8.5l-5 -45h-122l-4 38l-4 40l-1 34l4 67q-25 -52 -57.5 -97
t-74 -70t-95.5 -25q-67 0 -92 21t-32 46q-3 13 -5 31.5t-2 45.5v309q0 38 -6.5 47t-36.5 14l-14 2zM221 699q54 0 54 -40q0 -59 -74 -59q-24 0 -35.5 9t-11.5 30q0 60 67 60zM410 699q54 0 54 -40q0 -59 -74 -59q-24 0 -35.5 9t-11.5 30q0 60 67 60z" />
    <glyph glyph-name="ydieresis" unicode="&#xff;" horiz-adv-x="546" 
d="M0 555h182l-5 -41q-41 0 -41 -32q0 -14 7 -29l21 -59l33 -82l29 -74l33 -92l5 -13l11 -50l7 32l12 39l58 152l33 91l15 52l5 29l1 6q0 30 -44 30h-5l6 41h191l-6 -40q-20 -5 -27 -10.5t-18 -27.5l-13 -27l-23 -56l-118 -315q-8 -21 -19 -48q-18 -44 -40 -90
q-30 -68 -105 -215h-102l41 66l37 62l28 49l43 85l-29 78l-102 258l-36 90l-25 62l-12 26q-5 13 -36 13zM185 718q54 0 54 -40q0 -60 -73 -60q-48 0 -48 39q0 61 67 61zM374 718q54 0 54 -40q0 -60 -73 -60q-48 0 -48 39q0 61 67 61z" />
    <glyph glyph-name="c293" unicode="&#x125;" horiz-adv-x="545" 
d="M94 166q0 -23 5 -36q2 -5 7 -14.5t10 -16.5q32 -40 139 -40q164 0 164 131q0 31 -10 60q-11 26 -37 42q-21 15 -78 32l-93 27q-149 45 -149 183q0 92 57.5 145t158.5 53q41 0 115 -10l57 -6l46 -2l-2 -57l1 -34l4 -45l-54 -2q0 41 -40 63t-115 22q-65 0 -103 -32t-38 -88
q0 -24 9.5 -46.5t25.5 -33t34 -18.5l34 -13l19 -6l105 -29q139 -39 139 -187q0 -105 -61 -161t-176 -56l-45 3l-47 3l-69 7l-37 1h-32l6 44l1 39l-1 37l-6 45zM167 950l31 -25l28 -26l26 -26l21 -24l18 20l29 29l30 28l30 24h73l-74 -90l-47 -59h-121l-23 27l-21 28l-76 94
h76z" />
    <glyph glyph-name="c294" unicode="&#x126;" horiz-adv-x="471" 
d="M93 151v-5q0 -46 33.5 -71.5t95.5 -25.5q57 0 90 27t33 78q0 69 -88 94l-87 22q-64 16 -94.5 49.5t-30.5 86.5q0 27 9.5 55t38 66t147.5 38l37 -1q23 0 40 -4l59 -8l43 -2l-2 -80l1 -44h-54v5q0 32 -32.5 54t-86.5 22q-117 0 -117 -86q0 -33 9.5 -45.5t25.5 -18.5l88 -22
q74 -15 126.5 -41.5t52.5 -120.5q0 -184 -202 -184q-38 0 -77 6l-62 9l-48 6l1 66l-1 69zM130 749l31 -25l28 -26l26 -26l21 -24l18 20l29 29l30 28l30 24h73l-74 -90l-47 -59h-121l-23 27l-21 28l-76 94h76z" />
    <glyph glyph-name="c295" unicode="&#x127;" horiz-adv-x="583" 
d="M24 44l340 526l31 47l10 14l19 20h-51h-182l-43 -3q-17 -3 -25.5 -8.5t-14.5 -21t-11 -39.5h-56l12 73l9 69h477v-38l-19 -25l-13 -19l-27 -48l-278 -431l-31 -48l-14 -17l-24 -24h189h26h45q17 0 25 1.5t25 6.5q51 9 51 80v4h52l-8 -83l-4 -80h-510v44zM186 950l31 -25
l28 -26l26 -26l21 -24l18 20l29 29l30 28l30 24h73l-74 -90l-47 -59h-121l-23 27l-21 28l-76 94h76z" />
    <glyph glyph-name="c296" unicode="&#x128;" horiz-adv-x="512" 
d="M42 63l24 30l26 35l227 313l17 24l8 8l16 11h-170q-47 0 -63.5 -9.5t-25.5 -42.5h-46l13 60l8 63l119 -3l76 -2l98 2l92 3l24 -36l-20 -20l-20 -21l-43 -60l-199 -280l-30 -41q-3 -3 -12 -11.5t-17 -15.5l170 2l44 1q15 2 28 7.5t23 21t18 46.5h44l-6 -39l-6 -39l-6 -39
l-7 -39l-60 7l-77 1h-266l-22 37zM151 749l31 -25l28 -26l26 -26l21 -24l18 20l29 29l30 28l30 24h73l-74 -90l-47 -59h-121l-23 27l-21 28l-76 94h76z" />
    <glyph glyph-name="dotlessi" unicode="&#x131;" horiz-adv-x="272" 
d="M38 546l84 9h67l-4 -59l-1 -71v-306v-34q0 -16 12 -28q11 -9 40 -14l-7 -43h-195l4 42q32 3 41.5 11.5t13.5 21.5t4 39v320l-1 34q-3 24 -41 30l-20 4z" />
    <glyph glyph-name="hungarumlaut" unicode="&#x2ba;" horiz-adv-x="272" 
d="M117 691l38 58h129l-89 -80l-74 -68h-67l32 45z" />
    <glyph glyph-name="caron" unicode="&#x2c7;" horiz-adv-x="362" 
d="M76 749l31 -25l28 -26l26 -26l21 -24l18 20l29 29l30 28l30 24h73l-74 -90l-47 -59h-121l-23 27l-21 28l-76 94h76z" />
    <glyph glyph-name="macron" unicode="&#x2c9;" horiz-adv-x="318" 
d="M0 706h318v-85h-318v85z" />
    <glyph glyph-name="breve" unicode="&#x2d8;" horiz-adv-x="293" 
d="M74 747q0 -84 72 -84q35 0 56 21t21 63h71l1 -16q0 -62 -41.5 -98.5t-114.5 -36.5q-66 0 -104 33q-35 33 -35 99l1 19h73z" />
    <glyph glyph-name="dotaccent" unicode="&#x2d9;" horiz-adv-x="267" 
d="M104 912l18 -28l51 -73l32 -46h-68l-73 63l-92 84h132z" />
    <glyph glyph-name="ring" unicode="&#x2da;" horiz-adv-x="216" 
d="M108 803q45 0 76 -32q32 -30 32 -76q0 -45 -31.5 -76.5t-76.5 -31.5q-44 0 -76 32t-32 76q0 45 31.5 76.5t76.5 31.5zM51 695q0 -23 15.5 -40t41.5 -17q24 0 40.5 16.5t16.5 40.5t-17 40q-15 17 -40 17q-23 0 -40 -15.5t-17 -41.5z" />
    <glyph glyph-name="ogonek" unicode="&#x2db;" horiz-adv-x="215" 
d="M117 103q59 0 59 -45q0 -67 -82 -67q-54 0 -54 46q0 66 77 66z" />
    <glyph glyph-name="circumflex" unicode="&#x302;" horiz-adv-x="347" 
d="M72 688l45 59h115l22 -27l22 -28l35 -47l36 -47h-73l-30 24l-22 21l-27 30l-22 26l-50 -54l-31 -28l-21 -19h-71z" />
    <glyph glyph-name="tilde" unicode="&#x303;" horiz-adv-x="349" 
d="M84 719q18 0 45 -9l87 -28l25 -4q27 0 42 39l66 -23q-33 -99 -91 -99l-18 1l-24 7l-92 32l-21 4q-17 0 -38 -40l-65 22q9 42 34 70t50 28z" />
    <glyph glyph-name="summation" unicode="&#x3a3;" horiz-adv-x="771" 
d="M618 643l15 -129h-44q-32 105 -85 144t-169 39h-132l315 -431l-344 -394h187q64 0 104.5 7.5t67.5 24.5q50 30 83 116h45l-30 -130l-2 -7q-23 -99 -111 -99h-482l389 446l-375 514h460q64 0 82 -15q16 -11 26 -86z" />
    <glyph glyph-name="Omega" unicode="&#x3a9;" horiz-adv-x="830" 
d="M593 90q48 0 68 18.5t20 67.5h23v-176h-272v180q76 15 122 77t46 151q0 106 -59 168.5t-157 62.5q-97 0 -156.5 -62.5t-59.5 -168.5q0 -91 44 -150.5t124 -77.5v-180h-272v176h23q0 -48 19 -67t69 -19h123v59q-118 21 -183 89t-65 170q0 120 93 193.5t241 73.5
q149 0 241.5 -73t92.5 -194q0 -100 -63.5 -167.5t-184.5 -91.5v-59h123z" />
    <glyph glyph-name="pi" unicode="&#x3c0;" horiz-adv-x="594" 
d="M404 373l-1 -24l-3 -150v-40q0 -86 8.5 -106t30.5 -20q26 0 42 30t16 88h25v-5q0 -80 -26 -118t-80 -38q-55 0 -80 40q-11 19 -17 60t-6 104l1 78l3 104l-50 1l-77 2q0 -237 -23 -313t-80 -76q-34 0 -53 29q-17 29 -17 86v19h24q0 -26 9 -39t28 -13q42 0 54 47t18 110
t6 150h-22q-39 0 -60 -14q-21 -12 -27 -39h-23q0 34 9.5 57.5t36.5 44.5t113 21l102 -3l152 -3q34 0 48.5 6.5t17.5 21.5l23 1q0 -51 -23.5 -75.5t-74.5 -24.5h-14z" />
    <glyph glyph-name="partialdiff" unicode="&#x2202;" horiz-adv-x="534" 
d="M358 287l6 28l3 31l3 89q0 85 -15.5 126t-47.5 41q-18 0 -50 -35t-56 -35q-15 0 -26 7q-8 7 -11 25q0 27 30 50q30 21 72 21q76 0 110 -53t47 -102.5t13 -112.5q0 -163 -64 -271.5t-158 -108.5q-66 0 -109 51t-43 137q0 81 53 143t125 62q44 0 72 -21.5t46 -71.5z
M256 349q-50 0 -86 -60q-34 -62 -34 -161q0 -56 21.5 -87.5t62.5 -31.5q53 0 87 62.5t34 152.5q0 57 -22 91t-63 34z" />
    <glyph glyph-name="Delta" unicode="&#x2206;" horiz-adv-x="662" 
d="M595 0h-574l276 672h22zM92 45h373l-186 459z" />
    <glyph glyph-name="product" unicode="&#x220f;" horiz-adv-x="890" 
d="M118 -176v880h-88v40h767v-40h-88v-880h88v-40h-264v40h84v880h-407v-880h84v-40h-264v40h88z" />
    <glyph glyph-name="fraction" unicode="&#x2215;" horiz-adv-x="232" 
d="M202 829h61l-221 -928h-65z" />
    <glyph glyph-name="periodcentered" unicode="&#x2219;" horiz-adv-x="215" 
d="M117 387q60 0 60 -42q0 -38 -19 -54t-64 -16q-28 0 -41 9t-13 34q0 69 77 69z" />
    <glyph glyph-name="radical" unicode="&#x221a;" horiz-adv-x="594" 
d="M594 764h-57l-290 -784h-32l-156 431l-61 -22l-12 39l138 48l125 -346l252 681h93v-47z" />
    <glyph glyph-name="infinity" unicode="&#x221e;" horiz-adv-x="771" 
d="M366 238q-33 -61 -72 -93q-19 -16 -39.5 -23.5t-45.5 -7.5q-66 0 -111 52.5t-45 131.5q0 83 41 134.5t105 51.5q46 0 82 -29.5t66 -94.5q30 62 69 93q20 15 41.5 23t46.5 8q63 0 109 -53q23 -26 34.5 -58.5t11.5 -72.5q0 -84 -40 -135t-105 -51q-45 0 -84 30
q-36 30 -64 94zM330 327q-26 46 -59 69.5t-76 23.5q-52 0 -84.5 -35t-32.5 -90q0 -54 29 -89q31 -34 77 -34q39 0 71 31.5t75 123.5zM383 271q22 -45 57.5 -69t77.5 -24q52 0 84.5 35t32.5 90q0 54 -30.5 88.5t-79.5 34.5q-35 0 -71 -36q-32 -35 -71 -119z" />
    <glyph glyph-name="integral" unicode="&#x222b;" horiz-adv-x="296" 
d="M283 757q36 0 58.5 -18.5t22.5 -48.5q0 -20 -12.5 -34t-36.5 -14q-28 0 -43.5 31.5t-29.5 32.5q-57 0 -57 -310l-3 -98v-16v-13v-12q0 -20 -1 -40t-4 -39q0 -26 -3.5 -56.5t-11.5 -87t-29 -103.5t-60.5 -79.5t-81.5 -32.5q-35 0 -58 18.5t-23 48.5q0 21 12.5 34t36.5 13
q28 0 43 -30t31 -33q57 0 57 324l2 84q0 21 2 67.5t2 48.5q0 23 3.5 54t11 89.5t30.5 106.5q21 51 59.5 82t82.5 31z" />
    <glyph glyph-name="approxequal" unicode="&#x2248;" horiz-adv-x="594" 
d="M15 100v77q23 14 43.5 24.5t43.5 19.5q39 14 74 14q43 0 114.5 -24t99.5 -24q26 0 59.5 15t84.5 52v-78q-22 -14 -41 -24.5t-36 -17.5q-36 -13 -72 -13q-18 0 -41 5t-63 18q-72 24 -116 24q-29 0 -55 -11.5t-47 -24.5q-16 -9 -23.5 -14t-24.5 -18zM15 219v77l43 25l51 21
q31 11 66 11q42 0 115 -23.5t100 -23.5q29 0 60 14q16 7 36.5 19.5t47.5 32.5v-77l-41 -24l-49 -22q-26 -9 -59 -9q-36 0 -106 23.5t-109 23.5q-37 0 -66 -14q-28 -11 -89 -54z" />
    <glyph glyph-name="notequal" unicode="&#x2260;" horiz-adv-x="594" 
d="M413 336h91v-64h-149l-73 -72h222v-64h-281l-118 -118l-43 44l74 74h-91v64h150l73 72h-223v64h281l118 118l44 -44z" />
    <glyph glyph-name="lessequal" unicode="&#x2264;" horiz-adv-x="594" 
d="M506 18h-463v68h463v-68zM162 280l344 -107v-70l-462 145v65l462 145v-70z" />
    <glyph glyph-name="greaterequal" unicode="&#x2265;" horiz-adv-x="594" 
d="M506 18h-463v68h463v-68zM506 248l-463 -145v70l344 107l-344 108v70l463 -145v-65z" />
    <glyph glyph-name="lozenge" unicode="&#x25ca;" horiz-adv-x="534" 
d="M247 807l244 -518l-244 -522l-244 522zM247 688l-188 -399l188 -403l188 403z" />
    <glyph glyph-name="apple" unicode="&#xf000;" horiz-adv-x="854" 
d="M408 594l-1 7v11q0 60 45.5 111.5t116.5 64.5v-12l1 -18q0 -62 -50.5 -113.5t-99.5 -51.5h-4zM735 197q-28 -60 -53.5 -102.5t-47.5 -65.5q-46 -46 -99 -46q-25 0 -65.5 16t-58.5 16q-23 0 -65 -16t-61 -16q-30 0 -63 21l-31 27l-48 60q-30 43 -60 121q-14 41 -21 76.5
t-7 71.5q0 107 61.5 174.5t157.5 67.5q16 0 31.5 -3t26.5 -6.5t29 -11.5q11 -4 26.5 -8.5t22.5 -4.5q20 0 62 17t72 17q56 0 97 -20q42 -18 78 -60q-47 -30 -74 -71q-24 -39 -24 -89q0 -53 30 -97t84 -68z" />
    <glyph glyph-name="fi" unicode="&#xf001;" 
d="M236 355l-152 151l55 56l154 -152l155 154l57 -57l-155 -155l154 -152l-58 -57l-153 153l-155 -154l-57 57z" />
    <glyph glyph-name="fl" unicode="&#xf002;" horiz-adv-x="394" 
d="M119 664q8 4 20 11t26 18q19 14 44 37h43l-6 -58l-1 -73v-25v-20q-2 -14 -2 -21v-533h-85v612l-36 -25l-33 -18l-41 -19l-46 -16l-21 64l80 36q31 14 58 30z" />
    <glyph glyph-name=".null" horiz-adv-x="0" 
 />
    </font>
</defs>
</svg>
